<svg xmlns="http://www.w3.org/2000/svg"><defs> <path id="stumbleupon-path-1" d="M0,0.0749333333 L31.9250667,0.0749333333 L31.9250667,31.984 L0,31.984"/> </defs><symbol viewBox="0 0 24 24" id="icon-add"><path d="M19 13h-6v6h-2v-6H5v-2h6V5h2v6h6v2z"/></symbol><symbol viewBox="0 0 20 19" id="icon-admin-brush"> <path d="M5 12C3.34 12 2 13.34 2 15C2 16.31 0.84 17 0 17C0.92 18.22 2.49 19 4 19C6.21 19 8 17.21 8 15C8 13.34 6.66 12 5 12ZM18.71 2.63L17.37 1.29C16.98 0.899999 16.35 0.899999 15.96 1.29L7 10.25L9.75 13L18.71 4.04C19.1 3.65 19.1 3.02 18.71 2.63Z" fill="#3E67F8"/> </symbol><symbol viewBox="0 0 12 8" id="icon-admin-close"> <path d="M5.28997 0.70998L0.699971 5.29998C0.309971 5.68998 0.309971 6.31998 0.699971 6.70998C1.08997 7.09998 1.71997 7.09998 2.10997 6.70998L5.99997 2.82998L9.87997 6.70998C10.27 7.09998 10.9 7.09998 11.29 6.70998C11.68 6.31998 11.68 5.68998 11.29 5.29998L6.69997 0.70998C6.31997 0.31998 5.67997 0.31998 5.28997 0.70998Z" fill="#5E637A"/> </symbol><symbol viewBox="0 0 19 19" id="icon-admin-edit"> <path d="M0 15.46V18.5C0 18.78 0.22 19 0.5 19H3.54C3.67 19 3.8 18.95 3.89 18.85L14.81 7.94L11.06 4.19L0.15 15.1C0.0500001 15.2 0 15.32 0 15.46ZM17.71 5.04C18.1 4.65 18.1 4.02 17.71 3.63L15.37 1.29C14.98 0.899999 14.35 0.899999 13.96 1.29L12.13 3.12L15.88 6.87L17.71 5.04Z" fill="#3E67F8"/> </symbol><symbol viewBox="0 0 18 18" id="icon-admin-link"> <path d="M15 16H3C2.45 16 2 15.55 2 15V3C2 2.45 2.45 2 3 2H8C8.55 2 9 1.55 9 1C9 0.45 8.55 0 8 0H2C0.89 0 0 0.9 0 2V16C0 17.1 0.9 18 2 18H16C17.1 18 18 17.1 18 16V10C18 9.45 17.55 9 17 9C16.45 9 16 9.45 16 10V15C16 15.55 15.55 16 15 16ZM11 1C11 1.55 11.45 2 12 2H14.59L5.46 11.13C5.07 11.52 5.07 12.15 5.46 12.54C5.85 12.93 6.48 12.93 6.87 12.54L16 3.41V6C16 6.55 16.45 7 17 7C17.55 7 18 6.55 18 6V0H12C11.45 0 11 0.45 11 1Z" fill="#3E67F8"/> </symbol><symbol viewBox="0 0 20 20" id="icon-admin-tooltip"> <path d="M10 0C4.48 0 0 4.48 0 10C0 15.52 4.48 20 10 20C15.52 20 20 15.52 20 10C20 4.48 15.52 0 10 0ZM10 15C9.45 15 9 14.55 9 14V10C9 9.45 9.45 9 10 9C10.55 9 11 9.45 11 10V14C11 14.55 10.55 15 10 15ZM11 7H9V5H11V7Z" fill="#5E637A"/> </symbol><symbol viewBox="0 0 36 36" id="icon-arrow-down"> <path d="M16.5 6v18.26l-8.38-8.38-2.12 2.12 12 12 12-12-2.12-2.12-8.38 8.38v-18.26h-3z"/> </symbol><symbol viewBox="0 0 1920 130" id="icon-bg-svg-1"> <path d="M1920.34 11.4028C1916.95 8.01591 1842.78 2.25828 1820.43 0.564862C1798.07 -1.12856 1767.25 16.1443 1751.67 19.5312C1736.09 22.5793 1682.24 -4.17671 1634.83 0.564862C1609.43 2.93565 1538.64 18.5151 1538.64 18.5151C1538.64 18.5151 1524.76 12.0801 1512.9 12.0801C1501.05 12.0801 1477 32.7398 1466.5 35.1106C1456.34 37.4814 1421.8 50.6901 1409.94 52.3835C1398.09 54.0769 1375.73 66.6083 1349.99 69.9951C1324.25 73.0433 1320.87 66.9469 1308.68 69.9951C1296.82 73.0433 1273.45 58.8185 1232.47 75.414C1227.05 77.7848 1177.94 93.0256 1170.15 90.9935C1133.24 81.5104 1124.43 59.4959 1096.32 67.6243C1068.21 75.7527 1055.68 103.864 1024.18 92.6869C992.683 81.849 957.121 99.1219 941.203 90.6548C925.623 82.5264 908.689 80.1556 883.627 82.5264C858.564 84.8972 845.017 89.3001 823.002 92.3482C800.988 95.0577 785.408 93.0256 760.346 98.4446C735.283 103.864 722.752 91.6709 710.22 91.6709C697.689 91.6709 672.626 64.9148 653.66 79.8169C634.694 94.719 594.052 86.9293 581.521 84.2198C568.989 81.5104 543.927 90.6548 535.459 94.0417C511.413 81.849 491.431 58.4798 479.238 54.0769C437.918 40.1909 437.918 14.4509 380.681 14.4509C351.893 14.4509 294.655 29.6917 242.159 14.4509C195.759 1.24223 0 36.8041 0 36.8041V168H1920.34V11.4028Z" fill="white"/> </symbol><symbol viewBox="0 0 1920 130" id="icon-bg-svg-2"> <path d="M1920.34 11.4028C1916.95 8.01591 1842.78 2.25828 1820.43 0.564862C1798.07 -1.12856 1767.25 16.1443 1751.67 19.5312C1736.09 22.5793 1682.24 -4.17671 1634.83 0.564862C1609.43 2.93565 1538.64 18.5151 1538.64 18.5151C1538.64 18.5151 1524.76 12.0801 1512.9 12.0801C1501.05 12.0801 1477 32.7398 1466.5 35.1106C1456.34 37.4814 1421.8 50.6901 1409.94 52.3835C1398.09 54.0769 1375.73 66.6083 1349.99 69.9951C1324.25 73.0433 1320.87 66.9469 1308.68 69.9951C1296.82 73.0433 1273.45 58.8185 1232.47 75.414C1227.05 77.7848 1177.94 93.0256 1170.15 90.9935C1133.24 81.5104 1124.43 59.4959 1096.32 67.6243C1068.21 75.7527 1055.68 103.864 1024.18 92.6869C992.683 81.849 957.121 99.1219 941.203 90.6548C925.623 82.5264 908.689 80.1556 883.627 82.5264C858.564 84.8972 845.017 89.3001 823.002 92.3482C800.988 95.0577 785.408 93.0256 760.346 98.4446C735.283 103.864 722.752 91.6709 710.22 91.6709C697.689 91.6709 672.626 64.9148 653.66 79.8169C634.694 94.719 594.052 86.9293 581.521 84.2198C568.989 81.5104 543.927 90.6548 535.459 94.0417C511.413 81.849 491.431 58.4798 479.238 54.0769C437.918 40.1909 437.918 14.4509 380.681 14.4509C351.893 14.4509 294.655 29.6917 242.159 14.4509C195.759 1.24223 0 36.8041 0 36.8041V168H1920.34V11.4028Z" fill="white"/> </symbol><symbol viewBox="0 0 1920 874" id="icon-bg-svg-3"> <path d="M0 9.48315C3.72546 11.8539 42.3357 3.04816 60.2859 4.74158C78.2361 6.435 80.2682 0 85.0098 0C89.7513 0 107.702 14.2247 124.974 14.9021C141.909 15.5795 141.909 9.48315 151.392 6.09631C160.875 3.04816 165.616 10.8379 177.809 17.9503C190.002 25.0626 208.968 20.9984 229.967 30.4816C250.965 39.9647 255.707 64.35 270.609 65.7047C285.849 67.3981 295.333 65.0273 299.058 65.7047C302.784 66.3821 314.299 72.8171 332.249 75.5265C335.636 76.2039 339.023 77.22 342.41 79.2521C357.312 77.5586 370.52 75.8652 380.004 75.8652C437.241 75.8652 437.241 101.605 478.561 115.491C490.753 119.555 510.736 112.443 534.782 124.974C543.249 121.588 568.312 112.443 580.843 115.153C593.375 117.862 634.355 156.133 652.983 141.231C671.949 126.329 697.012 153.085 709.543 153.085C722.074 153.085 734.606 165.278 759.668 159.859C784.731 154.44 800.311 156.472 822.325 153.763C844.339 151.053 857.548 146.65 882.949 143.941C908.012 141.57 924.607 143.941 940.526 152.069C956.105 160.198 992.006 142.925 1023.5 154.101C1055 164.939 1067.19 137.167 1095.64 129.039C1123.75 120.91 1132.9 109.056 1169.48 118.539C1177.27 120.572 1226.38 105.331 1231.79 102.96C1273.11 86.3644 1296.14 100.589 1308 97.541C1319.85 94.4929 1323.58 100.589 1349.32 97.541C1375.06 94.4929 1397.41 98.5571 1409.26 96.8636C1421.12 95.1702 1455.66 115.83 1465.82 113.459C1475.99 111.088 1500.03 90.09 1512.22 90.4286C1524.08 90.4286 1537.96 96.8636 1537.96 96.8636C1537.96 96.8636 1608.75 81.2842 1634.15 78.9134C1681.57 74.5105 1711.37 84.3323 1726.95 80.9455C1742.53 77.8973 1797.4 60.2858 1819.75 61.9792C1842.44 64.0113 1916.61 69.7689 1920 73.1558V874H0V323.105V9.48315Z" fill="#1D2B39"/> </symbol><symbol viewBox="0 0 1920 1060" id="icon-bg-svg-4"> <path d="M1920 8.57294C1916.27 10.7162 1877.66 2.75559 1859.71 4.28647C1841.76 5.81735 1839.73 0 1834.99 0C1830.25 0 1812.3 12.8594 1795.03 13.4718C1778.09 14.0841 1778.09 8.57294 1768.61 5.51118C1759.12 2.75559 1754.38 9.79765 1742.19 16.2274C1730 22.6571 1711.03 18.9829 1690.03 27.5559C1669.04 36.1288 1664.29 58.1735 1649.39 59.3982C1634.15 60.9291 1624.67 58.7859 1620.94 59.3982C1617.22 60.0106 1605.7 65.8279 1587.75 68.2773C1584.36 68.8897 1580.98 69.8082 1577.59 71.6453C1562.69 70.1144 1549.48 68.5835 1540 68.5835C1482.76 68.5835 1482.76 91.8529 1441.44 104.406C1429.25 108.08 1409.26 101.651 1385.22 112.979C1376.75 109.917 1351.69 101.651 1339.16 104.1C1326.63 106.549 1285.64 141.147 1267.02 127.676C1248.05 114.204 1222.99 138.392 1210.46 138.392C1197.93 138.392 1185.39 149.414 1160.33 144.515C1135.27 139.616 1119.69 141.454 1097.68 139.004C1075.66 136.555 1062.45 132.574 1037.05 130.125C1011.99 127.982 995.393 130.125 979.474 137.473C963.895 144.821 927.994 129.206 896.497 139.31C864.999 149.108 852.806 124.001 824.357 116.653C796.246 109.305 787.102 98.5888 750.524 107.162C742.734 108.999 693.625 95.2209 688.206 93.0776C646.887 78.075 623.856 90.9344 612.002 88.1788C600.148 85.4232 596.423 90.9344 570.683 88.1788C544.943 85.4232 522.589 89.0973 510.736 87.5665C498.882 86.0356 464.336 104.712 454.175 102.569C444.015 100.426 419.968 81.4429 407.776 81.7491C395.922 81.7491 382.036 87.5665 382.036 87.5665C382.036 87.5665 311.251 73.4823 285.849 71.3391C238.434 67.3588 208.629 76.2379 193.05 73.1762C177.47 70.4206 122.604 54.4994 100.25 56.0303C77.5586 57.8673 3.38684 63.0723 0 66.1341V1060H1920V292.092V8.57294Z" fill="#F2F2F2"/> </symbol><symbol viewBox="0 0 1920 925" id="icon-bg-svg-5"> <path d="M-39.2944 26.8125C-39.2944 27.1653 -38.9416 27.5181 -38.9416 27.5181C-36.472 32.1044 -34.0025 37.0436 -37.8832 37.7492C-38.236 37.7492 -39.6472 37.7492 -40 38.102V924.5H1960V133.004C1959.65 133.004 1958.24 133.004 1957.88 133.004C1954 132.651 1956.82 128.77 1958.94 125.243C1958.94 124.89 1959.29 124.89 1959.29 124.537C1960.35 122.773 1960 122.067 1958.94 121.715C1957.88 121.009 1955.77 121.009 1955.06 119.598C1953.65 117.128 1951.53 116.07 1954 113.247C1956.82 110.778 1952.59 110.778 1950.47 109.014C1948.36 107.25 1948.36 104.075 1948.36 104.075C1938.83 104.428 1940.6 110.425 1938.13 115.364C1935.66 120.303 1940.95 119.598 1938.48 123.126C1936.01 126.654 1926.84 122.773 1929.31 127.712C1932.13 133.004 1937.07 130.182 1932.13 135.826C1927.19 141.471 1906.37 136.885 1908.14 139.354C1909.55 141.824 1922.6 141.118 1924.37 144.646C1925.78 148.174 1924.72 150.291 1919.78 154.525C1914.49 158.405 1910.26 155.583 1908.84 159.111C1907.43 162.639 1912.73 165.814 1909.9 165.814C1907.08 165.814 1902.85 164.403 1903.2 167.931C1903.55 171.459 1907.79 172.517 1908.84 176.751C1909.55 181.337 1904.96 177.104 1898.97 180.279C1892.97 183.807 1913.43 188.04 1908.84 191.568C1904.26 195.096 1890.85 186.276 1891.2 191.215C1891.56 195.802 1903.55 201.094 1895.44 201.094C1887.68 201.094 1886.27 201.094 1891.2 206.386C1894.73 210.266 1900.73 212.383 1903.2 214.5C1901.44 216.264 1899.67 217.675 1897.91 219.439C1892.97 220.145 1887.32 220.85 1887.68 223.32C1887.68 224.025 1888.38 224.731 1888.74 225.437C1883.44 228.259 1877.8 230.376 1873.21 230.376C1862.98 230.376 1863.33 234.256 1874.98 220.145C1886.27 205.68 1893.32 177.809 1889.09 182.395C1884.85 186.982 1877.8 187.687 1873.21 187.687C1868.98 187.687 1855.57 184.512 1862.63 175.692C1869.68 166.52 1876.74 137.943 1871.45 140.413C1866.16 142.53 1865.45 148.527 1853.1 146.41C1840.75 144.294 1853.81 129.123 1857.34 119.245C1860.86 109.367 1858.04 106.544 1850.28 115.364C1842.52 124.537 1838.99 115.364 1836.17 108.661C1833.7 101.958 1838.99 92.0797 1836.17 80.7903C1833.7 69.5008 1830.17 64.9144 1830.17 64.9144C1821.35 64.2089 1819.59 70.2064 1819.23 80.0847C1818.88 89.963 1809.71 113.247 1806.18 107.25C1802.65 101.252 1799.12 93.8437 1797.36 107.956C1795.6 122.42 1808.65 131.24 1800.89 127.712C1793.13 123.831 1795.6 114.306 1788.54 123.126C1781.49 132.298 1789.25 133.71 1797.36 142.882C1805.12 152.055 1798.07 158.758 1793.13 158.053C1787.84 157.347 1780.07 152.055 1773.02 144.646C1765.96 137.238 1765.26 139.354 1765.26 149.233C1765.26 159.111 1782.9 165.814 1789.95 174.987C1797.01 184.159 1780.43 185.571 1775.13 183.454C1769.84 181.337 1767.37 187.335 1771.61 197.918C1775.84 208.502 1765.61 210.619 1758.55 210.619C1751.5 210.619 1752.56 193.332 1745.5 202.505C1738.44 211.678 1741.27 227.553 1750.79 244.135C1760.32 260.716 1765.26 265.655 1758.91 267.066C1755.73 267.772 1751.85 266.714 1747.26 263.891C1749.03 260.363 1750.44 256.483 1745.85 258.599C1744.44 259.305 1743.03 259.658 1741.62 260.011C1738.8 257.894 1735.62 255.071 1732.09 251.896C1732.45 251.543 1732.8 251.191 1733.15 250.838C1737.39 247.31 1740.21 238.843 1734.56 240.607C1731.04 241.665 1728.57 245.193 1726.1 246.957C1723.63 245.546 1721.86 245.193 1720.8 245.899C1720.45 243.429 1723.27 239.196 1724.69 236.02C1726.8 231.787 1731.39 227.201 1726.45 228.259C1721.51 229.67 1722.22 226.142 1718.69 225.789C1718.69 225.789 1719.04 209.914 1716.22 208.502C1713.4 207.091 1715.51 221.909 1714.1 224.731C1712.69 227.553 1706.34 224.378 1703.87 224.378C1701.4 224.378 1711.98 232.845 1711.28 234.962C1710.57 237.079 1696.81 237.079 1695.05 232.845C1693.64 228.612 1691.87 236.373 1697.17 240.96C1702.46 245.546 1706.34 257.894 1703.87 258.599C1701.75 258.952 1685.88 250.838 1683.06 245.899C1680.23 240.96 1685.88 266.714 1693.99 270.242C1702.11 273.77 1693.99 273.77 1685.52 276.945C1677.06 279.767 1679.17 284.353 1684.47 286.823C1686.94 287.881 1690.82 289.998 1693.99 292.468C1693.64 292.468 1693.64 292.468 1693.29 292.468C1689.05 292.821 1688.7 294.585 1690.11 298.113C1682.7 296.701 1673.18 293.526 1670 291.409C1666.83 289.293 1667.88 291.409 1669.3 294.585C1666.12 294.232 1662.24 293.879 1663.65 292.468C1665.42 289.998 1668.94 287.176 1665.77 286.117C1662.59 285.412 1655.18 286.117 1654.48 282.59C1653.77 279.062 1657.3 278.709 1663.3 277.65C1669.3 276.592 1674.59 270.594 1674.24 268.478C1674.24 266.361 1668.94 267.772 1663.3 268.83C1657.65 270.242 1647.42 269.536 1643.19 267.419C1638.96 264.95 1645.31 263.891 1651.66 263.891C1658.01 263.539 1658.01 259.305 1662.24 256.483C1666.47 254.013 1679.53 248.368 1671.77 248.721C1664.36 249.074 1657.3 245.546 1654.48 245.899C1651.66 246.252 1652.01 240.96 1653.42 239.196C1654.48 237.432 1659.07 234.962 1655.54 233.198C1652.01 231.434 1643.19 234.609 1644.6 229.67C1646.01 224.731 1654.83 218.733 1649.54 218.733C1642.84 218.733 1631.55 214.853 1630.84 212.03C1630.14 209.208 1637.19 208.502 1638.25 205.68C1639.31 203.21 1632.96 202.152 1630.14 201.446C1626.96 201.094 1629.43 196.86 1631.19 193.332C1632.96 189.804 1629.08 190.863 1628.02 188.393C1626.96 185.923 1625.2 184.865 1627.31 182.043C1629.43 179.573 1626.61 179.22 1624.49 177.809C1613.2 170.048 1618.49 168.636 1618.14 165.108C1617.79 161.581 1610.38 148.88 1603.32 167.931C1600.85 174.987 1595.56 170.048 1591.68 181.337C1590.62 185.218 1584.62 184.865 1586.74 190.157C1588.86 195.449 1589.21 192.627 1585.33 198.271C1581.45 203.916 1569.45 199.33 1570.51 201.799C1571.57 204.269 1577.92 206.738 1579.33 209.914C1580.39 213.442 1579.69 215.558 1575.81 219.439C1571.92 223.32 1568.4 220.497 1567.34 223.673C1566.28 227.201 1570.51 230.376 1568.4 230.376C1566.28 230.376 1563.1 228.965 1563.1 232.492C1563.46 236.02 1566.63 236.726 1567.34 241.312C1568.04 245.546 1557.11 247.663 1552.52 251.191C1547.93 254.719 1563.81 258.599 1559.93 262.48C1556.4 266.008 1546.17 257.188 1546.17 262.127C1546.52 266.714 1555.7 271.653 1549.35 271.653C1543.35 271.653 1542.29 271.653 1546.17 276.945C1549.7 282.237 1553.93 284.353 1552.17 287.529C1550.4 290.704 1535.94 289.645 1536.29 293.526C1536.29 295.29 1538.41 296.349 1540.53 297.407C1540.53 298.113 1540.53 298.818 1540.53 299.876C1540.53 301.993 1542.29 303.757 1544.41 305.521C1540.88 306.227 1535.59 306.227 1531.35 308.696C1524.3 312.577 1523.94 313.988 1527.47 315.4C1531 316.811 1534.88 315.4 1541.94 315.752C1547.93 316.105 1549.35 317.163 1547.93 321.044C1544.41 319.986 1542.64 322.455 1544.05 327.395C1541.23 329.159 1537.7 327.395 1532.76 327.395C1527.82 327.395 1527.82 329.864 1528.88 332.334C1527.82 330.923 1526.77 330.57 1524.3 332.687C1520.06 336.92 1520.42 343.27 1523.59 350.679C1521.83 351.032 1520.06 351.385 1517.95 351.737C1508.77 353.149 1506.3 348.21 1503.13 352.09C1499.95 355.971 1506.3 357.735 1511.95 360.91C1516.54 363.733 1524.65 360.205 1529.59 360.205C1530.29 361.263 1531 362.321 1531.71 363.027C1529.59 364.791 1525 366.555 1522.18 368.319C1521.83 368.319 1521.47 368.672 1521.47 368.672C1518.65 366.908 1515.48 364.791 1511.95 362.321C1500.66 354.207 1502.07 365.497 1507.01 373.611C1509.48 377.844 1512.3 381.02 1514.07 384.548C1511.95 384.9 1511.24 385.606 1509.48 388.075C1507.01 391.603 1509.48 393.015 1514.77 396.895C1515.12 397.248 1515.48 397.601 1515.83 397.954C1514.42 402.187 1510.19 399.365 1502.42 399.012C1499.25 399.012 1496.78 397.601 1494.66 395.837C1495.72 395.837 1496.43 395.837 1497.13 395.484C1499.95 394.426 1499.6 393.72 1493.96 391.603C1492.55 390.898 1490.78 390.545 1489.37 390.545C1489.72 388.075 1487.96 383.489 1486.9 381.372C1485.49 379.256 1485.49 377.139 1482.31 375.375C1483.37 374.669 1484.43 373.964 1485.49 372.905C1488.31 369.73 1487.61 369.73 1483.02 369.73C1478.43 369.73 1485.49 366.908 1485.49 364.085C1485.84 361.263 1477.73 366.555 1475.26 364.438C1472.44 362.321 1484.43 359.852 1480.9 357.735C1477.38 355.618 1474.55 358.088 1475.26 355.618C1475.61 353.149 1478.08 352.443 1478.43 350.326C1478.79 348.21 1475.96 349.268 1474.55 349.268C1472.79 349.268 1476.32 347.151 1475.26 345.387C1474.2 343.27 1471.73 345.034 1468.91 342.918C1468.56 342.565 1468.56 342.565 1468.2 342.212C1469.61 341.859 1471.02 342.212 1472.44 342.918C1475.96 345.034 1481.61 345.74 1487.25 345.034C1493.25 344.682 1491.84 341.154 1487.25 340.095C1482.67 339.037 1481.96 332.334 1479.49 329.159C1477.02 325.983 1475.61 324.219 1471.73 322.808C1469.61 322.103 1463.62 321.397 1458.32 320.339C1458.32 319.986 1458.32 319.986 1457.97 319.633C1457.27 318.222 1457.27 316.811 1456.56 315.4C1459.38 315.4 1462.91 315.752 1465.73 315.4C1472.08 313.988 1476.67 309.402 1475.26 307.991C1473.85 306.58 1465.38 307.285 1467.14 304.816C1468.91 302.699 1472.08 299.524 1469.26 298.818C1466.44 298.113 1459.03 298.818 1458.32 295.29C1457.62 291.762 1461.15 291.409 1466.79 290.351C1472.79 289.293 1477.73 283.648 1477.73 281.531C1477.73 279.414 1472.44 280.826 1466.79 281.884C1461.15 283.295 1451.62 282.589 1447.39 280.473C1443.15 278.356 1449.5 277.298 1455.5 276.945C1461.5 276.592 1461.5 272.358 1465.73 269.889C1469.97 267.419 1482.31 262.127 1475.26 262.48C1467.85 262.833 1461.15 259.305 1458.68 259.658C1456.21 260.011 1456.21 254.719 1457.62 252.955C1458.68 251.191 1463.26 249.074 1459.74 247.31C1456.21 245.546 1447.74 248.721 1449.15 244.135C1450.56 239.196 1457.97 230.729 1454.09 233.551C1450.21 236.373 1447.03 232.845 1446.68 230.023C1446.33 227.201 1452.68 226.495 1454.09 224.025C1455.15 221.556 1449.15 220.497 1446.33 220.145C1443.51 219.792 1445.62 215.558 1447.39 212.03C1449.15 208.502 1445.27 209.561 1444.21 207.091C1443.15 204.974 1441.39 203.563 1443.51 201.094C1445.62 198.624 1442.45 198.977 1441.04 197.213C1439.63 195.449 1439.63 192.274 1439.63 192.274C1432.57 192.627 1433.63 198.271 1431.86 203.21C1430.1 208.15 1433.98 207.091 1432.22 210.619C1430.45 214.147 1423.4 210.266 1425.51 215.205C1427.63 220.145 1431.51 217.322 1427.63 222.967C1423.75 228.612 1408.58 224.025 1409.64 226.142C1410.7 228.259 1420.57 227.906 1421.63 231.081C1422.69 234.256 1421.99 236.726 1418.11 240.254C1414.22 244.135 1411.05 241.312 1409.99 244.488C1408.93 247.663 1412.81 251.191 1410.7 251.191C1408.58 251.191 1405.4 249.78 1405.76 253.307C1406.11 256.483 1409.29 257.541 1409.99 261.775C1410.7 266.008 1407.17 262.127 1402.58 265.302C1398.35 268.478 1413.52 272.711 1409.99 276.239C1406.46 279.767 1396.58 271.3 1396.94 275.886C1397.29 280.473 1406.11 285.059 1400.11 285.059C1394.12 285.059 1393.41 285.059 1396.94 289.998C1400.47 294.937 1408.23 297.407 1406.46 300.229C1404.7 303.404 1394.12 302.346 1394.47 305.874C1394.82 309.755 1400.11 310.813 1401.52 315.047C1402.94 319.28 1392.7 317.164 1386 320.691C1385.3 321.044 1384.94 321.397 1384.59 321.397C1384.24 321.044 1383.18 320.691 1382.47 320.339C1374.71 316.105 1378.24 315.4 1378.24 313.636C1377.89 311.519 1372.59 304.816 1368.01 315.047C1366.24 318.928 1362.36 316.105 1359.89 322.455C1359.19 324.572 1354.95 324.572 1356.37 327.395C1357.78 330.217 1358.13 328.806 1355.31 331.628C1353.19 334.098 1346.84 333.039 1345.43 333.039C1345.78 330.217 1342.25 330.217 1341.55 327.747C1339.08 319.633 1335.2 323.161 1333.43 318.222C1328.5 304.816 1323.2 324.219 1322.85 326.689C1322.5 329.159 1326.38 329.864 1318.26 335.509C1316.85 336.567 1314.74 336.567 1316.5 338.331C1317.91 340.095 1316.85 341.154 1316.15 342.918C1315.44 344.682 1312.62 343.976 1313.68 346.446C1315.09 348.915 1316.85 352.09 1314.38 352.443C1312.27 352.796 1307.68 353.501 1308.74 355.265C1309.44 357.029 1314.38 357.735 1314.03 359.852C1313.68 361.969 1305.56 364.791 1300.98 364.791C1297.1 364.791 1303.45 369.025 1304.51 372.552C1305.56 376.08 1299.21 373.611 1296.74 375.022C1296.39 375.022 1296.39 375.375 1296.04 375.375C1294.63 375.022 1293.22 374.669 1292.16 373.964C1292.16 373.611 1291.45 373.258 1290.75 373.258C1290.39 372.905 1290.04 372.552 1290.04 372.552C1289.69 370.788 1294.98 370.436 1296.04 368.672C1297.1 367.26 1292.16 366.555 1289.69 366.202C1287.22 365.849 1289.33 363.38 1290.75 361.263C1292.16 359.146 1288.98 359.852 1288.28 358.088C1287.57 356.677 1286.16 355.971 1287.57 354.207C1289.33 352.796 1286.87 352.443 1285.45 351.737C1276.63 346.798 1280.87 346.093 1280.52 343.976C1280.16 341.859 1274.16 334.098 1268.87 345.74C1268.17 347.504 1266.76 347.857 1265.7 348.562C1265.7 347.504 1264.99 347.151 1263.23 348.21C1258.29 350.679 1251.23 352.796 1248.76 351.032C1246.29 349.621 1249.47 344.682 1253 341.154C1256.52 337.626 1258.64 329.511 1254.06 331.275C1249.47 333.039 1247.35 339.742 1244.18 337.978C1241 336.567 1244.53 330.923 1246.29 326.689C1248.06 322.455 1251.94 318.222 1247.7 319.28C1243.82 320.339 1244.18 317.516 1241.35 317.164C1241.35 317.164 1241.71 301.993 1239.24 300.582C1236.77 299.171 1238.53 313.636 1237.47 316.105C1236.42 318.575 1231.48 315.752 1229.36 315.752C1227.24 315.752 1235.71 323.867 1235.36 325.983C1235 328.1 1223.36 327.747 1222.3 323.867C1221.25 319.986 1219.83 327.042 1224.07 331.628C1228.3 336.214 1231.48 347.857 1229.71 348.562C1227.95 348.915 1214.9 341.154 1212.78 336.214C1210.31 331.628 1215.25 355.971 1221.6 359.499C1227.95 363.027 1221.6 363.027 1214.9 365.849C1208.19 368.672 1209.6 372.905 1214.19 375.375C1218.42 377.844 1227.6 384.547 1226.18 386.664C1224.77 388.781 1206.78 386.664 1202.55 383.136C1198.31 379.608 1202.9 384.195 1205.02 388.781C1207.13 393.367 1215.6 400.071 1216.66 405.715C1217.72 411.713 1207.13 409.949 1204.31 411.713C1201.84 413.477 1204.31 415.946 1207.49 417.71C1210.66 419.474 1215.95 427.236 1212.07 429C1206.43 427.236 1199.37 428.294 1200.43 425.825C1201.49 423.002 1206.08 422.297 1206.43 419.827C1206.78 417.358 1197.96 418.063 1196.2 415.946C1194.79 413.83 1201.14 412.418 1203.96 409.243C1206.78 406.068 1206.07 406.068 1201.14 406.068C1196.2 406.068 1203.61 402.893 1203.96 400.071C1204.31 397.248 1195.84 402.54 1193.02 400.423C1190.2 397.954 1202.9 399.012 1199.02 396.895C1195.49 394.779 1192.32 397.248 1193.02 394.426C1193.37 391.603 1196.2 390.898 1196.55 388.781C1196.9 386.664 1194.08 387.37 1192.32 387.37C1190.55 387.37 1194.08 385.253 1193.02 383.136C1191.96 381.02 1189.49 382.784 1185.97 380.314C1182.79 377.844 1182.09 376.433 1183.14 374.316C1184.2 372.2 1192.32 372.552 1193.37 371.141C1194.43 369.73 1181.73 372.552 1178.2 369.025C1175.03 365.497 1178.2 367.261 1179.97 364.085C1181.73 360.91 1175.73 363.38 1174.32 361.263C1172.91 358.793 1176.09 359.499 1174.68 356.324C1173.27 353.149 1174.32 349.621 1168.33 349.268C1168.33 349.268 1168.33 351.385 1167.27 352.443C1166.21 353.501 1163.39 353.501 1165.15 354.913C1166.91 356.677 1165.5 357.382 1164.45 358.793C1163.39 360.205 1160.21 359.499 1161.98 361.969C1163.39 364.438 1165.5 366.908 1163.03 367.26C1160.56 367.613 1155.27 368.319 1156.33 369.73C1157.39 371.494 1162.68 371.847 1162.33 373.611C1162.33 373.964 1161.98 374.316 1161.98 374.316C1155.98 374.669 1150.69 372.905 1148.57 373.258C1146.45 373.611 1146.1 369.73 1147.16 368.319C1147.86 366.908 1151.74 364.791 1148.57 363.733C1145.39 362.674 1138.34 365.497 1139.4 361.969C1140.45 358.088 1145.75 351.385 1142.57 353.501C1139.4 355.971 1136.57 353.501 1135.87 351.385C1135.16 349.268 1140.81 348.21 1141.51 346.446C1142.22 344.329 1136.93 343.976 1134.46 343.976C1131.99 343.623 1133.75 340.448 1134.81 337.626C1136.22 334.803 1133.05 335.862 1131.64 334.098C1130.58 332.334 1129.17 331.628 1130.58 329.511C1131.99 327.395 1129.52 327.747 1128.11 326.689C1126.7 325.278 1126.34 323.161 1126.34 323.161C1120.35 323.867 1121.76 338.684 1120.7 342.565C1119.64 346.446 1122.82 345.387 1121.4 348.21C1119.99 351.032 1114 348.21 1116.11 352.09C1118.23 355.618 1121.4 353.501 1118.58 357.735C1115.76 362.321 1102.35 359.499 1103.76 361.263C1104.82 363.027 1113.29 361.969 1114.35 364.438C1115.41 366.908 1115.05 368.672 1111.88 371.847C1109.06 375.022 1105.88 372.905 1105.18 375.728C1104.47 378.197 1108 380.667 1106.23 380.667C1104.47 380.667 1101.65 379.961 1102 382.431C1102.35 384.9 1105.18 385.606 1106.23 388.781C1106.94 391.956 1103.76 389.134 1100.24 391.956C1096.71 394.779 1110.11 396.895 1107.29 399.718C1104.47 402.54 1095.3 393.015 1096 396.543C1096.71 400.071 1104.12 402.893 1099.53 403.246C1099.53 402.54 1098.83 402.187 1097.06 402.893C1092.12 405.01 1085.07 406.421 1082.95 405.362C1080.48 403.951 1083.65 400.071 1087.18 397.248C1090.71 394.426 1092.83 391.603 1088.24 393.015C1083.65 394.426 1081.54 399.718 1078.72 398.307C1075.54 396.895 1079.07 392.662 1080.48 389.134C1082.24 385.606 1085.77 382.431 1081.89 383.136C1078.01 384.195 1078.36 381.725 1075.54 381.372C1075.54 381.372 1075.89 369.377 1073.42 367.966C1070.95 366.908 1072.72 378.197 1071.66 380.314C1070.6 382.431 1065.66 379.961 1063.55 379.961C1061.43 379.961 1069.9 386.311 1069.54 388.075C1069.19 389.839 1057.9 385.959 1056.84 382.784C1055.78 379.608 1054.37 385.253 1058.61 388.781C1062.84 392.309 1065.66 401.835 1063.9 402.187C1063.19 402.187 1061.78 401.835 1059.66 400.776C1059.66 400.071 1059.31 400.071 1058.61 400.071C1054.73 398.307 1049.43 395.131 1047.67 392.662C1048.73 390.898 1049.79 388.781 1050.49 387.37C1052.61 381.372 1051.2 379.608 1046.26 385.253C1041.32 390.545 1039.2 385.253 1037.79 381.02C1036.03 376.786 1039.56 371.141 1037.79 364.085C1036.03 357.382 1033.91 354.56 1033.91 354.56C1028.62 354.207 1027.56 357.735 1027.56 363.733C1027.56 369.73 1021.92 383.842 1019.8 379.961C1017.68 376.433 1015.57 371.847 1014.51 380.314C1013.45 388.781 1021.56 394.426 1016.62 391.956C1011.68 389.839 1013.45 383.842 1009.21 389.134C1004.98 394.426 1009.92 395.484 1014.51 400.776C1019.45 406.068 1015.21 410.302 1011.68 409.949C1009.57 409.596 1007.1 408.185 1004.28 406.421C1006.04 405.01 1013.1 405.01 1013.8 403.951C1014.86 402.54 1004.28 405.01 999.69 402.54C999.337 402.187 999.337 402.187 998.984 401.835C998.278 401.129 997.925 400.776 997.22 400.423C996.514 399.012 998.631 399.718 1000.04 397.248C1001.81 394.073 995.809 396.543 994.398 394.426C992.986 392.309 996.161 392.662 994.75 389.839C993.339 387.017 994.398 383.489 988.4 383.136C988.4 383.136 988.4 384.9 987.342 385.959C986.283 387.017 983.461 387.017 985.225 388.428C986.989 389.839 985.578 390.545 984.519 391.956C983.461 393.367 980.286 392.662 982.05 394.779C983.461 396.895 985.578 399.365 983.108 399.718C980.639 400.071 975.347 400.776 976.405 402.187C977.463 403.599 982.755 404.304 982.402 405.715C982.05 407.479 979.58 409.596 976.052 407.832C972.877 406.421 977.816 410.654 979.58 413.477C977.463 412.771 975.699 412.418 974.641 412.418C972.524 412.771 972.524 408.538 973.583 407.126C974.641 405.715 978.522 403.951 975.346 402.54C972.171 401.129 965.115 403.598 966.174 400.071C967.585 396.19 973.583 389.487 970.407 391.603C966.879 393.72 964.41 390.898 964.057 388.781C963.704 386.664 969.349 385.959 970.407 383.842C971.466 381.725 966.174 381.02 963.704 380.667C961.235 380.314 963.351 377.139 964.763 374.316C966.174 371.494 962.999 372.2 961.94 370.436C960.882 368.672 959.471 367.613 961.235 365.497C962.999 363.38 960.176 363.733 959.118 362.321C957.707 360.91 957.707 358.441 957.707 358.441C951.709 358.793 952.768 363.38 951.004 366.908C949.592 370.788 952.768 370.083 951.356 372.905C949.945 375.728 943.948 372.552 945.712 376.433C947.476 380.314 950.651 378.197 947.476 382.784C944.3 387.017 931.247 383.489 932.305 385.253C933.364 387.017 941.478 386.664 942.537 389.134C943.595 391.603 942.889 393.367 939.361 396.543C936.892 398.659 935.128 398.307 933.717 398.659C933.717 398.307 933.717 398.307 933.717 397.954C932.658 391.251 930.541 394.779 928.425 397.601C926.308 400.423 921.016 389.487 920.663 385.253C920.663 380.667 919.605 377.844 914.313 378.197C914.313 378.197 912.196 380.314 910.785 385.606C909.374 390.898 912.196 395.131 910.785 398.307C909.374 401.482 907.257 405.715 902.318 401.482C898.437 397.954 896.673 398.307 897.379 401.482C897.026 401.129 896.32 400.776 895.967 400.776C889.264 397.954 882.914 397.954 889.264 394.073C895.615 390.545 900.554 364.791 898.084 369.73C895.615 374.669 882.914 382.784 881.15 382.431C879.386 382.078 882.208 369.377 886.795 364.791C891.028 360.205 889.617 352.443 888.559 356.677C887.5 360.91 875.858 361.263 875.505 358.793C875.153 356.677 883.62 348.21 881.503 348.21C879.386 348.21 874.447 351.032 873.389 348.562C872.33 345.74 874.094 330.923 871.625 332.334C869.155 333.745 869.508 349.621 869.508 349.621C866.685 349.974 867.038 353.149 863.157 352.09C859.277 350.679 862.805 355.265 864.569 359.852C866.333 364.085 869.508 370.083 866.685 371.847C863.51 373.611 861.393 366.555 856.807 364.791C852.221 363.027 854.338 371.494 857.866 375.022C861.393 378.55 864.569 383.842 862.099 385.606C859.63 387.37 852.574 385.253 847.634 382.431C842.695 379.608 846.223 388.076 847.634 390.898C849.046 393.72 861.393 402.187 857.513 403.246C856.102 403.598 853.279 403.951 850.457 403.951C850.457 403.599 850.104 403.598 850.104 403.246C846.576 401.129 843.401 403.246 844.107 400.776C844.812 398.307 847.634 397.954 847.987 395.837C848.34 394.073 845.518 394.426 844.107 394.426C842.343 394.426 846.223 392.662 845.165 390.545C844.459 388.428 841.637 390.192 838.462 387.723C835.639 385.253 834.934 383.842 836.345 382.078C837.403 380.314 845.518 381.02 846.576 379.608C847.634 378.197 834.581 380.314 831.759 376.786C828.936 373.258 832.111 375.022 833.875 372.2C835.992 369.377 829.642 371.494 828.583 369.377C827.525 367.26 830.347 367.966 829.289 365.144C828.231 362.321 829.642 359.146 823.644 358.441C823.644 358.441 823.292 360.205 822.233 361.263C820.822 362.321 818.352 361.969 819.764 363.38C821.175 364.791 819.764 365.497 818.705 366.908C817.647 368.319 814.472 367.26 815.883 369.377C816.941 371.494 818.705 373.964 816.236 373.964C813.766 373.964 808.474 374.316 809.18 376.08C809.885 377.492 815.53 378.197 814.824 379.961C814.119 381.372 811.649 383.489 808.474 381.725C805.299 379.961 810.944 385.253 811.649 388.075C812.355 390.898 805.652 388.781 802.477 389.487C799.301 390.192 802.829 391.956 803.888 393.015C804.593 393.72 804.593 395.484 803.888 396.19C802.829 396.19 801.771 396.543 800.713 396.895C797.89 397.248 793.304 387.37 788.365 387.017C787.659 387.017 787.306 387.017 786.954 387.017C784.837 386.664 782.72 386.312 781.662 385.606C778.134 383.842 783.426 382.784 788.718 382.431C794.009 382.078 794.009 389.134 797.537 387.017C801.065 384.9 812.002 380.314 805.652 380.667C799.301 381.02 793.657 367.613 791.187 367.613C789.07 367.966 789.07 363.38 790.129 361.969C791.187 360.557 795.068 358.441 791.893 357.029C788.718 355.618 781.662 358.441 782.72 354.207C784.131 349.974 790.129 342.918 786.954 345.034C783.426 347.504 780.956 344.329 780.603 341.859C780.25 339.39 785.895 338.684 786.954 336.567C788.012 334.451 782.72 333.392 780.25 333.039C777.781 332.687 779.898 329.159 781.309 325.983C782.72 322.808 779.545 323.867 778.486 321.75C777.428 319.986 776.017 318.575 777.781 316.458C779.545 314.341 776.722 314.694 775.664 312.93C774.253 311.519 774.253 308.696 774.253 308.696C768.255 309.049 769.314 313.988 767.55 317.869C766.139 322.103 769.314 321.397 767.903 324.219C766.491 327.395 760.494 323.867 762.258 328.1C764.022 332.334 767.197 329.864 764.022 334.803C760.847 339.39 747.793 335.509 748.852 337.626C749.91 339.39 758.024 339.037 759.083 341.859C760.141 344.682 759.435 346.446 755.908 349.974C752.732 353.149 749.91 350.679 748.852 353.501C747.793 356.324 751.321 359.146 749.557 359.146C747.793 359.146 744.971 358.088 745.324 360.91C745.676 363.733 748.499 364.438 748.852 368.319C749.204 371.847 746.382 368.672 742.501 371.494C738.621 374.316 751.674 377.844 748.852 380.667C745.676 383.842 737.209 376.433 737.562 380.314C737.562 381.372 738.268 382.078 738.62 383.136C737.915 382.784 737.209 382.431 736.504 382.431C729.801 380.314 723.45 369.73 729.801 366.908C736.151 364.085 740.737 355.971 738.268 359.499C735.798 363.027 723.45 358.441 721.686 358.088C719.922 357.735 722.745 348.562 726.978 345.387C731.212 341.859 729.801 336.567 728.742 339.39C727.684 342.565 716.394 342.565 716.042 341.154C715.689 339.39 723.803 333.392 722.039 333.392C719.922 333.392 714.983 335.509 713.925 333.745C712.866 331.628 714.63 321.044 712.161 322.103C709.691 323.161 710.044 334.803 710.044 334.803C707.222 335.156 707.574 337.273 703.694 336.567C699.813 335.509 703.341 339.037 705.105 342.212C706.869 345.387 710.044 349.621 706.869 351.032C704.047 352.09 702.283 348.21 698.402 346.446C698.755 345.74 698.755 345.034 698.402 344.329C697.343 341.506 694.874 343.976 691.699 340.801C688.523 337.626 687.818 335.862 688.876 333.039C689.935 330.217 694.874 328.453 695.932 326.336C696.991 324.572 687.112 328.1 683.937 323.514C680.762 318.927 681.115 321.397 682.879 317.164C684.643 312.93 679.704 313.283 678.645 310.108C675.823 300.935 671.589 305.168 669.473 299.524C663.828 284.353 657.83 294.585 657.477 297.407C657.125 300.229 661.358 301.288 652.538 307.638C650.774 308.696 648.658 309.049 650.422 310.813C652.186 312.93 650.774 313.988 649.716 315.752C648.658 317.516 645.835 316.811 647.246 319.633C648.658 322.455 650.774 325.983 648.305 326.336C645.835 326.689 640.896 327.747 641.954 329.511C643.013 331.628 648.305 332.334 647.952 334.451C647.599 336.567 638.427 339.742 633.135 339.742C628.901 339.742 635.957 344.329 637.015 348.562C637.368 349.621 637.015 350.326 635.957 350.679C635.604 349.974 634.546 349.974 633.487 349.268C625.726 345.034 629.254 344.329 629.254 342.565C628.901 340.448 623.609 333.745 619.023 343.976C617.259 347.857 613.378 345.034 610.908 351.385C610.203 353.501 605.969 353.501 607.38 356.324C608.792 358.793 609.144 357.735 607.028 359.852C605.616 359.499 604.558 359.146 603.852 358.441C602.441 356.324 605.617 354.56 608.086 351.032C610.556 347.504 609.85 347.504 605.616 347.504C601.383 347.504 607.733 343.976 608.086 340.801C608.439 337.626 601.03 343.623 598.561 341.154C596.091 338.684 607.028 335.509 603.852 333.392C600.677 330.923 592.916 329.511 593.269 326.336C593.621 323.161 596.091 322.455 596.444 319.986C596.797 317.516 594.327 318.575 592.916 318.575C591.505 318.575 594.327 316.105 593.621 313.636C592.916 311.166 590.446 313.283 587.624 310.46C584.801 307.638 584.096 305.874 585.154 303.757C585.86 301.288 590.446 299.524 591.505 297.76C592.21 295.996 583.743 299.524 580.921 295.29C578.098 291.057 578.451 293.173 579.862 289.645C581.274 286.117 577.04 286.117 576.334 283.295C573.865 275.181 569.984 278.709 568.22 273.77C563.281 260.363 557.989 269.183 557.636 271.653C557.283 274.122 561.164 274.828 553.05 280.473C551.639 281.531 549.522 281.531 551.286 283.295C552.697 285.059 551.639 286.117 550.933 287.881C550.228 289.645 547.405 288.94 548.464 291.409C549.875 293.879 551.639 297.054 549.169 297.407C548.111 297.76 545.994 298.113 544.583 298.465C545.641 297.054 547.052 295.996 547.405 294.585C547.758 292.115 544.583 293.173 542.466 293.173C540.349 293.173 544.583 290.704 543.172 288.234C542.113 285.765 538.938 287.881 535.057 285.059C531.177 282.237 530.471 280.473 531.529 278.003C532.588 275.534 542.113 275.886 543.172 274.122C544.23 272.358 529.413 275.886 525.532 271.653C521.651 267.419 525.532 269.536 527.649 265.655C529.765 261.775 522.709 264.95 520.945 262.127C519.181 259.305 523.062 260.011 521.298 256.483C519.534 252.955 520.593 248.721 513.89 248.368C513.89 248.368 513.89 250.838 512.478 251.896C511.067 253.307 507.892 252.955 510.009 255.071C512.126 256.835 510.362 257.894 509.303 259.658C508.245 261.422 504.364 260.716 506.128 263.186C507.892 266.008 510.009 268.83 507.186 269.183C504.364 269.536 498.366 270.242 499.425 272.358C500.483 274.122 507.186 274.828 506.481 276.945C506.128 279.062 502.953 281.884 499.072 279.767C495.191 277.65 502.247 284.001 503.659 287.881C505.07 291.409 496.603 288.94 493.427 290.351C489.899 291.762 494.133 293.526 495.544 294.937C496.603 296.349 496.955 300.229 494.486 299.876C492.722 299.876 489.547 300.582 485.666 301.288C485.666 301.288 485.666 301.288 485.666 300.935C485.313 298.818 490.605 298.113 491.663 295.996C492.722 293.879 487.783 293.173 485.313 292.821C482.844 292.468 484.96 289.293 486.371 286.47C487.783 283.648 484.607 284.353 483.902 282.59C483.196 280.826 481.785 279.767 483.549 277.65C485.313 275.534 482.491 275.886 481.432 274.475C480.374 273.064 480.374 270.594 480.374 270.594C474.729 270.947 475.788 275.534 474.376 279.414C472.965 283.295 476.14 282.59 474.729 285.412C473.318 288.234 467.673 285.059 469.437 288.94C471.201 292.821 474.024 290.704 471.201 295.29C468.026 299.876 456.031 295.996 456.737 297.76C457.795 299.524 465.556 299.171 466.262 301.64C467.32 304.11 466.615 306.227 463.44 309.049C460.265 312.224 457.795 309.755 456.737 312.577C455.678 315.047 459.206 317.869 457.442 317.869C455.678 317.869 453.209 316.811 453.561 319.633C453.914 322.103 456.384 323.161 456.737 326.336C457.089 329.864 454.267 326.689 450.739 329.159C447.211 331.628 459.559 335.156 456.737 337.978C453.914 340.801 445.8 334.098 446.153 337.626C446.506 341.154 453.561 345.034 448.622 345.034C444.036 345.034 443.33 345.034 446.153 348.915C448.975 352.796 454.973 354.913 453.561 357.029C452.15 359.499 443.683 358.793 444.036 361.616C444.389 364.791 448.622 365.497 449.681 369.025C447.211 368.319 444.036 370.788 436.98 369.73C428.16 368.672 422.163 367.966 416.871 364.791C417.576 363.027 418.635 361.263 419.34 359.499C422.515 359.852 422.868 359.499 424.279 357.735C426.043 355.265 428.513 351.737 423.574 351.385C423.574 351.032 423.927 350.679 423.927 350.326C424.985 347.857 426.043 345.034 426.749 342.565H427.102C429.924 341.506 429.924 340.801 427.102 339.39C428.16 333.039 426.043 329.159 418.635 335.862C418.635 335.862 418.282 335.862 418.282 336.214C412.284 335.156 406.287 335.509 407.345 333.039C408.756 329.511 417.576 328.806 417.929 325.983C418.282 323.867 410.168 323.514 405.581 322.808C406.992 319.633 407.698 316.458 408.404 313.283C410.873 310.46 411.226 309.755 408.756 309.402C408.756 306.932 408.756 304.816 408.051 302.699C408.051 302.346 408.051 302.346 408.051 301.993C408.051 301.288 407.698 301.288 407.345 300.935C406.992 299.524 406.287 298.465 405.228 297.407C404.17 295.996 403.464 295.29 402.759 295.29C403.112 294.937 402.759 294.232 402.053 293.879C397.467 291.409 386.883 289.645 387.589 286.47C388.294 282.942 391.469 282.237 391.822 279.767C392.175 277.298 389 278.356 386.883 278.356C384.766 278.356 389 275.886 387.941 273.064C386.883 270.594 383.355 272.711 379.827 269.536C379.122 268.83 378.416 268.478 377.71 267.772C383.355 263.539 389.353 259.305 389.353 254.366C389.353 246.252 388.647 244.488 383.002 250.838C381.238 252.602 379.474 254.366 377.71 255.777C374.888 255.777 372.066 255.424 370.302 253.66C366.421 249.427 366.774 251.543 368.89 247.663C369.596 246.252 369.243 245.193 368.538 244.488C372.066 241.312 374.182 239.196 370.302 233.904C365.01 227.201 366.421 233.198 361.482 236.726C360.776 236.02 360.071 235.668 359.718 235.315C361.482 232.492 363.951 227.553 363.246 221.556C361.835 209.914 359.012 215.911 356.19 220.85C353.367 225.789 345.959 206.738 345.606 198.624C345.253 190.51 343.842 185.571 336.786 186.276C336.786 186.276 333.964 189.804 331.847 198.977C329.73 208.15 333.964 216.264 331.847 221.556C329.73 227.201 326.908 234.256 320.557 227.201C314.207 219.792 312.09 222.261 314.913 230.376C317.735 238.137 328.672 250.485 318.441 252.249C308.562 254.013 307.857 249.074 303.27 247.31C300.095 245.899 302.565 259.658 306.798 269.183C306.798 269.183 306.798 269.536 307.151 269.536C308.21 272.006 309.621 274.475 310.679 275.886C311.385 276.945 311.738 277.65 312.09 278.709C309.621 279.062 305.034 278.356 302.918 279.414C299.39 280.826 303.976 282.59 305.034 284.001C305.387 284.353 305.74 285.059 305.74 285.412C304.329 285.765 302.918 285.765 302.212 285.765C298.684 285.765 293.039 285.059 289.511 281.531C287.747 279.767 288.1 284.353 290.217 291.057C289.159 291.057 288.1 291.057 287.042 291.057C281.75 291.057 286.689 293.173 291.628 294.937C293.039 298.818 294.803 303.052 297.273 306.58C296.567 306.58 296.214 306.58 295.862 306.227C290.217 305.168 285.278 304.11 284.925 305.874C284.925 307.638 289.864 311.872 295.862 312.93C299.037 313.283 301.154 313.636 302.918 313.988C303.623 314.694 303.976 315.4 304.682 316.105V316.458C304.329 318.575 299.742 318.575 296.214 318.927C291.275 317.164 285.983 313.988 281.75 310.46C282.103 309.402 282.103 308.344 282.455 307.991C284.572 300.935 281.397 291.057 279.986 297.76C279.633 299.524 277.516 301.288 275.047 303.052C271.872 299.171 271.166 301.288 271.166 305.168C263.404 308.696 252.468 311.166 248.234 310.108C241.531 308.344 248.94 297.054 253.173 294.585C257.054 292.115 260.582 288.587 257.407 286.117C254.232 284.001 240.473 286.117 241.884 278.003C243.295 269.889 254.232 261.069 256.701 254.719C259.171 248.368 264.816 237.432 259.524 242.371C254.232 247.31 231.3 254.719 229.889 251.896C228.125 249.074 239.414 239.901 245.059 236.373C250.704 233.198 252.468 227.553 244.001 223.673C235.534 219.792 227.419 219.792 235.534 215.205C243.648 210.266 249.645 176.751 246.47 183.101C243.648 189.451 227.419 200.388 224.95 199.682C222.833 198.977 226.361 182.748 232.006 176.751C237.65 170.753 235.534 160.875 234.122 166.167C232.711 171.459 218.247 171.812 217.541 168.989C216.835 166.167 227.772 155.23 224.95 155.23C222.48 155.23 216.13 159.111 214.719 155.583C213.307 152.055 215.424 132.651 212.602 134.415C209.779 136.179 210.132 156.994 210.132 156.994C206.604 157.347 207.31 161.581 202.371 160.169C197.432 158.405 202.018 164.403 204.135 170.4C206.252 176.045 210.485 183.807 206.604 185.923C202.724 188.04 199.901 178.868 194.256 176.398C188.612 173.928 191.081 185.218 195.668 189.804C200.254 194.743 204.135 201.446 200.96 203.563C197.784 205.68 188.965 203.21 182.614 199.33C176.264 195.802 180.85 206.386 182.614 210.266C182.967 211.325 184.378 212.736 186.142 214.5C180.145 219.086 173.794 221.909 169.208 222.614C163.916 223.32 157.213 218.028 164.974 210.972C172.736 203.916 180.497 202.858 173.442 196.155C166.386 189.099 169.208 196.86 161.446 199.682C153.685 202.505 166.738 195.802 164.974 184.865C163.21 173.928 159.682 179.573 156.507 184.159C152.979 188.746 144.159 170.753 143.807 163.344C143.454 155.936 141.69 151.349 133.223 151.702C133.223 151.702 129.695 155.23 127.225 163.697C124.756 172.164 129.695 179.926 127.225 184.865C124.756 190.157 121.228 196.86 113.466 190.157C105.705 183.101 103.235 185.571 106.41 192.979C109.938 200.388 122.639 212.03 110.644 213.794C98.6488 215.558 97.5904 210.972 92.6512 209.208C87.3593 207.444 94.4152 229.317 101.118 236.373C108.174 243.429 94.768 245.546 90.5345 245.546C87.3593 245.546 83.1258 245.193 79.245 243.782C86.3009 239.901 94.4152 237.432 90.5345 232.492C86.6537 227.201 82.773 233.904 70.7779 232.14C58.7828 230.376 50.6685 228.965 43.2598 223.673C35.8511 218.028 31.2648 212.383 41.1431 213.794C51.3741 215.205 51.3741 215.911 53.4909 211.325C55.9605 206.738 59.8412 200.035 50.6685 200.035C41.4959 200.035 36.2039 204.269 32.3232 195.802C28.4424 187.687 19.6225 185.218 29.148 184.865C38.6735 184.512 48.5518 186.629 53.1381 184.512C58.0773 182.395 57.0189 180.632 47.8462 175.692C38.6735 170.4 24.5616 173.576 26.6784 167.931C28.7952 161.933 35.8511 160.875 36.2039 155.583C36.5567 150.291 22.0921 151.702 19.6225 147.821C17.1529 143.588 27.7368 140.766 32.3232 133.71C37.2623 126.654 35.8511 126.654 27.7368 126.654C19.6225 126.654 31.6176 119.951 32.3232 113.953C32.676 107.603 18.9169 119.598 14.3306 114.659C9.39143 109.72 30.5592 104.428 24.5616 99.8412C18.5641 95.2549 13.625 100.9 14.3306 94.9021C15.0362 88.9046 19.6225 87.8462 19.9753 83.2598C20.3281 78.6735 16.0945 80.4375 13.2722 80.4375C10.4498 80.4375 16.0945 75.8511 14.3306 71.6176C12.5666 67.0312 8.33303 70.912 3.0411 65.62C-2.25084 60.3281 -3.30923 57.5057 -1.89804 52.9194C-0.134064 48.333 12.9194 49.0386 14.6834 46.2163C16.4473 43.0411 -4.72041 49.3914 -10.0124 41.6299C-15.3043 34.2212 -10.0124 37.7492 -7.18998 31.046C-4.36761 23.9901 -13.8931 29.6349 -16.3627 24.6957C-20.949 20.4622 -15.6571 21.1678 -18.1267 14.8174C-20.5962 8.11431 -18.8322 0.705592 -28.3577 0C-28.3577 0 -28.3577 4.23355 -30.4745 6.70312C-32.5913 9.17269 -36.8248 8.8199 -34.0025 12.3479C-31.1801 15.8758 -33.2969 17.6398 -35.0609 20.4622C-35.7664 21.8733 -37.8832 22.2261 -38.9416 23.2845C-40 23.6373 -40.3528 24.6957 -39.2944 26.8125Z" fill="#1D2B39"/> </symbol><symbol viewBox="0 0 12 8" id="icon-chevron-down"><path d="M6 6.174l5.313-4.96.23-.214.457.427-.23.214-5.51 5.146L6.03 7 6 6.972 5.97 7l-.23-.214L.23 1.64 0 1.428.458 1l.23.214L6 6.174z" stroke-linecap="square" fill-rule="evenodd"/></symbol><symbol viewBox="0 0 24 24" id="icon-chevron-left"><path d="M15.41 7.41L14 6l-6 6 6 6 1.41-1.41L10.83 12z"/></symbol><symbol viewBox="0 0 24 24" id="icon-chevron-right"><path d="M10 6L8.59 7.41 13.17 12l-4.58 4.59L10 18l6-6z"/></symbol><symbol viewBox="0 0 24 24" id="icon-close"><path d="M19 6.41L17.59 5 12 10.59 6.41 5 5 6.41 10.59 12 5 17.59 6.41 19 12 13.41 17.59 19 19 17.59 13.41 12z"/></symbol><symbol viewBox="0 0 28 28" id="icon-envelope"> <path d="M0 23.5v-12.406q0.688 0.766 1.578 1.359 5.656 3.844 7.766 5.391 0.891 0.656 1.445 1.023t1.477 0.75 1.719 0.383h0.031q0.797 0 1.719-0.383t1.477-0.75 1.445-1.023q2.656-1.922 7.781-5.391 0.891-0.609 1.563-1.359v12.406q0 1.031-0.734 1.766t-1.766 0.734h-23q-1.031 0-1.766-0.734t-0.734-1.766zM0 6.844q0-1.219 0.648-2.031t1.852-0.812h23q1.016 0 1.758 0.734t0.742 1.766q0 1.234-0.766 2.359t-1.906 1.922q-5.875 4.078-7.313 5.078-0.156 0.109-0.664 0.477t-0.844 0.594-0.812 0.508-0.898 0.422-0.781 0.141h-0.031q-0.359 0-0.781-0.141t-0.898-0.422-0.812-0.508-0.844-0.594-0.664-0.477q-1.422-1-4.094-2.852t-3.203-2.227q-0.969-0.656-1.828-1.805t-0.859-2.133z"/> </symbol><symbol viewBox="0 0 32 32" id="icon-facebook"> <path d="M2.428 0.41c-0.936 0-1.695 0.753-1.695 1.682v27.112c0 0.929 0.759 1.682 1.695 1.682h14.709v-11.802h-4.002v-4.599h4.002v-3.392c0-3.936 2.423-6.080 5.961-6.080 1.695 0 3.152 0.125 3.576 0.181v4.114l-2.454 0.001c-1.924 0-2.297 0.907-2.297 2.239v2.937h4.59l-0.598 4.599h-3.992v11.802h7.826c0.936 0 1.695-0.753 1.695-1.682v-27.112c0-0.929-0.759-1.682-1.695-1.682h-27.321z"/> </symbol><symbol viewBox="0 0 20 28" id="icon-google"> <path d="M1.734 21.156q0-1.266 0.695-2.344t1.852-1.797q2.047-1.281 6.312-1.563-0.5-0.641-0.742-1.148t-0.242-1.148q0-0.625 0.328-1.328-0.719 0.063-1.062 0.063-2.312 0-3.898-1.508t-1.586-3.82q0-1.281 0.562-2.484t1.547-2.047q1.188-1.031 2.844-1.531t3.406-0.5h6.516l-2.141 1.375h-2.063q1.172 0.984 1.766 2.078t0.594 2.5q0 1.125-0.383 2.023t-0.93 1.453-1.086 1.016-0.922 0.961-0.383 1.031q0 0.562 0.5 1.102t1.203 1.062 1.414 1.148 1.211 1.625 0.5 2.219q0 1.422-0.766 2.703-1.109 1.906-3.273 2.805t-4.664 0.898q-2.063 0-3.852-0.648t-2.695-2.148q-0.562-0.922-0.562-2.047zM4.641 20.438q0 0.875 0.367 1.594t0.953 1.18 1.359 0.781 1.563 0.453 1.586 0.133q0.906 0 1.742-0.203t1.547-0.609 1.141-1.141 0.43-1.703q0-0.391-0.109-0.766t-0.227-0.656-0.422-0.648-0.461-0.547-0.602-0.539-0.57-0.453-0.648-0.469-0.57-0.406q-0.25-0.031-0.766-0.031-0.828 0-1.633 0.109t-1.672 0.391-1.516 0.719-1.070 1.164-0.422 1.648zM6.297 4.906q0 0.719 0.156 1.523t0.492 1.609 0.812 1.445 1.172 1.047 1.508 0.406q0.578 0 1.211-0.258t1.023-0.68q0.828-0.875 0.828-2.484 0-0.922-0.266-1.961t-0.75-2.016-1.313-1.617-1.828-0.641q-0.656 0-1.289 0.305t-1.039 0.82q-0.719 0.922-0.719 2.5z"/> </symbol><symbol viewBox="0 0 32 32" id="icon-instagram"> <path d="M25.522709,13.5369502 C25.7256898,14.3248434 25.8455558,15.1480745 25.8455558,15.9992932 C25.8455558,21.4379334 21.4376507,25.8455558 15.9998586,25.8455558 C10.5623493,25.8455558 6.15416148,21.4379334 6.15416148,15.9992932 C6.15416148,15.1480745 6.27459295,14.3248434 6.4775737,13.5369502 L3.6915357,13.5369502 L3.6915357,27.0764447 C3.6915357,27.7552145 4.24280653,28.3062027 4.92355534,28.3062027 L27.0764447,28.3062027 C27.7571935,28.3062027 28.3084643,27.7552145 28.3084643,27.0764447 L28.3084643,13.5369502 L25.522709,13.5369502 Z M27.0764447,3.6915357 L23.384909,3.6915357 C22.7050083,3.6915357 22.1543028,4.24280653 22.1543028,4.92214183 L22.1543028,8.61509104 C22.1543028,9.29442633 22.7050083,9.84569717 23.384909,9.84569717 L27.0764447,9.84569717 C27.7571935,9.84569717 28.3084643,9.29442633 28.3084643,8.61509104 L28.3084643,4.92214183 C28.3084643,4.24280653 27.7571935,3.6915357 27.0764447,3.6915357 Z M9.84597988,15.9992932 C9.84597988,19.3976659 12.6009206,22.1537374 15.9998586,22.1537374 C19.3987967,22.1537374 22.1543028,19.3976659 22.1543028,15.9992932 C22.1543028,12.6003551 19.3987967,9.84569717 15.9998586,9.84569717 C12.6009206,9.84569717 9.84597988,12.6003551 9.84597988,15.9992932 Z M3.6915357,31.9997173 C1.65296441,31.9997173 0,30.3461875 0,28.3062027 L0,3.6915357 C0,1.6526817 1.65296441,0 3.6915357,0 L28.3084643,0 C30.3473183,0 32,1.6526817 32,3.6915357 L32,28.3062027 C32,30.3461875 30.3473183,31.9997173 28.3084643,31.9997173 L3.6915357,31.9997173 Z" id="instagram-Imported-Layers"/> </symbol><symbol viewBox="0 0 24 24" id="icon-keyboard-arrow-down"><path d="M7.41 7.84L12 12.42l4.59-4.58L18 9.25l-6 6-6-6z"/></symbol><symbol viewBox="0 0 24 24" id="icon-keyboard-arrow-up"><path d="M7.41 15.41L12 10.83l4.59 4.58L18 14l-6-6-6 6z"/></symbol><symbol viewBox="0 0 32 32" id="icon-linkedin"> <path d="M27.2684444,27.2675556 L22.5226667,27.2675556 L22.5226667,19.8408889 C22.5226667,18.0702222 22.4924444,15.792 20.0568889,15.792 C17.5866667,15.792 17.2097778,17.7217778 17.2097778,19.7146667 L17.2097778,27.2675556 L12.4693333,27.2675556 L12.4693333,11.9964444 L17.0186667,11.9964444 L17.0186667,14.0844444 L17.0844444,14.0844444 C17.7173333,12.8835556 19.2657778,11.6177778 21.5742222,11.6177778 C26.3804444,11.6177778 27.2684444,14.7795556 27.2684444,18.8924444 L27.2684444,27.2675556 L27.2684444,27.2675556 Z M7.11822222,9.91022222 C5.59377778,9.91022222 4.36444444,8.67733333 4.36444444,7.15733333 C4.36444444,5.63822222 5.59377778,4.40533333 7.11822222,4.40533333 C8.63644444,4.40533333 9.86844444,5.63822222 9.86844444,7.15733333 C9.86844444,8.67733333 8.63644444,9.91022222 7.11822222,9.91022222 L7.11822222,9.91022222 Z M4.74133333,11.9964444 L9.49244444,11.9964444 L9.49244444,27.2675556 L4.74133333,27.2675556 L4.74133333,11.9964444 Z M29.632,0 L2.36,0 C1.05777778,0 0,1.03288889 0,2.30755556 L0,29.6906667 C0,30.9653333 1.05777778,32 2.36,32 L29.632,32 C30.9368889,32 31.9991111,30.9653333 31.9991111,29.6906667 L31.9991111,2.30755556 C31.9991111,1.03288889 30.9368889,0 29.632,0 L29.632,0 Z" id="linkedin-Fill-4"/> </symbol><symbol viewBox="0 0 24 24" id="icon-lock"><path d="M18 8h-1V6c0-2.76-2.24-5-5-5S7 3.24 7 6v2H6c-1.1 0-2 .9-2 2v10c0 1.1.9 2 2 2h12c1.1 0 2-.9 2-2V10c0-1.1-.9-2-2-2zm-6 9c-1.1 0-2-.9-2-2s.9-2 2-2 2 .9 2 2-.9 2-2 2zm3.1-9H8.9V6c0-1.71 1.39-3.1 3.1-3.1 1.71 0 3.1 1.39 3.1 3.1v2z"/></symbol><symbol viewBox="0 0 176.515 33.863" id="icon-logo-amazonpay"> <path d=" M 69.652 26.489 C 63.129 31.303 53.672 33.863 45.528 33.863 C 34.115 33.863 23.837 29.644 16.059 22.621 C 15.449 22.069 15.993 21.316 16.727 21.743 C 25.118 26.626 35.496 29.567 46.213 29.567 C 53.443 29.567 61.391 28.066 68.704 24.964 C 69.807 24.497 70.732 25.691 69.652 26.489 Z " fill-rule="evenodd"/> <path d=" M 72.367 23.389 C 71.532 22.321 66.852 22.883 64.749 23.135 C 64.112 23.212 64.013 22.655 64.587 22.252 C 68.321 19.629 74.44 20.386 75.151 21.265 C 75.867 22.15 74.962 28.285 71.464 31.212 C 70.925 31.662 70.413 31.422 70.652 30.828 C 71.44 28.861 73.202 24.459 72.367 23.389 Z " fill-rule="evenodd"/> <path d=" M 64.897 3.724 L 64.897 1.176 C 64.899 0.788 65.191 0.53 65.543 0.531 L 76.965 0.53 C 77.33 0.53 77.624 0.795 77.624 1.173 L 77.624 3.358 C 77.62 3.725 77.311 4.203 76.764 4.962 L 70.847 13.41 C 73.043 13.359 75.366 13.688 77.362 14.809 C 77.812 15.062 77.933 15.437 77.968 15.804 L 77.968 18.523 C 77.968 18.898 77.558 19.331 77.126 19.106 C 73.611 17.264 68.946 17.063 65.058 19.128 C 64.661 19.34 64.246 18.912 64.246 18.537 L 64.246 15.952 C 64.246 15.539 64.254 14.831 64.671 14.201 L 71.525 4.367 L 65.557 4.366 C 65.192 4.366 64.899 4.106 64.897 3.724 Z " fill-rule="evenodd"/> <path d=" M 23.233 19.641 L 19.758 19.641 C 19.427 19.62 19.163 19.372 19.136 19.054 L 19.139 1.219 C 19.139 0.863 19.439 0.578 19.81 0.578 L 23.046 0.577 C 23.384 0.594 23.656 0.85 23.677 1.176 L 23.677 3.504 L 23.743 3.504 C 24.586 1.252 26.175 0.201 28.316 0.201 C 30.489 0.201 31.852 1.252 32.825 3.504 C 33.668 1.252 35.582 0.201 37.625 0.201 C 39.085 0.201 40.674 0.802 41.647 2.153 C 42.75 3.655 42.524 5.831 42.524 7.745 L 42.52 19 C 42.52 19.355 42.221 19.641 41.85 19.641 L 38.38 19.641 C 38.03 19.619 37.756 19.343 37.756 19.001 L 37.755 9.546 C 37.755 8.796 37.82 6.92 37.657 6.207 C 37.398 5.005 36.62 4.667 35.615 4.667 C 34.771 4.667 33.895 5.23 33.538 6.13 C 33.181 7.032 33.214 8.532 33.214 9.546 L 33.214 19 C 33.214 19.355 32.914 19.641 32.544 19.641 L 29.073 19.641 C 28.724 19.619 28.449 19.343 28.449 19.001 L 28.445 9.546 C 28.445 7.557 28.77 4.631 26.305 4.631 C 23.807 4.631 23.905 7.482 23.905 9.546 L 23.903 19 C 23.903 19.355 23.603 19.641 23.233 19.641 Z " fill-rule="evenodd"/> <path d=" M 87.488 3.842 C 84.926 3.842 84.764 7.331 84.764 9.508 C 84.764 11.685 84.732 16.339 87.457 16.339 C 90.149 16.339 90.279 12.586 90.279 10.297 C 90.279 8.796 90.213 6.994 89.759 5.568 C 89.37 4.329 88.591 3.842 87.488 3.842 Z  M 87.457 0.201 C 92.614 0.201 95.403 4.631 95.403 10.26 C 95.403 15.7 92.322 20.017 87.457 20.017 C 82.396 20.017 79.639 15.588 79.639 10.072 C 79.639 4.517 82.428 0.201 87.457 0.201 Z " fill-rule="evenodd"/> <path d=" M 102.092 19.641 L 98.629 19.641 C 98.282 19.619 98.006 19.343 98.006 19.001 L 98 1.16 C 98.03 0.833 98.318 0.578 98.668 0.578 L 101.891 0.577 C 102.195 0.593 102.445 0.799 102.509 1.076 L 102.509 3.804 L 102.574 3.804 C 103.548 1.364 104.909 0.201 107.309 0.201 C 108.866 0.201 110.391 0.764 111.364 2.303 C 112.272 3.729 112.272 6.13 112.272 7.857 L 112.272 19.08 C 112.234 19.396 111.95 19.641 111.606 19.641 L 108.123 19.641 C 107.801 19.621 107.542 19.384 107.504 19.08 L 107.504 9.397 C 107.504 7.445 107.732 4.592 105.331 4.592 C 104.488 4.592 103.709 5.155 103.32 6.018 C 102.833 7.107 102.768 8.195 102.768 9.397 L 102.768 19 C 102.762 19.355 102.462 19.641 102.092 19.641 Z " fill-rule="evenodd"/> <path d=" M 59.294 19.597 C 59.065 19.803 58.734 19.817 58.474 19.678 C 57.32 18.719 57.113 18.276 56.482 17.362 C 54.575 19.305 53.224 19.888 50.753 19.888 C 47.828 19.888 45.552 18.082 45.552 14.472 C 45.552 11.651 47.081 9.733 49.258 8.793 C 51.143 7.965 53.776 7.815 55.792 7.589 L 55.792 7.138 C 55.792 6.309 55.857 5.333 55.369 4.618 C 54.946 3.978 54.134 3.715 53.419 3.715 C 52.093 3.715 50.916 4.394 50.626 5.801 C 50.565 6.114 50.337 6.425 50.023 6.441 L 46.654 6.076 C 46.37 6.011 46.054 5.783 46.135 5.349 C 46.9 1.32 50.498 0.064 53.768 0.03 L 54.026 0.03 C 55.7 0.051 57.838 0.51 59.14 1.759 C 60.831 3.339 60.667 5.445 60.667 7.74 L 60.667 13.153 C 60.667 14.782 61.344 15.496 61.979 16.373 C 62.202 16.69 62.251 17.065 61.968 17.297 C 61.258 17.892 59.997 18.987 59.304 19.605 L 59.294 19.597 Z  M 55.792 11.125 C 55.792 12.479 55.824 13.607 55.142 14.811 C 54.589 15.788 53.711 16.39 52.736 16.39 C 51.404 16.39 50.624 15.375 50.624 13.87 C 50.624 10.91 53.278 10.372 55.792 10.372 L 55.792 11.125 Z " fill-rule="evenodd"/> <path d=" M 13.743 19.597 C 13.513 19.803 13.181 19.817 12.922 19.678 C 11.767 18.719 11.56 18.276 10.93 17.362 C 9.022 19.305 7.672 19.888 5.201 19.888 C 2.276 19.888 0 18.082 0 14.472 C 0 11.651 1.527 9.733 3.706 8.793 C 5.591 7.965 8.224 7.815 10.239 7.589 L 10.239 7.138 C 10.239 6.309 10.305 5.333 9.817 4.618 C 9.394 3.978 8.581 3.715 7.867 3.715 C 6.541 3.715 5.362 4.394 5.074 5.801 C 5.014 6.114 4.785 6.425 4.47 6.441 L 1.102 6.076 C 0.817 6.011 0.501 5.783 0.583 5.349 C 1.346 1.32 4.945 0.064 8.216 0.03 L 8.474 0.03 C 10.148 0.051 12.286 0.51 13.588 1.759 C 15.278 3.339 15.115 5.445 15.115 7.74 L 15.115 13.153 C 15.115 14.782 15.792 15.496 16.427 16.373 C 16.648 16.69 16.699 17.065 16.416 17.297 C 15.706 17.892 14.444 18.987 13.751 19.605 L 13.743 19.597 Z  M 10.239 11.125 C 10.239 12.479 10.272 13.607 9.589 14.811 C 9.037 15.788 8.159 16.39 7.183 16.39 C 5.851 16.39 5.071 15.375 5.071 13.87 C 5.071 10.91 7.726 10.372 10.239 10.372 L 10.239 11.125 Z " fill-rule="evenodd"/> <path d=" M 159.773 26.039 C 159.773 25.587 159.773 25.181 159.773 24.729 C 159.773 24.356 159.956 24.099 160.345 24.122 C 161.071 24.225 162.098 24.328 162.827 24.178 C 163.779 23.98 164.462 23.305 164.866 22.38 C 165.435 21.078 165.812 20.028 166.05 19.339 L 158.821 1.431 C 158.699 1.127 158.663 0.563 159.27 0.563 L 161.797 0.563 C 162.279 0.563 162.475 0.869 162.583 1.169 L 167.824 15.715 L 172.827 1.169 C 172.929 0.871 173.134 0.563 173.612 0.563 L 175.995 0.563 C 176.598 0.563 176.564 1.126 176.444 1.431 L 169.273 19.898 C 168.345 22.356 167.109 26.271 164.325 26.951 C 162.929 27.316 161.168 27.184 160.134 26.751 C 159.873 26.62 159.773 26.27 159.773 26.039 Z " fill-rule="evenodd"/> <path d=" M 156.402 18.55 C 156.402 18.883 156.129 19.156 155.794 19.156 L 154.012 19.156 C 153.627 19.156 153.364 18.878 153.315 18.55 L 153.136 17.337 C 152.317 18.03 151.312 18.639 150.222 19.063 C 148.126 19.877 145.71 20.012 143.662 18.754 C 142.181 17.845 141.395 16.068 141.395 14.235 C 141.395 12.817 141.832 11.411 142.801 10.39 C 144.094 8.995 145.968 8.31 148.231 8.31 C 149.598 8.31 151.554 8.471 152.977 8.936 L 152.977 6.495 C 152.977 4.013 151.932 2.939 149.177 2.939 C 147.071 2.939 145.46 3.257 143.218 3.954 C 142.859 3.966 142.649 3.693 142.649 3.36 L 142.649 1.968 C 142.649 1.634 142.934 1.311 143.243 1.213 C 144.844 0.515 147.112 0.08 149.523 0 C 152.666 0 156.402 0.709 156.402 5.543 L 156.402 18.55 Z  M 152.977 14.986 L 152.977 11.303 C 151.781 10.976 149.802 10.84 149.036 10.84 C 147.826 10.84 146.501 11.126 145.809 11.871 C 145.292 12.417 145.058 13.201 145.058 13.959 C 145.058 14.939 145.397 15.922 146.189 16.408 C 147.109 17.033 148.536 16.957 149.877 16.576 C 151.166 16.21 152.376 15.563 152.977 14.986 Z " fill-rule="evenodd"/> <path d=" M 130.127 2.994 C 134.081 2.994 135.158 6.103 135.158 9.663 C 135.18 12.063 134.739 14.203 133.496 15.428 C 132.566 16.345 131.527 16.595 129.963 16.595 C 128.571 16.595 126.74 15.869 125.372 14.858 L 125.372 4.679 C 126.796 3.585 128.613 2.994 130.127 2.994 Z  M 124.766 26.678 L 122.379 26.678 C 122.045 26.678 121.772 26.405 121.772 26.072 C 121.772 17.782 121.772 9.491 121.772 1.201 C 121.772 0.868 122.045 0.595 122.379 0.595 L 124.206 0.595 C 124.59 0.595 124.853 0.873 124.902 1.201 L 125.094 2.504 C 126.805 0.985 129.008 0.011 131.107 0.011 C 136.986 0.011 138.919 4.855 138.919 9.892 C 138.919 15.281 135.962 19.611 130.961 19.611 C 128.855 19.611 126.886 18.834 125.372 17.484 L 125.372 26.072 C 125.372 26.405 125.099 26.678 124.766 26.678 Z " fill-rule="evenodd"/></symbol><symbol viewBox="0 0 70 32" id="icon-logo-american-express"> <path d="M69.102 17.219l0.399 9.094c-0.688 0.313-3.285 1.688-4.26 1.688h-4.788v-0.656c-0.546 0.438-1.549 0.656-2.467 0.656h-15.053v-2.466c0-0.344-0.057-0.344-0.345-0.344h-0.257v2.81h-4.961v-2.924c-0.832 0.402-1.749 0.402-2.581 0.402h-0.544v2.523h-6.050l-1.434-1.656-1.577 1.656h-9.72v-10.781h9.892l1.405 1.663 1.548-1.663h6.652c0.775 0 2.037 0.115 2.581 0.66v-0.66h5.936c0.602 0 1.749 0.115 2.523 0.66v-0.66h8.946v0.66c0.516-0.43 1.433-0.66 2.265-0.66h4.988v0.66c0.546-0.372 1.32-0.66 2.323-0.66h4.578zM34.905 23.871c1.577 0 3.183-0.43 3.183-2.581 0-2.093-1.635-2.523-3.069-2.523h-5.878l-2.38 2.523-2.236-2.523h-7.427v7.67h7.312l2.351-2.509 2.266 2.509h3.556v-2.566h2.322zM46.001 23.556c-0.172-0.23-0.487-0.516-0.946-0.66 0.516-0.172 1.318-0.832 1.318-2.036 0-0.889-0.315-1.377-0.917-1.721-0.602-0.315-1.319-0.372-2.266-0.372h-4.215v7.67h1.864v-2.796h1.978c0.66 0 1.032 0.058 1.319 0.344 0.316 0.373 0.316 1.032 0.316 1.548v0.903h1.836v-1.477c0-0.688-0.058-1.032-0.288-1.405zM53.571 20.373v-1.605h-6.136v7.67h6.136v-1.563h-4.33v-1.549h4.244v-1.548h-4.244v-1.405h4.33zM58.245 26.438c1.864 0 2.926-0.759 2.926-2.393 0-0.774-0.23-1.262-0.545-1.664-0.459-0.372-1.119-0.602-2.151-0.602h-1.004c-0.258 0-0.487-0.057-0.717-0.115-0.201-0.086-0.373-0.258-0.373-0.545 0-0.258 0.058-0.43 0.287-0.602 0.143-0.115 0.373-0.115 0.717-0.115h3.383v-1.634h-3.671c-1.978 0-2.638 1.204-2.638 2.294 0 2.438 2.151 2.322 3.842 2.38 0.344 0 0.544 0.058 0.66 0.173 0.115 0.086 0.23 0.315 0.23 0.544 0 0.201-0.115 0.373-0.23 0.488-0.173 0.115-0.373 0.172-0.717 0.172h-3.555v1.62h3.555zM65.442 26.439c1.864 0 2.924-0.76 2.924-2.394 0-0.774-0.229-1.262-0.544-1.664-0.459-0.372-1.119-0.602-2.151-0.602h-1.003c-0.258 0-0.488-0.057-0.718-0.115-0.201-0.086-0.373-0.258-0.373-0.545 0-0.258 0.115-0.43 0.287-0.602 0.144-0.115 0.373-0.115 0.717-0.115h3.383v-1.634h-3.671c-1.921 0-2.638 1.204-2.638 2.294 0 2.438 2.151 2.322 3.842 2.38 0.344 0 0.544 0.058 0.66 0.174 0.115 0.086 0.229 0.315 0.229 0.544 0 0.201-0.114 0.373-0.229 0.488s-0.373 0.172-0.717 0.172h-3.556v1.62h3.556zM43.966 20.518c0.23 0.115 0.373 0.344 0.373 0.659 0 0.344-0.143 0.602-0.373 0.774-0.287 0.115-0.545 0.115-0.889 0.115l-2.237 0.058v-1.749h2.237c0.344 0 0.659 0 0.889 0.143zM36.108 8.646c-0.287 0.172-0.544 0.172-0.918 0.172h-2.265v-1.692h2.265c0.316 0 0.688 0 0.918 0.114 0.23 0.144 0.344 0.374 0.344 0.718 0 0.315-0.114 0.602-0.344 0.689zM50.789 6.839l1.262 3.039h-2.523zM30.775 25.792l-2.838-3.183 2.838-3.011v6.193zM35.019 20.373c0.66 0 1.090 0.258 1.090 0.918s-0.43 1.032-1.090 1.032h-2.437v-1.95h2.437zM5.773 9.878l1.291-3.039 1.262 3.039h-2.552zM18.905 20.372l4.616 0 2.036 2.237-2.093 2.265h-4.559v-1.549h4.071v-1.548h-4.071v-1.405zM19.077 13.376l-0.545 1.377h-3.24l-0.546-1.319v1.319h-6.222l-0.66-1.749h-1.577l-0.717 1.749h-5.572l2.389-5.649 2.237-5.104h4.789l0.659 1.262v-1.262h5.591l1.262 2.724 1.233-2.724h17.835c0.832 0 1.548 0.143 2.093 0.602v-0.602h4.903v0.602c0.803-0.459 1.864-0.602 3.068-0.602h7.082l0.66 1.262v-1.262h5.218l0.775 1.262v-1.262h5.103v10.753h-5.161l-1.003-1.635v1.635h-6.423l-0.717-1.749h-1.577l-0.717 1.749h-3.355c-1.318 0-2.294-0.316-2.954-0.659v0.659h-7.971v-2.466c0-0.344-0.057-0.402-0.286-0.402h-0.258v2.867h-15.398v-1.377zM43.363 6.409c-0.832 0.831-0.975 1.864-1.004 3.011 0 1.377 0.344 2.266 0.947 2.925 0.659 0.66 1.806 0.86 2.695 0.86h2.151l0.716-1.692h3.843l0.717 1.692h3.727v-5.763l3.47 5.763h2.638v-7.684h-1.892v5.333l-3.24-5.333h-2.839v7.254l-3.096-7.254h-2.724l-2.638 6.050h-0.832c-0.487 0-1.003-0.115-1.262-0.373-0.344-0.402-0.488-1.004-0.488-1.836 0-0.803 0.144-1.405 0.488-1.748 0.373-0.316 0.774-0.431 1.434-0.431h1.749v-1.663h-1.749c-1.262 0-2.265 0.286-2.81 0.889zM39.579 5.52v7.684h1.863v-7.684h-1.863zM31.12 5.52l-0 7.685h1.806v-2.781h1.979c0.66 0 1.090 0.057 1.376 0.315 0.316 0.401 0.258 1.061 0.258 1.491v0.975h1.892v-1.519c0-0.66-0.057-1.004-0.344-1.377-0.172-0.229-0.487-0.488-0.889-0.659 0.516-0.23 1.319-0.832 1.319-2.036 0-0.889-0.373-1.377-0.976-1.75-0.602-0.344-1.262-0.344-2.208-0.344h-4.215zM23.636 5.521v7.685h6.165v-1.577h-4.301v-1.549h4.244v-1.577h-4.244v-1.377h4.301v-1.606h-6.165zM16.124 13.205h1.577l2.695-6.021v6.021h1.864v-7.684h-3.011l-2.265 5.219-2.409-5.219h-2.953v7.254l-3.154-7.254h-2.724l-3.297 7.684h1.978l0.688-1.692h3.871l0.688 1.692h3.756v-6.021z"/> </symbol><symbol viewBox="0 0 95 32" id="icon-logo-discover"> <path d="M50.431 8.059c4.546 0 8.092 3.49 8.092 7.936 0 4.471-3.571 7.961-8.093 7.961-4.638 0-8.115-3.444-8.115-8.051 0-4.334 3.635-7.845 8.115-7.845zM4.362 8.345c4.811 0 8.168 3.133 8.168 7.64 0 2.247-1.028 4.422-2.761 5.864-1.461 1.214-3.126 1.761-5.429 1.761h-4.339v-15.265h4.362zM7.832 19.81c1.027-0.912 1.639-2.379 1.639-3.847 0-1.464-0.612-2.882-1.639-3.798-0.984-0.892-2.146-1.235-4.065-1.235h-0.797v10.096h0.797c1.919 0 3.127-0.367 4.065-1.216zM13.9 23.611v-15.265h2.965v15.265h-2.965zM24.123 14.201c3.378 1.238 4.379 2.338 4.379 4.764 0 2.952-2.166 5.015-5.247 5.015-2.261 0-3.904-0.896-5.271-2.907l1.914-1.856c0.685 1.328 1.825 2.036 3.24 2.036 1.325 0 2.308-0.915 2.308-2.152 0-0.641-0.298-1.189-0.891-1.578-0.297-0.187-0.889-0.46-2.054-0.87-2.784-1.010-3.742-2.085-3.742-4.192 0-2.493 2.055-4.371 4.745-4.371 1.667 0 3.196 0.571 4.473 1.696l-1.549 2.033c-0.778-0.867-1.508-1.233-2.398-1.233-1.28 0-2.213 0.732-2.213 1.694 0 0.821 0.525 1.258 2.307 1.921zM29.438 15.986c0-4.436 3.605-7.985 8.101-7.985 1.278 0 2.352 0.273 3.653 0.935v3.504c-1.233-1.213-2.308-1.717-3.72-1.717-2.787 0-4.976 2.313-4.976 5.241 0 3.092 2.123 5.267 5.112 5.267 1.347 0 2.397-0.48 3.585-1.671v3.504c-1.347 0.638-2.443 0.892-3.72 0.892-4.519 0-8.034-3.478-8.034-7.97zM65.239 18.601l4.11-10.254h3.216l-6.573 15.655h-1.596l-6.46-15.655h3.24zM73.914 23.612v-15.265h8.418v2.585h-5.453v3.388h5.244v2.585h-5.244v4.123h5.453v2.584h-8.418zM94.081 12.852c0 2.336-1.23 3.87-3.469 4.329l4.794 6.43h-3.651l-4.105-6.135h-0.388v6.135h-2.969v-15.265h4.404c3.425 0 5.384 1.645 5.384 4.506zM88.125 15.372c1.9 0 2.903-0.827 2.903-2.359 0-1.486-1.004-2.266-2.856-2.266h-0.911v4.626h0.863z"/> </symbol><symbol viewBox="0 0 435.97 173.13" id="icon-logo-googlepay"> <path d="M206.2,84.58v50.75H190.1V10h42.7a38.61,38.61,0,0,1,27.65,10.85A34.88,34.88,0,0,1,272,47.3a34.72,34.72,0,0,1-11.55,26.6q-11.2,10.68-27.65,10.67H206.2Zm0-59.15V69.18h27a21.28,21.28,0,0,0,15.93-6.48,21.36,21.36,0,0,0,0-30.63,21,21,0,0,0-15.93-6.65h-27Z"/> <path d="M309.1,46.78q17.85,0,28.18,9.54T347.6,82.48v52.85H332.2v-11.9h-.7q-10,14.7-26.6,14.7-14.17,0-23.71-8.4a26.82,26.82,0,0,1-9.54-21q0-13.31,10.06-21.17t26.86-7.88q14.34,0,23.62,5.25V81.25A18.33,18.33,0,0,0,325.54,67,22.8,22.8,0,0,0,310,61.13q-13.49,0-21.35,11.38l-14.18-8.93Q286.17,46.78,309.1,46.78Zm-20.83,62.3a12.86,12.86,0,0,0,5.34,10.5,19.64,19.64,0,0,0,12.51,4.2,25.67,25.67,0,0,0,18.11-7.52q8-7.53,8-17.67-7.53-6-21-6-9.81,0-16.36,4.73C290.46,100.52,288.27,104.41,288.27,109.08Z"/> <path d="M436,49.58,382.24,173.13H365.62l19.95-43.23L350.22,49.58h17.5l25.55,61.6h.35l24.85-61.6Z"/> <path d="M141.14,73.64A85.79,85.79,0,0,0,139.9,59H72V86.73h38.89a33.33,33.33,0,0,1-14.38,21.88v18h23.21C133.31,114.08,141.14,95.55,141.14,73.64Z"/> <path d="M72,144c19.43,0,35.79-6.38,47.72-17.38l-23.21-18C90.05,113,81.73,115.5,72,115.5c-18.78,0-34.72-12.66-40.42-29.72H7.67v18.55A72,72,0,0,0,72,144Z"/> <path d="M31.58,85.78a43.14,43.14,0,0,1,0-27.56V39.67H7.67a72,72,0,0,0,0,64.66Z"/> <path d="M72,28.5A39.09,39.09,0,0,1,99.62,39.3h0l20.55-20.55A69.18,69.18,0,0,0,72,0,72,72,0,0,0,7.67,39.67L31.58,58.22C37.28,41.16,53.22,28.5,72,28.5Z"/> </symbol><symbol viewBox="0 0 49.866 49.866" id="icon-logo-klarna"><path d="M13.201 18.265h-1.658c-.415.001-.454.042-.454.462v12.291c0 .343.059.4.397.402.542.003 1.085 0 1.629 0 .511 0 .558-.045.558-.549V20.438v-1.715c-.001-.389-.073-.457-.472-.458zM2.339 18.266a85.129 85.129 0 0 0-1.516.001c-.53.008-.823.31-.823.842v11.866c0 .349.047.396.397.396.514.004 1.029.004 1.543 0 .54-.004.811-.273.811-.81V18.695c.001-.347-.072-.426-.412-.429zM9.724 31.072c-.147-1.464-.68-2.763-1.705-3.836-1.104-1.154-2.462-1.789-3.943-1.936-.478-.009-.482-.009-.469.352.005.133.031.264.051.396.265 1.755 1.123 3.153 2.551 4.198.936.688 1.995 1.045 3.148 1.153.343.033.401.009.367-.327zM9.365 18.298c-.131.021-.267.013-.397.033-1.502.239-2.777.904-3.791 2.043-.929 1.042-1.445 2.271-1.567 3.659-.031.362-.011.363.37.412.523-.129 1.067-.208 1.567-.398 2.497-.948 3.863-2.788 4.178-5.428.04-.335-.016-.373-.36-.321zM22.763 24.496c-.038-1.457-.867-2.432-2.269-2.777-1.555-.386-3.096-.16-4.629.167-.182.038-.257.169-.253.36.008.341.002.685.002 1.028 0 .489.064.513.548.484a52.359 52.359 0 0 1 2.964-.098c.59 0 .948.333 1.046.867.031.166.019.342.019.513.002.663.001.669-.653.661-.914-.009-1.825.021-2.71.289-.914.274-1.571.815-1.769 1.789a4.336 4.336 0 0 0 .039 1.896c.212.875.742 1.471 1.608 1.729.962.283 1.915.242 2.83-.201.262-.127.511-.283.804-.446.012.091.021.137.023.184.022.43.076.484.512.484.514.001 1.028.002 1.543 0 .299-.002.405-.097.404-.388-.013-2.181-.002-4.363-.059-6.541zm-2.825 4.912c-.56.217-1.126.334-1.727.23-.374-.064-.648-.286-.68-.666a3.803 3.803 0 0 1 .06-1.044c.073-.362.339-.627.702-.673.592-.073 1.191-.089 1.787-.11.053-.002.154.127.159.201.019.294.008.59.008.885 0 .23-.018.46.005.687.03.264-.073.398-.314.49zM48.592 20.968v.075h.21v.613h.09v-.613h.21v-.075zM49.823 20.968h-.119l-.123.333c-.029.087-.055.162-.072.232h-.001c-.021-.072-.042-.148-.07-.232l-.117-.333h-.113l-.047.688h.084l.02-.296a9.67 9.67 0 0 0 .013-.304h.002c.021.081.047.17.079.267l.112.329h.067l.121-.335c.035-.095.062-.181.086-.261h.002c0 .084.006.202.013.297l.016.303h.09l-.043-.688zM39.115 25.146a7.65 7.65 0 0 0-.18-1.557c-.225-1.055-.83-1.798-1.941-1.992-1.213-.215-2.369-.043-3.41.663-.102.068-.204.13-.379.241-.008-.205-.02-.332-.022-.461-.008-.336-.066-.399-.404-.401-.537-.003-1.069-.004-1.602.001-.314.002-.408.1-.408.413v8.918c0 .349.094.445.436.447.591.002 1.182-.006 1.773.005.264.003.383-.101.378-.372-.01-.59-.003-1.18-.003-1.772 0-1.572-.003-3.144.006-4.716 0-.13.034-.325.121-.379.656-.404 1.36-.652 2.143-.522.431.071.733.324.814.769.057.308.1.621.1.933.012 1.869.006 3.736.006 5.604 0 .407.047.452.464.452.534.003 1.069.003 1.602 0 .461 0 .514-.051.514-.502 0-1.922.013-3.846-.008-5.772zM48.216 25.035a5.978 5.978 0 0 0-.06-.884c-.178-1.14-.789-1.954-1.896-2.323a5.778 5.778 0 0 0-1.446-.293c-1.164-.073-2.314.066-3.453.323-.25.058-.355.194-.354.438v.943c0 .506.07.545.562.519.98-.055 1.959-.099 2.938-.105.632-.002.986.323 1.093.948.048.28.022.571.037.854.01.188-.079.25-.259.244-.41-.006-.825-.041-1.229.008-.695.082-1.4.162-2.072.35-.891.251-1.469.874-1.615 1.812-.059.389-.049.793-.03 1.189.076 1.608 1.303 2.664 2.908 2.534.811-.063 1.575-.256 2.239-.751.045-.032.102-.05.164-.078.029.044.047.055.049.073a.87.87 0 0 1 .017.144c.022.415.049.44.475.44.496.003.99.003 1.486 0 .399 0 .448-.045.448-.438.001-1.982.003-3.965-.002-5.947zm-2.519 3.974c.007.182-.071.278-.23.349-.585.259-1.186.392-1.829.287-.463-.079-.734-.393-.726-.975.015-.989.233-1.436 1.436-1.527.359-.028.724.001 1.085-.007.203-.009.268.086.264.274-.009.276-.004.554-.004.828.002.256-.008.512.004.771zM29.692 21.877c.001-.255-.113-.364-.366-.354a3.64 3.64 0 0 0-2.018.701c-.082.06-.164.115-.287.203-.01-.137-.021-.218-.021-.3-.008-.41-.08-.486-.481-.486-.517-.002-1.029-.001-1.544-.001-.471.001-.549.077-.549.546v8.718c0 .422.093.516.494.516.542.003 1.087.003 1.63 0 .438 0 .508-.066.508-.518.001-2.113.003-4.229-.004-6.347 0-.209.061-.328.253-.419.636-.299 1.288-.523 2.003-.494.262.011.389-.088.383-.365a34.39 34.39 0 0 1-.001-1.4z"/></symbol><symbol viewBox="0 0 54 32" id="icon-logo-mastercard"> <path d="M48.366 15.193c0.6 0 0.9 0.437 0.9 1.282 0 1.281-0.546 2.209-1.337 2.209-0.6 0-0.9-0.436-0.9-1.31 0-1.281 0.573-2.182 1.337-2.182zM38.276 18.275c0-0.655 0.491-1.009 1.472-1.009 0.109 0 0.191 0.027 0.382 0.027-0.027 0.982-0.545 1.636-1.227 1.636-0.382 0-0.628-0.245-0.628-0.655zM26.278 15.848c0 0.082-0 0.192-0 0.327h-1.909c0.164-0.763 0.545-1.173 1.091-1.173 0.518 0 0.818 0.3 0.818 0.845zM38.060 0.002c8.838 0 16.003 7.165 16.003 16.002s-7.165 15.999-16.003 15.999c-3.834 0-7.324-1.344-10.080-3.594 2.102-2.031 3.707-4.567 4.568-7.44h-1.33c-0.833 2.553-2.297 4.807-4.199 6.627-1.892-1.816-3.342-4.078-4.172-6.62h-1.33c0.858 2.856 2.435 5.401 4.521 7.432-2.749 2.219-6.223 3.594-10.036 3.594-8.837 0-16.002-7.163-16.002-15.999s7.164-16.001 16.002-16.001c3.814 0 7.287 1.377 10.036 3.603-2.087 2.023-3.664 4.568-4.521 7.424h1.33c0.83-2.542 2.28-4.804 4.172-6.607 1.903 1.808 3.367 4.060 4.199 6.614h1.33c-0.861-2.872-2.466-5.413-4.568-7.443 2.757-2.249 6.246-3.592 10.080-3.592zM7.217 20.213h1.691l1.336-8.044h-2.672l-1.637 4.99-0.082-4.99h-2.454l-1.336 8.044h1.582l1.037-6.135 0.136 6.135h1.173l2.209-6.189zM14.47 19.477l0.054-0.408 0.382-2.318c0.109-0.736 0.136-0.982 0.136-1.309 0-1.254-0.791-1.909-2.263-1.909-0.627 0-1.2 0.082-2.045 0.327l-0.246 1.473 0.163-0.028 0.246-0.081c0.382-0.109 0.928-0.164 1.418-0.164 0.79 0 1.091 0.164 1.091 0.6 0 0.109 0 0.191-0.055 0.409-0.273-0.027-0.518-0.054-0.709-0.054-1.909 0-2.999 0.927-2.999 2.536 0 1.064 0.627 1.773 1.554 1.773 0.791 0 1.364-0.246 1.8-0.791l-0.027 0.682h1.418l0.027-0.164 0.027-0.246zM17.988 16.314c-0.736-0.327-0.819-0.409-0.819-0.709 0-0.355 0.3-0.519 0.845-0.519 0.328 0 0.791 0.028 1.227 0.082l0.246-1.5c-0.436-0.082-1.118-0.137-1.5-0.137-1.909 0-2.59 1.009-2.563 2.208 0 0.818 0.382 1.391 1.282 1.828 0.709 0.327 0.818 0.436 0.818 0.709 0 0.409-0.3 0.6-0.982 0.6-0.518 0-0.982-0.082-1.527-0.245l-0.246 1.5 0.082 0.027 0.3 0.054c0.109 0.027 0.246 0.055 0.464 0.055 0.382 0.054 0.709 0.054 0.928 0.054 1.8 0 2.645-0.682 2.645-2.181 0-0.9-0.354-1.418-1.2-1.828zM21.75 18.741c-0.409 0-0.573-0.136-0.573-0.464 0-0.082 0-0.164 0.027-0.273l0.463-2.726h0.873l0.218-1.609h-0.873l0.191-0.982h-1.691l-0.737 4.472-0.082 0.518-0.109 0.654c-0.027 0.191-0.055 0.409-0.055 0.573 0 0.954 0.491 1.445 1.364 1.445 0.382 0 0.764-0.055 1.227-0.218l0.218-1.445c-0.109 0.054-0.273 0.054-0.464 0.054zM25.732 18.851c-0.982 0-1.5-0.381-1.5-1.145 0-0.055 0-0.109 0.027-0.191h3.382c0.163-0.682 0.218-1.145 0.218-1.636 0-1.446-0.9-2.373-2.318-2.373-1.718 0-2.973 1.663-2.973 3.899 0 1.936 0.982 2.945 2.89 2.945 0.628 0 1.173-0.082 1.773-0.273l0.273-1.636c-0.6 0.3-1.145 0.409-1.773 0.409zM31.158 15.524h0.109c0.164-0.79 0.382-1.363 0.655-1.881l-0.055-0.027h-0.164c-0.573 0-0.9 0.273-1.418 1.064l0.164-1.009h-1.554l-1.064 6.544h1.718c0.627-4.008 0.791-4.69 1.609-4.69zM36.122 20.133l0.3-1.827c-0.545 0.273-1.036 0.409-1.445 0.409-1.009 0-1.609-0.737-1.609-1.963 0-1.773 0.9-3.027 2.182-3.027 0.491 0 0.928 0.136 1.528 0.436l0.3-1.745c-0.163-0.054-0.218-0.082-0.436-0.163l-0.682-0.164c-0.218-0.054-0.491-0.082-0.791-0.082-2.263 0-3.845 2.018-3.845 4.88 0 2.155 1.146 3.491 3 3.491 0.463 0 0.872-0.082 1.5-0.246zM41.521 19.069l0.355-2.318c0.136-0.736 0.136-0.982 0.136-1.309 0-1.254-0.763-1.909-2.236-1.909-0.627 0-1.2 0.082-2.045 0.327l-0.246 1.473 0.164-0.028 0.218-0.081c0.382-0.109 0.955-0.164 1.446-0.164 0.791 0 1.091 0.164 1.091 0.6 0 0.109-0.027 0.191-0.082 0.409-0.246-0.027-0.491-0.054-0.682-0.054-1.909 0-3 0.927-3 2.536 0 1.064 0.627 1.773 1.555 1.773 0.791 0 1.363-0.246 1.8-0.791l-0.028 0.682h1.418v-0.164l0.027-0.246 0.054-0.327zM43.648 20.214c0.627-4.008 0.791-4.69 1.608-4.69h0.109c0.164-0.79 0.382-1.363 0.655-1.881l-0.055-0.027h-0.164c-0.572 0-0.9 0.273-1.418 1.064l0.164-1.009h-1.554l-1.037 6.544h1.691zM48.829 20.214l1.608 0 1.309-8.044h-1.691l-0.382 2.291c-0.464-0.6-0.955-0.9-1.637-0.9-1.5 0-2.782 1.854-2.782 4.035 0 1.636 0.818 2.7 2.073 2.7 0.627 0 1.118-0.218 1.582-0.709zM11.306 18.279c0-0.655 0.492-1.009 1.447-1.009 0.136 0 0.218 0.027 0.382 0.027-0.027 0.982-0.518 1.636-1.228 1.636-0.382 0-0.6-0.245-0.6-0.655z"/> </symbol><symbol viewBox="0 0 57 32" id="icon-logo-paypal"> <path d="M47.11 10.477c2.211-0.037 4.633 0.618 4.072 3.276l-1.369 6.263h-3.159l0.211-0.947c-1.72 1.712-6.038 1.821-5.335-2.111 0.491-2.294 2.878-3.023 6.423-3.023 0.246-1.020-0.457-1.274-1.65-1.238s-2.633 0.437-3.089 0.655l0.281-2.293c0.913-0.182 2.106-0.583 3.615-0.583zM47.32 16.885c0.069-0.291 0.106-0.547 0.176-0.838h-0.773c-0.596 0-1.579 0.146-1.931 0.765-0.456 0.728 0.177 1.348 0.878 1.311 0.807-0.037 1.474-0.401 1.65-1.238zM53.883 8h3.242l-2.646 12.016h-3.209zM39.142 8.037c1.689 0 3.729 1.274 3.131 4.077-0.528 2.476-2.498 3.933-4.89 3.933h-2.428l-0.879 3.969h-3.412l2.603-11.979h5.874zM39.037 12.114c0.211-0.911-0.317-1.638-1.197-1.638h-1.689l-0.704 3.277h1.583c0.88 0 1.795-0.728 2.006-1.638zM16.346 10.476c2.184-0.037 4.611 0.618 4.056 3.276l-1.352 6.262h-3.155l0.208-0.947c-1.664 1.712-5.929 1.821-5.235-2.111 0.486-2.294 2.844-3.023 6.345-3.023 0.208-1.020-0.485-1.274-1.664-1.238s-2.601 0.437-3.017 0.655l0.277-2.293c0.867-0.182 2.046-0.583 3.537-0.583zM16.589 16.885c0.035-0.291 0.104-0.547 0.173-0.838h-0.797c-0.555 0-1.525 0.146-1.872 0.765-0.451 0.728 0.138 1.348 0.832 1.311 0.797-0.037 1.491-0.401 1.664-1.238zM28.528 10.648l3.255-0-7.496 13.351h-3.528l2.306-3.925-1.289-9.426h3.156l0.508 5.579zM8.499 8.036c1.728 0 3.738 1.274 3.139 4.077-0.529 2.476-2.504 3.933-4.867 3.933h-2.468l-0.847 3.969h-3.456l2.609-11.979h5.89zM8.393 12.114c0.247-0.911-0.317-1.638-1.164-1.638h-1.693l-0.741 3.277h1.623c0.882 0 1.763-0.728 1.975-1.638z"/> </symbol><symbol viewBox="0 0 26 26" id="icon-logo-small"><path d="M17.647 12.125h-3.323c-.11 0-.197.087-.197.194v2.327c0 .107.087.193.197.193h3.323c.95 0 1.542-.524 1.542-1.357 0-.795-.594-1.358-1.543-1.358zm-2.62-2.423h3.233c2.51 0 3.988 1.57 3.988 3.296 0 1.35-.915 2.345-1.885 2.78-.155.07-.15.283.01.346 1.128.443 1.94 1.623 1.94 3 0 1.96-1.305 3.512-3.837 3.512h-6.96c-.11 0-.197-.087-.197-.194v-9.03L.237 24.49c-.51.508-.148 1.378.57 1.378h24.254c.446 0 .808-.362.808-.808V.81c0-.72-.87-1.08-1.38-.572L15.03 9.702zm-.703 7.562c-.11 0-.197.087-.197.194v2.56c0 .106.087.193.197.193h3.44c1.05 0 1.682-.542 1.682-1.472 0-.815-.593-1.474-1.68-1.474h-3.442z" fill="#000" fill-rule="evenodd"/></symbol><symbol viewBox="0 0 49 32" id="icon-logo-visa"> <path d="M14.059 10.283l4.24-0-6.302 15.472-4.236 0.003-3.259-12.329c2.318 0.952 4.379 3.022 5.219 5.275l0.42 2.148zM17.416 25.771l2.503-15.501h4.001l-2.503 15.501h-4.002zM31.992 16.494c2.31 1.106 3.375 2.444 3.362 4.211-0.032 3.217-2.765 5.295-6.97 5.295-1.796-0.020-3.526-0.394-4.459-0.826l0.56-3.469 0.515 0.246c1.316 0.579 2.167 0.814 3.769 0.814 1.151 0 2.385-0.476 2.396-1.514 0.007-0.679-0.517-1.165-2.077-1.924-1.518-0.74-3.53-1.983-3.505-4.211 0.024-3.012 2.809-5.116 6.765-5.116 1.55 0 2.795 0.339 3.586 0.651l-0.542 3.36-0.359-0.178c-0.74-0.314-1.687-0.617-2.995-0.595-1.568 0-2.293 0.689-2.293 1.333-0.010 0.728 0.848 1.204 2.246 1.923zM46.199 10.285l3.239 15.49h-3.714s-0.368-1.782-0.488-2.322c-0.583 0-4.667-0.008-5.125-0.008-0.156 0.42-0.841 2.331-0.841 2.331h-4.205l5.944-14.205c0.419-1.011 1.138-1.285 2.097-1.285h3.093zM41.263 20.274c0.781 0 2.698 0 3.322 0-0.159-0.775-0.927-4.474-0.927-4.474l-0.27-1.337c-0.202 0.581-0.554 1.52-0.531 1.479 0 0-1.262 3.441-1.594 4.332zM9.723 18.702c-1.648-4.573-5.284-6.991-9.723-8.109l0.053-0.322h6.453c0.87 0.034 1.573 0.326 1.815 1.308z"/> </symbol><symbol viewBox="0 0 14 10" id="icon-ob-arrow-right"> <path d="M13.9544 4.55C13.9544 4.65 13.9544 4.65 13.9544 4.75C13.9544 4.85 13.8544 4.85 13.8544 4.95L9.85444 8.95C9.65444 9.05 9.45444 9.15 9.35444 9.15C9.25444 9.15 8.95444 9.05 8.85444 8.95C8.75444 8.85 8.65444 8.65 8.65444 8.55C8.65444 8.35 8.75444 8.25 8.85444 8.15L11.7544 5.25H1.15444C0.854443 5.15 0.554443 4.85 0.554443 4.55C0.554443 4.25 0.854443 3.95 1.15444 3.95H11.7544L8.85444 1.05C8.75444 0.85 8.65444 0.75 8.65444 0.55C8.65444 0.35 8.75444 0.25 8.85444 0.15C9.05444 -0.05 9.45444 -0.05 9.75444 0.15L13.7544 4.15C13.7544 4.25 13.8544 4.25 13.8544 4.35C13.8544 4.35 13.9544 4.45 13.9544 4.55Z" fill="#C41230"/> </symbol><symbol viewBox="0 0 34 32" id="icon-pinterest"> <path d="M1.356 15.647c0 6.24 3.781 11.6 9.192 13.957-0.043-1.064-0.008-2.341 0.267-3.499 0.295-1.237 1.976-8.303 1.976-8.303s-0.491-0.973-0.491-2.411c0-2.258 1.319-3.945 2.962-3.945 1.397 0 2.071 1.041 2.071 2.288 0 1.393-0.895 3.477-1.356 5.408-0.385 1.616 0.817 2.935 2.424 2.935 2.909 0 4.869-3.708 4.869-8.101 0-3.34-2.267-5.839-6.39-5.839-4.658 0-7.56 3.447-7.56 7.297 0 1.328 0.394 2.264 1.012 2.989 0.284 0.333 0.324 0.467 0.221 0.849-0.074 0.28-0.243 0.955-0.313 1.223-0.102 0.386-0.417 0.524-0.769 0.381-2.145-0.869-3.145-3.201-3.145-5.822 0-4.329 3.679-9.519 10.975-9.519 5.863 0 9.721 4.21 9.721 8.729 0 5.978-3.349 10.443-8.285 10.443-1.658 0-3.217-0.889-3.751-1.899 0 0-0.892 3.511-1.080 4.189-0.325 1.175-0.963 2.349-1.546 3.264 1.381 0.405 2.84 0.625 4.352 0.625 8.48 0 15.355-6.822 15.355-15.238s-6.876-15.238-15.355-15.238c-8.48 0-15.356 6.822-15.356 15.238z"/> </symbol><symbol viewBox="0 0 26 28" id="icon-print"> <path d="M0 21.5v-6.5q0-1.234 0.883-2.117t2.117-0.883h1v-8.5q0-0.625 0.438-1.062t1.062-0.438h10.5q0.625 0 1.375 0.313t1.188 0.75l2.375 2.375q0.438 0.438 0.75 1.188t0.313 1.375v4h1q1.234 0 2.117 0.883t0.883 2.117v6.5q0 0.203-0.148 0.352t-0.352 0.148h-3.5v2.5q0 0.625-0.438 1.062t-1.062 0.438h-15q-0.625 0-1.062-0.438t-0.438-1.062v-2.5h-3.5q-0.203 0-0.352-0.148t-0.148-0.352zM6 24h14v-4h-14v4zM6 14h14v-6h-2.5q-0.625 0-1.062-0.438t-0.438-1.062v-2.5h-10v10zM22 15q0 0.406 0.297 0.703t0.703 0.297 0.703-0.297 0.297-0.703-0.297-0.703-0.703-0.297-0.703 0.297-0.297 0.703z"/> </symbol><symbol viewBox="0 0 24 24" id="icon-remove"><path d="M19 13H5v-2h14v2z"/></symbol><symbol viewBox="0 0 32 32" id="icon-rss"> <path d="M-0.465347858,2.01048219 C-0.465347858,2.01048219 28.7009958,0.574406533 31,31.3201126 L25.1092027,31.3201126 C25.1092027,31.3201126 26.2597741,8.90749482 -0.465347858,6.89506416 L-0.465347858,2.01048219 L-0.465347858,2.01048219 Z M-0.465347858,12.2127144 C-0.465347858,12.2127144 16.6328276,11.6363594 19.9369779,31.3201126 L14.0472499,31.3201126 C14.0472499,31.3201126 13.3297467,19.6839434 -0.465347858,17.0940884 L-0.465347858,12.2127144 L-0.465347858,12.2127144 Z M2.73614917,25.0304648 C4.79776783,25.0304648 6.47229834,26.7007181 6.47229834,28.766614 C6.47229834,30.8282326 4.79776783,32.5016938 2.73614917,32.5016938 C0.6723919,32.5016938 -1,30.8293019 -1,28.766614 C-1,26.7017874 0.6723919,25.0304648 2.73614917,25.0304648 Z" id="rss-Shape"/> </symbol><symbol viewBox="0 0 26 28" id="icon-star"> <path d="M0 10.109q0-0.578 0.875-0.719l7.844-1.141 3.516-7.109q0.297-0.641 0.766-0.641t0.766 0.641l3.516 7.109 7.844 1.141q0.875 0.141 0.875 0.719 0 0.344-0.406 0.75l-5.672 5.531 1.344 7.812q0.016 0.109 0.016 0.313 0 0.328-0.164 0.555t-0.477 0.227q-0.297 0-0.625-0.187l-7.016-3.687-7.016 3.687q-0.344 0.187-0.625 0.187-0.328 0-0.492-0.227t-0.164-0.555q0-0.094 0.031-0.313l1.344-7.812-5.688-5.531q-0.391-0.422-0.391-0.75z"/> </symbol><symbol viewBox="0 0 32 32" id="icon-stumbleupon">  <mask id="stumbleupon-mask-2"> <use href="#path-1"/> </mask> <path d="M31.9250667,16.0373333 C31.9250667,24.8533333 24.7784,32 15.9624,32 C7.14666667,32 0,24.8533333 0,16.0373333 C0,7.2216 7.14666667,0.0749333333 15.9624,0.0749333333 C24.7784,0.0749333333 31.9250667,7.2216 31.9250667,16.0373333 Z M21.9205547,16.3600826 L21.9205547,18.9857015 C21.9205547,19.5214765 21.494073,19.9558236 20.968,19.9558236 C20.441927,19.9558236 20.0154453,19.5214765 20.0154453,18.9857015 L20.0154453,16.4101275 L18.1823358,16.9675798 L16.9525547,16.3839008 L16.9525547,18.9383327 C16.9717372,21.1844666 18.7659562,23 20.976146,23 C23.1984234,23 25,21.1651979 25,18.9019364 L25,16.3600826 L21.9205547,16.3600826 Z M16.9525547,14.2429415 L18.1823358,14.8266205 L20.0154453,14.2691683 L20.0154453,12.9736203 C19.9505401,10.7684323 18.1810219,9 16,9 C13.8268613,9 12.0618102,10.7555866 11.9845547,12.9492669 L11.9845547,18.8684839 C11.9845547,19.404259 11.558073,19.8386061 11.032,19.8386061 C10.505927,19.8386061 10.0794453,19.404259 10.0794453,18.8684839 L10.0794453,16.3600826 L7,16.3600826 L7,18.9019364 C7,21.1651979 8.80131387,23 11.0235912,23 C13.2264234,23 15.0119708,21.1965095 15.0429781,18.9608128 L15.0474453,13.114656 C15.0474453,12.578881 15.473927,12.1445339 16,12.1445339 C16.526073,12.1445339 16.9525547,12.578881 16.9525547,13.114656 L16.9525547,14.2429415 Z" id="stumbleupon-Fill-1" mask="url(#stumbleupon-mask-2)"/> </symbol><symbol viewBox="0 0 32 32" id="icon-tumblr"> <path d="M23.852762,25.5589268 C23.2579209,25.8427189 22.1195458,26.089634 21.2697728,26.1120809 C18.7092304,26.1810247 18.2121934,24.3131275 18.1897466,22.9566974 L18.1897466,12.9951133 L24.6159544,12.9951133 L24.6159544,8.15140729 L18.2137967,8.15140729 L18.2137967,0 L13.5256152,0 C13.4486546,0 13.3139736,0.0673405008 13.2963368,0.238898443 C13.0221648,2.73370367 11.8533261,7.11243957 7,8.86168924 L7,12.9951133 L10.2387574,12.9951133 L10.2387574,23.4521311 C10.2387574,27.0307977 12.8794671,32.1166089 19.8508122,31.9979613 C22.2013164,31.9578777 24.8131658,30.9718204 25.3919735,30.1236507 L23.852762,25.5589268"/> </symbol><symbol viewBox="0 0 43 32" id="icon-twitter"> <path d="M36.575 5.229c1.756-0.952 3.105-2.46 3.74-4.257-1.644 0.882-3.464 1.522-5.402 1.867-1.551-1.495-3.762-2.429-6.209-2.429-4.697 0-8.506 3.445-8.506 7.694 0 0.603 0.075 1.19 0.22 1.753-7.069-0.321-13.337-3.384-17.532-8.039-0.732 1.136-1.152 2.458-1.152 3.868 0 2.669 1.502 5.024 3.784 6.404-1.394-0.040-2.706-0.386-3.853-0.962-0.001 0.032-0.001 0.064-0.001 0.097 0 3.728 2.932 6.837 6.823 7.544-0.714 0.176-1.465 0.27-2.241 0.27-0.548 0-1.081-0.048-1.6-0.138 1.083 3.057 4.224 5.281 7.946 5.343-2.911 2.064-6.579 3.294-10.564 3.294-0.687 0-1.364-0.036-2.029-0.108 3.764 2.183 8.235 3.457 13.039 3.457 15.646 0 24.202-11.724 24.202-21.891 0-0.334-0.008-0.665-0.025-0.995 1.662-1.085 3.104-2.439 4.244-3.982-1.525 0.612-3.165 1.025-4.885 1.211z"/> </symbol><symbol viewBox="0 0 32 32" id="icon-youtube"> <path d="M31.6634051,8.8527593 C31.6634051,8.8527593 31.3509198,6.64879843 30.3919217,5.67824658 C29.1757339,4.40441487 27.8125088,4.39809002 27.1873503,4.32353816 C22.7118278,4 15.9983092,4 15.9983092,4 L15.984407,4 C15.984407,4 9.27104501,4 4.79536595,4.32353816 C4.17017613,4.39809002 2.80745205,4.40441487 1.59082583,5.67824658 C0.631890411,6.64879843 0.319843444,8.8527593 0.319843444,8.8527593 C0.319843444,8.8527593 0,11.4409393 0,14.0290881 L0,16.4554834 C0,19.0436008 0.319843444,21.6317495 0.319843444,21.6317495 C0.319843444,21.6317495 0.631890411,23.8357417 1.59082583,24.8062935 C2.80745205,26.0801566 4.40557339,26.0398591 5.11736986,26.1733699 C7.67602348,26.4187241 15.9913894,26.4946536 15.9913894,26.4946536 C15.9913894,26.4946536 22.7118278,26.4845401 27.1873503,26.1610333 C27.8125088,26.0864501 29.1757339,26.0801566 30.3919217,24.8062935 C31.3509198,23.8357417 31.6634051,21.6317495 31.6634051,21.6317495 C31.6634051,21.6317495 31.9827789,19.0436008 31.9827789,16.4554834 L31.9827789,14.0290881 C31.9827789,11.4409393 31.6634051,8.8527593 31.6634051,8.8527593 Z M12.6895342,19.39582 L12.6880626,10.4095186 L21.3299413,14.9183249 L12.6895342,19.39582 Z" id="youtube-Imported-Layers"/> </symbol></svg>