<svg width="1920" height="907" viewBox="0 0 1920 907" fill="none" xmlns="http://www.w3.org/2000/svg">
<path d="M1920 8.573C1918.31 9.5459 1909.43 8.43652 1898.55 7.07812C1885.48 5.44434 1869.52 3.45068 1859.71 4.28638C1847.53 5.3252 1842.68 2.9812 1839.34 1.36646C1837.76 0.601318 1836.51 0 1834.99 0C1833.32 0 1830.01 1.59717 1825.66 3.69263L1825.66 3.69336C1817.68 7.54346 1806.21 13.0752 1795.03 13.4717C1783.74 13.8799 1779.98 11.5688 1775.91 9.07544C1773.88 7.8269 1771.77 6.53271 1768.61 5.51123C1761.97 3.58374 1757.66 6.44971 1751.5 10.5469C1748.85 12.3074 1745.86 14.2949 1742.19 16.2273C1736.42 19.2727 1729.12 20.0515 1720.81 20.9387H1720.81C1711.57 21.9243 1701.09 23.0437 1690.03 27.5559C1679.55 31.8352 1673.12 39.4712 1667.45 46.199C1661.77 52.9492 1656.85 58.7849 1649.39 59.3982C1639.75 60.3667 1632.41 59.8645 1627.38 59.52H1627.38C1624.46 59.3201 1622.31 59.1733 1620.94 59.3982C1619.83 59.5811 1618.02 60.2283 1615.55 61.1116C1609.76 63.1853 1600.34 66.5596 1587.75 68.2773C1584.36 68.8896 1580.98 69.8081 1577.59 71.6453C1576.7 71.5537 1575.82 71.4622 1574.94 71.3711C1573.85 71.2578 1572.76 71.1448 1571.69 71.033L1571.68 71.0322C1559.21 69.731 1548.21 68.5835 1540 68.5835C1504.7 68.5835 1491.17 77.4316 1476.3 87.1589C1467.05 93.2063 1457.28 99.5938 1441.44 104.406C1437.02 105.739 1431.57 105.742 1425.27 105.746C1414.21 105.752 1400.54 105.76 1385.22 112.979C1376.75 109.917 1351.69 101.651 1339.16 104.1C1335.29 104.855 1328.73 108.665 1320.95 113.18C1303.48 123.312 1279.9 136.995 1267.02 127.676C1254.54 118.812 1239.42 126.25 1226.97 132.376C1220.5 135.561 1214.74 138.392 1210.46 138.392C1205.98 138.392 1201.51 139.796 1196.47 141.38C1187.38 144.232 1176.45 147.666 1160.33 144.515C1144.99 141.517 1133.21 141.042 1121.32 140.563H1121.32C1113.79 140.26 1106.22 139.954 1097.68 139.004C1087.64 137.887 1079.43 136.452 1071.06 134.989C1061.08 133.243 1050.87 131.458 1037.05 130.125C1011.99 127.982 995.393 130.125 979.474 137.473C972.479 140.772 961.388 139.443 948.437 137.89C932.544 135.984 913.852 133.743 896.497 139.31C876.74 145.456 864.579 137.869 851.237 129.545C843.308 124.599 834.962 119.392 824.357 116.653C817.106 114.758 811.117 112.638 805.593 110.683C789.703 105.06 777.667 100.8 750.524 107.162C742.734 108.999 693.625 95.2209 688.206 93.0776C659.925 82.8093 640.213 85.593 626.787 87.489C620.596 88.363 615.743 89.0483 612.002 88.1787C606.584 86.9194 602.864 87.387 597.964 88.0027C592.144 88.7341 584.658 89.6748 570.683 88.1787C555.785 86.584 542.022 87.1431 530.772 87.6001H530.763C522.58 87.9326 515.727 88.2112 510.736 87.5664C504.806 86.8005 493.197 91.0916 481.804 95.304L481.801 95.3047C470.419 99.5122 459.253 103.64 454.175 102.569C449.955 101.679 443.339 97.8831 436.171 93.7712C426.083 87.9839 414.904 81.5701 407.776 81.749C395.922 81.749 382.036 87.5664 382.036 87.5664C382.036 87.5664 311.251 73.4824 285.849 71.3391C258.502 69.0435 237.014 71.0254 220.733 72.5269C208.786 73.6289 199.644 74.4722 193.05 73.1763C188.743 72.4146 181.434 70.6467 172.64 68.5195L172.637 68.5188L172.631 68.5173C149.613 62.95 116.422 54.9226 100.25 56.0303C96.8701 56.304 92.3474 56.6521 87.0864 57.0574L86.7978 57.0793L86.7144 57.0859C56.5866 59.4045 2.87046 63.5391 0 66.134V769.892C0.481634 769.692 0.929111 769.496 1.35326 769.309L1.36416 769.304L1.36846 769.302C3.02441 768.573 4.32635 768 5.92078 768C7.66862 768 11.1323 769.522 15.6762 771.519L15.6785 771.52C24.0284 775.189 36.0248 780.46 47.7241 780.838C59.5275 781.227 63.4656 779.025 67.7146 776.648C69.842 775.459 72.0473 774.225 75.3568 773.252C82.295 771.415 86.8067 774.146 93.2562 778.051C96.0274 779.729 99.1564 781.623 102.989 783.464C109.03 786.366 116.661 787.108 125.355 787.954C135.014 788.893 145.986 789.96 157.546 794.26C168.51 798.338 175.237 805.615 181.164 812.026C187.11 818.458 192.251 824.02 200.058 824.604C210.145 825.527 217.821 825.048 223.085 824.72H223.09C226.144 824.53 228.386 824.39 229.816 824.604C230.98 824.778 232.872 825.395 235.452 826.237C241.51 828.213 251.367 831.428 264.534 833.065C268.077 833.649 271.62 834.524 275.162 836.275C277.248 836.08 279.302 835.885 281.319 835.693C294.377 834.452 305.893 833.357 314.486 833.357C351.404 833.357 365.558 841.789 381.118 851.059C390.791 856.822 401.008 862.908 417.577 867.494C422.203 868.764 427.901 868.768 434.484 868.771H434.488C446.055 868.777 460.357 868.785 476.385 875.664C485.242 872.746 511.457 864.869 524.565 867.203C528.606 867.922 535.474 871.553 543.613 875.855C561.879 885.511 586.545 898.55 600.024 889.669C613.076 881.223 628.888 888.311 641.911 894.148C648.684 897.184 654.702 899.881 659.186 899.881C663.865 899.881 668.544 901.22 673.819 902.729C683.322 905.447 694.759 908.719 711.617 905.717C727.662 902.859 739.992 902.407 752.423 901.95C760.303 901.661 768.223 901.37 777.156 900.465C787.655 899.401 796.239 898.033 804.99 896.639H804.992L804.995 896.638L804.999 896.637C815.439 894.974 826.118 893.273 840.57 892.003C866.785 889.961 884.144 892.003 900.795 899.006C908.111 902.15 919.713 900.883 933.26 899.403C949.884 897.587 969.436 895.451 987.59 900.757C1008.26 906.613 1020.98 899.383 1034.93 891.451C1043.23 886.737 1051.96 881.776 1063.05 879.166C1070.63 877.359 1076.9 875.339 1082.67 873.477C1099.3 868.118 1111.89 864.058 1140.28 870.121C1148.43 871.871 1199.79 858.741 1205.46 856.699C1235.04 846.914 1255.66 849.566 1269.71 851.373C1276.18 852.206 1281.26 852.859 1285.17 852.031C1290.84 850.831 1294.73 851.276 1299.86 851.863C1305.94 852.56 1313.77 853.456 1328.39 852.031C1343.98 850.511 1358.37 851.044 1370.14 851.479C1378.71 851.796 1385.88 852.062 1391.1 851.447C1397.3 850.717 1409.44 854.807 1421.36 858.821C1433.27 862.831 1444.95 866.765 1450.26 865.744C1454.67 864.896 1461.6 861.278 1469.09 857.36C1479.64 851.845 1491.34 845.733 1498.79 845.904C1511.19 845.904 1525.72 851.447 1525.72 851.447C1525.72 851.447 1599.76 838.026 1626.33 835.983C1654.93 833.796 1677.41 835.684 1694.44 837.115C1706.94 838.165 1716.5 838.969 1723.4 837.734C1727.9 837.008 1735.55 835.323 1744.75 833.296C1768.83 827.99 1803.55 820.339 1820.47 821.395C1822.18 821.521 1824.17 821.664 1826.4 821.822C1828.88 821.997 1831.64 822.191 1834.62 822.4C1861.02 824.251 1904.74 827.317 1920 829.717V8.573Z" fill="#F2F2F2"/>
</svg>
