<svg width="1920" height="1060" viewBox="0 0 1920 1060" fill="none" xmlns="http://www.w3.org/2000/svg">
<path d="M1920 8.57294C1916.27 10.7162 1877.66 2.75559 1859.71 4.28647C1841.76 5.81735 1839.73 0 1834.99 0C1830.25 0 1812.3 12.8594 1795.03 13.4718C1778.09 14.0841 1778.09 8.57294 1768.61 5.51118C1759.12 2.75559 1754.38 9.79765 1742.19 16.2274C1730 22.6571 1711.03 18.9829 1690.03 27.5559C1669.04 36.1288 1664.29 58.1735 1649.39 59.3982C1634.15 60.9291 1624.67 58.7859 1620.94 59.3982C1617.22 60.0106 1605.7 65.8279 1587.75 68.2773C1584.36 68.8897 1580.98 69.8082 1577.59 71.6453C1562.69 70.1144 1549.48 68.5835 1540 68.5835C1482.76 68.5835 1482.76 91.8529 1441.44 104.406C1429.25 108.08 1409.26 101.651 1385.22 112.979C1376.75 109.917 1351.69 101.651 1339.16 104.1C1326.63 106.549 1285.64 141.147 1267.02 127.676C1248.05 114.204 1222.99 138.392 1210.46 138.392C1197.93 138.392 1185.39 149.414 1160.33 144.515C1135.27 139.616 1119.69 141.454 1097.68 139.004C1075.66 136.555 1062.45 132.574 1037.05 130.125C1011.99 127.982 995.393 130.125 979.474 137.473C963.895 144.821 927.994 129.206 896.497 139.31C864.999 149.108 852.806 124.001 824.357 116.653C796.246 109.305 787.102 98.5888 750.524 107.162C742.734 108.999 693.625 95.2209 688.206 93.0776C646.887 78.075 623.856 90.9344 612.002 88.1788C600.148 85.4232 596.423 90.9344 570.683 88.1788C544.943 85.4232 522.589 89.0973 510.736 87.5665C498.882 86.0356 464.336 104.712 454.175 102.569C444.015 100.426 419.968 81.4429 407.776 81.7491C395.922 81.7491 382.036 87.5665 382.036 87.5665C382.036 87.5665 311.251 73.4823 285.849 71.3391C238.434 67.3588 208.629 76.2379 193.05 73.1762C177.47 70.4206 122.604 54.4994 100.25 56.0303C77.5586 57.8673 3.38684 63.0723 0 66.1341V1060H1920V292.092V8.57294Z" fill="#F2F2F2"/>
</svg>
