<svg width="1920" height="130" viewBox="0 0 1920 130" fill="none" xmlns="http://www.w3.org/2000/svg">
<path d="M1920.34 11.4028C1916.95 8.01591 1842.78 2.25828 1820.43 0.564862C1798.07 -1.12856 1767.25 16.1443 1751.67 19.5312C1736.09 22.5793 1682.24 -4.17671 1634.83 0.564862C1609.43 2.93565 1538.64 18.5151 1538.64 18.5151C1538.64 18.5151 1524.76 12.0801 1512.9 12.0801C1501.05 12.0801 1477 32.7398 1466.5 35.1106C1456.34 37.4814 1421.8 50.6901 1409.94 52.3835C1398.09 54.0769 1375.73 66.6083 1349.99 69.9951C1324.25 73.0433 1320.87 66.9469 1308.68 69.9951C1296.82 73.0433 1273.45 58.8185 1232.47 75.414C1227.05 77.7848 1177.94 93.0256 1170.15 90.9935C1133.24 81.5104 1124.43 59.4959 1096.32 67.6243C1068.21 75.7527 1055.68 103.864 1024.18 92.6869C992.683 81.849 957.121 99.1219 941.203 90.6548C925.623 82.5264 908.689 80.1556 883.627 82.5264C858.564 84.8972 845.017 89.3001 823.002 92.3482C800.988 95.0577 785.408 93.0256 760.346 98.4446C735.283 103.864 722.752 91.6709 710.22 91.6709C697.689 91.6709 672.626 64.9148 653.66 79.8169C634.694 94.719 594.052 86.9293 581.521 84.2198C568.989 81.5104 543.927 90.6548 535.459 94.0417C511.413 81.849 491.431 58.4798 479.238 54.0769C437.918 40.1909 437.918 14.4509 380.681 14.4509C351.893 14.4509 294.655 29.6917 242.159 14.4509C195.759 1.24223 0 36.8041 0 36.8041V168H1920.34V11.4028Z" fill="white"/>
</svg>
