<svg width="1920" height="1461" viewBox="0 0 1920 1461" fill="none" xmlns="http://www.w3.org/2000/svg">
<path d="M-82.5684 8.1697C-78.6715 10.2121 -38.2852 2.62602 -19.509 4.08489C-0.733033 5.54375 1.39246 7.5907e-05 6.35217 7.63406e-05C11.3119 7.67742e-05 30.088 12.2545 48.1555 12.8381C65.8688 13.4216 65.8688 8.16971 75.7882 5.25199C85.7076 2.62604 90.6672 9.3368 103.421 15.464C116.174 21.5912 136.013 18.09 157.978 26.2596C179.942 34.4292 184.902 55.4368 200.489 56.6039C216.432 58.0628 226.351 56.0204 230.248 56.6039C234.145 57.1875 246.19 62.7312 264.966 65.0653C268.508 65.6489 272.051 66.5242 275.594 68.2748C291.181 66.816 304.998 65.3571 314.917 65.3571C374.788 65.3571 374.788 87.5318 418.008 99.4945C430.762 102.996 451.664 96.8686 476.816 107.664C485.673 104.746 511.889 96.8686 524.996 99.2027C538.104 101.537 580.97 134.507 600.455 121.669C620.294 108.831 646.509 131.881 659.617 131.881C672.725 131.881 685.833 142.385 712.048 137.717C738.264 133.048 754.56 134.799 777.588 132.465C800.615 130.131 814.431 126.338 841.001 124.003C867.217 121.961 884.576 124.003 901.226 131.006C917.522 138.009 955.074 123.128 988.021 132.757C1020.97 142.093 1033.72 118.168 1063.48 111.165C1092.88 104.163 1102.45 93.9509 1140.71 102.121C1148.86 103.871 1200.23 90.7414 1205.89 88.699C1249.11 74.4021 1273.2 86.6566 1285.6 84.0306C1298 81.4047 1301.9 86.6566 1328.82 84.0306C1355.75 81.4047 1379.13 84.906 1391.53 83.4471C1403.93 81.9882 1440.06 99.7864 1450.69 97.744C1461.32 95.7016 1486.47 77.6117 1499.23 77.9034C1511.62 77.9034 1526.15 83.4471 1526.15 83.4471C1526.15 83.4471 1600.19 70.0256 1626.76 67.9832C1676.36 64.1901 1707.53 72.6516 1723.83 69.7338C1740.13 67.1079 1797.52 51.9357 1820.9 53.3946C1844.63 55.1452 1922.22 60.1054 1925.76 63.0231L1925.76 1460.22L-82.5685 1460.22L-82.5684 278.351L-82.5684 8.1697Z" fill="white"/>
</svg>
