<svg width="1044" height="138" viewBox="0 0 1044 138" fill="none" xmlns="http://www.w3.org/2000/svg">
<path fill-rule="evenodd" clip-rule="evenodd" d="M1032.39 3.30823C1036.96 3.10162 1040.58 1.81738 1044 0V137.639H0V19.3498C2.80597 19.3001 6.04767 19.0484 9.77386 18.7592L9.78265 18.7585L9.7865 18.7581C23.2124 17.7154 42.9255 16.1843 71.206 21.8319C76.6249 23.0107 125.734 30.5886 133.524 29.5782C160.667 26.0793 172.703 28.4222 188.593 31.5151L188.594 31.5153C194.117 32.5903 200.106 33.756 207.357 34.7985C217.961 36.3049 226.307 39.1683 234.235 41.8887L234.236 41.8889L234.237 41.8892C247.579 46.4671 259.74 50.6399 279.497 47.2599C296.852 44.1978 315.545 45.4305 331.438 46.4786C344.388 47.3326 355.479 48.0641 362.474 46.2495C378.393 42.2079 394.988 41.0292 420.051 42.2079C433.868 42.9408 444.078 43.9228 454.06 44.8829L454.066 44.8834C462.432 45.688 470.638 46.4773 480.675 47.0915C489.215 47.6141 496.787 47.7819 504.32 47.9489H504.321C516.205 48.2123 527.992 48.4736 543.332 50.1226C559.448 51.8552 570.382 49.9669 579.467 48.3981C584.51 47.5272 588.984 46.7547 593.457 46.7547C597.744 46.7547 603.497 45.1978 609.971 43.4459C622.422 40.0767 637.539 35.9861 650.017 40.8608C662.903 45.9862 686.484 38.4607 703.946 32.8882L703.948 32.8875L703.951 32.8865C711.73 30.4041 718.295 28.3094 722.157 27.8942C734.688 26.5471 759.751 31.0938 768.218 32.7777C783.541 28.8074 797.214 28.803 808.272 28.7994C814.568 28.7974 820.016 28.7957 824.439 28.0626C840.28 25.4158 850.047 21.9028 859.295 18.5767C874.171 13.2266 887.702 8.36017 922.996 8.36017C931.209 8.36017 942.215 8.99158 954.695 9.70758L954.698 9.70776C955.927 9.77826 957.17 9.84961 958.426 9.9212C959.143 9.9621 959.865 10.0031 960.59 10.0441C963.977 9.03375 967.364 8.52856 970.751 8.19177C983.339 7.24707 992.762 5.39136 998.553 4.25079L998.555 4.25061C1001.02 3.76483 1002.83 3.40881 1003.94 3.30823C1005.31 3.18451 1007.46 3.26526 1010.38 3.37524C1015.41 3.5647 1022.75 3.84094 1032.39 3.30823Z" fill="white"/>
</svg>
