<svg width="1920" height="925" viewBox="0 0 1920 925" fill="none" xmlns="http://www.w3.org/2000/svg">
<path d="M-39.2944 26.8125C-39.2944 27.1653 -38.9416 27.5181 -38.9416 27.5181C-36.472 32.1044 -34.0025 37.0436 -37.8832 37.7492C-38.236 37.7492 -39.6472 37.7492 -40 38.102V924.5H1960V133.004C1959.65 133.004 1958.24 133.004 1957.88 133.004C1954 132.651 1956.82 128.77 1958.94 125.243C1958.94 124.89 1959.29 124.89 1959.29 124.537C1960.35 122.773 1960 122.067 1958.94 121.715C1957.88 121.009 1955.77 121.009 1955.06 119.598C1953.65 117.128 1951.53 116.07 1954 113.247C1956.82 110.778 1952.59 110.778 1950.47 109.014C1948.36 107.25 1948.36 104.075 1948.36 104.075C1938.83 104.428 1940.6 110.425 1938.13 115.364C1935.66 120.303 1940.95 119.598 1938.48 123.126C1936.01 126.654 1926.84 122.773 1929.31 127.712C1932.13 133.004 1937.07 130.182 1932.13 135.826C1927.19 141.471 1906.37 136.885 1908.14 139.354C1909.55 141.824 1922.6 141.118 1924.37 144.646C1925.78 148.174 1924.72 150.291 1919.78 154.525C1914.49 158.405 1910.26 155.583 1908.84 159.111C1907.43 162.639 1912.73 165.814 1909.9 165.814C1907.08 165.814 1902.85 164.403 1903.2 167.931C1903.55 171.459 1907.79 172.517 1908.84 176.751C1909.55 181.337 1904.96 177.104 1898.97 180.279C1892.97 183.807 1913.43 188.04 1908.84 191.568C1904.26 195.096 1890.85 186.276 1891.2 191.215C1891.56 195.802 1903.55 201.094 1895.44 201.094C1887.68 201.094 1886.27 201.094 1891.2 206.386C1894.73 210.266 1900.73 212.383 1903.2 214.5C1901.44 216.264 1899.67 217.675 1897.91 219.439C1892.97 220.145 1887.32 220.85 1887.68 223.32C1887.68 224.025 1888.38 224.731 1888.74 225.437C1883.44 228.259 1877.8 230.376 1873.21 230.376C1862.98 230.376 1863.33 234.256 1874.98 220.145C1886.27 205.68 1893.32 177.809 1889.09 182.395C1884.85 186.982 1877.8 187.687 1873.21 187.687C1868.98 187.687 1855.57 184.512 1862.63 175.692C1869.68 166.52 1876.74 137.943 1871.45 140.413C1866.16 142.53 1865.45 148.527 1853.1 146.41C1840.75 144.294 1853.81 129.123 1857.34 119.245C1860.86 109.367 1858.04 106.544 1850.28 115.364C1842.52 124.537 1838.99 115.364 1836.17 108.661C1833.7 101.958 1838.99 92.0797 1836.17 80.7903C1833.7 69.5008 1830.17 64.9144 1830.17 64.9144C1821.35 64.2089 1819.59 70.2064 1819.23 80.0847C1818.88 89.963 1809.71 113.247 1806.18 107.25C1802.65 101.252 1799.12 93.8437 1797.36 107.956C1795.6 122.42 1808.65 131.24 1800.89 127.712C1793.13 123.831 1795.6 114.306 1788.54 123.126C1781.49 132.298 1789.25 133.71 1797.36 142.882C1805.12 152.055 1798.07 158.758 1793.13 158.053C1787.84 157.347 1780.07 152.055 1773.02 144.646C1765.96 137.238 1765.26 139.354 1765.26 149.233C1765.26 159.111 1782.9 165.814 1789.95 174.987C1797.01 184.159 1780.43 185.571 1775.13 183.454C1769.84 181.337 1767.37 187.335 1771.61 197.918C1775.84 208.502 1765.61 210.619 1758.55 210.619C1751.5 210.619 1752.56 193.332 1745.5 202.505C1738.44 211.678 1741.27 227.553 1750.79 244.135C1760.32 260.716 1765.26 265.655 1758.91 267.066C1755.73 267.772 1751.85 266.714 1747.26 263.891C1749.03 260.363 1750.44 256.483 1745.85 258.599C1744.44 259.305 1743.03 259.658 1741.62 260.011C1738.8 257.894 1735.62 255.071 1732.09 251.896C1732.45 251.543 1732.8 251.191 1733.15 250.838C1737.39 247.31 1740.21 238.843 1734.56 240.607C1731.04 241.665 1728.57 245.193 1726.1 246.957C1723.63 245.546 1721.86 245.193 1720.8 245.899C1720.45 243.429 1723.27 239.196 1724.69 236.02C1726.8 231.787 1731.39 227.201 1726.45 228.259C1721.51 229.67 1722.22 226.142 1718.69 225.789C1718.69 225.789 1719.04 209.914 1716.22 208.502C1713.4 207.091 1715.51 221.909 1714.1 224.731C1712.69 227.553 1706.34 224.378 1703.87 224.378C1701.4 224.378 1711.98 232.845 1711.28 234.962C1710.57 237.079 1696.81 237.079 1695.05 232.845C1693.64 228.612 1691.87 236.373 1697.17 240.96C1702.46 245.546 1706.34 257.894 1703.87 258.599C1701.75 258.952 1685.88 250.838 1683.06 245.899C1680.23 240.96 1685.88 266.714 1693.99 270.242C1702.11 273.77 1693.99 273.77 1685.52 276.945C1677.06 279.767 1679.17 284.353 1684.47 286.823C1686.94 287.881 1690.82 289.998 1693.99 292.468C1693.64 292.468 1693.64 292.468 1693.29 292.468C1689.05 292.821 1688.7 294.585 1690.11 298.113C1682.7 296.701 1673.18 293.526 1670 291.409C1666.83 289.293 1667.88 291.409 1669.3 294.585C1666.12 294.232 1662.24 293.879 1663.65 292.468C1665.42 289.998 1668.94 287.176 1665.77 286.117C1662.59 285.412 1655.18 286.117 1654.48 282.59C1653.77 279.062 1657.3 278.709 1663.3 277.65C1669.3 276.592 1674.59 270.594 1674.24 268.478C1674.24 266.361 1668.94 267.772 1663.3 268.83C1657.65 270.242 1647.42 269.536 1643.19 267.419C1638.96 264.95 1645.31 263.891 1651.66 263.891C1658.01 263.539 1658.01 259.305 1662.24 256.483C1666.47 254.013 1679.53 248.368 1671.77 248.721C1664.36 249.074 1657.3 245.546 1654.48 245.899C1651.66 246.252 1652.01 240.96 1653.42 239.196C1654.48 237.432 1659.07 234.962 1655.54 233.198C1652.01 231.434 1643.19 234.609 1644.6 229.67C1646.01 224.731 1654.83 218.733 1649.54 218.733C1642.84 218.733 1631.55 214.853 1630.84 212.03C1630.14 209.208 1637.19 208.502 1638.25 205.68C1639.31 203.21 1632.96 202.152 1630.14 201.446C1626.96 201.094 1629.43 196.86 1631.19 193.332C1632.96 189.804 1629.08 190.863 1628.02 188.393C1626.96 185.923 1625.2 184.865 1627.31 182.043C1629.43 179.573 1626.61 179.22 1624.49 177.809C1613.2 170.048 1618.49 168.636 1618.14 165.108C1617.79 161.581 1610.38 148.88 1603.32 167.931C1600.85 174.987 1595.56 170.048 1591.68 181.337C1590.62 185.218 1584.62 184.865 1586.74 190.157C1588.86 195.449 1589.21 192.627 1585.33 198.271C1581.45 203.916 1569.45 199.33 1570.51 201.799C1571.57 204.269 1577.92 206.738 1579.33 209.914C1580.39 213.442 1579.69 215.558 1575.81 219.439C1571.92 223.32 1568.4 220.497 1567.34 223.673C1566.28 227.201 1570.51 230.376 1568.4 230.376C1566.28 230.376 1563.1 228.965 1563.1 232.492C1563.46 236.02 1566.63 236.726 1567.34 241.312C1568.04 245.546 1557.11 247.663 1552.52 251.191C1547.93 254.719 1563.81 258.599 1559.93 262.48C1556.4 266.008 1546.17 257.188 1546.17 262.127C1546.52 266.714 1555.7 271.653 1549.35 271.653C1543.35 271.653 1542.29 271.653 1546.17 276.945C1549.7 282.237 1553.93 284.353 1552.17 287.529C1550.4 290.704 1535.94 289.645 1536.29 293.526C1536.29 295.29 1538.41 296.349 1540.53 297.407C1540.53 298.113 1540.53 298.818 1540.53 299.876C1540.53 301.993 1542.29 303.757 1544.41 305.521C1540.88 306.227 1535.59 306.227 1531.35 308.696C1524.3 312.577 1523.94 313.988 1527.47 315.4C1531 316.811 1534.88 315.4 1541.94 315.752C1547.93 316.105 1549.35 317.163 1547.93 321.044C1544.41 319.986 1542.64 322.455 1544.05 327.395C1541.23 329.159 1537.7 327.395 1532.76 327.395C1527.82 327.395 1527.82 329.864 1528.88 332.334C1527.82 330.923 1526.77 330.57 1524.3 332.687C1520.06 336.92 1520.42 343.27 1523.59 350.679C1521.83 351.032 1520.06 351.385 1517.95 351.737C1508.77 353.149 1506.3 348.21 1503.13 352.09C1499.95 355.971 1506.3 357.735 1511.95 360.91C1516.54 363.733 1524.65 360.205 1529.59 360.205C1530.29 361.263 1531 362.321 1531.71 363.027C1529.59 364.791 1525 366.555 1522.18 368.319C1521.83 368.319 1521.47 368.672 1521.47 368.672C1518.65 366.908 1515.48 364.791 1511.95 362.321C1500.66 354.207 1502.07 365.497 1507.01 373.611C1509.48 377.844 1512.3 381.02 1514.07 384.548C1511.95 384.9 1511.24 385.606 1509.48 388.075C1507.01 391.603 1509.48 393.015 1514.77 396.895C1515.12 397.248 1515.48 397.601 1515.83 397.954C1514.42 402.187 1510.19 399.365 1502.42 399.012C1499.25 399.012 1496.78 397.601 1494.66 395.837C1495.72 395.837 1496.43 395.837 1497.13 395.484C1499.95 394.426 1499.6 393.72 1493.96 391.603C1492.55 390.898 1490.78 390.545 1489.37 390.545C1489.72 388.075 1487.96 383.489 1486.9 381.372C1485.49 379.256 1485.49 377.139 1482.31 375.375C1483.37 374.669 1484.43 373.964 1485.49 372.905C1488.31 369.73 1487.61 369.73 1483.02 369.73C1478.43 369.73 1485.49 366.908 1485.49 364.085C1485.84 361.263 1477.73 366.555 1475.26 364.438C1472.44 362.321 1484.43 359.852 1480.9 357.735C1477.38 355.618 1474.55 358.088 1475.26 355.618C1475.61 353.149 1478.08 352.443 1478.43 350.326C1478.79 348.21 1475.96 349.268 1474.55 349.268C1472.79 349.268 1476.32 347.151 1475.26 345.387C1474.2 343.27 1471.73 345.034 1468.91 342.918C1468.56 342.565 1468.56 342.565 1468.2 342.212C1469.61 341.859 1471.02 342.212 1472.44 342.918C1475.96 345.034 1481.61 345.74 1487.25 345.034C1493.25 344.682 1491.84 341.154 1487.25 340.095C1482.67 339.037 1481.96 332.334 1479.49 329.159C1477.02 325.983 1475.61 324.219 1471.73 322.808C1469.61 322.103 1463.62 321.397 1458.32 320.339C1458.32 319.986 1458.32 319.986 1457.97 319.633C1457.27 318.222 1457.27 316.811 1456.56 315.4C1459.38 315.4 1462.91 315.752 1465.73 315.4C1472.08 313.988 1476.67 309.402 1475.26 307.991C1473.85 306.58 1465.38 307.285 1467.14 304.816C1468.91 302.699 1472.08 299.524 1469.26 298.818C1466.44 298.113 1459.03 298.818 1458.32 295.29C1457.62 291.762 1461.15 291.409 1466.79 290.351C1472.79 289.293 1477.73 283.648 1477.73 281.531C1477.73 279.414 1472.44 280.826 1466.79 281.884C1461.15 283.295 1451.62 282.589 1447.39 280.473C1443.15 278.356 1449.5 277.298 1455.5 276.945C1461.5 276.592 1461.5 272.358 1465.73 269.889C1469.97 267.419 1482.31 262.127 1475.26 262.48C1467.85 262.833 1461.15 259.305 1458.68 259.658C1456.21 260.011 1456.21 254.719 1457.62 252.955C1458.68 251.191 1463.26 249.074 1459.74 247.31C1456.21 245.546 1447.74 248.721 1449.15 244.135C1450.56 239.196 1457.97 230.729 1454.09 233.551C1450.21 236.373 1447.03 232.845 1446.68 230.023C1446.33 227.201 1452.68 226.495 1454.09 224.025C1455.15 221.556 1449.15 220.497 1446.33 220.145C1443.51 219.792 1445.62 215.558 1447.39 212.03C1449.15 208.502 1445.27 209.561 1444.21 207.091C1443.15 204.974 1441.39 203.563 1443.51 201.094C1445.62 198.624 1442.45 198.977 1441.04 197.213C1439.63 195.449 1439.63 192.274 1439.63 192.274C1432.57 192.627 1433.63 198.271 1431.86 203.21C1430.1 208.15 1433.98 207.091 1432.22 210.619C1430.45 214.147 1423.4 210.266 1425.51 215.205C1427.63 220.145 1431.51 217.322 1427.63 222.967C1423.75 228.612 1408.58 224.025 1409.64 226.142C1410.7 228.259 1420.57 227.906 1421.63 231.081C1422.69 234.256 1421.99 236.726 1418.11 240.254C1414.22 244.135 1411.05 241.312 1409.99 244.488C1408.93 247.663 1412.81 251.191 1410.7 251.191C1408.58 251.191 1405.4 249.78 1405.76 253.307C1406.11 256.483 1409.29 257.541 1409.99 261.775C1410.7 266.008 1407.17 262.127 1402.58 265.302C1398.35 268.478 1413.52 272.711 1409.99 276.239C1406.46 279.767 1396.58 271.3 1396.94 275.886C1397.29 280.473 1406.11 285.059 1400.11 285.059C1394.12 285.059 1393.41 285.059 1396.94 289.998C1400.47 294.937 1408.23 297.407 1406.46 300.229C1404.7 303.404 1394.12 302.346 1394.47 305.874C1394.82 309.755 1400.11 310.813 1401.52 315.047C1402.94 319.28 1392.7 317.164 1386 320.691C1385.3 321.044 1384.94 321.397 1384.59 321.397C1384.24 321.044 1383.18 320.691 1382.47 320.339C1374.71 316.105 1378.24 315.4 1378.24 313.636C1377.89 311.519 1372.59 304.816 1368.01 315.047C1366.24 318.928 1362.36 316.105 1359.89 322.455C1359.19 324.572 1354.95 324.572 1356.37 327.395C1357.78 330.217 1358.13 328.806 1355.31 331.628C1353.19 334.098 1346.84 333.039 1345.43 333.039C1345.78 330.217 1342.25 330.217 1341.55 327.747C1339.08 319.633 1335.2 323.161 1333.43 318.222C1328.5 304.816 1323.2 324.219 1322.85 326.689C1322.5 329.159 1326.38 329.864 1318.26 335.509C1316.85 336.567 1314.74 336.567 1316.5 338.331C1317.91 340.095 1316.85 341.154 1316.15 342.918C1315.44 344.682 1312.62 343.976 1313.68 346.446C1315.09 348.915 1316.85 352.09 1314.38 352.443C1312.27 352.796 1307.68 353.501 1308.74 355.265C1309.44 357.029 1314.38 357.735 1314.03 359.852C1313.68 361.969 1305.56 364.791 1300.98 364.791C1297.1 364.791 1303.45 369.025 1304.51 372.552C1305.56 376.08 1299.21 373.611 1296.74 375.022C1296.39 375.022 1296.39 375.375 1296.04 375.375C1294.63 375.022 1293.22 374.669 1292.16 373.964C1292.16 373.611 1291.45 373.258 1290.75 373.258C1290.39 372.905 1290.04 372.552 1290.04 372.552C1289.69 370.788 1294.98 370.436 1296.04 368.672C1297.1 367.26 1292.16 366.555 1289.69 366.202C1287.22 365.849 1289.33 363.38 1290.75 361.263C1292.16 359.146 1288.98 359.852 1288.28 358.088C1287.57 356.677 1286.16 355.971 1287.57 354.207C1289.33 352.796 1286.87 352.443 1285.45 351.737C1276.63 346.798 1280.87 346.093 1280.52 343.976C1280.16 341.859 1274.16 334.098 1268.87 345.74C1268.17 347.504 1266.76 347.857 1265.7 348.562C1265.7 347.504 1264.99 347.151 1263.23 348.21C1258.29 350.679 1251.23 352.796 1248.76 351.032C1246.29 349.621 1249.47 344.682 1253 341.154C1256.52 337.626 1258.64 329.511 1254.06 331.275C1249.47 333.039 1247.35 339.742 1244.18 337.978C1241 336.567 1244.53 330.923 1246.29 326.689C1248.06 322.455 1251.94 318.222 1247.7 319.28C1243.82 320.339 1244.18 317.516 1241.35 317.164C1241.35 317.164 1241.71 301.993 1239.24 300.582C1236.77 299.171 1238.53 313.636 1237.47 316.105C1236.42 318.575 1231.48 315.752 1229.36 315.752C1227.24 315.752 1235.71 323.867 1235.36 325.983C1235 328.1 1223.36 327.747 1222.3 323.867C1221.25 319.986 1219.83 327.042 1224.07 331.628C1228.3 336.214 1231.48 347.857 1229.71 348.562C1227.95 348.915 1214.9 341.154 1212.78 336.214C1210.31 331.628 1215.25 355.971 1221.6 359.499C1227.95 363.027 1221.6 363.027 1214.9 365.849C1208.19 368.672 1209.6 372.905 1214.19 375.375C1218.42 377.844 1227.6 384.547 1226.18 386.664C1224.77 388.781 1206.78 386.664 1202.55 383.136C1198.31 379.608 1202.9 384.195 1205.02 388.781C1207.13 393.367 1215.6 400.071 1216.66 405.715C1217.72 411.713 1207.13 409.949 1204.31 411.713C1201.84 413.477 1204.31 415.946 1207.49 417.71C1210.66 419.474 1215.95 427.236 1212.07 429C1206.43 427.236 1199.37 428.294 1200.43 425.825C1201.49 423.002 1206.08 422.297 1206.43 419.827C1206.78 417.358 1197.96 418.063 1196.2 415.946C1194.79 413.83 1201.14 412.418 1203.96 409.243C1206.78 406.068 1206.07 406.068 1201.14 406.068C1196.2 406.068 1203.61 402.893 1203.96 400.071C1204.31 397.248 1195.84 402.54 1193.02 400.423C1190.2 397.954 1202.9 399.012 1199.02 396.895C1195.49 394.779 1192.32 397.248 1193.02 394.426C1193.37 391.603 1196.2 390.898 1196.55 388.781C1196.9 386.664 1194.08 387.37 1192.32 387.37C1190.55 387.37 1194.08 385.253 1193.02 383.136C1191.96 381.02 1189.49 382.784 1185.97 380.314C1182.79 377.844 1182.09 376.433 1183.14 374.316C1184.2 372.2 1192.32 372.552 1193.37 371.141C1194.43 369.73 1181.73 372.552 1178.2 369.025C1175.03 365.497 1178.2 367.261 1179.97 364.085C1181.73 360.91 1175.73 363.38 1174.32 361.263C1172.91 358.793 1176.09 359.499 1174.68 356.324C1173.27 353.149 1174.32 349.621 1168.33 349.268C1168.33 349.268 1168.33 351.385 1167.27 352.443C1166.21 353.501 1163.39 353.501 1165.15 354.913C1166.91 356.677 1165.5 357.382 1164.45 358.793C1163.39 360.205 1160.21 359.499 1161.98 361.969C1163.39 364.438 1165.5 366.908 1163.03 367.26C1160.56 367.613 1155.27 368.319 1156.33 369.73C1157.39 371.494 1162.68 371.847 1162.33 373.611C1162.33 373.964 1161.98 374.316 1161.98 374.316C1155.98 374.669 1150.69 372.905 1148.57 373.258C1146.45 373.611 1146.1 369.73 1147.16 368.319C1147.86 366.908 1151.74 364.791 1148.57 363.733C1145.39 362.674 1138.34 365.497 1139.4 361.969C1140.45 358.088 1145.75 351.385 1142.57 353.501C1139.4 355.971 1136.57 353.501 1135.87 351.385C1135.16 349.268 1140.81 348.21 1141.51 346.446C1142.22 344.329 1136.93 343.976 1134.46 343.976C1131.99 343.623 1133.75 340.448 1134.81 337.626C1136.22 334.803 1133.05 335.862 1131.64 334.098C1130.58 332.334 1129.17 331.628 1130.58 329.511C1131.99 327.395 1129.52 327.747 1128.11 326.689C1126.7 325.278 1126.34 323.161 1126.34 323.161C1120.35 323.867 1121.76 338.684 1120.7 342.565C1119.64 346.446 1122.82 345.387 1121.4 348.21C1119.99 351.032 1114 348.21 1116.11 352.09C1118.23 355.618 1121.4 353.501 1118.58 357.735C1115.76 362.321 1102.35 359.499 1103.76 361.263C1104.82 363.027 1113.29 361.969 1114.35 364.438C1115.41 366.908 1115.05 368.672 1111.88 371.847C1109.06 375.022 1105.88 372.905 1105.18 375.728C1104.47 378.197 1108 380.667 1106.23 380.667C1104.47 380.667 1101.65 379.961 1102 382.431C1102.35 384.9 1105.18 385.606 1106.23 388.781C1106.94 391.956 1103.76 389.134 1100.24 391.956C1096.71 394.779 1110.11 396.895 1107.29 399.718C1104.47 402.54 1095.3 393.015 1096 396.543C1096.71 400.071 1104.12 402.893 1099.53 403.246C1099.53 402.54 1098.83 402.187 1097.06 402.893C1092.12 405.01 1085.07 406.421 1082.95 405.362C1080.48 403.951 1083.65 400.071 1087.18 397.248C1090.71 394.426 1092.83 391.603 1088.24 393.015C1083.65 394.426 1081.54 399.718 1078.72 398.307C1075.54 396.895 1079.07 392.662 1080.48 389.134C1082.24 385.606 1085.77 382.431 1081.89 383.136C1078.01 384.195 1078.36 381.725 1075.54 381.372C1075.54 381.372 1075.89 369.377 1073.42 367.966C1070.95 366.908 1072.72 378.197 1071.66 380.314C1070.6 382.431 1065.66 379.961 1063.55 379.961C1061.43 379.961 1069.9 386.311 1069.54 388.075C1069.19 389.839 1057.9 385.959 1056.84 382.784C1055.78 379.608 1054.37 385.253 1058.61 388.781C1062.84 392.309 1065.66 401.835 1063.9 402.187C1063.19 402.187 1061.78 401.835 1059.66 400.776C1059.66 400.071 1059.31 400.071 1058.61 400.071C1054.73 398.307 1049.43 395.131 1047.67 392.662C1048.73 390.898 1049.79 388.781 1050.49 387.37C1052.61 381.372 1051.2 379.608 1046.26 385.253C1041.32 390.545 1039.2 385.253 1037.79 381.02C1036.03 376.786 1039.56 371.141 1037.79 364.085C1036.03 357.382 1033.91 354.56 1033.91 354.56C1028.62 354.207 1027.56 357.735 1027.56 363.733C1027.56 369.73 1021.92 383.842 1019.8 379.961C1017.68 376.433 1015.57 371.847 1014.51 380.314C1013.45 388.781 1021.56 394.426 1016.62 391.956C1011.68 389.839 1013.45 383.842 1009.21 389.134C1004.98 394.426 1009.92 395.484 1014.51 400.776C1019.45 406.068 1015.21 410.302 1011.68 409.949C1009.57 409.596 1007.1 408.185 1004.28 406.421C1006.04 405.01 1013.1 405.01 1013.8 403.951C1014.86 402.54 1004.28 405.01 999.69 402.54C999.337 402.187 999.337 402.187 998.984 401.835C998.278 401.129 997.925 400.776 997.22 400.423C996.514 399.012 998.631 399.718 1000.04 397.248C1001.81 394.073 995.809 396.543 994.398 394.426C992.986 392.309 996.161 392.662 994.75 389.839C993.339 387.017 994.398 383.489 988.4 383.136C988.4 383.136 988.4 384.9 987.342 385.959C986.283 387.017 983.461 387.017 985.225 388.428C986.989 389.839 985.578 390.545 984.519 391.956C983.461 393.367 980.286 392.662 982.05 394.779C983.461 396.895 985.578 399.365 983.108 399.718C980.639 400.071 975.347 400.776 976.405 402.187C977.463 403.599 982.755 404.304 982.402 405.715C982.05 407.479 979.58 409.596 976.052 407.832C972.877 406.421 977.816 410.654 979.58 413.477C977.463 412.771 975.699 412.418 974.641 412.418C972.524 412.771 972.524 408.538 973.583 407.126C974.641 405.715 978.522 403.951 975.346 402.54C972.171 401.129 965.115 403.598 966.174 400.071C967.585 396.19 973.583 389.487 970.407 391.603C966.879 393.72 964.41 390.898 964.057 388.781C963.704 386.664 969.349 385.959 970.407 383.842C971.466 381.725 966.174 381.02 963.704 380.667C961.235 380.314 963.351 377.139 964.763 374.316C966.174 371.494 962.999 372.2 961.94 370.436C960.882 368.672 959.471 367.613 961.235 365.497C962.999 363.38 960.176 363.733 959.118 362.321C957.707 360.91 957.707 358.441 957.707 358.441C951.709 358.793 952.768 363.38 951.004 366.908C949.592 370.788 952.768 370.083 951.356 372.905C949.945 375.728 943.948 372.552 945.712 376.433C947.476 380.314 950.651 378.197 947.476 382.784C944.3 387.017 931.247 383.489 932.305 385.253C933.364 387.017 941.478 386.664 942.537 389.134C943.595 391.603 942.889 393.367 939.361 396.543C936.892 398.659 935.128 398.307 933.717 398.659C933.717 398.307 933.717 398.307 933.717 397.954C932.658 391.251 930.541 394.779 928.425 397.601C926.308 400.423 921.016 389.487 920.663 385.253C920.663 380.667 919.605 377.844 914.313 378.197C914.313 378.197 912.196 380.314 910.785 385.606C909.374 390.898 912.196 395.131 910.785 398.307C909.374 401.482 907.257 405.715 902.318 401.482C898.437 397.954 896.673 398.307 897.379 401.482C897.026 401.129 896.32 400.776 895.967 400.776C889.264 397.954 882.914 397.954 889.264 394.073C895.615 390.545 900.554 364.791 898.084 369.73C895.615 374.669 882.914 382.784 881.15 382.431C879.386 382.078 882.208 369.377 886.795 364.791C891.028 360.205 889.617 352.443 888.559 356.677C887.5 360.91 875.858 361.263 875.505 358.793C875.153 356.677 883.62 348.21 881.503 348.21C879.386 348.21 874.447 351.032 873.389 348.562C872.33 345.74 874.094 330.923 871.625 332.334C869.155 333.745 869.508 349.621 869.508 349.621C866.685 349.974 867.038 353.149 863.157 352.09C859.277 350.679 862.805 355.265 864.569 359.852C866.333 364.085 869.508 370.083 866.685 371.847C863.51 373.611 861.393 366.555 856.807 364.791C852.221 363.027 854.338 371.494 857.866 375.022C861.393 378.55 864.569 383.842 862.099 385.606C859.63 387.37 852.574 385.253 847.634 382.431C842.695 379.608 846.223 388.076 847.634 390.898C849.046 393.72 861.393 402.187 857.513 403.246C856.102 403.598 853.279 403.951 850.457 403.951C850.457 403.599 850.104 403.598 850.104 403.246C846.576 401.129 843.401 403.246 844.107 400.776C844.812 398.307 847.634 397.954 847.987 395.837C848.34 394.073 845.518 394.426 844.107 394.426C842.343 394.426 846.223 392.662 845.165 390.545C844.459 388.428 841.637 390.192 838.462 387.723C835.639 385.253 834.934 383.842 836.345 382.078C837.403 380.314 845.518 381.02 846.576 379.608C847.634 378.197 834.581 380.314 831.759 376.786C828.936 373.258 832.111 375.022 833.875 372.2C835.992 369.377 829.642 371.494 828.583 369.377C827.525 367.26 830.347 367.966 829.289 365.144C828.231 362.321 829.642 359.146 823.644 358.441C823.644 358.441 823.292 360.205 822.233 361.263C820.822 362.321 818.352 361.969 819.764 363.38C821.175 364.791 819.764 365.497 818.705 366.908C817.647 368.319 814.472 367.26 815.883 369.377C816.941 371.494 818.705 373.964 816.236 373.964C813.766 373.964 808.474 374.316 809.18 376.08C809.885 377.492 815.53 378.197 814.824 379.961C814.119 381.372 811.649 383.489 808.474 381.725C805.299 379.961 810.944 385.253 811.649 388.075C812.355 390.898 805.652 388.781 802.477 389.487C799.301 390.192 802.829 391.956 803.888 393.015C804.593 393.72 804.593 395.484 803.888 396.19C802.829 396.19 801.771 396.543 800.713 396.895C797.89 397.248 793.304 387.37 788.365 387.017C787.659 387.017 787.306 387.017 786.954 387.017C784.837 386.664 782.72 386.312 781.662 385.606C778.134 383.842 783.426 382.784 788.718 382.431C794.009 382.078 794.009 389.134 797.537 387.017C801.065 384.9 812.002 380.314 805.652 380.667C799.301 381.02 793.657 367.613 791.187 367.613C789.07 367.966 789.07 363.38 790.129 361.969C791.187 360.557 795.068 358.441 791.893 357.029C788.718 355.618 781.662 358.441 782.72 354.207C784.131 349.974 790.129 342.918 786.954 345.034C783.426 347.504 780.956 344.329 780.603 341.859C780.25 339.39 785.895 338.684 786.954 336.567C788.012 334.451 782.72 333.392 780.25 333.039C777.781 332.687 779.898 329.159 781.309 325.983C782.72 322.808 779.545 323.867 778.486 321.75C777.428 319.986 776.017 318.575 777.781 316.458C779.545 314.341 776.722 314.694 775.664 312.93C774.253 311.519 774.253 308.696 774.253 308.696C768.255 309.049 769.314 313.988 767.55 317.869C766.139 322.103 769.314 321.397 767.903 324.219C766.491 327.395 760.494 323.867 762.258 328.1C764.022 332.334 767.197 329.864 764.022 334.803C760.847 339.39 747.793 335.509 748.852 337.626C749.91 339.39 758.024 339.037 759.083 341.859C760.141 344.682 759.435 346.446 755.908 349.974C752.732 353.149 749.91 350.679 748.852 353.501C747.793 356.324 751.321 359.146 749.557 359.146C747.793 359.146 744.971 358.088 745.324 360.91C745.676 363.733 748.499 364.438 748.852 368.319C749.204 371.847 746.382 368.672 742.501 371.494C738.621 374.316 751.674 377.844 748.852 380.667C745.676 383.842 737.209 376.433 737.562 380.314C737.562 381.372 738.268 382.078 738.62 383.136C737.915 382.784 737.209 382.431 736.504 382.431C729.801 380.314 723.45 369.73 729.801 366.908C736.151 364.085 740.737 355.971 738.268 359.499C735.798 363.027 723.45 358.441 721.686 358.088C719.922 357.735 722.745 348.562 726.978 345.387C731.212 341.859 729.801 336.567 728.742 339.39C727.684 342.565 716.394 342.565 716.042 341.154C715.689 339.39 723.803 333.392 722.039 333.392C719.922 333.392 714.983 335.509 713.925 333.745C712.866 331.628 714.63 321.044 712.161 322.103C709.691 323.161 710.044 334.803 710.044 334.803C707.222 335.156 707.574 337.273 703.694 336.567C699.813 335.509 703.341 339.037 705.105 342.212C706.869 345.387 710.044 349.621 706.869 351.032C704.047 352.09 702.283 348.21 698.402 346.446C698.755 345.74 698.755 345.034 698.402 344.329C697.343 341.506 694.874 343.976 691.699 340.801C688.523 337.626 687.818 335.862 688.876 333.039C689.935 330.217 694.874 328.453 695.932 326.336C696.991 324.572 687.112 328.1 683.937 323.514C680.762 318.927 681.115 321.397 682.879 317.164C684.643 312.93 679.704 313.283 678.645 310.108C675.823 300.935 671.589 305.168 669.473 299.524C663.828 284.353 657.83 294.585 657.477 297.407C657.125 300.229 661.358 301.288 652.538 307.638C650.774 308.696 648.658 309.049 650.422 310.813C652.186 312.93 650.774 313.988 649.716 315.752C648.658 317.516 645.835 316.811 647.246 319.633C648.658 322.455 650.774 325.983 648.305 326.336C645.835 326.689 640.896 327.747 641.954 329.511C643.013 331.628 648.305 332.334 647.952 334.451C647.599 336.567 638.427 339.742 633.135 339.742C628.901 339.742 635.957 344.329 637.015 348.562C637.368 349.621 637.015 350.326 635.957 350.679C635.604 349.974 634.546 349.974 633.487 349.268C625.726 345.034 629.254 344.329 629.254 342.565C628.901 340.448 623.609 333.745 619.023 343.976C617.259 347.857 613.378 345.034 610.908 351.385C610.203 353.501 605.969 353.501 607.38 356.324C608.792 358.793 609.144 357.735 607.028 359.852C605.616 359.499 604.558 359.146 603.852 358.441C602.441 356.324 605.617 354.56 608.086 351.032C610.556 347.504 609.85 347.504 605.616 347.504C601.383 347.504 607.733 343.976 608.086 340.801C608.439 337.626 601.03 343.623 598.561 341.154C596.091 338.684 607.028 335.509 603.852 333.392C600.677 330.923 592.916 329.511 593.269 326.336C593.621 323.161 596.091 322.455 596.444 319.986C596.797 317.516 594.327 318.575 592.916 318.575C591.505 318.575 594.327 316.105 593.621 313.636C592.916 311.166 590.446 313.283 587.624 310.46C584.801 307.638 584.096 305.874 585.154 303.757C585.86 301.288 590.446 299.524 591.505 297.76C592.21 295.996 583.743 299.524 580.921 295.29C578.098 291.057 578.451 293.173 579.862 289.645C581.274 286.117 577.04 286.117 576.334 283.295C573.865 275.181 569.984 278.709 568.22 273.77C563.281 260.363 557.989 269.183 557.636 271.653C557.283 274.122 561.164 274.828 553.05 280.473C551.639 281.531 549.522 281.531 551.286 283.295C552.697 285.059 551.639 286.117 550.933 287.881C550.228 289.645 547.405 288.94 548.464 291.409C549.875 293.879 551.639 297.054 549.169 297.407C548.111 297.76 545.994 298.113 544.583 298.465C545.641 297.054 547.052 295.996 547.405 294.585C547.758 292.115 544.583 293.173 542.466 293.173C540.349 293.173 544.583 290.704 543.172 288.234C542.113 285.765 538.938 287.881 535.057 285.059C531.177 282.237 530.471 280.473 531.529 278.003C532.588 275.534 542.113 275.886 543.172 274.122C544.23 272.358 529.413 275.886 525.532 271.653C521.651 267.419 525.532 269.536 527.649 265.655C529.765 261.775 522.709 264.95 520.945 262.127C519.181 259.305 523.062 260.011 521.298 256.483C519.534 252.955 520.593 248.721 513.89 248.368C513.89 248.368 513.89 250.838 512.478 251.896C511.067 253.307 507.892 252.955 510.009 255.071C512.126 256.835 510.362 257.894 509.303 259.658C508.245 261.422 504.364 260.716 506.128 263.186C507.892 266.008 510.009 268.83 507.186 269.183C504.364 269.536 498.366 270.242 499.425 272.358C500.483 274.122 507.186 274.828 506.481 276.945C506.128 279.062 502.953 281.884 499.072 279.767C495.191 277.65 502.247 284.001 503.659 287.881C505.07 291.409 496.603 288.94 493.427 290.351C489.899 291.762 494.133 293.526 495.544 294.937C496.603 296.349 496.955 300.229 494.486 299.876C492.722 299.876 489.547 300.582 485.666 301.288C485.666 301.288 485.666 301.288 485.666 300.935C485.313 298.818 490.605 298.113 491.663 295.996C492.722 293.879 487.783 293.173 485.313 292.821C482.844 292.468 484.96 289.293 486.371 286.47C487.783 283.648 484.607 284.353 483.902 282.59C483.196 280.826 481.785 279.767 483.549 277.65C485.313 275.534 482.491 275.886 481.432 274.475C480.374 273.064 480.374 270.594 480.374 270.594C474.729 270.947 475.788 275.534 474.376 279.414C472.965 283.295 476.14 282.59 474.729 285.412C473.318 288.234 467.673 285.059 469.437 288.94C471.201 292.821 474.024 290.704 471.201 295.29C468.026 299.876 456.031 295.996 456.737 297.76C457.795 299.524 465.556 299.171 466.262 301.64C467.32 304.11 466.615 306.227 463.44 309.049C460.265 312.224 457.795 309.755 456.737 312.577C455.678 315.047 459.206 317.869 457.442 317.869C455.678 317.869 453.209 316.811 453.561 319.633C453.914 322.103 456.384 323.161 456.737 326.336C457.089 329.864 454.267 326.689 450.739 329.159C447.211 331.628 459.559 335.156 456.737 337.978C453.914 340.801 445.8 334.098 446.153 337.626C446.506 341.154 453.561 345.034 448.622 345.034C444.036 345.034 443.33 345.034 446.153 348.915C448.975 352.796 454.973 354.913 453.561 357.029C452.15 359.499 443.683 358.793 444.036 361.616C444.389 364.791 448.622 365.497 449.681 369.025C447.211 368.319 444.036 370.788 436.98 369.73C428.16 368.672 422.163 367.966 416.871 364.791C417.576 363.027 418.635 361.263 419.34 359.499C422.515 359.852 422.868 359.499 424.279 357.735C426.043 355.265 428.513 351.737 423.574 351.385C423.574 351.032 423.927 350.679 423.927 350.326C424.985 347.857 426.043 345.034 426.749 342.565H427.102C429.924 341.506 429.924 340.801 427.102 339.39C428.16 333.039 426.043 329.159 418.635 335.862C418.635 335.862 418.282 335.862 418.282 336.214C412.284 335.156 406.287 335.509 407.345 333.039C408.756 329.511 417.576 328.806 417.929 325.983C418.282 323.867 410.168 323.514 405.581 322.808C406.992 319.633 407.698 316.458 408.404 313.283C410.873 310.46 411.226 309.755 408.756 309.402C408.756 306.932 408.756 304.816 408.051 302.699C408.051 302.346 408.051 302.346 408.051 301.993C408.051 301.288 407.698 301.288 407.345 300.935C406.992 299.524 406.287 298.465 405.228 297.407C404.17 295.996 403.464 295.29 402.759 295.29C403.112 294.937 402.759 294.232 402.053 293.879C397.467 291.409 386.883 289.645 387.589 286.47C388.294 282.942 391.469 282.237 391.822 279.767C392.175 277.298 389 278.356 386.883 278.356C384.766 278.356 389 275.886 387.941 273.064C386.883 270.594 383.355 272.711 379.827 269.536C379.122 268.83 378.416 268.478 377.71 267.772C383.355 263.539 389.353 259.305 389.353 254.366C389.353 246.252 388.647 244.488 383.002 250.838C381.238 252.602 379.474 254.366 377.71 255.777C374.888 255.777 372.066 255.424 370.302 253.66C366.421 249.427 366.774 251.543 368.89 247.663C369.596 246.252 369.243 245.193 368.538 244.488C372.066 241.312 374.182 239.196 370.302 233.904C365.01 227.201 366.421 233.198 361.482 236.726C360.776 236.02 360.071 235.668 359.718 235.315C361.482 232.492 363.951 227.553 363.246 221.556C361.835 209.914 359.012 215.911 356.19 220.85C353.367 225.789 345.959 206.738 345.606 198.624C345.253 190.51 343.842 185.571 336.786 186.276C336.786 186.276 333.964 189.804 331.847 198.977C329.73 208.15 333.964 216.264 331.847 221.556C329.73 227.201 326.908 234.256 320.557 227.201C314.207 219.792 312.09 222.261 314.913 230.376C317.735 238.137 328.672 250.485 318.441 252.249C308.562 254.013 307.857 249.074 303.27 247.31C300.095 245.899 302.565 259.658 306.798 269.183C306.798 269.183 306.798 269.536 307.151 269.536C308.21 272.006 309.621 274.475 310.679 275.886C311.385 276.945 311.738 277.65 312.09 278.709C309.621 279.062 305.034 278.356 302.918 279.414C299.39 280.826 303.976 282.59 305.034 284.001C305.387 284.353 305.74 285.059 305.74 285.412C304.329 285.765 302.918 285.765 302.212 285.765C298.684 285.765 293.039 285.059 289.511 281.531C287.747 279.767 288.1 284.353 290.217 291.057C289.159 291.057 288.1 291.057 287.042 291.057C281.75 291.057 286.689 293.173 291.628 294.937C293.039 298.818 294.803 303.052 297.273 306.58C296.567 306.58 296.214 306.58 295.862 306.227C290.217 305.168 285.278 304.11 284.925 305.874C284.925 307.638 289.864 311.872 295.862 312.93C299.037 313.283 301.154 313.636 302.918 313.988C303.623 314.694 303.976 315.4 304.682 316.105V316.458C304.329 318.575 299.742 318.575 296.214 318.927C291.275 317.164 285.983 313.988 281.75 310.46C282.103 309.402 282.103 308.344 282.455 307.991C284.572 300.935 281.397 291.057 279.986 297.76C279.633 299.524 277.516 301.288 275.047 303.052C271.872 299.171 271.166 301.288 271.166 305.168C263.404 308.696 252.468 311.166 248.234 310.108C241.531 308.344 248.94 297.054 253.173 294.585C257.054 292.115 260.582 288.587 257.407 286.117C254.232 284.001 240.473 286.117 241.884 278.003C243.295 269.889 254.232 261.069 256.701 254.719C259.171 248.368 264.816 237.432 259.524 242.371C254.232 247.31 231.3 254.719 229.889 251.896C228.125 249.074 239.414 239.901 245.059 236.373C250.704 233.198 252.468 227.553 244.001 223.673C235.534 219.792 227.419 219.792 235.534 215.205C243.648 210.266 249.645 176.751 246.47 183.101C243.648 189.451 227.419 200.388 224.95 199.682C222.833 198.977 226.361 182.748 232.006 176.751C237.65 170.753 235.534 160.875 234.122 166.167C232.711 171.459 218.247 171.812 217.541 168.989C216.835 166.167 227.772 155.23 224.95 155.23C222.48 155.23 216.13 159.111 214.719 155.583C213.307 152.055 215.424 132.651 212.602 134.415C209.779 136.179 210.132 156.994 210.132 156.994C206.604 157.347 207.31 161.581 202.371 160.169C197.432 158.405 202.018 164.403 204.135 170.4C206.252 176.045 210.485 183.807 206.604 185.923C202.724 188.04 199.901 178.868 194.256 176.398C188.612 173.928 191.081 185.218 195.668 189.804C200.254 194.743 204.135 201.446 200.96 203.563C197.784 205.68 188.965 203.21 182.614 199.33C176.264 195.802 180.85 206.386 182.614 210.266C182.967 211.325 184.378 212.736 186.142 214.5C180.145 219.086 173.794 221.909 169.208 222.614C163.916 223.32 157.213 218.028 164.974 210.972C172.736 203.916 180.497 202.858 173.442 196.155C166.386 189.099 169.208 196.86 161.446 199.682C153.685 202.505 166.738 195.802 164.974 184.865C163.21 173.928 159.682 179.573 156.507 184.159C152.979 188.746 144.159 170.753 143.807 163.344C143.454 155.936 141.69 151.349 133.223 151.702C133.223 151.702 129.695 155.23 127.225 163.697C124.756 172.164 129.695 179.926 127.225 184.865C124.756 190.157 121.228 196.86 113.466 190.157C105.705 183.101 103.235 185.571 106.41 192.979C109.938 200.388 122.639 212.03 110.644 213.794C98.6488 215.558 97.5904 210.972 92.6512 209.208C87.3593 207.444 94.4152 229.317 101.118 236.373C108.174 243.429 94.768 245.546 90.5345 245.546C87.3593 245.546 83.1258 245.193 79.245 243.782C86.3009 239.901 94.4152 237.432 90.5345 232.492C86.6537 227.201 82.773 233.904 70.7779 232.14C58.7828 230.376 50.6685 228.965 43.2598 223.673C35.8511 218.028 31.2648 212.383 41.1431 213.794C51.3741 215.205 51.3741 215.911 53.4909 211.325C55.9605 206.738 59.8412 200.035 50.6685 200.035C41.4959 200.035 36.2039 204.269 32.3232 195.802C28.4424 187.687 19.6225 185.218 29.148 184.865C38.6735 184.512 48.5518 186.629 53.1381 184.512C58.0773 182.395 57.0189 180.632 47.8462 175.692C38.6735 170.4 24.5616 173.576 26.6784 167.931C28.7952 161.933 35.8511 160.875 36.2039 155.583C36.5567 150.291 22.0921 151.702 19.6225 147.821C17.1529 143.588 27.7368 140.766 32.3232 133.71C37.2623 126.654 35.8511 126.654 27.7368 126.654C19.6225 126.654 31.6176 119.951 32.3232 113.953C32.676 107.603 18.9169 119.598 14.3306 114.659C9.39143 109.72 30.5592 104.428 24.5616 99.8412C18.5641 95.2549 13.625 100.9 14.3306 94.9021C15.0362 88.9046 19.6225 87.8462 19.9753 83.2598C20.3281 78.6735 16.0945 80.4375 13.2722 80.4375C10.4498 80.4375 16.0945 75.8511 14.3306 71.6176C12.5666 67.0312 8.33303 70.912 3.0411 65.62C-2.25084 60.3281 -3.30923 57.5057 -1.89804 52.9194C-0.134064 48.333 12.9194 49.0386 14.6834 46.2163C16.4473 43.0411 -4.72041 49.3914 -10.0124 41.6299C-15.3043 34.2212 -10.0124 37.7492 -7.18998 31.046C-4.36761 23.9901 -13.8931 29.6349 -16.3627 24.6957C-20.949 20.4622 -15.6571 21.1678 -18.1267 14.8174C-20.5962 8.11431 -18.8322 0.705592 -28.3577 0C-28.3577 0 -28.3577 4.23355 -30.4745 6.70312C-32.5913 9.17269 -36.8248 8.8199 -34.0025 12.3479C-31.1801 15.8758 -33.2969 17.6398 -35.0609 20.4622C-35.7664 21.8733 -37.8832 22.2261 -38.9416 23.2845C-40 23.6373 -40.3528 24.6957 -39.2944 26.8125Z" fill="#1D2B39"/>
</svg>
