<svg width="2000" height="811" viewBox="0 0 2000 811" fill="none" xmlns="http://www.w3.org/2000/svg">
<path fill-rule="evenodd" clip-rule="evenodd" d="M1.05835 27.5181C1.05835 27.5181 0.705566 27.1653 0.705566 26.8125C-0.352783 24.6958 0 23.6372 1.05835 23.2844C1.49438 22.8484 2.11011 22.5322 2.73267 22.2124C3.62134 21.7559 4.52441 21.292 4.93921 20.4622C5.20166 20.042 5.47217 19.6453 5.73291 19.2627C7.22388 17.0754 8.39966 15.3506 5.99756 12.3479C4.13745 10.0227 5.34204 9.38306 6.9856 8.5105C7.83594 8.05908 8.80371 7.54517 9.52539 6.70312C11.6423 4.23364 11.6423 0 11.6423 0C18.7175 0.52417 19.5642 4.74634 20.5437 9.63086C20.8828 11.3223 21.238 13.0933 21.8733 14.8174C23.0371 17.8101 22.4773 19.2356 22.0398 20.3496C21.5491 21.5996 21.2122 22.4573 23.6372 24.6958C24.7549 26.9312 27.3179 26.9985 29.5273 27.0566C32.1997 27.127 34.355 27.1836 32.8101 31.0461C31.6968 33.6899 30.1995 34.7422 29.1189 35.5017C27.4597 36.6677 26.783 37.1433 29.9875 41.6299C33.2651 46.437 42.6326 45.8308 48.8699 45.4272C52.7034 45.1792 55.3547 45.0076 54.6833 46.2163C53.9192 47.439 51.0361 47.9995 47.8701 48.615C43.7283 49.4204 39.1018 50.3201 38.1021 52.9194C36.6907 57.5056 37.7493 60.3281 43.041 65.6201C45.7205 68.2993 48.1284 68.6272 50.082 68.8933C51.9871 69.1526 53.4597 69.3533 54.3306 71.6177C55.2842 73.9062 54.0725 76.2981 53.2039 78.0125C52.4658 79.4695 51.9756 80.4375 53.2722 80.4375C53.8809 80.4375 54.5549 80.3555 55.2346 80.2727C57.707 79.9719 60.252 79.6624 59.9753 83.2598C59.8083 85.4321 58.6914 86.813 57.4868 88.302C56.1484 89.9568 54.7019 91.7454 54.3306 94.9021C53.9602 98.0498 55.1448 97.9907 57.2212 97.8867C59.1011 97.7927 61.7119 97.6621 64.5615 99.8413C67.5898 102.157 63.6926 104.652 59.7273 107.192C55.8391 109.681 51.8853 112.213 54.3306 114.659C56.6738 117.182 61.4114 115.285 65.438 113.673C69.2927 112.13 72.4958 110.847 72.3232 113.953C72.0208 116.525 69.6416 119.227 67.6628 121.475C65.0278 124.467 63.1025 126.654 67.7368 126.654C75.8511 126.654 77.2622 126.654 72.3232 133.71C70.2954 136.83 67.0947 139.122 64.3687 141.074C60.9292 143.537 58.2449 145.46 59.6226 147.822C60.7168 149.541 64.1655 150.221 67.637 150.906C72.0007 151.768 76.4004 152.636 76.2039 155.583C76.0208 158.331 74.0298 159.938 71.8613 161.687C69.8545 163.306 67.6958 165.048 66.6785 167.931C65.5261 171.004 69.1829 171.463 74.2344 172.097C78.4622 172.628 83.667 173.281 87.8462 175.692C97.0188 180.632 98.0771 182.396 93.1382 184.512C90.3188 185.813 85.4995 185.515 79.9917 185.174C76.54 184.96 72.8179 184.729 69.1479 184.865C63.3625 185.079 64.3447 186.074 66.8772 188.641C68.5144 190.3 70.7996 192.616 72.3232 195.802C75.1274 201.92 78.6687 201.406 83.8789 200.651C85.8787 200.361 88.1243 200.035 90.6685 200.035C99.5876 200.035 96.1653 206.373 93.6987 210.94L93.491 211.325C91.6406 215.334 91.4075 215.299 84.5449 214.285C83.5566 214.138 82.4309 213.972 81.1431 213.794C71.2646 212.383 75.8511 218.028 83.2598 223.673C90.6685 228.965 98.783 230.376 110.778 232.14C116.426 232.97 120.275 231.924 123.172 231.136C126.427 230.25 128.481 229.692 130.534 232.492C133.691 236.51 128.912 238.893 123.221 241.731C121.915 242.383 120.562 243.058 119.245 243.782C123.126 245.193 127.359 245.546 130.534 245.546C134.768 245.546 148.174 243.429 141.118 236.373C134.415 229.317 127.359 207.444 132.651 209.208C134.054 209.709 135.143 210.437 136.259 211.183C139.073 213.064 142.054 215.057 150.644 213.794C159.532 212.487 154.86 205.756 150.409 199.342C148.853 197.101 147.324 194.898 146.41 192.979C143.235 185.571 145.705 183.101 153.466 190.157C161.228 196.86 164.756 190.157 167.225 184.865C168.408 182.499 167.891 179.485 167.303 176.056C166.663 172.328 165.939 168.108 167.225 163.697C169.695 155.23 173.223 151.702 173.223 151.702C181.69 151.349 183.454 155.936 183.807 163.344C184.159 170.753 192.979 188.746 196.507 184.159L196.865 183.64C199.944 179.173 203.277 174.338 204.974 184.865C206.001 191.23 202.008 196.162 200.021 198.616C198.594 200.378 198.202 200.862 201.447 199.682C204.617 198.529 206.022 196.552 207.055 195.097C208.551 192.991 209.268 191.981 213.441 196.155C218.573 201.03 215.867 202.919 211.024 206.301C209.208 207.569 207.091 209.047 204.974 210.972C197.213 218.028 203.916 223.32 209.208 222.614C213.794 221.909 220.145 219.086 226.142 214.5L226.141 214.499C224.377 212.735 222.967 211.324 222.614 210.266C220.85 206.385 216.264 195.802 222.614 199.33C228.965 203.21 237.784 205.68 240.959 203.563C244.135 201.447 240.254 194.743 235.668 189.804C231.081 185.218 228.612 173.928 234.256 176.398C236.784 177.504 238.746 179.954 240.49 182.133C242.641 184.819 244.461 187.092 246.604 185.923C249.799 184.181 247.495 178.613 245.399 173.55C244.949 172.462 244.509 171.398 244.135 170.4C243.505 168.617 242.657 166.833 241.907 165.254C240.133 161.522 238.9 158.93 242.371 160.169C245.241 160.99 246.205 159.903 247.202 158.78C247.92 157.97 248.655 157.142 250.132 156.994C250.132 156.994 249.78 136.179 252.602 134.415C254.249 133.386 254.214 139.567 254.179 145.594C254.155 149.893 254.131 154.114 254.719 155.583C255.692 158.015 259.012 156.926 261.79 156.015C263.041 155.604 264.183 155.23 264.95 155.23C266.363 155.23 264.325 157.974 262.027 161.068C259.737 164.151 257.189 167.581 257.541 168.989C258.247 171.812 272.711 171.459 274.122 166.167C275.534 160.875 277.65 170.753 272.006 176.751C266.361 182.748 262.833 198.977 264.95 199.682C267.419 200.388 283.648 189.451 286.47 183.101C289.646 176.751 283.648 210.266 275.534 215.206C269.627 218.544 272.319 219.452 277.487 221.196C279.419 221.848 281.697 222.616 284.001 223.673C292.468 227.553 290.704 233.198 285.059 236.373C279.414 239.901 268.125 249.074 269.889 251.896C271.3 254.719 294.232 247.31 299.524 242.371C303.617 238.55 301.167 244.229 298.703 249.937C297.982 251.607 297.26 253.281 296.701 254.719C295.667 257.379 293.145 260.474 290.461 263.768C286.739 268.336 282.704 273.289 281.884 278.003C280.915 283.572 287.092 284.322 292.089 284.929C294.373 285.206 296.411 285.453 297.407 286.117C300.582 288.587 297.054 292.115 293.173 294.584C288.94 297.054 281.531 308.344 288.234 310.108C292.468 311.166 303.405 308.697 311.166 305.168C311.166 301.288 311.872 299.171 315.047 303.052C317.516 301.288 319.633 299.524 319.986 297.76C321.397 291.057 324.572 300.935 322.456 307.991C322.25 308.196 322.165 308.639 322.059 309.183C321.983 309.574 321.897 310.017 321.75 310.46C325.983 313.988 331.275 317.164 336.214 318.927C336.748 318.874 337.306 318.829 337.87 318.783C341.034 318.526 344.382 318.254 344.682 316.458V316.105C344.329 315.752 344.064 315.399 343.8 315.047C343.535 314.694 343.271 314.341 342.917 313.988C341.711 313.747 340.34 313.506 338.579 313.265C337.764 313.153 336.866 313.042 335.862 312.93C329.864 311.872 324.925 307.638 324.925 305.874C325.255 304.223 329.605 305.045 334.79 306.025L335.862 306.227C336.214 306.58 336.567 306.58 337.273 306.58C334.803 303.052 333.039 298.818 331.628 294.937C326.689 293.173 321.75 291.057 327.042 291.057H330.217C328.1 284.354 327.747 279.767 329.511 281.531C333.039 285.059 338.684 285.765 342.212 285.765C342.917 285.765 344.329 285.765 345.74 285.412C345.74 285.059 345.387 284.354 345.034 284.001C344.732 283.598 344.144 283.167 343.538 282.723C342.02 281.612 340.396 280.423 342.917 279.414C344.244 278.751 346.542 278.781 348.68 278.808C349.953 278.825 351.169 278.84 352.09 278.709C351.738 277.65 351.385 276.945 350.679 275.886C349.621 274.475 348.209 272.006 347.151 269.536C346.798 269.536 346.798 269.183 346.798 269.183C342.565 259.658 340.095 245.899 343.271 247.31C344.687 247.855 345.734 248.703 346.795 249.563C349.168 251.486 351.614 253.468 358.441 252.249C365.941 250.956 362.065 243.975 358.35 237.283C356.998 234.846 355.666 232.448 354.913 230.376C352.09 222.261 354.207 219.792 360.557 227.201C366.908 234.257 369.73 227.2 371.847 221.556C372.86 219.024 372.419 215.847 371.915 212.217C371.366 208.258 370.743 203.761 371.847 198.977C373.964 189.804 376.786 186.276 376.786 186.276C383.842 185.571 385.253 190.51 385.606 198.624C385.959 206.738 393.367 225.789 396.19 220.85C396.374 220.527 396.559 220.2 396.743 219.873C399.375 215.202 401.927 210.675 403.246 221.556C403.951 227.553 401.482 232.492 399.718 235.315C399.864 235.461 400.071 235.607 400.313 235.779C400.655 236.021 401.068 236.313 401.482 236.726C403.218 235.486 404.169 233.941 404.903 232.75C406.257 230.551 406.87 229.556 410.302 233.904C414.182 239.196 412.066 241.312 408.538 244.488C409.243 245.193 409.596 246.251 408.89 247.663C407.9 249.478 407.296 249.981 407.331 250.436C407.37 250.953 408.236 251.407 410.302 253.66C412.066 255.424 414.888 255.777 417.71 255.777C419.474 254.366 421.238 252.602 423.002 250.838C428.647 244.488 429.353 246.251 429.353 254.366C429.353 259.066 423.921 263.127 418.531 267.158L417.71 267.772C418.082 268.144 418.453 268.417 418.824 268.696C419.159 268.947 419.493 269.202 419.827 269.536C421.662 271.188 423.497 271.407 424.985 271.585C426.357 271.75 427.434 271.879 427.941 273.064C428.517 274.599 427.527 276.03 426.845 277.016C426.273 277.842 425.918 278.356 426.883 278.356C427.372 278.356 427.917 278.3 428.461 278.243C430.277 278.055 432.094 277.867 431.822 279.767C431.658 280.913 430.887 281.679 430.037 282.524C429.054 283.499 427.967 284.579 427.589 286.47C427.125 288.555 431.531 290.032 435.909 291.5C438.198 292.267 440.479 293.031 442.053 293.879C442.759 294.232 443.112 294.937 442.759 295.29C443.464 295.29 444.17 295.996 445.229 297.407C446.287 298.465 446.992 299.524 447.345 300.935C447.44 301.029 447.534 301.098 447.622 301.163C447.862 301.338 448.051 301.477 448.051 301.993V302.699C448.756 304.816 448.756 306.932 448.756 309.402C451.226 309.755 450.873 310.46 448.404 313.283C447.698 316.458 446.992 319.633 445.581 322.808C446.58 322.962 447.745 323.099 448.954 323.241C453.299 323.751 458.205 324.327 457.929 325.983C457.757 327.359 455.573 328.232 453.216 329.174C450.738 330.164 448.068 331.231 447.345 333.039C446.585 334.813 449.466 335.131 453.373 335.562C454.904 335.73 456.593 335.916 458.282 336.214C458.282 335.862 458.635 335.862 458.635 335.862C466.043 329.158 468.16 333.039 467.102 339.39C469.924 340.801 469.924 341.506 467.102 342.565H466.749C466.043 345.034 464.985 347.857 463.927 350.326C463.927 350.679 463.574 351.032 463.574 351.385C468.513 351.738 466.043 355.265 464.279 357.735C462.868 359.499 462.515 359.852 459.34 359.499C458.988 360.381 458.547 361.263 458.106 362.145C457.665 363.027 457.223 363.909 456.871 364.791C462.134 367.948 468.094 368.664 476.834 369.712L476.98 369.73C481.148 370.355 483.962 369.749 486.076 369.294C487.541 368.979 488.67 368.736 489.681 369.024C489.162 367.297 487.882 366.246 486.67 365.25C485.406 364.213 484.216 363.236 484.036 361.616C483.847 360.103 486.193 359.604 488.627 359.086C490.734 358.637 492.907 358.175 493.562 357.029C494.369 355.818 492.75 354.606 490.687 353.063C489.147 351.911 487.36 350.574 486.153 348.915C483.33 345.034 484.036 345.034 488.622 345.034C491.456 345.034 490.341 343.757 488.809 342.001C487.671 340.697 486.303 339.129 486.153 337.626C485.982 335.922 487.787 336.604 490.017 337.448C492.404 338.351 495.277 339.438 496.737 337.979C498.139 336.576 495.797 335 493.517 333.466C491.208 331.912 488.964 330.401 490.739 329.159C492.377 328.012 493.862 328.082 494.949 328.134C496.203 328.193 496.926 328.227 496.737 326.336C496.547 324.628 495.745 323.533 494.989 322.501C494.34 321.614 493.725 320.774 493.562 319.633C493.285 317.419 494.745 317.593 496.238 317.771C496.649 317.82 497.062 317.869 497.442 317.869C498.26 317.869 497.94 317.262 497.468 316.365C496.92 315.327 496.169 313.902 496.737 312.577C497.26 311.18 498.13 311.08 499.26 310.949C500.413 310.817 501.836 310.653 503.44 309.049C506.615 306.227 507.321 304.11 506.262 301.64C505.874 300.281 503.347 299.777 500.977 299.304C499.042 298.918 497.212 298.553 496.737 297.76C496.474 297.103 497.97 297.229 500.117 297.408C503.738 297.711 509.208 298.17 511.201 295.29C512.936 292.472 512.538 292.185 511.565 291.481C510.954 291.041 510.117 290.436 509.437 288.94C508.48 286.834 509.704 286.806 511.249 286.77C512.552 286.739 514.084 286.703 514.729 285.412C515.4 284.069 515.034 283.525 514.617 282.906C514.157 282.223 513.636 281.449 514.376 279.414C514.74 278.415 514.939 277.369 515.132 276.361C515.687 273.453 516.182 270.856 520.374 270.594C520.374 270.594 520.374 273.064 521.432 274.475C521.813 274.983 522.423 275.263 522.965 275.511C523.929 275.953 524.678 276.296 523.549 277.65C522.182 279.292 522.722 280.296 523.363 281.487C523.549 281.832 523.743 282.193 523.902 282.59C524.177 283.277 524.826 283.589 525.433 283.881C526.385 284.339 527.233 284.747 526.372 286.47C526.169 286.875 525.952 287.288 525.736 287.698C524.447 290.146 523.198 292.518 525.313 292.821C527.783 293.173 532.722 293.879 531.663 295.996C531.182 296.958 529.825 297.629 528.522 298.273C526.959 299.046 525.474 299.781 525.666 300.935V301.288C526.576 301.122 527.447 300.957 528.27 300.801C530.958 300.29 533.135 299.876 534.486 299.876C536.955 300.229 536.603 296.349 535.544 294.937C535.202 294.595 534.693 294.232 534.169 293.858C532.535 292.691 530.755 291.42 533.427 290.351C534.68 289.794 536.756 289.842 538.724 289.886C541.745 289.955 544.513 290.018 543.658 287.881C542.994 286.054 541.079 283.68 539.643 281.9C538.028 279.898 537.018 278.647 539.072 279.767C542.953 281.884 546.128 279.062 546.481 276.945C546.882 275.74 544.886 274.993 542.895 274.248C541.386 273.683 539.881 273.119 539.425 272.358C538.386 270.281 544.145 269.562 547.027 269.203L547.187 269.183C549.741 268.864 548.249 266.521 546.635 263.986C546.466 263.721 546.295 263.453 546.128 263.186C545.072 261.708 546.039 261.367 547.212 260.953C547.999 260.676 548.878 260.366 549.303 259.658C549.535 259.271 549.801 258.919 550.052 258.585C550.948 257.396 551.662 256.449 550.009 255.072C548.635 253.698 549.49 253.364 550.646 252.913C551.271 252.67 551.983 252.392 552.479 251.896C553.89 250.838 553.89 248.368 553.89 248.368C558.887 248.631 559.571 251.052 560.326 253.729C560.583 254.642 560.85 255.585 561.298 256.483C562.21 258.306 561.614 258.999 561.068 259.632C560.558 260.224 560.093 260.764 560.945 262.127C561.752 263.419 563.667 263.454 565.305 263.485C567.246 263.521 568.797 263.55 567.648 265.655C566.804 267.203 565.68 267.797 564.879 268.22C563.671 268.858 563.198 269.107 565.532 271.653C567.927 274.265 574.486 273.922 578.909 273.691C581.654 273.547 583.577 273.447 583.172 274.122C582.691 274.924 580.463 275.288 578.075 275.679C575.206 276.148 572.107 276.656 571.529 278.003C570.471 280.473 571.177 282.237 575.057 285.059C577.015 286.483 578.794 286.65 580.212 286.782C581.604 286.913 582.647 287.011 583.172 288.234C583.944 289.585 583.026 290.936 582.384 291.883C581.851 292.667 581.507 293.173 582.466 293.173C582.955 293.173 583.5 293.117 584.044 293.061C585.86 292.873 587.677 292.685 587.405 294.584C587.168 295.533 586.453 296.322 585.688 297.166C585.315 297.578 584.93 298.002 584.583 298.465C585.147 298.324 585.825 298.183 586.502 298.042C587.518 297.83 588.534 297.619 589.169 297.407C591.639 297.054 589.875 293.879 588.464 291.409C587.838 289.95 588.568 289.599 589.416 289.193C590.002 288.911 590.645 288.603 590.933 287.881C591.072 287.533 591.225 287.213 591.37 286.909C591.96 285.673 592.419 284.711 591.286 283.295C590.013 282.023 590.76 281.668 591.805 281.172C592.208 280.98 592.656 280.768 593.05 280.473C599.045 276.302 598.492 274.828 597.937 273.346C597.741 272.823 597.544 272.298 597.636 271.653C597.989 269.183 603.281 260.363 608.22 273.77C608.987 275.917 610.154 276.464 611.43 277.062C613.091 277.841 614.938 278.708 616.334 283.295C616.626 284.461 617.519 285.145 618.368 285.795C619.574 286.719 620.691 287.574 619.862 289.646C619.207 291.285 618.779 291.706 618.793 292.111C618.809 292.578 619.41 293.024 620.921 295.29C622.668 297.911 626.578 297.557 629.136 297.326C630.711 297.184 631.773 297.088 631.505 297.76C631.061 298.499 629.999 299.237 628.863 300.028C627.285 301.125 625.564 302.322 625.154 303.757C624.096 305.874 624.802 307.638 627.624 310.46C629.048 311.885 630.382 312.051 631.445 312.184C632.489 312.314 633.272 312.412 633.622 313.635C634 314.961 633.363 316.286 632.909 317.23C632.517 318.045 632.262 318.575 632.916 318.575C633.233 318.575 633.604 318.521 633.984 318.466C635.295 318.277 636.717 318.072 636.444 319.986C636.281 321.129 635.664 321.894 635.013 322.701C634.258 323.637 633.458 324.631 633.269 326.336C633.045 328.35 636.084 329.654 639.148 330.969C640.916 331.727 642.691 332.489 643.853 333.392C645.452 334.458 643.471 335.793 641.427 337.171C639.412 338.528 637.335 339.928 638.561 341.154C639.829 342.422 642.402 341.456 644.556 340.647C646.594 339.882 648.258 339.257 648.086 340.801C647.933 342.174 646.659 343.613 645.604 344.804C644.22 346.368 643.214 347.504 645.616 347.504C649.85 347.504 650.556 347.504 648.086 351.032C647.296 352.161 646.433 353.11 645.672 353.947C644.054 355.725 642.893 357.001 643.853 358.441C644.558 359.146 645.616 359.499 647.028 359.852C648.064 358.815 648.508 358.54 648.526 358.239C648.545 357.926 648.101 357.584 647.38 356.324C646.542 354.646 647.697 353.966 648.921 353.245C649.756 352.754 650.622 352.243 650.908 351.385C652.303 347.799 654.147 347.138 655.807 346.543C657.086 346.085 658.255 345.666 659.023 343.976C663.609 333.745 668.901 340.448 669.254 342.565C669.254 342.983 669.056 343.342 668.857 343.702C668.216 344.862 667.566 346.038 673.487 349.268C673.931 349.563 674.374 349.735 674.765 349.887C675.309 350.097 675.752 350.269 675.957 350.679C677.015 350.326 677.368 349.621 677.015 348.562C676.557 346.729 674.974 344.83 673.67 343.265C671.963 341.217 670.734 339.742 673.135 339.742C678.427 339.742 687.599 336.567 687.952 334.45C688.144 333.296 686.658 332.562 685.096 331.789C683.792 331.145 682.436 330.474 681.955 329.511C680.896 327.747 685.835 326.689 688.305 326.336C690.517 326.02 689.049 323.156 687.704 320.533C687.548 320.229 687.393 319.927 687.246 319.633C686.362 317.864 687.141 317.481 688.106 317.007C688.681 316.725 689.321 316.41 689.716 315.752C689.903 315.441 690.1 315.152 690.29 314.875C691.174 313.582 691.874 312.557 690.422 310.813C689.026 309.417 690.059 308.905 691.426 308.228C691.786 308.049 692.17 307.859 692.538 307.638C699.076 302.931 698.442 301.131 697.819 299.366C697.602 298.75 697.386 298.137 697.478 297.407C697.83 294.584 703.828 284.354 709.473 299.524C710.394 301.981 711.717 302.566 713.149 303.2C715.008 304.023 717.051 304.928 718.645 310.108C719.072 311.387 720.129 312.094 721.123 312.759C722.596 313.743 723.932 314.636 722.879 317.164C722.039 319.18 721.519 319.676 721.547 320.137C721.579 320.645 722.274 321.112 723.937 323.514C725.93 326.392 730.563 326.074 733.476 325.875C735.204 325.756 736.326 325.679 735.932 326.336C735.458 327.285 734.203 328.164 732.867 329.098C731.225 330.248 729.46 331.483 728.876 333.039C727.818 335.862 728.523 337.626 731.699 340.801C733.302 342.404 734.725 342.568 735.878 342.701C737.008 342.831 737.878 342.932 738.402 344.329C738.755 345.034 738.755 345.74 738.402 346.446C739.964 347.156 741.184 348.209 742.267 349.145C743.875 350.534 745.183 351.664 746.869 351.032C749.588 349.823 747.65 346.546 745.93 343.635C745.641 343.146 745.358 342.668 745.105 342.212C744.642 341.379 744.058 340.522 743.518 339.729C742 337.501 740.831 335.786 743.694 336.567C745.991 336.985 746.805 336.414 747.672 335.804C748.27 335.385 748.893 334.947 750.044 334.803C750.044 334.803 749.691 323.161 752.161 322.103C753.645 321.467 753.6 325.033 753.558 328.441C753.53 330.705 753.502 332.9 753.925 333.745C754.635 334.927 757.089 334.366 759.267 333.867C760.338 333.622 761.342 333.392 762.039 333.392C762.876 333.392 761.489 334.742 759.838 336.35C758.01 338.13 755.856 340.227 756.042 341.154C756.395 342.565 767.684 342.565 768.742 339.39C769.801 336.567 771.212 341.859 766.978 345.387C762.745 348.562 759.922 357.735 761.686 358.088C761.985 358.148 762.588 358.329 763.396 358.572C767.352 359.762 776.217 362.429 778.268 359.499C780.737 355.971 776.151 364.085 769.801 366.908C763.45 369.73 769.801 380.314 776.504 382.431C777.209 382.431 777.915 382.783 778.621 383.136C778.488 382.738 778.305 382.389 778.129 382.053C777.836 381.497 777.562 380.974 777.562 380.314C777.393 378.455 779.248 379.187 781.575 380.104C784.106 381.102 787.197 382.321 788.852 380.667C790.214 379.304 787.877 377.778 785.531 376.245C783.017 374.603 780.494 372.954 782.501 371.494C784.336 370.159 785.935 370.166 787.073 370.17C788.341 370.176 789.038 370.178 788.852 368.319C788.659 366.2 787.73 365.028 786.87 363.941C786.153 363.037 785.484 362.192 785.324 360.91C785.045 358.682 786.746 358.873 788.342 359.052C788.768 359.099 789.186 359.146 789.557 359.146C790.363 359.146 790.064 358.557 789.603 357.647C789.054 356.566 788.277 355.034 788.852 353.501C789.375 352.106 790.329 352.004 791.544 351.875C792.786 351.741 794.302 351.579 795.907 349.974C799.436 346.446 800.141 344.682 799.083 341.859C798.485 340.265 795.637 339.684 793.08 339.162C791.11 338.76 789.312 338.394 788.852 337.626C788.432 336.787 790.23 336.89 792.75 337.035C796.589 337.255 802.105 337.572 804.022 334.803C805.943 331.815 805.539 331.539 804.53 330.849C803.871 330.398 802.954 329.772 802.258 328.1C801.308 325.821 802.608 325.791 804.231 325.754C805.622 325.722 807.251 325.685 807.903 324.219C808.565 322.895 808.217 322.347 807.807 321.702C807.344 320.972 806.801 320.116 807.55 317.869C808.033 316.806 808.304 315.663 808.567 314.557C809.263 311.626 809.898 308.953 814.253 308.696C814.253 308.696 814.253 311.519 815.664 312.93C816.068 313.604 816.73 313.969 817.295 314.28C818.209 314.785 818.871 315.15 817.781 316.458C816.26 318.283 817.099 319.583 818.038 321.038C818.188 321.27 818.34 321.507 818.486 321.75C818.905 322.588 819.656 322.928 820.322 323.23C821.34 323.692 822.162 324.065 821.309 325.983C821.099 326.455 820.874 326.935 820.651 327.41C819.37 330.137 818.148 332.739 820.25 333.039C822.72 333.392 828.012 334.45 826.954 336.567C826.49 337.494 825.149 338.15 823.817 338.802C822.104 339.639 820.405 340.47 820.603 341.859C820.956 344.329 823.426 347.504 826.954 345.034C828.686 343.879 827.688 345.456 826.193 347.814C824.949 349.778 823.361 352.284 822.72 354.207C822.061 356.843 824.548 356.744 827.286 356.634C828.944 356.567 830.695 356.497 831.893 357.029C834.288 358.094 832.667 359.561 831.272 360.823C830.818 361.233 830.388 361.622 830.129 361.969C829.07 363.38 829.07 367.966 831.187 367.613C832.124 367.613 833.519 369.543 835.235 371.92C838.042 375.806 841.711 380.886 845.652 380.667C850.403 380.403 845.478 382.904 841.218 385.066C839.784 385.794 838.426 386.484 837.537 387.017C835.809 388.054 834.927 386.889 833.855 385.473C832.739 383.998 831.417 382.251 828.718 382.431C823.426 382.783 818.134 383.842 821.662 385.606C822.72 386.312 824.837 386.664 826.954 387.017H828.365C831.078 387.211 833.685 390.28 835.951 392.947C837.811 395.136 839.441 397.054 840.713 396.896C841.291 396.703 841.869 396.51 842.447 396.375C842.927 396.262 843.407 396.19 843.888 396.19C844.593 395.484 844.593 393.72 843.888 393.015C843.65 392.777 843.288 392.504 842.906 392.215C841.583 391.218 840.014 390.034 842.477 389.487C843.646 389.227 845.295 389.35 846.876 389.468C849.585 389.67 852.095 389.858 851.649 388.075C851.318 386.75 849.897 384.88 848.812 383.452C847.587 381.839 846.79 380.79 848.474 381.725C851.649 383.489 854.119 381.372 854.824 379.961C855.229 378.95 853.547 378.287 851.905 377.639C850.682 377.157 849.481 376.683 849.18 376.08C848.474 374.316 853.766 373.964 856.236 373.964C858.333 373.964 857.377 372.183 856.393 370.349C856.218 370.023 856.042 369.696 855.883 369.377C855.056 368.137 855.804 367.987 856.778 367.791C857.466 367.653 858.267 367.492 858.705 366.908C858.941 366.593 859.194 366.314 859.43 366.054C860.252 365.147 860.86 364.477 859.764 363.38C858.877 362.493 859.522 362.303 860.473 362.021C861.037 361.855 861.708 361.656 862.233 361.263C863.292 360.205 863.644 358.441 863.644 358.441C868.175 358.974 868.478 360.916 868.811 363.05C868.919 363.742 869.03 364.453 869.289 365.144C869.845 366.626 869.33 367.135 868.87 367.591C868.453 368.003 868.081 368.372 868.583 369.377C869.066 370.342 870.648 370.427 872.026 370.502C873.672 370.591 875.027 370.664 873.875 372.2C873.174 373.322 872.25 373.719 871.568 374.012C870.535 374.456 870.058 374.661 871.759 376.786C873.483 378.941 879.027 378.99 882.837 379.023C885.264 379.044 886.988 379.059 886.576 379.608C886.078 380.272 884.021 380.468 881.87 380.672C879.447 380.902 876.906 381.143 876.345 382.078C874.934 383.842 875.639 385.253 878.462 387.723C880.064 388.969 881.577 389.137 882.773 389.27C883.947 389.4 884.815 389.497 885.165 390.545C885.762 391.74 884.785 392.823 884.139 393.54C883.64 394.092 883.339 394.426 884.106 394.426C884.295 394.426 884.508 394.419 884.735 394.413C886.214 394.369 888.293 394.308 887.987 395.837C887.813 396.885 887.033 397.5 886.204 398.155C885.359 398.822 884.463 399.529 884.106 400.776C883.734 402.08 884.444 402.105 885.716 402.15C886.853 402.191 888.439 402.247 890.104 403.246C890.104 403.422 890.192 403.51 890.28 403.598C890.369 403.687 890.457 403.775 890.457 403.951C893.279 403.951 896.102 403.598 897.513 403.246C899.963 402.577 895.942 398.954 892.291 395.664C890.16 393.744 888.155 391.938 887.635 390.898C886.223 388.075 882.695 379.608 887.635 382.431C892.573 385.253 899.629 387.37 902.099 385.606C904.569 383.842 901.394 378.55 897.865 375.022C894.338 371.494 892.221 363.027 896.807 364.791C898.869 365.584 900.432 367.447 901.816 369.097C903.511 371.117 904.938 372.818 906.686 371.847C909.13 370.319 907.075 365.615 905.335 361.632C905.066 361.016 904.805 360.418 904.569 359.852C904.068 358.549 903.424 357.246 902.849 356.081C901.398 353.144 900.379 351.08 903.157 352.09C905.429 352.71 906.25 351.879 907.106 351.012C907.713 350.399 908.337 349.767 909.508 349.621C909.508 349.621 909.155 333.745 911.625 332.334C913.109 331.486 913.064 336.498 913.021 341.246C912.993 344.399 912.966 347.436 913.389 348.562C914.104 350.233 916.596 349.482 918.789 348.821C919.838 348.505 920.818 348.209 921.503 348.209C922.582 348.209 920.912 350.408 919.061 352.845C917.281 355.19 915.332 357.755 915.505 358.793C915.858 361.263 927.5 360.91 928.559 356.677C929.617 352.443 931.028 360.205 926.795 364.791C922.208 369.377 919.386 382.078 921.15 382.431C922.914 382.783 935.615 374.669 938.084 369.73C940.554 364.791 935.615 390.545 929.264 394.073C924.533 396.964 926.852 397.702 931.114 399.057C932.572 399.521 934.259 400.057 935.968 400.776C936.32 400.776 937.026 401.129 937.379 401.482C936.673 398.307 938.437 397.954 942.318 401.482C947.257 405.715 949.374 401.482 950.785 398.307C951.461 396.785 951.165 395.021 950.829 393.015C950.464 390.832 950.05 388.363 950.785 385.606C952.196 380.314 954.313 378.197 954.313 378.197C959.605 377.844 960.663 380.667 960.663 385.253C961.016 389.487 966.308 400.423 968.425 397.601C968.582 397.392 968.739 397.178 968.896 396.965C970.85 394.311 972.737 391.749 973.717 397.954V398.659C974.054 398.575 974.412 398.531 974.794 398.484C976.012 398.334 977.482 398.153 979.361 396.542C982.889 393.367 983.595 391.604 982.537 389.134C981.958 387.784 979.273 387.278 976.784 386.808C974.717 386.418 972.785 386.053 972.305 385.253C971.9 384.578 973.562 384.678 975.946 384.821C979.792 385.052 985.516 385.397 987.476 382.783C989.42 379.975 988.983 379.68 987.947 378.982C987.291 378.54 986.395 377.937 985.712 376.433C984.755 374.328 986.081 374.299 987.721 374.263C989.104 374.232 990.711 374.197 991.356 372.905C992.028 371.563 991.661 371.019 991.244 370.399C990.785 369.717 990.264 368.943 991.004 366.908C991.489 365.937 991.761 364.885 992.025 363.864C992.72 361.176 993.36 358.696 997.707 358.441C997.707 358.441 997.707 360.91 999.118 362.321C999.499 362.829 1000.11 363.109 1000.65 363.357C1001.61 363.799 1002.36 364.142 1001.23 365.497C999.782 367.24 1000.48 368.265 1001.37 369.558C1001.56 369.835 1001.75 370.125 1001.94 370.436C1002.34 371.106 1003.05 371.42 1003.7 371.706C1004.75 372.173 1005.64 372.567 1004.76 374.316C1004.56 374.722 1004.34 375.135 1004.13 375.545C1002.84 377.993 1001.59 380.365 1003.7 380.667L1003.86 380.689C1006.39 381.05 1011.44 381.769 1010.41 383.842C1009.92 384.811 1008.48 385.484 1007.09 386.132C1005.44 386.9 1003.87 387.633 1004.06 388.781C1004.41 390.898 1006.88 393.72 1010.41 391.604C1012.14 390.451 1011.15 391.913 1009.66 394.111C1008.41 395.95 1006.82 398.303 1006.17 400.071C1005.53 402.205 1007.86 402.144 1010.51 402.076C1012.23 402.031 1014.09 401.982 1015.35 402.54C1017.68 403.576 1016.2 404.803 1014.84 405.941C1014.34 406.352 1013.86 406.752 1013.58 407.126C1012.52 408.538 1012.52 412.771 1014.64 412.418C1015.7 412.418 1017.46 412.771 1019.58 413.477C1018.91 412.399 1017.77 411.115 1016.8 410.018C1015.23 408.244 1014.09 406.96 1016.05 407.832C1019.58 409.596 1022.05 407.479 1022.4 405.715C1022.6 404.937 1021.07 404.373 1019.49 403.787C1018.21 403.311 1016.88 402.82 1016.41 402.187C1015.38 400.818 1020.33 400.113 1022.88 399.75L1023.11 399.718C1025.26 399.41 1023.93 397.496 1022.62 395.608C1022.42 395.329 1022.23 395.051 1022.05 394.779C1020.97 393.485 1021.74 393.246 1022.74 392.933C1023.38 392.734 1024.11 392.505 1024.52 391.956C1024.74 391.667 1024.97 391.407 1025.19 391.164C1026.02 390.226 1026.63 389.55 1025.22 388.428C1024.08 387.513 1024.87 387.191 1025.85 386.789C1026.38 386.572 1026.97 386.331 1027.34 385.959C1028.4 384.9 1028.4 383.136 1028.4 383.136C1032.89 383.4 1033.42 385.442 1034 387.635C1034.2 388.374 1034.4 389.129 1034.75 389.839C1035.49 391.311 1034.98 391.919 1034.52 392.465C1034.1 392.965 1033.72 393.413 1034.4 394.426C1035.03 395.371 1036.57 395.402 1037.93 395.429C1039.62 395.462 1041.02 395.49 1040.04 397.248C1039.34 398.483 1038.45 398.924 1037.84 399.233C1037.22 399.542 1036.87 399.718 1037.22 400.423C1037.93 400.776 1038.28 401.129 1038.98 401.834L1039.69 402.54C1042.38 403.987 1047.12 403.739 1050.38 403.568C1052.68 403.448 1054.24 403.366 1053.8 403.951C1053.46 404.456 1051.69 404.72 1049.72 405.011C1047.57 405.33 1045.2 405.682 1044.28 406.421C1047.1 408.185 1049.57 409.596 1051.68 409.949C1055.21 410.302 1059.45 406.068 1054.51 400.776C1053.27 399.354 1052.02 398.238 1050.92 397.263C1047.93 394.61 1046.12 393.004 1049.21 389.134C1051.68 386.05 1052.11 386.8 1053.02 388.382C1053.67 389.514 1054.56 391.073 1056.62 391.956C1058.72 393.004 1058.46 392.591 1057.56 391.12C1056.33 389.126 1053.9 385.187 1054.51 380.314C1055.47 372.575 1057.33 375.741 1059.25 379.036C1059.43 379.346 1059.62 379.658 1059.8 379.961C1061.92 383.842 1067.56 369.73 1067.56 363.732C1067.56 357.735 1068.62 354.207 1073.91 354.56C1073.91 354.56 1076.03 357.382 1077.79 364.085C1078.71 367.761 1078.19 371.054 1077.74 373.963C1077.32 376.639 1076.95 378.991 1077.79 381.02C1079.2 385.253 1081.32 390.545 1086.26 385.253C1091.2 379.608 1092.61 381.372 1090.49 387.37C1089.79 388.781 1088.73 390.898 1087.67 392.662C1089.43 395.131 1094.73 398.307 1098.61 400.071C1099.31 400.071 1099.66 400.071 1099.66 400.776C1101.78 401.834 1103.19 402.187 1103.9 402.187C1105.66 401.834 1102.84 392.309 1098.61 388.781C1094.37 385.253 1095.78 379.608 1096.84 382.783C1097.9 385.959 1109.19 389.839 1109.54 388.075C1109.72 387.193 1107.69 385.165 1105.88 383.357C1104.07 381.549 1102.49 379.961 1103.55 379.961C1104.24 379.961 1105.23 380.224 1106.28 380.504C1108.47 381.084 1110.95 381.74 1111.66 380.314C1112.08 379.469 1112.06 377.164 1112.03 374.766C1111.98 371.154 1111.94 367.33 1113.42 367.966C1115.89 369.377 1115.54 381.372 1115.54 381.372C1116.68 381.514 1117.3 381.998 1117.89 382.458C1118.76 383.141 1119.57 383.769 1121.89 383.136C1124.63 382.637 1123.68 384.079 1122.25 386.213C1121.66 387.097 1121 388.1 1120.48 389.134C1120.13 390.018 1119.64 390.947 1119.16 391.864C1117.72 394.607 1116.34 397.249 1118.72 398.307C1120.25 399.075 1121.58 397.856 1123.21 396.358C1124.58 395.105 1126.15 393.657 1128.24 393.015C1132.83 391.604 1130.71 394.426 1127.18 397.248C1123.65 400.071 1120.48 403.951 1122.95 405.363C1125.07 406.421 1132.12 405.01 1137.06 402.893C1138.83 402.187 1139.53 402.54 1139.53 403.246C1142.04 403.052 1140.96 402.118 1139.34 400.732C1138.01 399.588 1136.32 398.137 1136 396.542C1135.69 394.954 1137.37 396.012 1139.58 397.398C1142.27 399.09 1145.74 401.269 1147.29 399.718C1148.68 398.334 1146.16 397.12 1143.65 395.909C1141.04 394.65 1138.44 393.395 1140.24 391.956C1141.92 390.606 1143.53 390.548 1144.67 390.507C1145.91 390.462 1146.6 390.437 1146.23 388.781C1145.7 387.194 1144.73 386.223 1143.85 385.342C1142.97 384.459 1142.18 383.666 1142 382.431C1141.71 380.397 1143.57 380.516 1145.22 380.622C1145.58 380.645 1145.92 380.667 1146.23 380.667C1147.06 380.667 1146.72 380.121 1146.2 379.287C1145.62 378.346 1144.8 377.037 1145.18 375.728C1145.53 374.313 1146.5 374.139 1147.74 373.918C1148.98 373.698 1150.47 373.431 1151.88 371.847C1155.05 368.672 1155.41 366.908 1154.35 364.438C1153.77 363.094 1151 362.795 1148.42 362.517C1146.27 362.284 1144.25 362.067 1143.76 361.263C1143.22 360.587 1144.86 360.584 1147.24 360.581C1151.07 360.574 1156.84 360.564 1158.58 357.735C1160.28 355.182 1159.8 354.938 1158.69 354.373C1157.96 354.001 1156.95 353.49 1156.11 352.09C1154.95 349.955 1156.24 349.849 1157.87 349.716C1159.21 349.606 1160.77 349.479 1161.4 348.209C1162.09 346.846 1161.7 346.388 1161.23 345.842C1160.74 345.257 1160.15 344.57 1160.7 342.565C1160.99 341.505 1161.09 339.629 1161.21 337.447C1161.54 331.642 1161.98 323.674 1166.34 323.161C1166.34 323.161 1166.7 325.278 1168.11 326.689C1168.56 327.025 1169.11 327.219 1169.61 327.395C1170.7 327.772 1171.54 328.067 1170.58 329.511C1169.49 331.146 1170.08 331.939 1170.89 333.028C1171.13 333.349 1171.39 333.696 1171.64 334.098C1172.18 334.781 1172.99 335.041 1173.7 335.267C1174.82 335.624 1175.67 335.898 1174.81 337.626C1174.65 338.061 1174.47 338.504 1174.29 338.944C1173.31 341.359 1172.37 343.678 1174.46 343.976C1176.93 343.976 1182.22 344.329 1181.51 346.446C1181.21 347.202 1180 347.829 1178.77 348.465C1177.13 349.312 1175.47 350.176 1175.87 351.385C1176.57 353.501 1179.4 355.971 1182.57 353.501C1184.38 352.298 1183.44 353.947 1182.11 356.307C1181.1 358.097 1179.85 360.295 1179.4 361.969C1178.75 364.134 1181.15 363.907 1183.84 363.654C1185.54 363.494 1187.34 363.324 1188.57 363.732C1190.82 364.482 1189.53 365.764 1188.33 366.949C1187.84 367.436 1187.36 367.907 1187.16 368.319C1186.1 369.73 1186.45 373.611 1188.57 373.258C1189.46 373.109 1190.92 373.336 1192.75 373.623C1195.27 374.016 1198.5 374.521 1201.98 374.316C1201.98 374.316 1202.1 374.188 1202.21 374.009C1202.27 373.891 1202.33 373.751 1202.33 373.611C1202.52 372.658 1201.06 372.117 1199.51 371.542C1198.2 371.053 1196.82 370.541 1196.33 369.73C1195.3 368.36 1200.26 367.656 1202.81 367.293L1203.03 367.26C1205.06 366.97 1203.99 365.249 1202.76 363.272C1202.5 362.845 1202.23 362.407 1201.98 361.969C1200.86 360.409 1201.72 360.116 1202.77 359.756C1203.38 359.546 1204.06 359.314 1204.45 358.793C1204.65 358.523 1204.86 358.278 1205.07 358.047C1205.93 357.073 1206.58 356.338 1205.15 354.913C1204.01 353.997 1204.79 353.676 1205.77 353.274C1206.31 353.056 1206.9 352.815 1207.27 352.443C1208.33 351.385 1208.33 349.268 1208.33 349.268C1212.85 349.534 1213.36 351.605 1213.94 353.969C1214.13 354.74 1214.33 355.543 1214.68 356.324C1215.41 357.974 1214.9 358.576 1214.45 359.12C1214.03 359.623 1213.65 360.077 1214.32 361.263C1214.95 362.208 1216.5 362.239 1217.86 362.266C1219.54 362.3 1220.94 362.328 1219.97 364.085C1219.27 365.347 1218.34 365.829 1217.68 366.173C1216.68 366.694 1216.29 366.899 1218.2 369.024C1220.4 371.219 1226.14 370.957 1229.91 370.784C1232.21 370.679 1233.77 370.608 1233.37 371.141C1232.9 371.769 1231.04 372.047 1229.02 372.349C1226.5 372.727 1223.73 373.14 1223.14 374.316C1222.08 376.433 1222.79 377.844 1225.97 380.314C1227.75 381.561 1229.26 381.729 1230.45 381.861C1231.63 381.991 1232.5 382.088 1233.02 383.136C1233.6 384.286 1232.82 385.435 1232.27 386.246C1231.81 386.928 1231.51 387.37 1232.32 387.37C1232.66 387.37 1233.05 387.343 1233.44 387.315C1235.06 387.202 1236.83 387.078 1236.55 388.781C1236.39 389.751 1235.71 390.424 1234.98 391.141C1234.13 391.989 1233.21 392.896 1233.02 394.426C1232.64 395.935 1233.38 395.931 1234.68 395.924C1235.81 395.918 1237.38 395.91 1239.02 396.896C1240.92 397.933 1238.84 398.208 1236.55 398.509C1234.18 398.823 1231.58 399.165 1233.02 400.423C1234.46 401.502 1237.36 400.656 1239.82 399.941C1242.18 399.254 1244.13 398.687 1243.96 400.071C1243.81 401.292 1242.33 402.581 1241.11 403.648C1239.5 405.047 1238.34 406.068 1241.14 406.068C1246.07 406.068 1246.78 406.068 1243.96 409.243C1242.76 410.593 1240.92 411.625 1239.31 412.527C1237.14 413.746 1235.39 414.73 1236.2 415.946C1237.01 416.919 1239.31 417.296 1241.52 417.659C1244.13 418.085 1246.62 418.493 1246.43 419.827C1246.25 421.075 1244.99 421.872 1243.65 422.72C1242.34 423.55 1240.95 424.428 1240.43 425.825C1239.8 427.292 1242.04 427.514 1245.14 427.822C1247.26 428.033 1249.78 428.284 1252.07 429C1255.95 427.236 1250.66 419.474 1247.49 417.71C1244.31 415.946 1241.84 413.477 1244.31 411.713C1245.23 411.136 1246.99 410.937 1248.89 410.72C1252.81 410.273 1257.37 409.753 1256.66 405.715C1256.03 402.387 1252.83 398.69 1249.88 395.276C1247.82 392.901 1245.89 390.663 1245.02 388.781C1244.09 386.768 1242.68 384.755 1241.76 383.428C1240.57 381.732 1240.17 381.157 1242.55 383.136C1246.78 386.664 1264.77 388.781 1266.18 386.664C1267.6 384.548 1258.42 377.844 1254.19 375.375C1249.6 372.905 1248.19 368.672 1254.9 365.849C1256.67 365.101 1258.43 364.551 1259.92 364.081C1264.07 362.779 1266.26 362.091 1261.6 359.499C1255.25 355.971 1250.31 331.628 1252.78 336.214C1254.9 341.154 1267.95 348.915 1269.71 348.562C1271.48 347.857 1268.3 336.215 1264.07 331.628C1259.83 327.042 1261.25 319.986 1262.3 323.867C1263.36 327.747 1275 328.1 1275.36 325.983C1275.53 324.937 1273.55 322.426 1271.76 320.153C1269.93 317.828 1268.29 315.752 1269.36 315.752C1270.04 315.752 1271.02 316.048 1272.07 316.364C1274.27 317.025 1276.76 317.776 1277.47 316.105C1277.9 315.12 1277.87 312.227 1277.84 309.194C1277.8 304.623 1277.75 299.734 1279.24 300.582C1281.71 301.993 1281.35 317.164 1281.35 317.164C1282.51 317.308 1283.13 317.866 1283.73 318.402C1284.6 319.176 1285.41 319.906 1287.7 319.28C1290.7 318.531 1289.63 320.436 1288.12 323.115C1287.5 324.218 1286.81 325.454 1286.29 326.689C1285.96 327.491 1285.56 328.344 1285.16 329.21C1283.43 332.91 1281.6 336.835 1284.18 337.979C1285.94 338.958 1287.38 337.327 1289.09 335.38C1290.46 333.821 1292.02 332.06 1294.06 331.275C1298.64 329.511 1296.52 337.626 1293 341.154C1289.47 344.682 1286.29 349.621 1288.76 351.032C1291.23 352.796 1298.29 350.679 1303.23 348.209C1304.99 347.151 1305.7 347.504 1305.7 348.562C1305.94 348.398 1306.21 348.253 1306.48 348.104C1307.38 347.616 1308.33 347.093 1308.87 345.74C1314.16 334.098 1320.16 341.859 1320.52 343.976C1320.61 344.524 1320.39 344.977 1320.17 345.433C1319.55 346.741 1318.92 348.076 1325.45 351.738C1325.77 351.893 1326.13 352.031 1326.49 352.168C1327.75 352.65 1328.95 353.107 1327.57 354.207C1326.52 355.525 1327.04 356.252 1327.66 357.125C1327.87 357.42 1328.1 357.731 1328.28 358.088C1328.58 358.839 1329.32 359.142 1329.98 359.406C1330.85 359.763 1331.56 360.047 1330.75 361.263C1330.56 361.536 1330.37 361.814 1330.18 362.094C1328.87 363.981 1327.54 365.895 1329.69 366.202C1332.16 366.555 1337.1 367.26 1336.04 368.672C1335.55 369.482 1334.17 369.995 1332.85 370.484C1331.31 371.058 1329.85 371.599 1330.04 372.552L1330.75 373.258C1331.45 373.258 1332.16 373.611 1332.16 373.964C1333.22 374.669 1334.63 375.022 1336.04 375.375C1336.39 375.375 1336.39 375.022 1336.74 375.022C1337.72 374.465 1339.3 374.512 1340.79 374.557C1343.07 374.626 1345.15 374.688 1344.51 372.552C1344.07 371.09 1342.72 369.507 1341.57 368.154C1339.94 366.242 1338.7 364.791 1340.98 364.791C1345.56 364.791 1353.68 361.969 1354.03 359.852C1354.23 358.665 1352.76 357.921 1351.31 357.186C1350.17 356.611 1349.05 356.04 1348.74 355.265C1347.71 353.55 1352.02 352.836 1354.2 352.473L1354.38 352.443C1356.85 352.09 1355.09 348.915 1353.68 346.446C1353.05 344.986 1353.78 344.635 1354.63 344.229C1355.22 343.947 1355.86 343.639 1356.15 342.917C1356.29 342.57 1356.44 342.249 1356.58 341.945C1357.17 340.708 1357.63 339.747 1356.5 338.331C1355.23 337.059 1355.97 336.704 1357.02 336.208C1357.42 336.017 1357.87 335.804 1358.26 335.509C1364.26 331.338 1363.71 329.864 1363.15 328.382C1362.95 327.859 1362.76 327.334 1362.85 326.689C1363.2 324.219 1368.5 304.816 1373.43 318.222C1374.2 320.369 1375.37 320.916 1376.64 321.515C1378.31 322.294 1380.15 323.16 1381.55 327.747C1381.86 328.847 1382.74 329.457 1383.58 330.045C1384.63 330.777 1385.63 331.474 1385.43 333.039C1385.67 333.039 1386.06 333.071 1386.55 333.11C1388.9 333.299 1393.55 333.674 1395.31 331.628C1396.79 330.147 1397.4 329.832 1397.43 329.458C1397.47 329.121 1397.04 328.736 1396.37 327.395C1395.53 325.717 1396.68 325.037 1397.91 324.316C1398.74 323.824 1399.61 323.314 1399.89 322.456C1401.29 318.87 1403.13 318.208 1404.79 317.614C1406.07 317.156 1407.24 316.736 1408.01 315.047C1412.59 304.816 1417.89 311.519 1418.24 313.635C1418.24 314.054 1418.04 314.412 1417.84 314.773C1417.2 315.932 1416.55 317.109 1422.47 320.339C1422.94 320.573 1423.57 320.807 1424.04 321.041C1424.27 321.16 1424.47 321.278 1424.59 321.397C1424.81 321.397 1425.03 321.262 1425.33 321.076C1425.51 320.961 1425.73 320.826 1426 320.691C1428.93 319.149 1432.54 318.685 1435.55 318.298C1439.43 317.801 1442.32 317.429 1441.52 315.047C1440.85 313.013 1439.27 311.712 1437.78 310.479C1436.17 309.145 1434.65 307.891 1434.47 305.874C1434.28 304.003 1437.17 303.422 1440.19 302.815C1442.86 302.278 1445.63 301.72 1446.46 300.229C1447.46 298.63 1445.4 297.144 1442.79 295.257C1440.79 293.814 1438.47 292.138 1436.94 289.998C1433.41 285.059 1434.12 285.059 1440.11 285.059C1443.47 285.059 1442.19 283.626 1440.35 281.562C1438.9 279.932 1437.09 277.909 1436.94 275.886C1436.77 273.647 1439.03 274.52 1441.81 275.589C1444.72 276.709 1448.19 278.044 1449.99 276.239C1451.75 274.484 1448.87 272.554 1446.07 270.667C1443.23 268.761 1440.45 266.898 1442.58 265.302C1444.74 263.806 1446.67 263.877 1448.03 263.927C1449.55 263.983 1450.36 264.013 1449.99 261.774C1449.62 259.552 1448.57 258.204 1447.6 256.966C1446.73 255.846 1445.92 254.815 1445.76 253.307C1445.48 250.56 1447.35 250.808 1449.19 251.052C1449.71 251.122 1450.23 251.191 1450.7 251.191C1451.71 251.191 1451.35 250.378 1450.81 249.182C1450.23 247.886 1449.44 246.139 1449.99 244.488C1450.51 242.944 1451.52 242.818 1452.87 242.65C1454.3 242.472 1456.11 242.248 1458.11 240.254C1461.99 236.726 1462.69 234.256 1461.63 231.081C1461.05 229.319 1457.74 228.643 1454.73 228.029C1452.33 227.537 1450.11 227.084 1449.64 226.142C1449.25 225.36 1451.07 225.493 1453.73 225.687C1458.25 226.018 1465.18 226.525 1467.63 222.967C1469.97 219.559 1469.49 219.237 1468.27 218.431C1467.47 217.901 1466.35 217.163 1465.51 215.206C1464.36 212.506 1465.94 212.441 1467.9 212.361C1469.53 212.295 1471.42 212.219 1472.22 210.619C1473.05 208.946 1472.62 208.305 1472.12 207.566C1471.57 206.746 1470.94 205.808 1471.86 203.21C1472.29 202.008 1472.56 200.763 1472.81 199.563C1473.59 195.836 1474.29 192.541 1479.63 192.274C1479.63 192.274 1479.63 195.449 1481.04 197.213C1481.54 197.838 1482.26 198.197 1482.89 198.51C1484.03 199.081 1484.87 199.499 1483.51 201.094C1481.81 203.068 1482.6 204.366 1483.53 205.889C1483.76 206.271 1484 206.667 1484.21 207.091C1484.64 208.081 1485.51 208.504 1486.3 208.883C1487.47 209.449 1488.44 209.917 1487.39 212.03C1485.62 215.558 1483.51 219.792 1486.33 220.145C1489.15 220.497 1495.15 221.556 1494.09 224.025C1493.47 225.104 1491.92 225.846 1490.39 226.575C1488.41 227.515 1486.48 228.433 1486.68 230.023C1487.03 232.845 1490.21 236.373 1494.09 233.551C1496.1 232.092 1495.09 233.649 1493.45 236.175C1491.92 238.538 1489.83 241.748 1489.15 244.135C1488.29 246.928 1491.1 246.843 1494.22 246.747C1496.22 246.686 1498.36 246.62 1499.74 247.31C1502.24 248.564 1500.65 249.998 1499.14 251.355C1498.52 251.906 1497.92 252.445 1497.62 252.955C1496.21 254.719 1496.21 260.01 1498.68 259.658C1499.65 259.518 1501.29 259.986 1503.38 260.581C1506.56 261.489 1510.78 262.693 1515.26 262.48C1520.65 262.211 1514.72 265.233 1509.73 267.776C1508.19 268.564 1506.73 269.305 1505.73 269.889C1504.12 270.832 1503.12 272.032 1502.16 273.176C1500.62 275.026 1499.21 276.727 1495.5 276.945C1489.5 277.298 1483.15 278.356 1487.39 280.473C1491.62 282.59 1501.15 283.295 1506.79 281.884C1507.61 281.729 1508.43 281.568 1509.22 281.411C1513.87 280.489 1517.73 279.723 1517.73 281.531C1517.73 283.648 1512.79 289.293 1506.79 290.351C1506.37 290.43 1505.96 290.504 1505.57 290.577C1500.65 291.479 1497.67 292.025 1498.32 295.29C1498.84 297.861 1502.91 298.184 1506.18 298.443C1507.39 298.539 1508.49 298.627 1509.26 298.818C1511.76 299.443 1509.56 302.005 1507.79 304.053C1507.57 304.318 1507.35 304.573 1507.14 304.816C1506.09 306.291 1508.69 306.633 1511.25 306.971C1512.98 307.198 1514.69 307.423 1515.26 307.991C1516.67 309.402 1512.08 313.988 1505.73 315.399C1503.83 315.638 1501.6 315.554 1499.48 315.475C1498.47 315.437 1497.48 315.399 1496.56 315.399C1496.91 316.105 1497.09 316.811 1497.27 317.516C1497.44 318.222 1497.62 318.927 1497.97 319.633C1498.32 319.986 1498.32 319.986 1498.32 320.339C1500.58 320.789 1502.96 321.176 1505.11 321.526C1508.02 321.998 1510.51 322.403 1511.73 322.808C1515.61 324.219 1517.02 325.983 1519.49 329.159C1520.34 330.245 1520.97 331.743 1521.63 333.287C1522.9 336.259 1524.24 339.399 1527.25 340.095C1531.84 341.154 1533.25 344.682 1527.25 345.034C1521.61 345.74 1515.96 345.034 1512.44 342.917C1511.02 342.212 1509.61 341.859 1508.2 342.212L1508.91 342.917C1510.29 343.957 1511.59 344.061 1512.69 344.148C1513.82 344.238 1514.72 344.31 1515.26 345.387C1515.82 346.329 1515.08 347.371 1514.53 348.138C1514.06 348.808 1513.73 349.268 1514.55 349.268C1514.89 349.268 1515.31 349.207 1515.75 349.144C1517.13 348.943 1518.7 348.716 1518.43 350.326C1518.27 351.336 1517.62 352.024 1516.94 352.737C1516.21 353.518 1515.44 354.327 1515.26 355.618C1514.9 356.876 1515.45 356.853 1516.55 356.806C1517.61 356.762 1519.17 356.696 1520.9 357.735C1522.71 358.819 1520.44 359.996 1518.18 361.17C1516.03 362.289 1513.88 363.406 1515.26 364.438C1516.51 365.512 1519.22 364.679 1521.53 363.966C1523.78 363.274 1525.66 362.695 1525.49 364.085C1525.49 365.372 1524.02 366.658 1522.86 367.677C1521.48 368.894 1520.52 369.73 1523.02 369.73C1527.61 369.73 1528.31 369.73 1525.49 372.905C1524.43 373.964 1523.37 374.669 1522.31 375.375C1524.55 376.615 1525.21 378.03 1525.9 379.496C1526.19 380.115 1526.48 380.744 1526.9 381.372C1527.96 383.489 1529.72 388.075 1529.37 390.545C1530.78 390.545 1532.55 390.898 1533.96 391.604C1539.6 393.72 1539.95 394.426 1537.13 395.484C1536.43 395.837 1535.72 395.837 1534.66 395.837C1536.78 397.601 1539.25 399.012 1542.42 399.012C1544.9 399.125 1547.01 399.488 1548.79 399.794C1552.6 400.448 1554.87 400.837 1555.83 397.954L1554.77 396.896C1554.41 396.633 1554.07 396.381 1553.74 396.14C1549.17 392.814 1547.18 391.365 1549.48 388.075C1551.24 385.606 1551.95 384.9 1554.07 384.548C1553.11 382.629 1551.83 380.814 1550.48 378.877C1549.34 377.253 1548.14 375.542 1547.01 373.611C1542.07 365.497 1540.66 354.207 1551.95 362.321C1555.48 364.791 1558.65 366.908 1561.47 368.672C1561.47 368.672 1561.83 368.319 1562.18 368.319C1563.36 367.584 1564.84 366.849 1566.32 366.114C1568.4 365.085 1570.47 364.056 1571.71 363.027C1571 362.321 1570.29 361.263 1569.59 360.205C1567.91 360.205 1565.88 360.61 1563.73 361.036C1559.55 361.867 1554.98 362.776 1551.95 360.91C1550.8 360.261 1549.61 359.672 1548.49 359.111C1544.11 356.926 1540.6 355.178 1543.13 352.09C1544.8 350.052 1546.27 350.447 1548.62 351.077C1550.75 351.646 1553.59 352.408 1557.95 351.738C1560.06 351.385 1561.83 351.032 1563.59 350.679H1563.59C1560.42 343.271 1560.06 336.92 1564.3 332.687C1566.77 330.57 1567.82 330.923 1568.88 332.334C1567.82 329.864 1567.82 327.395 1572.76 327.395C1574.57 327.395 1576.18 327.63 1577.64 327.842C1580.19 328.212 1582.26 328.515 1584.05 327.395C1582.64 322.456 1584.41 319.986 1587.93 321.044C1589.35 317.164 1587.93 316.105 1581.94 315.752C1579.02 315.606 1576.65 315.762 1574.62 315.895C1571.73 316.084 1569.54 316.228 1567.47 315.399C1563.94 313.988 1564.3 312.577 1571.35 308.696C1574.47 306.879 1578.16 306.399 1581.3 305.991C1582.42 305.844 1583.48 305.708 1584.41 305.521C1582.29 303.757 1580.53 301.993 1580.53 299.876V297.407C1578.41 296.349 1576.29 295.29 1576.29 293.526C1576.1 291.437 1580.21 290.779 1584.31 290.122C1587.83 289.558 1591.35 288.994 1592.17 287.529C1593.34 285.426 1591.87 283.787 1589.73 281.383C1588.63 280.157 1587.36 278.732 1586.17 276.945C1582.29 271.653 1583.35 271.653 1589.35 271.653C1592.95 271.653 1591.55 270.06 1589.6 267.844C1588.12 266.157 1586.32 264.109 1586.17 262.127C1586.17 259.65 1588.74 260.634 1591.76 261.785C1594.75 262.929 1598.17 264.239 1599.93 262.48C1601.86 260.548 1598.9 258.615 1596 256.727C1593.07 254.822 1590.22 252.962 1592.52 251.191C1594.21 249.894 1596.75 248.788 1599.26 247.697C1603.57 245.821 1607.78 243.99 1607.34 241.312C1606.97 238.916 1605.93 237.579 1604.96 236.346C1604.09 235.218 1603.27 234.177 1603.1 232.492C1603.1 229.739 1605.04 229.994 1606.89 230.239C1607.42 230.308 1607.93 230.376 1608.4 230.376C1609.37 230.376 1609 229.711 1608.43 228.652C1607.75 227.396 1606.76 225.586 1607.34 223.673C1607.85 222.131 1608.95 222.003 1610.38 221.836C1611.91 221.658 1613.81 221.436 1615.81 219.439C1619.69 215.558 1620.39 213.441 1619.33 209.914C1618.59 208.232 1616.45 206.749 1614.46 205.359C1612.68 204.124 1611.01 202.961 1610.51 201.799C1610.1 200.838 1611.67 200.946 1613.96 201.103C1617.56 201.35 1622.96 201.72 1625.33 198.271C1627.37 195.304 1628.24 194.677 1628.3 193.98C1628.35 193.352 1627.75 192.667 1626.74 190.157C1625.48 187.004 1627.1 185.855 1628.84 184.621C1630.02 183.783 1631.25 182.906 1631.68 181.337C1633.85 175.027 1636.46 173.787 1638.77 172.689C1640.6 171.822 1642.23 171.043 1643.32 167.931C1650.38 148.88 1657.79 161.581 1658.14 165.108C1658.23 166.003 1657.96 166.761 1657.68 167.521C1656.88 169.76 1656.06 172.015 1664.49 177.809C1664.99 178.14 1665.52 178.412 1666.02 178.667C1667.66 179.502 1668.93 180.152 1667.31 182.043C1665.7 184.198 1666.34 185.324 1667.21 186.836C1667.48 187.304 1667.77 187.809 1668.02 188.393C1668.44 189.383 1669.32 189.806 1670.11 190.185C1671.28 190.751 1672.25 191.218 1671.19 193.332C1671.04 193.636 1670.88 193.946 1670.73 194.258C1669.05 197.562 1667.23 201.124 1670.14 201.447C1670.5 201.537 1670.92 201.633 1671.37 201.737C1674.46 202.446 1679.17 203.526 1678.25 205.68C1677.76 206.981 1676 207.832 1674.31 208.648C1672.34 209.602 1670.46 210.509 1670.84 212.03C1671.55 214.853 1682.84 218.733 1689.54 218.733C1692.62 218.733 1690.92 220.766 1688.68 223.44C1687.07 225.358 1685.19 227.607 1684.6 229.67C1683.72 232.736 1686.79 232.676 1690.09 232.61C1692.1 232.571 1694.2 232.529 1695.54 233.198C1698.1 234.478 1696.39 236.128 1694.85 237.611C1694.27 238.173 1693.71 238.711 1693.42 239.196C1692.01 240.96 1691.66 246.251 1694.48 245.899C1695.63 245.755 1697.48 246.256 1699.78 246.876C1703.11 247.778 1707.38 248.93 1711.77 248.721C1717.79 248.447 1711.27 251.788 1706.07 254.452C1704.57 255.219 1703.19 255.93 1702.24 256.483C1700.71 257.503 1699.73 258.708 1698.81 259.847C1697.18 261.859 1695.71 263.666 1691.66 263.891C1685.31 263.891 1678.96 264.95 1683.19 267.419C1687.42 269.536 1697.65 270.242 1703.3 268.831C1704.12 268.676 1704.94 268.515 1705.73 268.357C1710.37 267.436 1714.24 266.669 1714.24 268.478C1714.59 270.594 1709.3 276.592 1703.3 277.65C1702.9 277.72 1702.51 277.787 1702.14 277.852C1696.85 278.77 1693.82 279.295 1694.48 282.59C1695 285.173 1699.11 285.486 1702.52 285.746C1703.77 285.841 1704.92 285.929 1705.77 286.117C1708.25 286.944 1706.64 288.844 1704.98 290.813C1704.51 291.367 1704.04 291.926 1703.65 292.468C1702.3 293.815 1705.78 294.198 1708.86 294.537L1709.3 294.584L1709.09 294.13C1707.79 291.214 1706.98 289.396 1710 291.409C1713.18 293.526 1722.7 296.701 1730.11 298.113C1728.7 294.584 1729.05 292.821 1733.29 292.468H1733.99C1730.82 289.998 1726.94 287.881 1724.47 286.823C1719.17 284.354 1717.06 279.767 1725.52 276.945C1727.88 276.06 1730.22 275.422 1732.18 274.885C1737.25 273.496 1739.84 272.786 1733.99 270.242C1725.88 266.714 1720.23 240.959 1723.06 245.899C1725.88 250.838 1741.75 258.952 1743.87 258.599C1746.34 257.894 1742.46 245.546 1737.17 240.959C1731.87 236.373 1733.64 228.612 1735.05 232.845C1736.81 237.079 1750.57 237.079 1751.28 234.962C1751.64 233.88 1749.05 231.136 1746.76 228.714C1744.57 226.399 1742.66 224.378 1743.87 224.378C1744.64 224.378 1745.8 224.69 1747.06 225.031C1749.83 225.779 1753.13 226.669 1754.1 224.731C1754.69 223.556 1754.66 220.3 1754.64 217.002C1754.61 212.382 1754.57 207.679 1756.22 208.502C1759.04 209.914 1758.69 225.789 1758.69 225.789C1760.14 225.934 1760.87 226.616 1761.58 227.271C1762.59 228.208 1763.54 229.09 1766.45 228.259C1770.02 227.493 1768.61 229.685 1766.75 232.56C1766.04 233.656 1765.27 234.852 1764.69 236.021C1764.3 236.897 1763.8 237.854 1763.29 238.833C1761.96 241.399 1760.55 244.111 1760.8 245.899C1761.86 245.193 1763.63 245.546 1766.1 246.957C1766.93 246.364 1767.76 245.571 1768.63 244.739C1770.35 243.099 1772.22 241.309 1774.56 240.607C1780.21 238.843 1777.39 247.31 1773.15 250.838L1772.09 251.896C1775.62 255.072 1778.8 257.894 1781.62 260.01C1783.03 259.658 1784.44 259.305 1785.85 258.599C1790.44 256.483 1789.03 260.363 1787.26 263.891C1791.85 266.714 1795.73 267.772 1798.91 267.066C1803.91 265.955 1801.91 262.657 1796.18 253.209C1794.63 250.658 1792.82 247.659 1790.79 244.135C1781.27 227.553 1778.44 211.677 1785.5 202.505C1789.43 197.39 1790.85 200.503 1792.55 204.258C1793.9 207.237 1795.43 210.619 1798.55 210.619C1805.61 210.619 1815.84 208.502 1811.61 197.918C1807.37 187.335 1809.84 181.337 1815.13 183.454C1820.43 185.571 1837.01 184.159 1829.95 174.987C1827.21 171.424 1822.88 168.234 1818.6 165.086C1811.86 160.128 1805.26 155.274 1805.26 149.233C1805.26 139.354 1805.96 137.238 1813.02 144.646C1820.07 152.055 1827.84 157.347 1833.13 158.052C1838.07 158.758 1845.12 152.055 1837.36 142.882C1835.23 140.476 1833.13 138.604 1831.31 136.986C1826.19 132.435 1823.34 129.892 1828.54 123.126C1832.78 117.822 1833.58 119.152 1835.23 121.899C1836.33 123.72 1837.79 126.165 1840.89 127.712C1844.16 129.201 1843.73 128.491 1842.27 126.086C1840.27 122.792 1836.34 116.317 1837.36 107.956C1839 94.8455 1842.16 100.309 1845.43 105.96C1845.68 106.391 1845.93 106.824 1846.18 107.25C1849.71 113.248 1858.88 89.9629 1859.23 80.0847C1859.59 70.2063 1861.35 64.2087 1870.17 64.9146C1870.17 64.9146 1873.7 69.5007 1876.17 80.7903C1877.67 86.7976 1876.87 92.4053 1876.17 97.3477C1875.56 101.694 1875.01 105.525 1876.17 108.661L1876.4 109.209C1879.18 115.846 1882.73 124.289 1890.28 115.364C1898.04 106.544 1900.86 109.367 1897.34 119.245C1896.4 121.878 1894.78 124.887 1893.15 127.924C1888.65 136.283 1884.05 144.858 1893.1 146.41C1901.72 147.888 1904.67 145.41 1907.46 143.06C1908.67 142.044 1909.85 141.052 1911.45 140.413C1916.74 137.943 1909.68 166.52 1902.63 175.692C1895.57 184.512 1908.98 187.688 1913.21 187.688C1917.8 187.688 1924.85 186.982 1929.09 182.396C1933.32 177.809 1926.27 205.68 1914.98 220.145C1908.59 227.883 1905.6 230.211 1905.89 230.735C1906.13 231.167 1908.59 230.376 1913.21 230.376C1917.8 230.376 1923.44 228.259 1928.74 225.437C1928.38 224.731 1927.68 224.025 1927.68 223.32C1927.34 220.941 1932.56 220.199 1937.36 219.517L1937.91 219.439C1938.79 218.557 1939.67 217.763 1940.55 216.969C1941.44 216.176 1942.32 215.382 1943.2 214.5C1942.25 213.687 1940.78 212.874 1939.13 211.961C1936.49 210.497 1933.38 208.776 1931.2 206.385C1926.27 201.094 1927.68 201.094 1935.44 201.094C1940.05 201.094 1938.17 199.386 1935.62 197.071C1933.68 195.31 1931.36 193.197 1931.2 191.215C1931.03 188.752 1934.28 189.711 1938.14 190.854C1942.03 192.002 1946.55 193.336 1948.84 191.568C1951.07 189.855 1947.39 187.976 1943.71 186.092C1939.8 184.096 1935.88 182.094 1938.97 180.279C1941.77 178.795 1944.26 178.929 1946.05 179.025C1948.09 179.134 1949.22 179.195 1948.84 176.751C1948.32 174.634 1946.99 173.311 1945.76 172.076C1944.52 170.841 1943.38 169.695 1943.2 167.931C1942.92 165.182 1945.43 165.431 1947.89 165.676C1948.59 165.745 1949.28 165.814 1949.9 165.814C1951.22 165.814 1950.77 165.124 1950.06 164.03C1949.25 162.777 1948.09 160.994 1948.84 159.111C1949.56 157.334 1950.98 157.168 1952.9 156.945C1954.79 156.726 1957.15 156.451 1959.78 154.525C1964.72 150.291 1965.78 148.174 1964.37 144.646C1963.4 142.72 1959.08 142.056 1955.12 141.448C1951.82 140.943 1948.78 140.476 1948.14 139.354C1947.45 138.39 1950.2 138.501 1954.11 138.66C1960.21 138.906 1969.12 139.267 1972.13 135.826C1975.1 132.435 1974.5 132.1 1972.94 131.225C1971.9 130.644 1970.43 129.825 1969.31 127.712C1967.96 125.013 1970.08 124.948 1972.69 124.868C1974.86 124.802 1977.36 124.726 1978.48 123.126C1979.65 121.447 1979.07 120.727 1978.41 119.901C1977.67 118.992 1976.83 117.954 1978.13 115.364C1978.77 114.075 1979.13 112.713 1979.47 111.399C1980.44 107.678 1981.32 104.335 1988.36 104.075C1988.36 104.075 1988.36 107.25 1990.47 109.014C1991.17 109.592 1992.09 109.981 1992.92 110.329C1994.61 111.043 1995.9 111.588 1994 113.248C1992.1 115.426 1992.92 116.553 1994.05 118.089C1994.38 118.544 1994.74 119.034 1995.06 119.598C1995.51 120.503 1996.55 120.827 1997.51 121.13C1998.05 121.299 1998.56 121.461 1998.94 121.715C2000 122.067 2000.35 122.773 1999.29 124.537C1999.29 124.713 1999.21 124.802 1999.12 124.89C1999.03 124.978 1998.94 125.066 1998.94 125.242C1998.74 125.586 1998.52 125.932 1998.31 126.278C1996.34 129.492 1994.38 132.686 1997.88 133.004H2000L2000 734.715C1998.24 735.25 1988.99 734.64 1977.66 733.893C1964.04 732.995 1947.41 731.898 1937.2 732.357C1924.52 732.929 1919.46 731.64 1915.98 730.751C1914.33 730.331 1913.04 730 1911.45 730C1909.71 730 1906.26 730.879 1901.73 732.031C1893.42 734.149 1881.47 737.191 1869.82 737.41C1858.06 737.634 1854.14 736.363 1849.91 734.992C1847.79 734.305 1845.6 733.593 1842.3 733.031C1835.39 731.971 1830.9 733.547 1824.47 735.8C1821.72 736.769 1818.6 737.862 1814.78 738.925C1808.77 740.6 1801.17 741.028 1792.51 741.516C1782.89 742.058 1771.96 742.674 1760.45 745.156C1749.53 747.509 1742.83 751.709 1736.93 755.409C1731.01 759.122 1725.89 762.332 1718.12 762.669C1708.07 763.202 1700.43 762.925 1695.18 762.736C1692.14 762.626 1689.91 762.545 1688.48 762.669C1687.32 762.77 1685.44 763.125 1682.87 763.611C1676.84 764.752 1667.02 766.608 1653.91 767.553C1650.38 767.889 1646.85 768.395 1643.32 769.405C1641.24 769.292 1639.18 769.178 1637.16 769.067C1624.17 768.352 1612.71 767.721 1604.16 767.721C1567.4 767.721 1553.3 772.587 1537.81 777.937C1528.17 781.263 1518 784.776 1501.5 787.423C1496.89 788.157 1491.22 788.158 1484.66 788.16C1473.14 788.164 1458.9 788.168 1442.94 792.139C1434.12 790.455 1408.01 785.908 1394.95 787.255C1390.93 787.67 1384.09 789.766 1375.99 792.249C1357.8 797.821 1333.23 805.347 1319.81 800.222C1306.81 795.347 1291.06 799.438 1278.09 802.807C1271.35 804.559 1265.36 806.115 1260.89 806.115C1256.23 806.115 1251.57 806.888 1246.32 807.759C1236.86 809.328 1225.47 811.216 1208.68 809.483C1192.7 807.834 1180.42 807.573 1168.04 807.31C1160.19 807.143 1152.31 806.975 1143.41 806.452C1132.95 805.838 1124.4 805.048 1115.69 804.244C1105.29 803.284 1094.65 802.302 1080.26 801.569C1054.15 800.39 1036.87 801.569 1020.29 805.61C1013 807.425 1001.45 806.693 987.956 805.839C971.401 804.792 951.93 803.559 933.851 806.621C913.271 810 900.603 805.828 886.705 801.25C878.446 798.529 869.752 795.666 858.705 794.159C851.152 793.117 844.913 791.951 839.159 790.875C822.607 787.783 810.069 785.44 781.796 788.939C773.681 789.949 722.526 782.372 716.881 781.193C687.422 775.545 666.888 777.076 652.903 778.119C646.455 778.6 641.399 778.977 637.502 778.499C631.858 777.806 627.983 778.063 622.879 778.401C616.816 778.804 609.019 779.321 594.461 778.499C578.94 777.621 564.602 777.929 552.883 778.18C544.356 778.363 537.216 778.516 532.016 778.162C525.839 777.74 513.744 780.101 501.875 782.417C490.019 784.731 478.388 787.002 473.099 786.413C468.703 785.923 461.811 783.835 454.344 781.574C443.836 778.391 432.191 774.863 424.766 774.962C412.418 774.962 397.954 778.162 397.954 778.162C397.954 778.162 324.219 770.416 297.76 769.236C269.272 767.974 246.888 769.064 229.929 769.89C217.485 770.496 207.962 770.959 201.094 770.247C196.608 769.828 188.994 768.856 179.834 767.686C155.855 764.624 121.276 760.208 104.427 760.817C100.827 760.971 95.9814 761.167 90.342 761.396C58.9619 762.672 2.99072 764.946 0 766.374V38.1021C0.352783 37.7493 1.76392 37.7493 2.1167 37.7493C5.99756 37.0435 3.52808 32.1045 1.05835 27.5181Z" fill="#1D2B39"/>
</svg>
