<svg width="1920" height="870" viewBox="0 0 1920 870" fill="none" xmlns="http://www.w3.org/2000/svg">
<path d="M1920 4.71512C1916.27 5.8939 1877.66 1.51557 1859.71 2.35756C1841.76 3.19954 1839.73 0 1834.99 0C1830.25 0 1812.3 7.07268 1795.03 7.40947C1778.09 7.74626 1778.09 4.71512 1768.61 3.03115C1759.12 1.51557 1754.38 5.38871 1742.19 8.92504C1730 12.4614 1711.03 10.4406 1690.03 15.1557C1669.04 19.8709 1664.29 31.9954 1649.39 32.669C1634.15 33.511 1624.67 32.3322 1620.94 32.669C1617.22 33.0058 1605.7 36.2054 1587.75 37.5525C1584.36 37.8893 1580.98 38.3945 1577.59 39.4049C1562.69 38.5629 1549.48 37.7209 1540 37.7209C1482.76 37.7209 1482.76 50.5191 1441.44 57.4234C1429.25 59.4442 1409.26 55.9078 1385.22 62.1385C1376.75 60.4545 1351.69 55.9078 1339.16 57.255C1326.63 58.6022 1285.64 77.631 1267.02 70.2216C1248.05 62.8121 1222.99 76.1155 1210.46 76.1155C1197.93 76.1155 1185.39 82.1778 1160.33 79.4834C1135.27 76.7891 1119.69 77.7994 1097.68 76.4523C1075.66 75.1051 1062.45 72.9159 1037.05 71.5687C1011.99 70.39 995.393 71.5688 979.474 75.6103C963.895 79.6518 927.994 71.0635 896.497 76.6207C864.999 82.0094 852.806 68.2008 824.357 64.1593C796.246 60.1177 787.102 54.2238 750.524 58.939C742.734 59.9493 693.625 52.3715 688.206 51.1927C646.887 42.9412 623.856 50.0139 612.002 48.4983C600.148 46.9828 596.423 50.0139 570.683 48.4983C544.943 46.9828 522.589 49.0035 510.736 48.1616C498.882 47.3196 464.336 57.5918 454.175 56.413C444.015 55.2342 419.968 44.7936 407.776 44.962C395.922 44.962 382.036 48.1616 382.036 48.1616C382.036 48.1616 311.251 40.4153 285.849 39.2365C238.434 37.0473 208.629 41.9309 193.05 40.2469C177.47 38.7313 122.604 29.9747 100.25 30.8167C77.5586 31.827 3.38684 34.6898 0 36.3738V870H1920V160.651V4.71512Z" fill="white"/>
</svg>
