<svg width="1920" height="874" viewBox="0 0 1920 874" fill="none" xmlns="http://www.w3.org/2000/svg">
<path d="M0 9.48315C3.72546 11.8539 42.3357 3.04816 60.2859 4.74158C78.2361 6.435 80.2682 0 85.0098 0C89.7513 0 107.702 14.2247 124.974 14.9021C141.909 15.5795 141.909 9.48315 151.392 6.09631C160.875 3.04816 165.616 10.8379 177.809 17.9503C190.002 25.0626 208.968 20.9984 229.967 30.4816C250.965 39.9647 255.707 64.35 270.609 65.7047C285.849 67.3981 295.333 65.0273 299.058 65.7047C302.784 66.3821 314.299 72.8171 332.249 75.5265C335.636 76.2039 339.023 77.22 342.41 79.2521C357.312 77.5586 370.52 75.8652 380.004 75.8652C437.241 75.8652 437.241 101.605 478.561 115.491C490.753 119.555 510.736 112.443 534.782 124.974C543.249 121.588 568.312 112.443 580.843 115.153C593.375 117.862 634.355 156.133 652.983 141.231C671.949 126.329 697.012 153.085 709.543 153.085C722.074 153.085 734.606 165.278 759.668 159.859C784.731 154.44 800.311 156.472 822.325 153.763C844.339 151.053 857.548 146.65 882.949 143.941C908.012 141.57 924.607 143.941 940.526 152.069C956.105 160.198 992.006 142.925 1023.5 154.101C1055 164.939 1067.19 137.167 1095.64 129.039C1123.75 120.91 1132.9 109.056 1169.48 118.539C1177.27 120.572 1226.38 105.331 1231.79 102.96C1273.11 86.3644 1296.14 100.589 1308 97.541C1319.85 94.4929 1323.58 100.589 1349.32 97.541C1375.06 94.4929 1397.41 98.5571 1409.26 96.8636C1421.12 95.1702 1455.66 115.83 1465.82 113.459C1475.99 111.088 1500.03 90.09 1512.22 90.4286C1524.08 90.4286 1537.96 96.8636 1537.96 96.8636C1537.96 96.8636 1608.75 81.2842 1634.15 78.9134C1681.57 74.5105 1711.37 84.3323 1726.95 80.9455C1742.53 77.8973 1797.4 60.2858 1819.75 61.9792C1842.44 64.0113 1916.61 69.7689 1920 73.1558V874H0V323.105V9.48315Z" fill="#1D2B39"/>
</svg>
