<svg width="1920" height="855" viewBox="0 0 1920 855" fill="none" xmlns="http://www.w3.org/2000/svg">
<path fill-rule="evenodd" clip-rule="evenodd" d="M21.4468 7.82959C10.5728 9.33221 1.69141 10.5594 0 9.48315V323.105V575C0 575 37.2551 611.578 58.9309 614.626C80.2681 617.674 106.347 643.753 117.523 655.607C122.989 661.404 127.726 662.017 134.031 662.833C140.619 663.686 148.919 664.761 161.552 672.202C173.697 679.356 184.208 688.798 193.646 697.277C203.421 706.059 212.046 713.807 220.145 716.909C223.87 718.263 229.289 720.973 235.724 724.698C235.724 724.698 285.511 695.233 294.655 689.136C303.8 683.04 324.121 674.573 331.91 676.944C335.434 678.016 344.78 684.911 354.963 692.422C367.289 701.516 380.842 711.514 386.777 713.183C395.886 716.314 398.536 714.661 401.763 712.646C402.376 712.263 403.009 711.868 403.711 711.49C405.913 710.304 406.59 710.982 407.776 712.167C408.961 713.352 410.654 715.046 414.888 715.893C423.355 717.586 427.758 718.263 432.838 717.586C435.849 717.385 442.192 721.944 448.975 726.819C453.636 730.169 458.504 733.668 462.643 735.875C472.803 741.294 518.187 759.922 534.443 762.631C549.062 765.316 566.047 772.206 577.988 777.051C579.602 777.706 581.125 778.323 582.537 778.888C594.39 783.968 640.113 802.596 660.434 805.644C667.329 806.629 675.657 808.464 684.668 810.451C700.444 813.928 718.316 817.867 734.267 818.514C738.512 816.115 753.318 819.146 767.613 822.074C779.55 824.518 791.13 826.89 795.907 825.965C810.972 823.006 827.961 826.457 839.743 828.851C842.795 829.47 845.497 830.019 847.726 830.368C851.387 830.94 858.914 830.777 867.798 830.586C885.213 830.21 907.847 829.722 916.818 834.432C925.309 838.89 935.397 839.888 945.081 840.847C950.846 841.417 956.468 841.974 961.524 843.238C973.039 846.286 1009.96 851.705 1032.31 854.753C1033.24 854.344 1034.16 853.945 1035.05 853.558C1039.3 851.701 1042.94 850.116 1045.18 848.995C1052.3 845.719 1057.98 843.821 1063.62 841.94C1071.38 839.349 1079.04 836.79 1090.22 830.706C1096.64 827.217 1114.77 818.527 1136.61 808.056C1180.48 787.023 1239.34 758.804 1248.39 751.116C1256.59 744.149 1261.93 742.885 1268.85 741.248C1273.37 740.179 1278.55 738.952 1285.64 735.875C1293.29 732.617 1302.25 725.686 1311.24 718.724C1323.75 709.04 1336.33 699.297 1345.59 699.297C1349.39 699.297 1352.98 698.93 1356.55 698.565C1367.93 697.402 1379.12 696.258 1396.39 707.087C1403.85 711.828 1428.23 732.149 1458.71 757.551C1477.34 749.084 1496.64 741.294 1512.9 737.23C1548.12 728.424 1621.96 701.668 1665.31 676.605C1672.32 672.607 1678.55 668.769 1684.28 665.238C1706.23 651.719 1720.86 642.703 1744.22 646.462C1746.18 646.781 1748.05 647.083 1749.86 647.376C1775.02 651.439 1787.43 653.445 1823.14 665.767C1861.41 679.315 1887.49 685.411 1901.03 681.685C1914.58 678.299 1920 673.896 1920 673.896V73.1558C1917.13 70.2851 1863.41 65.7112 1833.28 63.1463C1827.86 62.6851 1823.21 62.2889 1819.75 61.9792C1803.58 60.7539 1770.38 69.6356 1747.36 75.7943C1738.57 78.1473 1731.26 80.1028 1726.95 80.9455C1720.36 82.379 1711.21 81.4462 1699.27 80.2274C1682.99 78.5664 1661.5 76.374 1634.15 78.9134C1608.75 81.2842 1537.96 96.8636 1537.96 96.8636C1537.96 96.8636 1524.08 90.4287 1512.22 90.4287C1505.1 90.2307 1493.92 97.3253 1483.83 103.727C1476.66 108.276 1470.05 112.474 1465.82 113.459C1460.75 114.644 1449.58 110.078 1438.2 105.424C1426.8 100.764 1415.19 96.0164 1409.26 96.8636C1404.27 97.5768 1397.42 97.2687 1389.23 96.9009C1377.98 96.3953 1364.22 95.7766 1349.32 97.541C1335.34 99.1959 1327.86 98.1553 1322.04 97.3461C1317.14 96.6649 1313.42 96.1478 1308 97.541C1304.26 98.5029 1299.4 97.7448 1293.21 96.7778C1279.79 94.6807 1260.07 91.6013 1231.79 102.96C1226.38 105.331 1177.27 120.572 1169.48 118.539C1142.33 111.502 1130.3 116.215 1114.41 122.435C1108.88 124.597 1102.89 126.942 1095.64 129.039C1085.04 132.068 1076.69 137.828 1068.76 143.3C1055.42 152.507 1043.26 160.899 1023.5 154.101C1006.15 147.943 987.455 150.422 971.562 152.53C958.612 154.248 947.521 155.719 940.526 152.069C924.607 143.941 908.012 141.57 882.949 143.941C869.132 145.415 858.922 147.39 848.94 149.32C840.572 150.939 832.364 152.527 822.325 153.763C813.785 154.814 806.213 155.151 798.68 155.487C786.796 156.017 775.008 156.542 759.668 159.859C743.552 163.344 732.618 159.546 723.533 156.39C718.49 154.639 714.016 153.085 709.543 153.085C705.256 153.085 699.503 149.954 693.029 146.43C680.578 139.654 665.461 131.427 652.983 141.231C640.097 151.54 616.516 136.404 599.054 125.197C591.272 120.202 584.706 115.988 580.843 115.153C568.312 112.443 543.249 121.588 534.782 124.974C519.459 116.989 505.786 116.98 494.728 116.973C488.432 116.969 482.984 116.966 478.561 115.491C462.72 110.168 452.953 103.102 443.705 96.4128C428.829 85.6527 415.299 75.8652 380.003 75.8652C371.791 75.8652 360.783 77.1354 348.302 78.5757C346.371 78.7985 344.406 79.0253 342.41 79.2521C339.023 77.22 335.636 76.2039 332.249 75.5266C319.661 73.6264 310.237 69.8939 304.446 67.6C301.979 66.623 300.171 65.907 299.058 65.7047C297.69 65.4559 295.545 65.6183 292.623 65.8395C287.59 66.2206 280.252 66.7762 270.609 65.7047C263.145 65.0262 258.23 58.5708 252.545 51.1039C246.879 43.6619 240.448 35.2152 229.967 30.4816C218.915 25.4904 208.426 24.252 199.191 23.1617C190.88 22.1805 183.584 21.3192 177.809 17.9503C174.145 15.8127 171.153 13.614 168.504 11.6667C162.338 7.13458 158.025 3.96423 151.392 6.09631C148.228 7.22632 146.119 8.6579 144.086 10.0389C140.024 12.7971 136.259 15.3535 124.975 14.9021C113.79 14.4635 102.321 8.34442 94.3381 4.08539C89.9932 1.76715 86.6809 0 85.0098 0C83.4854 0 82.241 0.6651 80.6577 1.51141C77.3164 3.29755 72.4651 5.89056 60.2859 4.74158C50.4849 3.81696 34.5249 6.0224 21.4468 7.82959Z" fill="#1D2B39"/>
</svg>
