<svg width="221" height="50" viewBox="0 0 221 50" fill="none" xmlns="http://www.w3.org/2000/svg">
<path d="M63.5765 41.5925C63.8976 41.769 64.4231 42.0042 64.9485 42.0042C65.6782 42.0042 66.0285 41.6514 66.0285 41.1515C66.0285 40.6516 65.7366 40.387 64.9777 40.093C63.956 39.7107 63.4598 39.152 63.4598 38.4758C63.4598 37.5642 64.2187 36.7997 65.4155 36.7997C65.9993 36.7997 66.4956 36.9468 66.8167 37.1526L66.5831 37.8877C66.3496 37.7701 65.941 37.5642 65.4155 37.5642C64.8025 37.5642 64.4814 37.9171 64.4814 38.3581C64.4814 38.858 64.8025 39.0638 65.5615 39.3285C66.5248 39.6813 67.0502 40.1812 67.0502 41.0633C67.0502 42.0924 66.2621 42.7981 64.9485 42.7981C64.3355 42.7981 63.7517 42.6217 63.343 42.3864L63.5765 41.5925Z" fill="white"/>
<path d="M68.3638 38.4464C68.3638 37.8289 68.3638 37.3584 68.3054 36.888H69.2103L69.2687 37.8289H69.2979C69.5898 37.2996 70.232 36.7704 71.166 36.7704C71.9542 36.7704 73.1802 37.2408 73.1802 39.2109V42.6217H72.1585V39.3285C72.1585 38.417 71.8082 37.6231 70.8449 37.6231C70.1736 37.6231 69.6481 38.1229 69.4438 38.6816C69.3854 38.7992 69.3854 39.005 69.3854 39.1815V42.6511H68.3638V38.4464Z" fill="white"/>
<path d="M77.2084 42.7687C75.6905 42.7687 74.4937 41.622 74.4937 39.8283C74.4937 37.9171 75.7489 36.7997 77.3252 36.7997C78.9598 36.7997 80.0691 38.0053 80.0691 39.7401C80.0399 41.8278 78.5804 42.7687 77.2084 42.7687ZM77.2376 41.9748C78.2301 41.9748 78.9598 41.0339 78.9598 39.7401C78.9598 38.7698 78.4636 37.5642 77.2668 37.5642C76.07 37.5642 75.5154 38.711 75.5154 39.7989C75.5154 41.0339 76.2159 41.9748 77.2376 41.9748Z" fill="white"/>
<path d="M81.6745 36.9174L82.4335 39.8284C82.5795 40.4752 82.7254 41.0633 82.8422 41.6514H82.8714C82.9881 41.0633 83.1925 40.4458 83.3676 39.8284L84.3017 36.9174H85.1774L86.0531 39.7696C86.2574 40.4458 86.4326 41.0633 86.5493 41.6514H86.5785C86.6661 41.0633 86.8121 40.4752 87.0164 39.799L87.8337 36.9174H88.8554L87.0164 42.6511H86.1115L85.2358 39.9166C85.0314 39.2697 84.8855 38.711 84.7395 38.0347H84.7104C84.5644 38.711 84.3893 39.3285 84.1849 39.946L83.28 42.6805H82.3167L80.5945 36.9468H81.6745V36.9174Z" fill="white"/>
<path d="M89.7311 41.5925C90.0522 41.769 90.5776 42.0042 91.103 42.0042C91.8328 42.0042 92.1831 41.6514 92.1831 41.1515C92.1831 40.6516 91.8912 40.387 91.1322 40.093C90.1106 39.7107 89.6143 39.152 89.6143 38.4758C89.6143 37.5642 90.3733 36.7997 91.5701 36.7997C92.1539 36.7997 92.6501 36.9468 92.9712 37.1526L92.7377 37.8877C92.5042 37.7701 92.0955 37.5642 91.5701 37.5642C90.9571 37.5642 90.636 37.9171 90.636 38.3581C90.636 38.858 90.9571 39.0638 91.716 39.3285C92.6793 39.6813 93.2047 40.1812 93.2047 41.0633C93.2047 42.0924 92.4166 42.7981 91.103 42.7981C90.49 42.7981 89.9062 42.6217 89.4976 42.3864L89.7311 41.5925Z" fill="white"/>
<path d="M94.5183 34.2416H95.54V37.8289H95.5692C95.7443 37.5349 95.9778 37.2702 96.2989 37.0938C96.5908 36.9174 96.9703 36.7998 97.3498 36.7998C98.1087 36.7998 99.3347 37.2702 99.3347 39.2403V42.6511H98.313V39.3579C98.313 38.417 97.9628 37.6525 96.9995 37.6525C96.3281 37.6525 95.8027 38.1229 95.5984 38.6816C95.54 38.8286 95.54 38.9756 95.54 39.1815V42.6511H94.5183V34.2416Z" fill="white"/>
<path d="M103.363 42.7687C101.845 42.7687 100.648 41.622 100.648 39.8283C100.648 37.9171 101.903 36.7997 103.48 36.7997C105.114 36.7997 106.224 38.0053 106.224 39.7401C106.194 41.8278 104.735 42.7687 103.363 42.7687ZM103.392 41.9748C104.385 41.9748 105.114 41.0339 105.114 39.7401C105.114 38.7698 104.618 37.5642 103.421 37.5642C102.225 37.5642 101.67 38.711 101.67 39.7989C101.699 41.0339 102.4 41.9748 103.392 41.9748Z" fill="white"/>
<path d="M108.092 39.946C108.121 41.3573 108.997 41.9454 110.018 41.9454C110.748 41.9454 111.215 41.8278 111.595 41.6514L111.77 42.3865C111.419 42.5629 110.777 42.7393 109.872 42.7393C108.121 42.7393 107.07 41.5632 107.07 39.8577C107.07 38.1229 108.092 36.7704 109.756 36.7704C111.624 36.7704 112.091 38.417 112.091 39.4755C112.091 39.6813 112.091 39.8577 112.062 39.9754L108.092 39.946ZM111.128 39.2109C111.128 38.564 110.865 37.5054 109.697 37.5054C108.646 37.5054 108.179 38.4758 108.121 39.2109H111.128Z" fill="white"/>
<path d="M113.258 41.5925C113.58 41.769 114.105 42.0042 114.63 42.0042C115.36 42.0042 115.71 41.6514 115.71 41.1515C115.71 40.6516 115.419 40.387 114.66 40.093C113.638 39.7107 113.142 39.152 113.142 38.4758C113.142 37.5642 113.901 36.7997 115.097 36.7997C115.681 36.7997 116.178 36.9468 116.499 37.1526L116.265 37.8877C116.032 37.7701 115.623 37.5642 115.097 37.5642C114.484 37.5642 114.163 37.9171 114.163 38.3581C114.163 38.858 114.484 39.0638 115.243 39.3285C116.207 39.6813 116.732 40.1812 116.732 41.0633C116.732 42.0924 115.944 42.7981 114.63 42.7981C114.017 42.7981 113.434 42.6217 113.025 42.3864L113.258 41.5925Z" fill="white"/>
<path d="M117.199 44.0919C117.462 43.3862 117.783 42.1218 117.9 41.2397L119.038 41.1221C118.746 42.1218 118.25 43.445 117.9 44.0037L117.199 44.0919Z" fill="white"/>
<path d="M121.986 38.7698C121.986 38.0347 121.986 37.4466 121.928 36.888H122.862L122.92 37.8583H122.95C123.358 37.1526 124.03 36.7409 124.964 36.7409C126.365 36.7409 127.387 37.9171 127.387 39.6519C127.387 41.7102 126.131 42.7393 124.789 42.7393C124.03 42.7393 123.388 42.4159 123.037 41.8278H123.008V44.9446H121.986V38.7698ZM123.008 40.2988C123.008 40.4458 123.008 40.5928 123.066 40.7104C123.242 41.4455 123.884 41.916 124.614 41.916C125.694 41.916 126.336 41.0045 126.336 39.7107C126.336 38.564 125.752 37.5936 124.643 37.5936C123.942 37.5936 123.271 38.0935 123.066 38.858C123.037 39.005 123.008 39.152 123.008 39.2697V40.2988Z" fill="white"/>
<path d="M131.006 42.7687C129.488 42.7687 128.292 41.622 128.292 39.8283C128.292 37.9171 129.547 36.7997 131.123 36.7997C132.758 36.7997 133.867 38.0053 133.867 39.7401C133.838 41.8278 132.349 42.7687 131.006 42.7687ZM131.035 41.9748C132.028 41.9748 132.758 41.0339 132.758 39.7401C132.758 38.7698 132.261 37.5642 131.065 37.5642C129.868 37.5642 129.313 38.711 129.313 39.7989C129.313 41.0339 130.014 41.9748 131.035 41.9748Z" fill="white"/>
<path d="M135.122 34.2416H136.144V42.6511H135.122V34.2416Z" fill="white"/>
<path d="M138.479 39.946C138.508 41.3573 139.384 41.9454 140.405 41.9454C141.135 41.9454 141.602 41.8278 141.982 41.6514L142.157 42.3865C141.807 42.5629 141.164 42.7393 140.26 42.7393C138.508 42.7393 137.457 41.5632 137.457 39.8577C137.457 38.1229 138.479 36.7704 140.143 36.7704C142.011 36.7704 142.478 38.417 142.478 39.4755C142.478 39.6813 142.478 39.8577 142.449 39.9754L138.479 39.946ZM141.485 39.2109C141.485 38.564 141.223 37.5054 140.055 37.5054C139.004 37.5054 138.537 38.4758 138.479 39.2109H141.485Z" fill="white"/>
<path d="M143.616 41.5925C143.938 41.769 144.463 42.0042 144.988 42.0042C145.718 42.0042 146.068 41.6514 146.068 41.1515C146.068 40.6516 145.776 40.387 145.018 40.093C143.996 39.7107 143.5 39.152 143.5 38.4758C143.5 37.5642 144.259 36.7997 145.455 36.7997C146.039 36.7997 146.535 36.9468 146.827 37.1526L146.594 37.8877C146.36 37.7701 145.952 37.5642 145.426 37.5642C144.813 37.5642 144.492 37.9171 144.492 38.3581C144.492 38.858 144.813 39.0638 145.572 39.3285C146.535 39.6813 147.061 40.1812 147.061 41.0633C147.061 42.0924 146.273 42.7981 144.959 42.7981C144.346 42.7981 143.762 42.6217 143.354 42.3864L143.616 41.5925Z" fill="white"/>
<path d="M0 25.0677L9.13657 28.2433C8.87386 26.1262 8.87386 23.9797 9.13657 21.8627L0 25.0677Z" fill="#C41230"/>
<path d="M58.8185 28.0669C57.1838 38.3876 47.5802 45.4151 37.3344 43.7685C27.0886 42.1219 20.0829 32.4186 21.7176 22.1273C23.3522 11.8066 32.9851 4.7497 43.2017 6.39631C51.229 7.69007 57.5341 14.0119 58.7893 22.0979C57.4174 10.8069 48.6019 1.89754 37.3928 0.544965C23.9652 -1.10164 11.7345 8.57219 10.0998 22.1273C8.46518 35.6824 18.0688 48.0026 31.4963 49.6198C44.9531 51.2664 57.1838 41.5926 58.8185 28.0669Z" fill="white"/>
<path d="M73.1218 27.714C72.538 27.9786 71.2828 28.4197 69.6481 28.4197C65.9993 28.4197 63.6349 25.9204 63.6349 22.1861C63.6349 18.4518 66.1745 15.6585 70.1152 15.6585C71.4287 15.6585 72.5672 15.9819 73.151 16.3054L72.6547 17.9814C72.1293 17.7167 71.312 17.3933 70.1152 17.3933C67.3421 17.3933 65.8534 19.481 65.8534 22.0391C65.8534 24.8618 67.6632 26.5967 70.0568 26.5967C71.312 26.5967 72.1293 26.3026 72.7423 26.0086L73.1218 27.714Z" fill="white"/>
<path d="M75.7197 19.7456C75.7197 18.3048 75.6905 17.0699 75.6321 15.9525H77.5587L77.6463 18.3342H77.7338C78.2885 16.6876 79.6312 15.6585 81.1199 15.6585C81.3534 15.6585 81.5286 15.6879 81.7329 15.7467V17.8049C81.4702 17.7755 81.2659 17.7461 80.9448 17.7461C79.3977 17.7461 78.2885 18.9223 77.9966 20.5689C77.9382 20.8923 77.909 21.2452 77.909 21.6274V28.1257H75.7197V19.7456Z" fill="white"/>
<path d="M84.9731 22.4213C85.0314 25.4205 86.8996 26.6555 89.0889 26.6555C90.6652 26.6555 91.6285 26.3908 92.4458 26.038L92.8544 27.5964C92.0663 27.9492 90.7236 28.3903 88.797 28.3903C85.0898 28.3903 82.8422 25.891 82.8422 22.2449C82.8422 18.54 85.0314 15.6585 88.5343 15.6585C92.475 15.6585 93.4966 19.1575 93.4966 21.3922C93.4966 21.8333 93.4674 22.1861 93.4091 22.4507L84.9731 22.4213ZM91.3949 20.8335C91.4241 19.4516 90.8111 17.2463 88.3591 17.2463C86.1115 17.2463 85.1482 19.3045 84.9731 20.8335H91.3949Z" fill="white"/>
<path d="M95.9486 25.891C96.62 26.3026 97.7876 26.7437 98.8676 26.7437C100.444 26.7437 101.203 25.9498 101.203 24.9207C101.203 23.8621 100.59 23.274 98.9844 22.686C96.7951 21.8921 95.7735 20.6865 95.7735 19.2457C95.7735 17.2757 97.3789 15.6585 99.9477 15.6585C101.174 15.6585 102.254 15.9819 102.896 16.423L102.37 18.0108C101.903 17.7461 101.028 17.3051 99.8893 17.3051C98.5757 17.3051 97.8752 18.0696 97.8752 18.9811C97.8752 20.0102 98.5757 20.4807 100.152 21.0688C102.225 21.8627 103.334 22.8918 103.334 24.7442C103.334 26.9201 101.67 28.4197 98.8384 28.4197C97.5249 28.4197 96.2989 28.0669 95.4524 27.567L95.9486 25.891Z" fill="white"/>
<path d="M114.776 27.714C114.193 27.9786 112.937 28.4197 111.303 28.4197C107.654 28.4197 105.29 25.9204 105.29 22.1861C105.29 18.4518 107.829 15.6585 111.77 15.6585C113.083 15.6585 114.222 15.9819 114.806 16.3054L114.309 17.9814C113.784 17.7167 112.967 17.3933 111.77 17.3933C108.997 17.3933 107.508 19.481 107.508 22.0391C107.508 24.8618 109.318 26.5967 111.711 26.5967C112.967 26.5967 113.784 26.3026 114.397 26.0086L114.776 27.714Z" fill="white"/>
<path d="M118.454 22.4213C118.513 25.4205 120.381 26.6555 122.57 26.6555C124.146 26.6555 125.11 26.3908 125.927 26.038L126.336 27.5964C125.548 27.9492 124.205 28.3903 122.278 28.3903C118.571 28.3903 116.323 25.891 116.323 22.2449C116.323 18.54 118.513 15.6585 122.016 15.6585C125.956 15.6585 126.978 19.1575 126.978 21.3922C126.978 21.8333 126.949 22.1861 126.89 22.4507L118.454 22.4213ZM124.876 20.8335C124.905 19.4516 124.292 17.2463 121.84 17.2463C119.593 17.2463 118.629 19.3045 118.454 20.8335H124.876Z" fill="white"/>
<path d="M129.722 19.2457C129.722 17.952 129.693 16.9523 129.634 15.9525H131.59L131.707 17.952H131.765C132.378 16.8052 133.75 15.6879 135.764 15.6879C137.428 15.6879 140.026 16.6876 140.026 20.863V28.1257H137.837V21.0982C137.837 19.1281 137.107 17.4815 135.034 17.4815C133.604 17.4815 132.495 18.5107 132.086 19.7456C131.999 20.0102 131.94 20.4219 131.94 20.7747V28.1257H129.751V19.2457H129.722Z" fill="white"/>
<path d="M146.127 12.4241V15.9526H149.279V17.6286H146.127V24.1856C146.127 25.6852 146.565 26.5379 147.791 26.5379C148.404 26.5379 148.754 26.4791 149.075 26.3909L149.163 28.0669C148.725 28.2139 148.053 28.3609 147.207 28.3609C146.185 28.3609 145.368 28.0081 144.842 27.42C144.229 26.7437 143.996 25.6558 143.996 24.215V17.6286H142.128V15.9526H143.996V13.1298L146.127 12.4241Z" fill="white"/>
<path d="M157.073 19.2457C157.073 17.952 157.015 16.9523 156.986 15.9525H158.912L159 17.9226H159.087C159.759 16.7758 160.897 15.6879 162.911 15.6879C164.546 15.6879 165.772 16.6876 166.297 18.1284H166.356C166.735 17.4227 167.231 16.9229 167.728 16.5406C168.457 15.9819 169.216 15.6879 170.384 15.6879C172.019 15.6879 174.383 16.7464 174.383 20.9806V28.1551H172.223V21.2452C172.223 18.8929 171.347 17.4815 169.596 17.4815C168.311 17.4815 167.377 18.4224 166.969 19.481C166.881 19.8044 166.794 20.2161 166.794 20.5983V28.1551H164.633V20.8336C164.633 18.8635 163.787 17.4815 162.123 17.4815C160.78 17.4815 159.759 18.5989 159.408 19.6868C159.292 20.0102 159.233 20.3925 159.233 20.7747V28.1257H157.073V19.2457Z" fill="white"/>
<path d="M182.848 28.4197C179.608 28.4197 177.039 26.0086 177.039 22.1567C177.039 18.0696 179.725 15.6879 183.053 15.6879C186.526 15.6879 188.891 18.2166 188.891 21.9215C188.861 26.4497 185.738 28.4197 182.848 28.4197ZM182.907 26.7437C185.008 26.7437 186.585 24.7442 186.585 21.9803C186.585 19.922 185.563 17.3345 182.965 17.3345C180.396 17.3345 179.258 19.7456 179.258 22.0685C179.258 24.7442 180.776 26.7437 182.907 26.7437Z" fill="white"/>
<path d="M196.597 28.4197C193.357 28.4197 190.788 26.0086 190.788 22.1567C190.788 18.0696 193.474 15.6879 196.801 15.6879C200.275 15.6879 202.639 18.2166 202.639 21.9215C202.61 26.4497 199.487 28.4197 196.597 28.4197ZM196.655 26.7437C198.757 26.7437 200.333 24.7442 200.333 21.9803C200.333 19.922 199.312 17.3345 196.714 17.3345C194.145 17.3345 193.007 19.7456 193.007 22.0685C193.007 24.7442 194.524 26.7437 196.655 26.7437Z" fill="white"/>
<path d="M205.383 19.2457C205.383 17.952 205.354 16.9523 205.296 15.9525H207.251L207.368 17.952H207.426C208.039 16.8052 209.441 15.6879 211.426 15.6879C213.089 15.6879 215.687 16.6876 215.687 20.863V28.1257H213.498V21.0982C213.498 19.1281 212.768 17.4815 210.696 17.4815C209.265 17.4815 208.156 18.5107 207.748 19.7456C207.66 20.0102 207.602 20.4219 207.602 20.7747V28.1257H205.412V19.2457H205.383Z" fill="white"/>
<path d="M218.986 13.9825C220.095 13.9825 221 14.894 221 16.0407C221 17.1875 220.124 18.099 218.986 18.099C217.877 18.099 216.972 17.1875 216.972 16.0407C216.943 14.894 217.847 13.9825 218.986 13.9825ZM218.986 14.3059C218.081 14.3059 217.351 15.0704 217.351 16.0407C217.351 17.011 218.081 17.7755 218.986 17.7755C219.891 17.7755 220.621 17.011 220.621 16.0407C220.621 15.0998 219.891 14.3059 218.986 14.3059ZM218.606 17.2463H218.256V14.9528C218.46 14.9234 218.636 14.894 218.898 14.894C219.249 14.894 219.482 14.9528 219.599 15.0704C219.745 15.1586 219.803 15.335 219.803 15.5408C219.803 15.8349 219.599 16.0113 219.365 16.0995V16.1289C219.57 16.1583 219.686 16.3348 219.745 16.6876C219.803 17.0404 219.862 17.1875 219.891 17.2463H219.511C219.453 17.1875 219.395 16.9522 219.365 16.6582C219.307 16.3642 219.161 16.2465 218.869 16.2465H218.606V17.2463ZM218.606 15.9819H218.869C219.161 15.9819 219.424 15.8643 219.424 15.5997C219.424 15.3938 219.278 15.188 218.869 15.188C218.752 15.188 218.665 15.188 218.606 15.2174V15.9819Z" fill="white"/>
<path d="M164.604 41.2103C164.604 41.7102 164.633 42.1806 164.692 42.5923H163.758L163.67 41.8572H163.641C163.349 42.2983 162.707 42.7099 161.89 42.7099C160.751 42.7099 160.138 41.8866 160.138 41.0633C160.138 39.6813 161.364 38.9168 163.553 38.9462V38.8286C163.553 38.3582 163.437 37.476 162.269 37.5055C161.714 37.5055 161.189 37.6525 160.78 37.9171L160.547 37.2114C161.014 36.9174 161.714 36.7115 162.415 36.7115C164.166 36.7115 164.575 37.9171 164.575 39.0639V41.2103H164.604ZM163.583 39.6519C162.444 39.6225 161.16 39.8283 161.16 40.9457C161.16 41.622 161.598 41.9454 162.123 41.9454C162.882 41.9454 163.349 41.475 163.524 40.9751C163.553 40.8575 163.583 40.7399 163.583 40.6517V39.6519Z" fill="white"/>
<path d="M170.296 42.3571C170.034 42.4747 169.421 42.6805 168.662 42.6805C166.94 42.6805 165.83 41.5043 165.83 39.7401C165.83 37.9759 167.027 36.6821 168.895 36.6821C169.508 36.6821 170.034 36.8291 170.326 36.9762L170.092 37.7701C169.859 37.6525 169.45 37.5054 168.895 37.5054C167.582 37.5054 166.881 38.4758 166.881 39.6813C166.881 41.0045 167.728 41.8278 168.866 41.8278C169.45 41.8278 169.829 41.6808 170.121 41.5632L170.296 42.3571Z" fill="white"/>
<path d="M175.58 42.3571C175.317 42.4747 174.704 42.6805 173.945 42.6805C172.223 42.6805 171.114 41.5043 171.114 39.7401C171.114 37.9759 172.311 36.6821 174.179 36.6821C174.792 36.6821 175.317 36.8291 175.609 36.9762L175.376 37.7701C175.142 37.6525 174.733 37.5054 174.179 37.5054C172.865 37.5054 172.165 38.4758 172.165 39.6813C172.165 41.0045 173.011 41.8278 174.15 41.8278C174.733 41.8278 175.113 41.6808 175.405 41.5632L175.58 42.3571Z" fill="white"/>
<path d="M177.302 39.8872C177.331 41.2985 178.207 41.8866 179.229 41.8866C179.958 41.8866 180.425 41.769 180.805 41.5926L180.98 42.3277C180.63 42.5041 179.988 42.6805 179.083 42.6805C177.331 42.6805 176.28 41.5044 176.28 39.7989C176.28 38.0641 177.302 36.7115 178.966 36.7115C180.834 36.7115 181.301 38.3582 181.301 39.4167C181.301 39.6225 181.301 39.7989 181.272 39.9166L177.302 39.8872ZM180.309 39.1227C180.309 38.4758 180.046 37.4172 178.878 37.4172C177.828 37.4172 177.36 38.3876 177.302 39.1227H180.309Z" fill="white"/>
<path d="M182.44 41.5044C182.761 41.6808 183.286 41.916 183.812 41.916C184.541 41.916 184.892 41.5632 184.892 41.0633C184.892 40.5634 184.6 40.2988 183.841 40.0048C182.819 39.6225 182.323 39.0638 182.323 38.3876C182.323 37.476 183.082 36.7115 184.279 36.7115C184.862 36.7115 185.359 36.8586 185.68 37.0644L185.446 37.7995C185.213 37.6819 184.804 37.476 184.279 37.476C183.666 37.476 183.344 37.8289 183.344 38.2699C183.344 38.7404 183.666 38.9756 184.425 39.2403C185.388 39.5931 185.913 40.093 185.913 40.9751C185.913 42.0042 185.125 42.7099 183.812 42.7099C183.199 42.7099 182.615 42.5335 182.206 42.2983L182.44 41.5044Z" fill="white"/>
<path d="M187.11 41.5044C187.431 41.6808 187.957 41.916 188.482 41.916C189.212 41.916 189.562 41.5632 189.562 41.0633C189.562 40.5634 189.27 40.2988 188.511 40.0048C187.489 39.6225 186.993 39.0638 186.993 38.3876C186.993 37.476 187.752 36.7115 188.949 36.7115C189.533 36.7115 190.029 36.8586 190.35 37.0644L190.117 37.7995C189.883 37.6819 189.474 37.476 188.949 37.476C188.336 37.476 188.015 37.8289 188.015 38.2699C188.015 38.7404 188.336 38.9756 189.095 39.2403C190.058 39.5931 190.584 40.093 190.584 40.9751C190.584 42.0042 189.796 42.7099 188.482 42.7099C187.869 42.7099 187.285 42.5335 186.876 42.2983L187.11 41.5044Z" fill="white"/>
<path d="M194.203 42.7099C192.685 42.7099 191.489 41.5632 191.489 39.7696C191.489 37.8583 192.744 36.741 194.32 36.741C195.955 36.741 197.064 37.9465 197.064 39.6813C197.035 41.769 195.575 42.7099 194.203 42.7099ZM194.262 41.916C195.254 41.916 195.984 40.9751 195.984 39.6813C195.984 38.711 195.517 37.5055 194.291 37.5055C193.094 37.5055 192.539 38.6522 192.539 39.7401C192.539 40.9751 193.24 41.916 194.262 41.916Z" fill="white"/>
<path d="M198.348 38.6228C198.348 37.9465 198.348 37.3584 198.29 36.8291H199.195L199.253 37.9465H199.282C199.545 37.182 200.187 36.6821 200.859 36.6821C200.975 36.6821 201.034 36.6821 201.151 36.7115V37.6819C201.034 37.6819 200.917 37.6525 200.8 37.6525C200.071 37.6525 199.545 38.2111 199.428 38.9756C199.399 39.1226 199.399 39.2991 199.399 39.4755V42.5335H198.378L198.348 38.6228Z" fill="white"/>
<path d="M202.727 35.8001C202.347 35.8001 202.085 35.506 202.085 35.1238C202.085 34.7709 202.347 34.4475 202.756 34.4475C203.165 34.4475 203.427 34.7415 203.427 35.1238C203.427 35.4766 203.165 35.8001 202.727 35.8001ZM202.231 42.5629V36.8292H203.252V42.5629H202.231Z" fill="white"/>
<path d="M205.588 39.8872C205.617 41.2985 206.492 41.8866 207.514 41.8866C208.244 41.8866 208.711 41.769 209.09 41.5926L209.266 42.3277C208.915 42.5041 208.273 42.6805 207.368 42.6805C205.617 42.6805 204.566 41.5044 204.566 39.7989C204.566 38.0641 205.588 36.7115 207.251 36.7115C209.12 36.7115 209.587 38.3582 209.587 39.4167C209.587 39.6225 209.587 39.7989 209.557 39.9166L205.588 39.8872ZM208.594 39.1227C208.594 38.4758 208.331 37.4172 207.164 37.4172C206.113 37.4172 205.646 38.3876 205.588 39.1227H208.594Z" fill="white"/>
<path d="M210.725 41.5044C211.046 41.6808 211.571 41.916 212.097 41.916C212.827 41.916 213.177 41.5632 213.177 41.0633C213.177 40.5634 212.885 40.2988 212.126 40.0048C211.104 39.6225 210.608 39.0638 210.608 38.3876C210.608 37.476 211.367 36.7115 212.564 36.7115C213.148 36.7115 213.644 36.8586 213.965 37.0644L213.732 37.7995C213.498 37.6819 213.089 37.476 212.564 37.476C211.951 37.476 211.63 37.8289 211.63 38.2699C211.63 38.7404 211.951 38.9756 212.71 39.2403C213.673 39.5931 214.199 40.093 214.199 40.9751C214.199 42.0042 213.41 42.7099 212.097 42.7099C211.484 42.7099 210.9 42.5335 210.491 42.2983L210.725 41.5044Z" fill="white"/>
<path d="M156.197 43.004C155.964 42.7687 155.73 42.5335 155.409 42.1807C154.68 42.8569 153.891 43.1216 152.957 43.1216C151.323 43.1216 150.389 42.0336 150.389 40.7693C150.389 39.6225 151.06 38.858 152.023 38.2994V38.27C151.615 37.7113 151.323 37.1232 151.323 36.5057C151.323 35.4766 152.052 34.4475 153.454 34.4475C154.504 34.4475 155.293 35.1238 155.293 36.2411C155.293 37.1232 154.796 37.8289 153.454 38.4758V38.5052C154.154 39.3285 154.942 40.24 155.497 40.8575C155.876 40.2694 156.139 39.4461 156.314 38.3876H157.307C157.073 39.7108 156.723 40.7693 156.11 41.5044C156.548 41.9748 156.986 42.4453 157.482 43.004H156.197ZM153.191 42.3277C153.921 42.3277 154.504 42.0042 154.913 41.5632C154.417 41.0339 153.483 39.9754 152.578 38.9169C152.111 39.2109 151.498 39.7402 151.498 40.6223C151.469 41.5926 152.169 42.3277 153.191 42.3277ZM153.395 35.212C152.724 35.212 152.344 35.8001 152.344 36.4469C152.344 37.035 152.636 37.5055 152.987 37.9465C153.833 37.4467 154.388 37.0056 154.388 36.2999C154.388 35.7706 154.096 35.212 153.395 35.212Z" fill="white"/>
<path d="M52.8345 23.6269L52.5134 22.686L52.0172 21.7451L51.375 20.8336L50.5868 19.9808L49.6528 19.1575L48.5727 18.393L47.3759 17.6874L46.0623 17.0405L44.632 16.4818L43.1141 16.0113L41.5378 15.5997L39.874 15.2762L38.181 15.041L36.4587 14.894L34.7073 14.8646L32.9559 14.9234L31.2337 15.0704L29.5406 15.3056L27.906 15.6291L26.2713 16.0407L24.7534 16.5406C21.8927 21.8921 21.8927 28.3021 24.7534 33.6536L26.2713 34.1534L27.8476 34.5651L29.4822 34.8885L31.1753 35.1238L32.8975 35.2708L34.6489 35.3296L36.4003 35.3002L38.1226 35.1532L39.8156 34.9179L41.4795 34.5945L43.0557 34.1828L44.5736 33.7124L46.004 33.1537L47.3175 32.5068L48.5143 31.8011L49.5944 31.0366L50.5285 30.2133L51.3166 29.3606L51.9588 28.4491L52.455 27.5082L52.8345 26.5379L53.0096 25.5676V24.5972L52.8345 23.6269ZM49.1273 26.0674L48.8646 27.0377L48.456 27.9787L47.9013 28.8608L47.2008 29.6547L46.3542 30.3604L45.4202 30.9484L44.3985 31.4189L43.2893 31.7423L42.1508 31.9188L40.9832 31.9482L39.8156 31.8305L38.7064 31.5659L37.6263 31.1837L36.6339 30.6544L35.729 30.0075L34.9408 29.2724L34.2986 28.4197L33.8024 27.5082L33.4813 26.5379L33.3062 25.5381V24.5384L33.4813 23.5387L33.8024 22.5684L34.2986 21.6569L34.9408 20.8041L35.729 20.0691L36.6339 19.4222L37.6263 18.8929L38.7064 18.5107L39.8156 18.246L40.9832 18.1284L42.1508 18.1578L43.2893 18.3342L44.3985 18.6577L45.4202 19.1281L46.3542 19.7162L47.2008 20.4219L47.9013 21.2158L48.456 22.0979L48.8646 23.0388L49.1273 24.0092L49.2149 25.0089L49.1273 26.0674Z" fill="#C41230"/>
</svg>
