<svg width="221" height="50" viewBox="0 0 221 50" fill="none" xmlns="http://www.w3.org/2000/svg">
<path d="M63.5765 41.5926C63.8976 41.769 64.4231 42.0043 64.9485 42.0043C65.6782 42.0043 66.0285 41.6514 66.0285 41.1516C66.0285 40.6517 65.7366 40.3871 64.9777 40.093C63.956 39.7108 63.4598 39.1521 63.4598 38.4758C63.4598 37.5643 64.2187 36.7998 65.4155 36.7998C65.9993 36.7998 66.4956 36.9468 66.8167 37.1526L66.5831 37.8877C66.3496 37.7701 65.941 37.5643 65.4155 37.5643C64.8025 37.5643 64.4814 37.9171 64.4814 38.3582C64.4814 38.8581 64.8025 39.0639 65.5615 39.3285C66.5248 39.6814 67.0502 40.1812 67.0502 41.0633C67.0502 42.0925 66.2621 42.7982 64.9485 42.7982C64.3355 42.7982 63.7517 42.6217 63.343 42.3865L63.5765 41.5926Z" fill="#2A2A2A"/>
<path d="M68.3638 38.4465C68.3638 37.829 68.3638 37.3586 68.3054 36.8881H69.2103L69.2687 37.829H69.2979C69.5898 37.2998 70.232 36.7705 71.1661 36.7705C71.9542 36.7705 73.1802 37.241 73.1802 39.211V42.6218H72.1585V39.3286C72.1585 38.4171 71.8083 37.6232 70.845 37.6232C70.1736 37.6232 69.6482 38.1231 69.4438 38.6818C69.3855 38.7994 69.3855 39.0052 69.3855 39.1816V42.6513H68.3638V38.4465Z" fill="#2A2A2A"/>
<path d="M77.2085 42.7688C75.6906 42.7688 74.4938 41.622 74.4938 39.8284C74.4938 37.9171 75.749 36.7998 77.3252 36.7998C78.9599 36.7998 80.0691 38.0054 80.0691 39.7402C80.0399 41.8278 78.5804 42.7688 77.2085 42.7688ZM77.2377 41.9749C78.2301 41.9749 78.9599 41.0339 78.9599 39.7402C78.9599 38.7699 78.4637 37.5643 77.2669 37.5643C76.0701 37.5643 75.5154 38.711 75.5154 39.799C75.5154 41.0339 76.216 41.9749 77.2377 41.9749Z" fill="#2A2A2A"/>
<path d="M81.6745 36.9175L82.4335 39.8285C82.5794 40.4753 82.7254 41.0634 82.8421 41.6515H82.8713C82.9881 41.0634 83.1924 40.4459 83.3676 39.8285L84.3016 36.9175H85.1774L86.0531 39.7696C86.2574 40.4459 86.4325 41.0634 86.5493 41.6515H86.5785C86.6661 41.0634 86.812 40.4753 87.0164 39.799L87.8337 36.9175H88.8553L87.0164 42.6512H86.1115L85.2357 39.9167C85.0314 39.2698 84.8855 38.7111 84.7395 38.0348H84.7103C84.5644 38.7111 84.3892 39.3286 84.1849 39.9461L83.28 42.6806H82.3167L80.5945 36.9469H81.6745V36.9175Z" fill="#2A2A2A"/>
<path d="M89.7311 41.5926C90.0522 41.769 90.5776 42.0043 91.103 42.0043C91.8328 42.0043 92.1831 41.6514 92.1831 41.1516C92.1831 40.6517 91.8912 40.3871 91.1322 40.093C90.1106 39.7108 89.6143 39.1521 89.6143 38.4758C89.6143 37.5643 90.3733 36.7998 91.5701 36.7998C92.1539 36.7998 92.6501 36.9468 92.9712 37.1526L92.7377 37.8877C92.5042 37.7701 92.0955 37.5643 91.5701 37.5643C90.9571 37.5643 90.636 37.9171 90.636 38.3582C90.636 38.8581 90.9571 39.0639 91.716 39.3285C92.6793 39.6814 93.2047 40.1812 93.2047 41.0633C93.2047 42.0925 92.4166 42.7982 91.103 42.7982C90.49 42.7982 89.9062 42.6217 89.4976 42.3865L89.7311 41.5926Z" fill="#2A2A2A"/>
<path d="M94.5183 34.2417H95.54V37.829H95.5692C95.7443 37.5349 95.9778 37.2703 96.2989 37.0939C96.5908 36.9174 96.9703 36.7998 97.3498 36.7998C98.1087 36.7998 99.3347 37.2703 99.3347 39.2403V42.6512H98.313V39.3579C98.313 38.417 97.9628 37.6525 96.9995 37.6525C96.3281 37.6525 95.8027 38.123 95.5984 38.6817C95.54 38.8287 95.54 38.9757 95.54 39.1815V42.6512H94.5183V34.2417Z" fill="#2A2A2A"/>
<path d="M103.363 42.7688C101.845 42.7688 100.648 41.622 100.648 39.8284C100.648 37.9171 101.903 36.7998 103.48 36.7998C105.114 36.7998 106.224 38.0054 106.224 39.7402C106.194 41.8278 104.735 42.7688 103.363 42.7688ZM103.392 41.9749C104.385 41.9749 105.114 41.0339 105.114 39.7402C105.114 38.7699 104.618 37.5643 103.421 37.5643C102.224 37.5643 101.67 38.711 101.67 39.799C101.699 41.0339 102.4 41.9749 103.392 41.9749Z" fill="#2A2A2A"/>
<path d="M108.092 39.9461C108.121 41.3575 108.997 41.9456 110.018 41.9456C110.748 41.9456 111.215 41.8279 111.595 41.6515L111.77 42.3866C111.42 42.563 110.777 42.7395 109.872 42.7395C108.121 42.7395 107.07 41.5633 107.07 39.8579C107.07 38.1231 108.092 36.7705 109.756 36.7705C111.624 36.7705 112.091 38.4171 112.091 39.4757C112.091 39.6815 112.091 39.8579 112.062 39.9755L108.092 39.9461ZM111.128 39.211C111.128 38.5641 110.865 37.5056 109.697 37.5056C108.646 37.5056 108.179 38.4759 108.121 39.211H111.128Z" fill="#2A2A2A"/>
<path d="M113.259 41.5926C113.58 41.769 114.105 42.0043 114.63 42.0043C115.36 42.0043 115.711 41.6514 115.711 41.1516C115.711 40.6517 115.419 40.3871 114.66 40.093C113.638 39.7108 113.142 39.1521 113.142 38.4758C113.142 37.5643 113.901 36.7998 115.098 36.7998C115.681 36.7998 116.178 36.9468 116.499 37.1526L116.265 37.8877C116.032 37.7701 115.623 37.5643 115.098 37.5643C114.485 37.5643 114.163 37.9171 114.163 38.3582C114.163 38.8581 114.485 39.0639 115.243 39.3285C116.207 39.6814 116.732 40.1812 116.732 41.0633C116.732 42.0925 115.944 42.7982 114.63 42.7982C114.017 42.7982 113.434 42.6217 113.025 42.3865L113.259 41.5926Z" fill="#2A2A2A"/>
<path d="M117.199 44.0918C117.462 43.3862 117.783 42.1218 117.9 41.2397L119.038 41.1221C118.746 42.1218 118.25 43.445 117.9 44.0036L117.199 44.0918Z" fill="#2A2A2A"/>
<path d="M121.986 38.7701C121.986 38.035 121.986 37.4469 121.928 36.8882H122.862L122.92 37.8586H122.95C123.358 37.1529 124.03 36.7412 124.964 36.7412C126.365 36.7412 127.387 37.9174 127.387 39.6522C127.387 41.7104 126.131 42.7396 124.789 42.7396C124.03 42.7396 123.387 42.4161 123.037 41.8281H123.008V44.9449H121.986V38.7701ZM123.008 40.2991C123.008 40.4461 123.008 40.5931 123.066 40.7107C123.242 41.4458 123.884 41.9163 124.613 41.9163C125.694 41.9163 126.336 41.0048 126.336 39.711C126.336 38.5642 125.752 37.5939 124.643 37.5939C123.942 37.5939 123.271 38.0938 123.066 38.8583C123.037 39.0053 123.008 39.1523 123.008 39.2699V40.2991Z" fill="#2A2A2A"/>
<path d="M131.006 42.7688C129.488 42.7688 128.292 41.622 128.292 39.8284C128.292 37.9171 129.547 36.7998 131.123 36.7998C132.758 36.7998 133.867 38.0054 133.867 39.7402C133.838 41.8278 132.349 42.7688 131.006 42.7688ZM131.035 41.9749C132.028 41.9749 132.758 41.0339 132.758 39.7402C132.758 38.7699 132.261 37.5643 131.065 37.5643C129.868 37.5643 129.313 38.711 129.313 39.799C129.313 41.0339 130.014 41.9749 131.035 41.9749Z" fill="#2A2A2A"/>
<path d="M135.122 34.2417H136.144V42.6512H135.122V34.2417Z" fill="#2A2A2A"/>
<path d="M138.479 39.9461C138.508 41.3575 139.384 41.9456 140.405 41.9456C141.135 41.9456 141.602 41.8279 141.982 41.6515L142.157 42.3866C141.807 42.563 141.164 42.7395 140.26 42.7395C138.508 42.7395 137.457 41.5633 137.457 39.8579C137.457 38.1231 138.479 36.7705 140.143 36.7705C142.011 36.7705 142.478 38.4171 142.478 39.4757C142.478 39.6815 142.478 39.8579 142.449 39.9755L138.479 39.9461ZM141.486 39.211C141.486 38.5641 141.223 37.5056 140.055 37.5056C139.004 37.5056 138.537 38.4759 138.479 39.211H141.486Z" fill="#2A2A2A"/>
<path d="M143.616 41.5926C143.938 41.769 144.463 42.0043 144.988 42.0043C145.718 42.0043 146.068 41.6514 146.068 41.1516C146.068 40.6517 145.777 40.3871 145.018 40.093C143.996 39.7108 143.5 39.1521 143.5 38.4758C143.5 37.5643 144.259 36.7998 145.455 36.7998C146.039 36.7998 146.536 36.9468 146.827 37.1526L146.594 37.8877C146.36 37.7701 145.952 37.5643 145.426 37.5643C144.813 37.5643 144.492 37.9171 144.492 38.3582C144.492 38.8581 144.813 39.0639 145.572 39.3285C146.536 39.6814 147.061 40.1812 147.061 41.0633C147.061 42.0925 146.273 42.7982 144.959 42.7982C144.346 42.7982 143.762 42.6217 143.354 42.3865L143.616 41.5926Z" fill="#2A2A2A"/>
<path d="M0 25.0678L9.13657 28.2434C8.87386 26.1263 8.87386 23.9799 9.13657 21.8628L0 25.0678Z" fill="#C41230"/>
<path d="M58.8185 28.0668C57.1839 38.3875 47.5802 45.415 37.3344 43.7684C27.0886 42.1218 20.083 32.4186 21.7176 22.1272C23.3523 11.8065 32.9851 4.74964 43.2017 6.39625C51.229 7.69001 57.5342 14.0118 58.7893 22.0978C57.4174 10.8068 48.6019 1.89748 37.3928 0.544904C23.9653 -1.10171 11.7345 8.57213 10.0999 22.1272C8.46521 35.6824 18.0688 48.0025 31.4964 49.6197C44.9531 51.2664 57.1839 41.5925 58.8185 28.0668Z" fill="#2A2A2A"/>
<path d="M73.1217 27.7137C72.5379 27.9784 71.2828 28.4194 69.6481 28.4194C65.9993 28.4194 63.6349 25.9201 63.6349 22.1858C63.6349 18.4516 66.1744 15.6582 70.1151 15.6582C71.4287 15.6582 72.5671 15.9816 73.1509 16.3051L72.6547 17.9811C72.1293 17.7165 71.3119 17.393 70.1151 17.393C67.3421 17.393 65.8534 19.4807 65.8534 22.0388C65.8534 24.8616 67.6632 26.5964 70.0568 26.5964C71.3119 26.5964 72.1293 26.3024 72.7423 26.0083L73.1217 27.7137Z" fill="#2A2A2A"/>
<path d="M75.7196 19.7453C75.7196 18.3045 75.6905 17.0696 75.6321 15.9522H77.5586L77.6462 18.3339H77.7338C78.2884 16.6873 79.6312 15.6582 81.1199 15.6582C81.3534 15.6582 81.5285 15.6876 81.7329 15.7464V17.8047C81.4701 17.7753 81.2658 17.7459 80.9447 17.7459C79.3976 17.7459 78.2884 18.922 77.9965 20.5686C77.9381 20.8921 77.9089 21.2449 77.9089 21.6272V28.1254H75.7196V19.7453Z" fill="#2A2A2A"/>
<path d="M84.9731 22.4211C85.0314 25.4202 86.8996 26.6552 89.0889 26.6552C90.6652 26.6552 91.6285 26.3906 92.4458 26.0377L92.8544 27.5961C92.0663 27.949 90.7236 28.39 88.797 28.39C85.0898 28.39 82.8422 25.8907 82.8422 22.2446C82.8422 18.5398 85.0314 15.6582 88.5343 15.6582C92.475 15.6582 93.4966 19.1572 93.4966 21.3919C93.4966 21.833 93.4674 22.1858 93.4091 22.4505L84.9731 22.4211ZM91.3949 20.8333C91.4241 19.4513 90.8111 17.246 88.3591 17.246C86.1115 17.246 85.1482 19.3043 84.9731 20.8333H91.3949Z" fill="#2A2A2A"/>
<path d="M95.9486 25.8907C96.62 26.3024 97.7876 26.7434 98.8677 26.7434C100.444 26.7434 101.203 25.9495 101.203 24.9204C101.203 23.8618 100.59 23.2738 98.9844 22.6857C96.7952 21.8918 95.7735 20.6862 95.7735 19.2455C95.7735 17.2754 97.379 15.6582 99.9477 15.6582C101.174 15.6582 102.254 15.9816 102.896 16.4227L102.371 18.0105C101.903 17.7459 101.028 17.3048 99.8893 17.3048C98.5758 17.3048 97.8752 18.0693 97.8752 18.9808C97.8752 20.01 98.5758 20.4804 100.152 21.0685C102.225 21.8624 103.334 22.8915 103.334 24.744C103.334 26.9198 101.67 28.4194 98.8385 28.4194C97.5249 28.4194 96.2989 28.0666 95.4524 27.5667L95.9486 25.8907Z" fill="#2A2A2A"/>
<path d="M114.776 27.7137C114.193 27.9784 112.937 28.4194 111.303 28.4194C107.654 28.4194 105.29 25.9201 105.29 22.1858C105.29 18.4516 107.829 15.6582 111.77 15.6582C113.083 15.6582 114.222 15.9816 114.806 16.3051L114.309 17.9811C113.784 17.7165 112.967 17.393 111.77 17.393C108.997 17.393 107.508 19.4807 107.508 22.0388C107.508 24.8616 109.318 26.5964 111.711 26.5964C112.967 26.5964 113.784 26.3024 114.397 26.0083L114.776 27.7137Z" fill="#2A2A2A"/>
<path d="M118.454 22.4211C118.513 25.4202 120.381 26.6552 122.57 26.6552C124.146 26.6552 125.11 26.3906 125.927 26.0377L126.336 27.5961C125.548 27.949 124.205 28.39 122.278 28.39C118.571 28.39 116.323 25.8907 116.323 22.2446C116.323 18.5398 118.513 15.6582 122.016 15.6582C125.956 15.6582 126.978 19.1572 126.978 21.3919C126.978 21.833 126.949 22.1858 126.89 22.4505L118.454 22.4211ZM124.876 20.8333C124.905 19.4513 124.292 17.246 121.84 17.246C119.593 17.246 118.63 19.3043 118.454 20.8333H124.876Z" fill="#2A2A2A"/>
<path d="M129.722 19.2454C129.722 17.9516 129.693 16.9519 129.634 15.9521H131.59L131.707 17.9516H131.765C132.378 16.8048 133.75 15.6875 135.764 15.6875C137.428 15.6875 140.026 16.6872 140.026 20.8626V28.1253H137.837V21.0978C137.837 19.1277 137.107 17.4811 135.034 17.4811C133.604 17.4811 132.495 18.5103 132.086 19.7452C131.999 20.0098 131.94 20.4215 131.94 20.7743V28.1253H129.751V19.2454H129.722Z" fill="#2A2A2A"/>
<path d="M146.127 12.4238V15.9523H149.279V17.6283H146.127V24.1853C146.127 25.6849 146.565 26.5376 147.791 26.5376C148.404 26.5376 148.754 26.4788 149.075 26.3906L149.163 28.0666C148.725 28.2136 148.053 28.3607 147.207 28.3607C146.185 28.3607 145.368 28.0078 144.842 27.4197C144.229 26.7434 143.996 25.6555 143.996 24.2147V17.6283H142.128V15.9523H143.996V13.1295L146.127 12.4238Z" fill="#2A2A2A"/>
<path d="M157.073 19.2454C157.073 17.9516 157.015 16.9519 156.986 15.9521H158.912L159 17.9222H159.087C159.759 16.7754 160.897 15.6875 162.911 15.6875C164.546 15.6875 165.772 16.6872 166.297 18.128H166.356C166.735 17.4223 167.231 16.9225 167.728 16.5402C168.457 15.9815 169.216 15.6875 170.384 15.6875C172.019 15.6875 174.383 16.746 174.383 20.9802V28.1547H172.223V21.2448C172.223 18.8925 171.347 17.4811 169.596 17.4811C168.311 17.4811 167.377 18.422 166.969 19.4806C166.881 19.804 166.794 20.2157 166.794 20.5979V28.1547H164.633V20.8332C164.633 18.8631 163.787 17.4811 162.123 17.4811C160.78 17.4811 159.759 18.5985 159.408 19.6864C159.292 20.0099 159.233 20.3921 159.233 20.7743V28.1253H157.073V19.2454Z" fill="#2A2A2A"/>
<path d="M182.848 28.4193C179.608 28.4193 177.039 26.0082 177.039 22.1563C177.039 18.0692 179.725 15.6875 183.053 15.6875C186.526 15.6875 188.891 18.2162 188.891 21.9211C188.861 26.4493 185.738 28.4193 182.848 28.4193ZM182.907 26.7433C185.008 26.7433 186.585 24.7439 186.585 21.9799C186.585 19.9216 185.563 17.3341 182.965 17.3341C180.396 17.3341 179.258 19.7452 179.258 22.0681C179.258 24.7439 180.776 26.7433 182.907 26.7433Z" fill="#2A2A2A"/>
<path d="M196.597 28.4193C193.357 28.4193 190.788 26.0082 190.788 22.1563C190.788 18.0692 193.473 15.6875 196.801 15.6875C200.275 15.6875 202.639 18.2162 202.639 21.9211C202.61 26.4493 199.487 28.4193 196.597 28.4193ZM196.655 26.7433C198.757 26.7433 200.333 24.7439 200.333 21.9799C200.333 19.9216 199.312 17.3341 196.714 17.3341C194.145 17.3341 193.006 19.7452 193.006 22.0681C193.006 24.7439 194.524 26.7433 196.655 26.7433Z" fill="#2A2A2A"/>
<path d="M205.383 19.2454C205.383 17.9516 205.354 16.9519 205.296 15.9521H207.251L207.368 17.9516H207.426C208.039 16.8048 209.441 15.6875 211.426 15.6875C213.089 15.6875 215.687 16.6872 215.687 20.8626V28.1253H213.498V21.0978C213.498 19.1277 212.768 17.4811 210.696 17.4811C209.265 17.4811 208.156 18.5103 207.748 19.7452C207.66 20.0098 207.602 20.4215 207.602 20.7743V28.1253H205.412V19.2454H205.383Z" fill="#2A2A2A"/>
<path d="M218.986 13.9824C220.095 13.9824 221 14.8939 221 16.0407C221 17.1874 220.124 18.0989 218.986 18.0989C217.877 18.0989 216.972 17.1874 216.972 16.0407C216.943 14.8939 217.847 13.9824 218.986 13.9824ZM218.986 14.3059C218.081 14.3059 217.351 15.0704 217.351 16.0407C217.351 17.011 218.081 17.7755 218.986 17.7755C219.891 17.7755 220.621 17.011 220.621 16.0407C220.621 15.0998 219.891 14.3059 218.986 14.3059ZM218.606 17.2462H218.256V14.9527C218.46 14.9233 218.636 14.8939 218.898 14.8939C219.249 14.8939 219.482 14.9527 219.599 15.0704C219.745 15.1586 219.803 15.335 219.803 15.5408C219.803 15.8349 219.599 16.0113 219.365 16.0995V16.1289C219.57 16.1583 219.686 16.3347 219.745 16.6876C219.803 17.0404 219.862 17.1874 219.891 17.2462H219.511C219.453 17.1874 219.395 16.9522 219.365 16.6582C219.307 16.3641 219.161 16.2465 218.869 16.2465H218.606V17.2462ZM218.606 15.9819H218.869C219.161 15.9819 219.424 15.8643 219.424 15.5996C219.424 15.3938 219.278 15.188 218.869 15.188C218.752 15.188 218.665 15.188 218.606 15.2174V15.9819Z" fill="#2A2A2A"/>
<path d="M164.604 41.2102C164.604 41.7101 164.634 42.1805 164.692 42.5922H163.758L163.67 41.8571H163.641C163.349 42.2981 162.707 42.7098 161.89 42.7098C160.751 42.7098 160.138 41.8865 160.138 41.0632C160.138 39.6812 161.364 38.9167 163.553 38.9461V38.8285C163.553 38.358 163.437 37.4759 162.269 37.5053C161.714 37.5053 161.189 37.6523 160.78 37.917L160.547 37.2113C161.014 36.9173 161.714 36.7114 162.415 36.7114C164.166 36.7114 164.575 37.917 164.575 39.0637V41.2102H164.604ZM163.583 39.6518C162.444 39.6224 161.16 39.8282 161.16 40.9456C161.16 41.6219 161.598 41.9453 162.123 41.9453C162.882 41.9453 163.349 41.4748 163.524 40.975C163.553 40.8574 163.583 40.7397 163.583 40.6515V39.6518Z" fill="#2A2A2A"/>
<path d="M170.296 42.3571C170.034 42.4747 169.421 42.6805 168.662 42.6805C166.94 42.6805 165.83 41.5043 165.83 39.7401C165.83 37.9759 167.027 36.6821 168.895 36.6821C169.508 36.6821 170.034 36.8291 170.326 36.9762L170.092 37.7701C169.859 37.6525 169.45 37.5054 168.895 37.5054C167.582 37.5054 166.881 38.4758 166.881 39.6813C166.881 41.0045 167.728 41.8278 168.866 41.8278C169.45 41.8278 169.829 41.6808 170.121 41.5632L170.296 42.3571Z" fill="#2A2A2A"/>
<path d="M175.58 42.3571C175.317 42.4747 174.704 42.6805 173.945 42.6805C172.223 42.6805 171.114 41.5043 171.114 39.7401C171.114 37.9759 172.311 36.6821 174.179 36.6821C174.792 36.6821 175.317 36.8291 175.609 36.9762L175.376 37.7701C175.142 37.6525 174.733 37.5054 174.179 37.5054C172.865 37.5054 172.165 38.4758 172.165 39.6813C172.165 41.0045 173.011 41.8278 174.15 41.8278C174.733 41.8278 175.113 41.6808 175.405 41.5632L175.58 42.3571Z" fill="#2A2A2A"/>
<path d="M177.302 39.887C177.331 41.2984 178.207 41.8865 179.229 41.8865C179.958 41.8865 180.425 41.7689 180.805 41.5924L180.98 42.3275C180.63 42.504 179.988 42.6804 179.083 42.6804C177.331 42.6804 176.28 41.5042 176.28 39.7988C176.28 38.064 177.302 36.7114 178.966 36.7114C180.834 36.7114 181.301 38.358 181.301 39.4166C181.301 39.6224 181.301 39.7988 181.272 39.9164L177.302 39.887ZM180.309 39.1225C180.309 38.4757 180.046 37.4171 178.878 37.4171C177.827 37.4171 177.36 38.3874 177.302 39.1225H180.309Z" fill="#2A2A2A"/>
<path d="M182.44 41.5042C182.761 41.6807 183.286 41.9159 183.812 41.9159C184.541 41.9159 184.892 41.563 184.892 41.0632C184.892 40.5633 184.6 40.2987 183.841 40.0046C182.819 39.6224 182.323 39.0637 182.323 38.3874C182.323 37.4759 183.082 36.7114 184.279 36.7114C184.862 36.7114 185.359 36.8584 185.68 37.0643L185.446 37.7994C185.213 37.6818 184.804 37.4759 184.279 37.4759C183.666 37.4759 183.344 37.8288 183.344 38.2698C183.344 38.7403 183.666 38.9755 184.425 39.2401C185.388 39.593 185.913 40.0929 185.913 40.975C185.913 42.0041 185.125 42.7098 183.812 42.7098C183.199 42.7098 182.615 42.5334 182.206 42.2981L182.44 41.5042Z" fill="#2A2A2A"/>
<path d="M187.11 41.5042C187.431 41.6807 187.957 41.9159 188.482 41.9159C189.212 41.9159 189.562 41.563 189.562 41.0632C189.562 40.5633 189.27 40.2987 188.511 40.0046C187.49 39.6224 186.993 39.0637 186.993 38.3874C186.993 37.4759 187.752 36.7114 188.949 36.7114C189.533 36.7114 190.029 36.8584 190.35 37.0643L190.117 37.7994C189.883 37.6818 189.475 37.4759 188.949 37.4759C188.336 37.4759 188.015 37.8288 188.015 38.2698C188.015 38.7403 188.336 38.9755 189.095 39.2401C190.058 39.593 190.584 40.0929 190.584 40.975C190.584 42.0041 189.796 42.7098 188.482 42.7098C187.869 42.7098 187.285 42.5334 186.877 42.2981L187.11 41.5042Z" fill="#2A2A2A"/>
<path d="M194.203 42.7097C192.685 42.7097 191.489 41.5629 191.489 39.7693C191.489 37.8581 192.744 36.7407 194.32 36.7407C195.955 36.7407 197.064 37.9463 197.064 39.6811C197.035 41.7688 195.575 42.7097 194.203 42.7097ZM194.262 41.9158C195.254 41.9158 195.984 40.9749 195.984 39.6811C195.984 38.7108 195.517 37.5052 194.291 37.5052C193.094 37.5052 192.539 38.652 192.539 39.7399C192.539 40.9749 193.24 41.9158 194.262 41.9158Z" fill="#2A2A2A"/>
<path d="M198.348 38.6228C198.348 37.9465 198.348 37.3584 198.29 36.8291H199.195L199.253 37.9465H199.282C199.545 37.182 200.187 36.6821 200.859 36.6821C200.975 36.6821 201.034 36.6821 201.151 36.7115V37.6819C201.034 37.6819 200.917 37.6525 200.8 37.6525C200.071 37.6525 199.545 38.2111 199.428 38.9756C199.399 39.1226 199.399 39.2991 199.399 39.4755V42.5335H198.377L198.348 38.6228Z" fill="#2A2A2A"/>
<path d="M202.727 35.7998C202.347 35.7998 202.085 35.5058 202.085 35.1236C202.085 34.7707 202.347 34.4473 202.756 34.4473C203.165 34.4473 203.427 34.7413 203.427 35.1236C203.427 35.4764 203.165 35.7998 202.727 35.7998ZM202.231 42.5627V36.829H203.252V42.5627H202.231Z" fill="#2A2A2A"/>
<path d="M205.588 39.887C205.617 41.2984 206.492 41.8865 207.514 41.8865C208.244 41.8865 208.711 41.7689 209.09 41.5924L209.266 42.3275C208.915 42.504 208.273 42.6804 207.368 42.6804C205.617 42.6804 204.566 41.5042 204.566 39.7988C204.566 38.064 205.588 36.7114 207.251 36.7114C209.12 36.7114 209.587 38.358 209.587 39.4166C209.587 39.6224 209.587 39.7988 209.557 39.9164L205.588 39.887ZM208.594 39.1225C208.594 38.4757 208.331 37.4171 207.164 37.4171C206.113 37.4171 205.646 38.3874 205.588 39.1225H208.594Z" fill="#2A2A2A"/>
<path d="M210.725 41.5042C211.046 41.6807 211.571 41.9159 212.097 41.9159C212.827 41.9159 213.177 41.563 213.177 41.0632C213.177 40.5633 212.885 40.2987 212.126 40.0046C211.104 39.6224 210.608 39.0637 210.608 38.3874C210.608 37.4759 211.367 36.7114 212.564 36.7114C213.148 36.7114 213.644 36.8584 213.965 37.0643L213.732 37.7994C213.498 37.6818 213.089 37.4759 212.564 37.4759C211.951 37.4759 211.63 37.8288 211.63 38.2698C211.63 38.7403 211.951 38.9755 212.71 39.2401C213.673 39.593 214.199 40.0929 214.199 40.975C214.199 42.0041 213.41 42.7098 212.097 42.7098C211.484 42.7098 210.9 42.5334 210.491 42.2981L210.725 41.5042Z" fill="#2A2A2A"/>
<path d="M156.198 43.0038C155.964 42.7685 155.731 42.5333 155.409 42.1804C154.68 42.8567 153.892 43.1214 152.957 43.1214C151.323 43.1214 150.389 42.0334 150.389 40.7691C150.389 39.6223 151.06 38.8578 152.023 38.2992V38.2698C151.615 37.7111 151.323 37.123 151.323 36.5055C151.323 35.4764 152.053 34.4473 153.454 34.4473C154.505 34.4473 155.293 35.1236 155.293 36.2409C155.293 37.123 154.796 37.8287 153.454 38.4756V38.505C154.154 39.3283 154.942 40.2398 155.497 40.8573C155.876 40.2692 156.139 39.4459 156.314 38.3874H157.307C157.073 39.7105 156.723 40.7691 156.11 41.5042C156.548 41.9746 156.986 42.4451 157.482 43.0038H156.198ZM153.191 42.3275C153.921 42.3275 154.505 42.004 154.913 41.563C154.417 41.0337 153.483 39.9752 152.578 38.9166C152.111 39.2107 151.498 39.7399 151.498 40.6221C151.469 41.5924 152.169 42.3275 153.191 42.3275ZM153.395 35.2118C152.724 35.2118 152.344 35.7998 152.344 36.4467C152.344 37.0348 152.636 37.5053 152.987 37.9463C153.833 37.4464 154.388 37.0054 154.388 36.2997C154.388 35.7704 154.096 35.2118 153.395 35.2118Z" fill="#2A2A2A"/>
<path d="M52.8345 23.6271L52.5134 22.6861L52.0172 21.7452L51.375 20.8337L50.5868 19.981L49.6528 19.1577L48.5727 18.3932L47.3759 17.6875L46.0623 17.0406L44.632 16.482L43.1141 16.0115L41.5378 15.5998L39.874 15.2764L38.181 15.0412L36.4587 14.8942L34.7073 14.8647L32.9559 14.9236L31.2337 15.0706L29.5406 15.3058L27.906 15.6292L26.2713 16.0409L24.7534 16.5408C21.8927 21.8922 21.8927 28.3023 24.7534 33.6537L26.2713 34.1536L27.8476 34.5653L29.4822 34.8887L31.1753 35.1239L32.8975 35.2709L34.6489 35.3297L36.4003 35.3003L38.1226 35.1533L39.8156 34.9181L41.4795 34.5947L43.0557 34.183L44.5736 33.7125L46.004 33.1539L47.3175 32.507L48.5143 31.8013L49.5944 31.0368L50.5285 30.2135L51.3166 29.3608L51.9588 28.4493L52.455 27.5084L52.8345 26.538L53.0096 25.5677V24.5974L52.8345 23.6271ZM49.1273 26.0676L48.8646 27.0379L48.456 27.9788L47.9013 28.8609L47.2008 29.6548L46.3542 30.3605L45.4202 30.9486L44.3985 31.4191L43.2893 31.7425L42.1508 31.9189L40.9832 31.9483L39.8156 31.8307L38.7064 31.5661L37.6263 31.1838L36.6339 30.6546L35.729 30.0077L34.9408 29.2726L34.2986 28.4199L33.8024 27.5084L33.4813 26.538L33.3062 25.5383V24.5386L33.4813 23.5388L33.8024 22.5685L34.2986 21.657L34.9408 20.8043L35.729 20.0692L36.6339 19.4223L37.6263 18.8931L38.7064 18.5108L39.8156 18.2462L40.9832 18.1286L42.1508 18.158L43.2893 18.3344L44.3985 18.6578L45.4202 19.1283L46.3542 19.7164L47.2008 20.4221L47.9013 21.216L48.456 22.0981L48.8646 23.039L49.1273 24.0093L49.2149 25.009L49.1273 26.0676Z" fill="#C41230"/>
</svg>
