<svg width="21" height="21" viewBox="0 0 21 21" fill="none" xmlns="http://www.w3.org/2000/svg">
<path d="M10.9624 0C8.23888 0 7.9021 0.0146428 6.83317 0.058571C5.76425 0.102499 5.04675 0.278212 4.40247 0.527139C3.74355 0.776066 3.18712 1.12749 2.6307 1.68392C2.07427 2.24034 1.73749 2.79677 1.47392 3.45569C1.22499 4.08533 1.06392 4.81747 1.00535 5.88639C0.961421 6.95531 0.946777 7.2921 0.946777 10.0156C0.946777 12.7392 0.961421 13.076 1.00535 14.1449C1.04928 15.2138 1.22499 15.9313 1.47392 16.5756C1.72284 17.2345 2.07427 17.791 2.6307 18.3474C3.18712 18.9038 3.74355 19.2406 4.40247 19.5042C5.03211 19.7531 5.76425 19.9142 6.83317 19.9727C7.9021 20.0167 8.23888 20.0313 10.9624 20.0313C13.686 20.0313 14.0228 20.0167 15.0917 19.9727C16.1606 19.9288 16.8781 19.7531 17.5224 19.5042C18.1813 19.2552 18.7377 18.9038 19.2942 18.3474C19.8506 17.791 20.1874 17.2345 20.4509 16.5756C20.6999 15.946 20.8609 15.2138 20.9195 14.1449C20.9634 13.076 20.9781 12.7392 20.9781 10.0156C20.9781 7.2921 20.9634 6.95531 20.9195 5.88639C20.8756 4.81747 20.6999 4.09997 20.4509 3.45569C20.202 2.79677 19.8506 2.24034 19.2942 1.68392C18.7377 1.12749 18.1813 0.790709 17.5224 0.527139C16.8927 0.278212 16.1606 0.117142 15.0917 0.058571C14.0228 0.0146428 13.6713 0 10.9624 0ZM10.9624 1.80106C13.6421 1.80106 13.9496 1.8157 15.0038 1.85963C15.9849 1.90356 16.512 2.06463 16.8635 2.21106C17.332 2.38677 17.6688 2.60641 18.0202 2.95784C18.3717 3.30926 18.5913 3.64605 18.767 4.11462C18.8988 4.46604 19.0745 4.99318 19.1185 5.97425C19.1624 7.02853 19.177 7.35067 19.177 10.0156C19.177 12.6953 19.1624 13.0028 19.1185 14.0571C19.0745 15.0381 18.9135 15.5653 18.767 15.9167C18.5913 16.3853 18.3717 16.722 18.0202 17.0735C17.6688 17.4249 17.332 17.6445 16.8635 17.8202C16.512 17.952 15.9849 18.1277 15.0038 18.1717C13.9496 18.2156 13.6274 18.2302 10.9624 18.2302C8.28281 18.2302 7.97531 18.2156 6.92103 18.1717C5.93996 18.1277 5.41283 17.9667 5.0614 17.8202C4.59283 17.6445 4.25605 17.4249 3.90462 17.0735C3.5532 16.722 3.33355 16.3853 3.15784 15.9167C3.02605 15.5653 2.85034 15.0381 2.80641 14.0571C2.76249 13.0028 2.74784 12.6806 2.74784 10.0156C2.74784 7.33602 2.76249 7.02853 2.80641 5.97425C2.85034 4.99318 3.01141 4.46604 3.15784 4.11462C3.33355 3.64605 3.5532 3.30926 3.90462 2.95784C4.25605 2.60641 4.59283 2.38677 5.0614 2.21106C5.41283 2.07927 5.93996 1.90356 6.92103 1.85963C7.96066 1.8157 8.28281 1.80106 10.9624 1.80106Z" fill="white"/>
<path d="M10.9625 13.3541C9.1175 13.3541 7.62394 11.8606 7.62394 10.0156C7.62394 8.1706 9.1175 6.67704 10.9625 6.67704C12.8075 6.67704 14.301 8.1706 14.301 10.0156C14.301 11.8606 12.8075 13.3541 10.9625 13.3541ZM10.9625 4.87598C8.12179 4.87598 5.82288 7.17489 5.82288 10.0156C5.82288 12.8563 8.12179 15.1552 10.9625 15.1552C13.8032 15.1552 16.1021 12.8563 16.1021 10.0156C16.1021 7.17489 13.8032 4.87598 10.9625 4.87598Z" fill="white"/>
<path d="M17.5077 4.67092C17.5077 5.32985 16.966 5.87163 16.307 5.87163C15.6481 5.87163 15.1063 5.32985 15.1063 4.67092C15.1063 4.012 15.6481 3.47021 16.307 3.47021C16.966 3.47021 17.5077 3.99735 17.5077 4.67092Z" fill="white"/>
</svg>
