<svg width="14" height="14" viewBox="0 0 14 14" fill="none" xmlns="http://www.w3.org/2000/svg">
<path d="M7.00999 0C5.14999 0 4.91999 0.00999999 4.18999 0.04C3.45999 0.07 2.96998 0.19 2.52998 0.36C2.07998 0.53 1.69998 0.77 1.31998 1.15C0.939984 1.53 0.709984 1.91 0.529984 2.36C0.359984 2.79 0.249984 3.29 0.209984 4.02C0.179984 4.75 0.169983 4.98 0.169983 6.84C0.169983 8.7 0.179984 8.93 0.209984 9.66C0.239984 10.39 0.359984 10.88 0.529984 11.32C0.699984 11.77 0.939984 12.15 1.31998 12.53C1.69998 12.91 2.07998 13.14 2.52998 13.32C2.95998 13.49 3.45999 13.6 4.18999 13.64C4.91999 13.67 5.14999 13.68 7.00999 13.68C8.86999 13.68 9.09999 13.67 9.82999 13.64C10.56 13.61 11.05 13.49 11.49 13.32C11.94 13.15 12.32 12.91 12.7 12.53C13.08 12.15 13.31 11.77 13.49 11.32C13.66 10.89 13.77 10.39 13.81 9.66C13.84 8.93 13.85 8.7 13.85 6.84C13.85 4.98 13.84 4.75 13.81 4.02C13.78 3.29 13.66 2.8 13.49 2.36C13.32 1.91 13.08 1.53 12.7 1.15C12.32 0.77 11.94 0.54 11.49 0.36C11.06 0.19 10.56 0.08 9.82999 0.04C9.09999 0.00999999 8.85999 0 7.00999 0ZM7.00999 1.23C8.83999 1.23 9.04999 1.24 9.76999 1.27C10.44 1.3 10.8 1.41 11.04 1.51C11.36 1.63 11.59 1.78 11.83 2.02C12.07 2.26 12.22 2.49 12.34 2.81C12.43 3.05 12.55 3.41 12.58 4.08C12.61 4.8 12.62 5.02 12.62 6.84C12.62 8.67 12.61 8.88 12.58 9.6C12.55 10.27 12.44 10.63 12.34 10.87C12.22 11.19 12.07 11.42 11.83 11.66C11.59 11.9 11.36 12.05 11.04 12.17C10.8 12.26 10.44 12.38 9.76999 12.41C9.04999 12.44 8.82999 12.45 7.00999 12.45C5.17999 12.45 4.96999 12.44 4.24998 12.41C3.57998 12.38 3.21999 12.27 2.97999 12.17C2.65999 12.05 2.42999 11.9 2.18999 11.66C1.94999 11.42 1.79999 11.19 1.67999 10.87C1.58999 10.63 1.46999 10.27 1.43999 9.6C1.40999 8.88 1.39999 8.66 1.39999 6.84C1.39999 5.01 1.40999 4.8 1.43999 4.08C1.46999 3.41 1.57999 3.05 1.67999 2.81C1.79999 2.49 1.94999 2.26 2.18999 2.02C2.42999 1.78 2.65999 1.63 2.97999 1.51C3.21999 1.42 3.57998 1.3 4.24998 1.27C4.95998 1.24 5.17999 1.23 7.00999 1.23Z" fill="#2A2A2A"/>
<path d="M7.01 9.12008C5.75 9.12008 4.73 8.10008 4.73 6.84008C4.73 5.58008 5.75 4.56008 7.01 4.56008C8.27 4.56008 9.29 5.58008 9.29 6.84008C9.29 8.10008 8.27 9.12008 7.01 9.12008ZM7.01 3.33008C5.07 3.33008 3.5 4.90008 3.5 6.84008C3.5 8.78008 5.07 10.3501 7.01 10.3501C8.95 10.3501 10.52 8.78008 10.52 6.84008C10.52 4.90008 8.95 3.33008 7.01 3.33008Z" fill="#2A2A2A"/>
<path d="M11.48 3.19012C11.48 3.64012 11.11 4.01012 10.66 4.01012C10.21 4.01012 9.84 3.64012 9.84 3.19012C9.84 2.74012 10.21 2.37012 10.66 2.37012C11.11 2.37012 11.48 2.73012 11.48 3.19012Z" fill="#2A2A2A"/>
</svg>
