<svg width="37" height="39" viewBox="0 0 37 39" fill="none" xmlns="http://www.w3.org/2000/svg">
<g filter="url(#filter0_d)">
<path d="M21.8107 21.195C23.5265 20.1307 24.6836 18.2386 24.6836 16.0705C24.6836 12.7199 21.9304 10 18.5388 10C15.1472 10 12.3941 12.7199 12.3941 16.0705C12.3941 18.2386 13.5512 20.1307 15.267 21.195C12.1547 22.4564 10 25.4917 10 29H11.6758C11.6758 25.2946 14.7482 22.2593 18.4989 22.2593C22.2497 22.2593 25.322 25.2946 25.322 29H26.9979C27.0777 25.4917 24.8831 22.4959 21.8107 21.195ZM14.1098 16.0705C14.1098 13.666 16.1049 11.695 18.5388 11.695C20.9728 11.695 22.9679 13.666 22.9679 16.0705C22.9679 18.4751 20.9728 20.4461 18.5388 20.4461C16.1049 20.4461 14.1098 18.5145 14.1098 16.0705Z" fill="white"/>
</g>
<defs>
<filter id="filter0_d" x="0" y="0" width="37" height="39" filterUnits="userSpaceOnUse" color-interpolation-filters="sRGB">
<feFlood flood-opacity="0" result="BackgroundImageFix"/>
<feColorMatrix in="SourceAlpha" type="matrix" values="0 0 0 0 0 0 0 0 0 0 0 0 0 0 0 0 0 0 127 0"/>
<feOffset/>
<feGaussianBlur stdDeviation="5"/>
<feColorMatrix type="matrix" values="0 0 0 0 0 0 0 0 0 0 0 0 0 0 0 0 0 0 0.25 0"/>
<feBlend mode="normal" in2="BackgroundImageFix" result="effect1_dropShadow"/>
<feBlend mode="normal" in="SourceGraphic" in2="effect1_dropShadow" result="shape"/>
</filter>
</defs>
</svg>
