<svg width="17" height="19" viewBox="0 0 17 19" fill="none" xmlns="http://www.w3.org/2000/svg">
<path d="M11.8107 11.195C13.5265 10.1307 14.6836 8.23859 14.6836 6.07054C14.6836 2.71992 11.9304 0 8.53884 0C5.14725 0 2.39407 2.71992 2.39407 6.07054C2.39407 8.23859 3.5512 10.1307 5.26695 11.195C2.15466 12.4564 0 15.4917 0 19H1.67585C1.67585 15.2946 4.74824 12.2593 8.49895 12.2593C12.2497 12.2593 15.322 15.2946 15.322 19H16.9979C17.0777 15.4917 14.8831 12.4959 11.8107 11.195ZM4.10982 6.07054C4.10982 3.66598 6.10487 1.69502 8.53884 1.69502C10.9728 1.69502 12.9679 3.66598 12.9679 6.07054C12.9679 8.4751 10.9728 10.4461 8.53884 10.4461C6.10487 10.4461 4.10982 8.51452 4.10982 6.07054Z" fill="#2A2A2A"/>
</svg>
