<svg width="14" height="10" viewBox="0 0 14 10" fill="none" xmlns="http://www.w3.org/2000/svg">
<path d="M13.9544 4.55C13.9544 4.65 13.9544 4.65 13.9544 4.75C13.9544 4.85 13.8544 4.85 13.8544 4.95L9.85444 8.95C9.65444 9.05 9.45444 9.15 9.35444 9.15C9.25444 9.15 8.95444 9.05 8.85444 8.95C8.75444 8.85 8.65444 8.65 8.65444 8.55C8.65444 8.35 8.75444 8.25 8.85444 8.15L11.7544 5.25H1.15444C0.854443 5.15 0.554443 4.85 0.554443 4.55C0.554443 4.25 0.854443 3.95 1.15444 3.95H11.7544L8.85444 1.05C8.75444 0.85 8.65444 0.75 8.65444 0.55C8.65444 0.35 8.75444 0.25 8.85444 0.15C9.05444 -0.05 9.45444 -0.05 9.75444 0.15L13.7544 4.15C13.7544 4.25 13.8544 4.25 13.8544 4.35C13.8544 4.35 13.9544 4.45 13.9544 4.55Z" fill="#C41230"/>
</svg>
