<svg width="20" height="20" viewBox="0 0 20 20" fill="none" xmlns="http://www.w3.org/2000/svg">
<path d="M9.09747 2.14994L9.77437 2.47291L9.09747 2.14994L6.90645 6.7421L1.86199 7.40682C1.02805 7.51671 0.694105 8.54445 1.3042 9.12354L4.99453 12.6264L4.0679 17.6293C3.91471 18.4564 4.78895 19.0916 5.52823 18.6903L5.17044 18.0312L5.52823 18.6903L10 16.2631L14.4718 18.6903C15.211 19.0916 16.0853 18.4564 15.9321 17.6294L15.0055 12.6264L18.6958 9.12354C19.3059 8.54446 18.972 7.51671 18.138 7.40682L13.0935 6.74209L10.9025 2.14994L10.2256 2.47291L10.9025 2.14994C10.5403 1.39077 9.45969 1.39076 9.09747 2.14994ZM6.78958 6.98704C6.78968 6.98685 6.78977 6.98665 6.78986 6.98645L6.78958 6.98704Z" stroke="white" stroke-width="1.5"/>
</svg>
