<svg width="1920" height="954" viewBox="0 0 1920 954" fill="none" xmlns="http://www.w3.org/2000/svg">
<path d="M1922 8.57294C1918.27 10.7162 1879.62 2.75559 1861.65 4.28647C1843.68 5.81735 1841.65 0 1836.9 0C1832.16 0 1814.19 12.8594 1796.9 13.4718C1779.94 14.0841 1779.94 8.57294 1770.45 5.51118C1760.96 2.75559 1756.21 9.79765 1744.01 16.2274C1731.8 22.6571 1712.81 18.9829 1691.79 27.5559C1670.77 36.1288 1666.03 58.1735 1651.11 59.3982C1635.85 60.9291 1626.36 58.7859 1622.63 59.3982C1618.9 60.0106 1607.37 65.8279 1589.4 68.2773C1586.01 68.8897 1582.62 69.8082 1579.23 71.6453C1564.32 70.1144 1551.09 68.5835 1541.6 68.5835C1484.3 68.5835 1484.3 91.8529 1442.94 104.406C1430.74 108.08 1410.73 101.651 1386.66 112.979C1378.18 109.917 1353.1 101.651 1340.55 104.1C1328.01 106.549 1286.98 141.147 1268.34 127.676C1249.35 114.204 1224.26 138.392 1211.72 138.392C1199.17 138.392 1186.63 149.414 1161.54 144.515C1136.45 139.616 1120.86 141.454 1098.82 139.004C1076.78 136.555 1063.56 132.574 1038.13 130.125C1013.04 127.982 996.429 130.125 980.495 137.473C964.899 144.821 928.961 129.206 897.431 139.31C865.9 149.108 853.695 124.001 825.216 116.653C797.076 109.305 787.922 98.5888 751.306 107.162C743.508 108.999 694.347 95.2209 688.923 93.0776C647.56 78.075 624.506 90.9344 612.64 88.1788C600.773 85.4232 597.044 90.9344 571.277 88.1788C545.51 85.4232 523.134 89.0973 511.268 87.5665C499.401 86.0356 464.82 104.712 454.648 102.569C444.477 100.426 420.406 81.4429 408.2 81.7491C396.334 81.7491 382.434 87.5665 382.434 87.5665C382.434 87.5665 311.575 73.4823 286.147 71.3391C238.682 67.3588 208.847 76.2379 193.251 73.1762C177.655 70.4206 122.731 54.4994 100.355 56.0303C77.6394 57.8673 3.39037 63.0723 0 66.1341V954H1922V292.092V8.57294Z" fill="#F2F2F2"/>
</svg>
