<svg width="23" height="20" viewBox="0 0 23 20" fill="none" xmlns="http://www.w3.org/2000/svg">
<path d="M8.0014 12.4074C7.85253 11.963 8.18748 11.4815 8.67128 11.4815H18.7195C19.0173 11.4815 19.2778 11.2963 19.3894 11.037L22.0318 4.07407C22.2178 3.62963 21.8829 3.14815 21.3619 3.14815H5.69402C5.39629 3.14815 5.09856 2.96296 5.02413 2.66667L4.9497 2.40741C4.50311 0.962963 3.16334 0 1.67471 0H0.7071C0.297726 0 0 0.296296 0 0.703704V0.962963C0 1.33333 0.297726 1.66667 0.7071 1.66667H1.71193C2.45624 1.66667 3.12613 2.14815 3.34942 2.88889L6.40112 12.963C6.84771 14.3704 8.15026 15.3704 9.63889 15.3704H18.0869C18.459 15.3704 18.794 15.0741 18.794 14.6667V14.4074C18.794 14.037 18.4963 13.7037 18.0869 13.7037H9.67611C8.93179 13.7037 8.26191 13.2222 8.03861 12.4815L8.0014 12.4074ZM17.8636 9.81482H7.40594C7.2943 9.81482 7.18265 9.74074 7.14543 9.62963L5.76845 5.14815C5.73123 5 5.84288 4.81482 6.02896 4.81482H19.5755C19.7616 4.81482 19.8732 5 19.7988 5.14815L18.0869 9.62963C18.0497 9.77778 17.9752 9.81482 17.8636 9.81482Z" fill="white"/>
<path d="M8.55963 16.8148C7.66645 16.8148 6.95935 17.5185 6.95935 18.4074C6.95935 19.2963 7.66645 20 8.55963 20C9.45281 20 10.1599 19.2963 10.1599 18.4074C10.1599 17.5185 9.45281 16.8148 8.55963 16.8148Z" fill="white"/>
<path d="M17.7519 20C18.6357 20 19.3522 19.287 19.3522 18.4074C19.3522 17.5278 18.6357 16.8148 17.7519 16.8148C16.8681 16.8148 16.1516 17.5278 16.1516 18.4074C16.1516 19.287 16.8681 20 17.7519 20Z" fill="white"/>
</svg>
