<svg id="acc6c25b-60b9-4b1b-ba36-fa14f7ff4741" data-name="Layer 1" xmlns="http://www.w3.org/2000/svg" viewBox="0 0 55 26.86"><title>icon_free-shipping</title><path d="M48.73,18.43a2.77,2.77,0,0,0,3.61,1.4,2.72,2.72,0,0,0,1.4-3.6,2.74,2.74,0,0,0-5,2.2Zm1.36-.59a1.24,1.24,0,0,1,.64-1.66,1.23,1.23,0,0,1,1.65.64,1.25,1.25,0,0,1-.63,1.65A1.27,1.27,0,0,1,50.09,17.84Z" transform="translate(0 -0.1)"/><path d="M32.87,25.34a2.74,2.74,0,1,0,1.4-3.6A2.75,2.75,0,0,0,32.87,25.34Zm1.36-.55a1.25,1.25,0,1,1,2.29-1,1.22,1.22,0,0,1-.64,1.65A1.26,1.26,0,0,1,34.23,24.79Z" transform="translate(0 -0.1)"/><path d="M17.22,3.67,23,2.82l8.1,18.45a.73.73,0,0,0,1,.38l4.41-1.9L47.21,15l4.07-1.78,2.63,1.27a.86.86,0,0,0,.63,0,.81.81,0,0,0,.39-.34.72.72,0,0,0-.34-1l-2.93-1.4h0s0,0-.09,0H51s0,0-.08,0h0l-2.51,1.11a2,2,0,0,0-.17-.72L43.6,1.42A2.2,2.2,0,0,0,40.72.28L30,5a2.16,2.16,0,0,0-1.11,2.88L33.55,18.6a1.83,1.83,0,0,0,.42.59L32.15,20,24.09,1.72a0,0,0,0,0,0,0s0,0,0-.09l-.05,0,0,0,0,0,0-.05s-.05,0-.05,0,0,0-.08,0a0,0,0,0,1,0,0h-.38L17,2.19a.76.76,0,0,0-.64.84A.8.8,0,0,0,17.22,3.67ZM35.84,18.39a.68.68,0,0,1-.93-.38L30.2,7.28a.69.69,0,0,1,.38-.94l6.36-2.8.89,2a.74.74,0,0,0,1,.38.72.72,0,0,0,.38-1L38.3,3l1-.47,1.61,3.65a.73.73,0,0,0,1,.38.72.72,0,0,0,.38-1L40.68,1.89l.63-.25a.68.68,0,0,1,.93.38L47,12.75a.68.68,0,0,1-.38.93Z" transform="translate(0 -0.1)"/><path d="M22,10.75H6.91a.76.76,0,0,1,0-1.52H22a.76.76,0,1,1,0,1.52Z" transform="translate(0 -0.1)"/><path d="M14.34,14.66H.76a.77.77,0,0,1,0-1.53H14.34a.77.77,0,0,1,0,1.53Z" transform="translate(0 -0.1)"/><path d="M21,18.6H12.68a.77.77,0,0,1,0-1.53H21a.76.76,0,0,1,.77.77A.75.75,0,0,1,21,18.6Z" transform="translate(0 -0.1)"/><path d="M9.42,18.6H7.55a.77.77,0,0,1,0-1.53H9.42a.77.77,0,0,1,0,1.53Z" transform="translate(0 -0.1)"/></svg>