<svg width="130" height="64" viewBox="0 0 130 64" fill="none" xmlns="http://www.w3.org/2000/svg">
<path d="M114.9 43.2078C116.3 46.4078 120.1 47.9078 123.4 46.5078C126.7 45.1078 128.1 41.3078 126.7 38.0078C125.3 34.8078 121.5 33.3078 118.2 34.7078C115 36.1078 113.5 39.9078 114.9 43.2078ZM118.1 41.8078C117.4 40.3078 118.1 38.6078 119.6 37.9078C121.1 37.2078 122.9 37.9078 123.5 39.4078C124.1 40.9078 123.5 42.7078 122 43.3078C120.5 43.9078 118.7 43.3078 118.1 41.8078Z" fill="white"/>
<path d="M77.5 59.5076C78.9 62.7076 82.7 64.2076 86 62.8076C89.2 61.4076 90.7 57.6076 89.3 54.3076C87.9 51.1076 84.1 49.6076 80.8 51.0076C77.5 52.5076 76.1 56.3076 77.5 59.5076ZM80.7 58.2076C80 56.7076 80.7 55.0076 82.2 54.3076C83.7 53.6076 85.5 54.3076 86.1 55.8076C86.8 57.3076 86.1 59.1076 84.6 59.7076C83.1 60.3076 81.3 59.7076 80.7 58.2076Z" fill="white"/>
<path d="M40.6 8.40783L54.2 6.40783L73.3 49.9078C73.7 50.8078 74.7 51.2078 75.6 50.8078L86 46.3078L111.3 35.2078L120.9 31.0078L127.1 34.0078C127.6 34.2078 128.1 34.2078 128.6 34.0078C129 33.8078 129.3 33.6078 129.5 33.2078C129.9 32.3078 129.6 31.3078 128.7 30.9078L121.8 27.6078C121.8 27.6078 121.8 27.6078 121.7 27.6078C121.6 27.6078 121.6 27.6078 121.5 27.5078C121.4 27.5078 121.4 27.5078 121.3 27.5078C121.2 27.5078 121.2 27.5078 121.1 27.5078C121 27.5078 121 27.5078 120.9 27.5078C120.8 27.5078 120.8 27.5078 120.7 27.5078C120.6 27.5078 120.6 27.5078 120.5 27.5078C120.4 27.5078 120.4 27.5078 120.3 27.5078C120.2 27.5078 120.2 27.5078 120.1 27.6078C120.1 27.6078 120.1 27.6078 120 27.6078L114.1 30.2078C114.1 29.6078 113.9 29.1078 113.7 28.5078L102.8 3.10783C101.7 0.507827 98.6 -0.692173 96 0.407827L70.7 11.5078C68.1 12.6078 66.9 15.7078 68.1 18.3078L79.1 43.6078C79.3 44.1078 79.7 44.6078 80.1 45.0078L75.8 46.9078L56.8 3.80783C56.8 3.80783 56.8 3.70783 56.7 3.70783C56.7 3.60783 56.6 3.60783 56.6 3.50783L56.5 3.40783L56.4 3.30783L56.3 3.20783L56.2 3.10783C56.2 3.00783 56.1 3.00783 56.1 3.00783C56 3.00783 56 2.90783 55.9 2.90783C55.9 2.90783 55.8 2.90783 55.8 2.80783C55.7 2.80783 55.7 2.80783 55.6 2.80783C55.5 2.80783 55.5 2.80783 55.4 2.80783C55.3 2.80783 55.3 2.80783 55.2 2.80783C55.1 2.80783 55.1 2.80783 55 2.80783H54.9L40.1 4.90783C39.2 5.00783 38.5 5.90783 38.6 6.90783C38.8 7.80783 39.6 8.50783 40.6 8.40783ZM84.5 43.1078C83.6 43.5078 82.7 43.1078 82.3 42.2078L71.2 16.9078C70.8 16.0078 71.2 15.1078 72.1 14.7078L87.1 8.10783L89.2 12.9078C89.6 13.8078 90.6 14.2078 91.5 13.8078C92.4 13.4078 92.8 12.4078 92.4 11.5078L90.3 6.70783L92.7 5.60783L96.5 14.2078C96.9 15.1078 97.9 15.5078 98.8 15.1078C99.7 14.7078 100.1 13.7078 99.7 12.8078L95.9 4.20783L97.4 3.60783C98.3 3.20783 99.2 3.60783 99.6 4.50783L110.7 29.8078C111.1 30.7078 110.7 31.6078 109.8 32.0078L84.5 43.1078Z" fill="white"/>
<path d="M51.9 25.1078H16.3C15.3 25.1078 14.5 24.3078 14.5 23.3078C14.5 22.3078 15.3 21.5078 16.3 21.5078H51.9C52.9 21.5078 53.7 22.3078 53.7 23.3078C53.7 24.3078 52.9 25.1078 51.9 25.1078Z" fill="white"/>
<path d="M33.8 34.308H1.8C0.8 34.308 0 33.508 0 32.508C0 31.508 0.8 30.708 1.8 30.708H33.8C34.8 30.708 35.6 31.508 35.6 32.508C35.6 33.508 34.8 34.308 33.8 34.308Z" fill="white"/>
<path d="M49.5 43.6078H29.9C28.9 43.6078 28.1 42.8078 28.1 41.8078C28.1 40.8078 28.9 40.0078 29.9 40.0078H49.4C50.4 40.0078 51.2 40.8078 51.2 41.8078C51.2 42.8078 50.4 43.6078 49.5 43.6078Z" fill="white"/>
<path d="M22.2 43.6078H17.8C16.8 43.6078 16 42.8078 16 41.8078C16 40.8078 16.8 40.0078 17.8 40.0078H22.2C23.2 40.0078 24 40.8078 24 41.8078C24 42.8078 23.2 43.6078 22.2 43.6078Z" fill="white"/>
</svg>
