<svg width="54" height="54" viewBox="0 0 54 54" fill="none" xmlns="http://www.w3.org/2000/svg">
<g clip-path="url(#clip0)">
<path d="M50.6998 21.1682H48.4998C47.9998 9.46821 38.2998 0.168213 26.5998 0.168213C14.7998 0.168213 5.09982 9.46821 4.59982 21.1682H2.39982C1.09982 21.1682 -0.000183105 22.2682 -0.000183105 23.5682V27.0682C-0.000183105 29.5682 0.399817 32.0682 1.09982 34.4682C1.29982 34.9682 1.79982 35.2682 2.29982 35.1682C2.79982 34.9682 3.09982 34.4682 2.99982 33.9682C2.29982 31.7682 1.99982 29.4682 1.99982 27.0682V23.5682C1.99982 23.3682 2.19982 23.1682 2.39982 23.1682H50.6998C50.8998 23.1682 51.0998 23.3682 51.0998 23.5682V27.0682C51.0998 30.0682 50.5998 32.9682 49.4998 35.7682C49.2998 36.2682 49.5998 36.8682 50.0998 37.0682C50.1998 37.0682 50.2998 37.1682 50.4998 37.1682C50.8998 37.1682 51.2998 36.9682 51.3998 36.5682C52.4998 33.5682 53.0998 30.4682 53.0998 27.1682V23.6682C53.0998 22.2682 51.9998 21.1682 50.6998 21.1682ZM26.5998 2.16821C37.1998 2.16821 45.9998 10.5682 46.4998 21.1682H6.59982C7.09982 10.5682 15.8998 2.16821 26.5998 2.16821Z" fill="#2A2A2A"/>
<path d="M44.0998 44.2683C39.3998 49.0683 33.1998 51.6683 26.5998 51.6683C17.8998 51.6683 9.69982 46.9683 5.29982 39.2683C4.99982 38.7683 4.39982 38.6683 3.89982 38.8683C3.39982 39.1683 3.29982 39.7683 3.49982 40.2683C8.29982 48.5683 17.0998 53.6683 26.4998 53.6683C33.6998 53.6683 40.3998 50.8683 45.4998 45.6683C45.8998 45.2683 45.8998 44.6683 45.4998 44.2683C45.0998 43.8683 44.4998 43.8683 44.0998 44.2683Z" fill="#2A2A2A"/>
<path d="M49.2998 38.7682C48.7998 38.4682 48.1998 38.6682 47.8998 39.1682C47.4998 39.8682 47.0998 40.4682 46.6998 41.0682C46.3998 41.5682 46.4998 42.1682 46.9998 42.4682C47.1998 42.5682 47.3998 42.6682 47.5998 42.6682C47.8998 42.6682 48.1998 42.5682 48.3998 42.2682C48.8998 41.5682 49.2998 40.8682 49.6998 40.1682C49.9998 39.5682 49.7998 38.9682 49.2998 38.7682Z" fill="#2A2A2A"/>
<path d="M31.1998 36.1683C31.1998 33.5683 29.0998 31.4683 26.4998 31.4683C23.8998 31.4683 21.7998 33.5683 21.7998 36.1683C21.7998 38.7683 23.8998 40.8683 26.4998 40.8683C29.0998 40.8683 31.1998 38.6683 31.1998 36.1683ZM23.8998 36.1683C23.8998 34.6683 25.0998 33.4683 26.5998 33.4683C28.0998 33.4683 29.2998 34.6683 29.2998 36.1683C29.2998 37.6683 28.0998 38.8683 26.5998 38.8683C25.0998 38.8683 23.8998 37.5683 23.8998 36.1683Z" fill="#2A2A2A"/>
</g>
<defs>
<clipPath id="clip0">
<rect width="53.1" height="53.5" fill="white" transform="translate(-0.000183105 0.168213)"/>
</clipPath>
</defs>
</svg>
