<svg width="61" height="61" viewBox="0 0 61 61" fill="none" xmlns="http://www.w3.org/2000/svg">
<g clip-path="url(#clip0)">
<path d="M48.7996 15.6684C48.4996 15.6684 48.2996 15.5684 48.0996 15.3684C47.6996 14.9684 47.6996 14.3684 48.0996 13.9684L51.0996 10.9684C51.2996 10.7684 51.3996 10.4684 51.3996 10.1684C51.3996 9.86836 51.2996 9.56836 51.0996 9.36836C50.6996 8.96836 49.8996 8.96836 49.4996 9.36836L46.4996 12.3684C46.0996 12.7684 45.4996 12.7684 45.0996 12.3684C44.6996 11.9684 44.6996 11.3684 45.0996 10.9684L48.0996 7.96836C49.2996 6.76836 51.3996 6.76836 52.5996 7.96836C53.1996 8.56836 53.4996 9.36836 53.4996 10.1684C53.4996 10.9684 53.1996 11.7684 52.5996 12.3684L49.5996 15.3684C49.2996 15.5684 49.0996 15.6684 48.7996 15.6684Z" fill="#2A2A2A"/>
<path d="M17.7996 40.5682C17.4996 40.5682 17.2996 40.4682 17.0996 40.2682C16.6996 39.8682 16.6996 39.2682 17.0996 38.8682L30.2996 25.6682C30.6996 25.2682 31.2996 25.2682 31.6996 25.6682C32.0996 26.0682 32.0996 26.6682 31.6996 27.0682L18.4996 40.2682C18.2996 40.4682 18.0996 40.5682 17.7996 40.5682Z" fill="#2A2A2A"/>
<path d="M15.4996 42.8683C15.1996 42.8683 14.9996 42.7683 14.7996 42.5683C14.3996 42.1683 14.3996 41.5683 14.7996 41.1683L15.1996 40.7683C15.5996 40.3683 16.1996 40.3683 16.5996 40.7683C16.9996 41.1683 16.9996 41.7683 16.5996 42.1683L16.1996 42.5683C15.9996 42.7683 15.6996 42.8683 15.4996 42.8683Z" fill="#2A2A2A"/>
<path d="M3.09963 60.3683C2.29963 60.3683 1.49963 60.0683 0.899634 59.4683C0.299634 58.8683 -0.000366211 58.0683 -0.000366211 57.2683C-0.000366211 56.4683 0.299634 55.6683 0.899634 55.0683L12.8996 43.0683C13.2996 42.6683 13.8996 42.6683 14.2996 43.0683C14.6996 43.4683 14.6996 44.0683 14.2996 44.4683L2.29963 56.4683C2.09963 56.6683 1.99963 56.9683 1.99963 57.2683C1.99963 57.5683 2.09963 57.8683 2.29963 58.0683C2.79963 58.5683 3.49963 58.4683 3.89963 58.0683L33.1996 28.7683C33.5996 28.3683 34.1996 28.3683 34.5996 28.7683C34.9996 29.1683 34.9996 29.7683 34.5996 30.1683L5.39963 59.4683C4.79963 60.0683 3.99963 60.3683 3.09963 60.3683Z" fill="#2A2A2A"/>
<path d="M48.7996 15.6683C48.4996 15.6683 48.2996 15.5683 48.0996 15.3683L35.3996 2.66826C34.6996 1.96826 33.6996 1.96826 32.9996 2.66826L29.8996 5.76826C29.4996 6.16826 28.8996 6.16826 28.4996 5.76826C28.0996 5.36826 28.0996 4.76826 28.4996 4.36826L31.5996 1.26826C32.9996 -0.131738 35.3996 -0.131738 36.7996 1.26826L49.4996 13.9683C49.8996 14.3683 49.8996 14.9683 49.4996 15.3683C49.2996 15.5683 49.0996 15.6683 48.7996 15.6683Z" fill="#2A2A2A"/>
<path d="M45.5996 40.8685C44.6996 40.8685 43.6996 40.4685 42.9996 39.7685L20.5996 17.4685C19.1996 16.0685 19.1996 13.6685 20.5996 12.2685L25.8996 6.96846C26.2996 6.56846 26.8996 6.56846 27.2996 6.96846C27.6996 7.36846 27.6996 7.96846 27.2996 8.36846L21.9996 13.6685C21.2996 14.3685 21.2996 15.3685 21.9996 16.0685L44.2996 38.3685C44.9996 39.0685 45.9996 39.0685 46.6996 38.3685L47.9996 37.0685C48.3996 36.6685 48.9996 36.6685 49.3996 37.0685C49.7996 37.4685 49.7996 38.0685 49.3996 38.4685L48.0996 39.7685C47.3996 40.4685 46.4996 40.8685 45.5996 40.8685Z" fill="#2A2A2A"/>
<path d="M51.0996 36.4685C50.7996 36.4685 50.5996 36.3685 50.3996 36.1685C49.9996 35.7685 49.9996 35.1685 50.3996 34.7685L52.1996 32.9685C52.5996 32.5685 53.1996 32.5685 53.5996 32.9685C53.9996 33.3685 53.9996 33.9685 53.5996 34.3685L51.7996 36.1685C51.5996 36.3685 51.2996 36.4685 51.0996 36.4685Z" fill="#2A2A2A"/>
<path d="M55.1996 32.3681C54.8996 32.3681 54.6996 32.2681 54.4996 32.0681C54.0996 31.6681 54.0996 31.0681 54.4996 30.6681L57.6996 27.4681C58.3996 26.7681 58.3996 25.7681 57.6996 25.0681L48.0996 15.4681C47.6996 15.0681 47.6996 14.4681 48.0996 14.0681C48.4996 13.6681 49.0996 13.6681 49.4996 14.0681L59.0996 23.6681C59.7996 24.3681 60.1996 25.2681 60.1996 26.2681C60.1996 27.2681 59.7996 28.1681 59.0996 28.8681L55.8996 32.0681C55.6996 32.2681 55.4996 32.3681 55.1996 32.3681Z" fill="#2A2A2A"/>
</g>
<defs>
<clipPath id="clip0">
<rect width="60.2" height="60.2" fill="white" transform="translate(-0.000366211 0.168457)"/>
</clipPath>
</defs>
</svg>
