<svg width="51" height="64" viewBox="0 0 51 64" fill="none" xmlns="http://www.w3.org/2000/svg">
<g clip-path="url(#clip0)">
<path d="M24.7997 63.3686C17.7997 63.2686 11.0997 60.1686 6.39966 54.9686C5.99966 54.5686 6.09966 53.9686 6.49966 53.5686C6.89966 53.1686 7.49966 53.2686 7.89966 53.6686C12.1997 58.4686 18.3997 61.3686 24.7997 61.4686H25.4997C37.7997 61.1686 48.0997 50.9686 48.3997 38.6686C48.5997 30.5686 44.2997 25.3686 39.7997 19.7686C39.4997 19.3686 39.4997 18.6686 39.8997 18.3686C40.2997 18.0686 40.9997 18.0686 41.2997 18.4686C46.0997 24.3686 50.5997 29.8686 50.3997 38.6686C50.0997 52.0686 38.8997 63.1686 25.4997 63.3686H24.7997Z" fill="#2A2A2A"/>
<path d="M5.09966 52.4687C4.79966 52.4687 4.49966 52.2687 4.29966 52.0687C4.09966 51.8687 3.99966 51.5687 3.79966 51.3687C3.49966 50.8687 3.69966 50.2687 4.09966 49.9687C4.59966 49.6687 5.19966 49.8687 5.49966 50.2687C5.59966 50.4687 5.79966 50.6687 5.89966 50.9687C6.19966 51.4687 6.09966 52.0687 5.59966 52.3687C5.49966 52.4687 5.29966 52.4687 5.09966 52.4687Z" fill="#2A2A2A"/>
<path d="M2.99965 48.7685C2.59965 48.7685 2.19965 48.5685 2.09965 48.1685C0.799651 45.1685 0.0996511 41.9685 -0.000348898 38.6685C-0.200349 29.8685 4.29965 24.2685 9.09965 18.4685C10.7997 16.3685 12.4997 14.2685 14.2997 12.2685C17.2997 8.66846 20.4997 4.86846 23.3997 1.06846C23.7997 0.468457 24.3997 0.168457 25.1997 0.168457C25.8997 0.168457 26.5997 0.468457 26.9997 1.06846C29.8997 4.86846 32.9997 8.66846 36.0997 12.2685C36.8997 13.1685 37.5997 14.0685 38.3997 15.0685C38.7997 15.4685 38.6997 16.1685 38.2997 16.4685C37.8997 16.8685 37.1997 16.7685 36.8997 16.3685C36.0997 15.4685 35.3997 14.5685 34.5997 13.5685C31.5997 9.96846 28.3997 6.16846 25.4997 2.36846C25.3997 2.16846 25.2997 2.16846 25.1997 2.16846C25.0997 2.16846 24.9997 2.16846 24.8997 2.26846C21.9997 6.16846 18.7997 9.86846 15.7997 13.5685C14.0997 15.6685 12.2997 17.6685 10.6997 19.7685C6.09965 25.3685 1.79965 30.6685 1.99965 38.6685C2.09965 41.6685 2.69965 44.5685 3.99965 47.3685C4.19965 47.8685 3.99965 48.4685 3.49965 48.6685C3.29965 48.7685 3.19965 48.7685 2.99965 48.7685Z" fill="#2A2A2A"/>
</g>
<defs>
<clipPath id="clip0">
<rect width="50.4" height="63.2" fill="white" transform="translate(-0.000366211 0.168457)"/>
</clipPath>
</defs>
</svg>
