<svg width="55" height="56" viewBox="0 0 55 56" fill="none" xmlns="http://www.w3.org/2000/svg">
<path d="M1.09982 26.2682C1.09982 26.2682 0.999815 26.2682 1.09982 26.2682C0.499815 26.1682 0.0998154 25.7682 0.0998154 25.1682C0.0998154 24.6682 0.199815 24.1682 0.299815 23.6682C0.399815 23.1682 0.899815 22.7682 1.39982 22.8682C1.89982 22.9682 2.29982 23.4682 2.19982 23.9682C2.09982 24.3682 2.09982 24.8682 1.99982 25.3682C1.99982 25.8682 1.59982 26.2682 1.09982 26.2682Z" fill="#2A2A2A"/>
<path d="M27.3998 55.0682C12.5998 55.0682 0.599817 43.4682 -0.000183105 28.7682C-0.000183105 28.1682 0.399817 27.7682 0.999817 27.7682C1.49982 27.6682 1.99982 28.1682 1.99982 28.7682C2.59982 42.4682 13.6998 53.1682 27.3998 53.1682C30.7998 53.1682 34.1998 52.4682 37.2998 51.1682C37.7998 50.9682 38.3998 51.1682 38.5998 51.6682C38.7998 52.1682 38.5998 52.7682 38.0998 52.9682C34.6998 54.3682 31.0998 55.0682 27.3998 55.0682Z" fill="#2A2A2A"/>
<path d="M40.4998 51.5683C40.1998 51.5683 39.7998 51.3683 39.5998 51.0683C39.2998 50.5683 39.4998 49.9683 39.9998 49.6683C42.5998 48.1683 44.7998 46.3683 46.6998 44.0683C47.0998 43.6683 47.6998 43.5683 48.0998 43.9683C48.4998 44.3683 48.5998 44.9683 48.1998 45.3683C46.0998 47.7683 43.6998 49.7683 40.8998 51.3683C40.8998 51.5683 40.6998 51.5683 40.4998 51.5683Z" fill="#2A2A2A"/>
<path d="M49.8998 42.5682C49.6998 42.5682 49.4998 42.5682 49.3998 42.3682C48.8998 42.0682 48.7998 41.4682 49.0998 40.9682C51.5998 36.9682 52.8998 32.2682 52.8998 27.4682C52.8998 13.5682 41.4998 2.16821 27.3998 2.16821C16.1998 2.16821 6.19982 9.66821 2.99982 20.3682C2.79982 20.8682 2.29982 21.1682 1.79982 21.0682C1.29982 20.8682 0.999818 20.3682 1.09982 19.8682C4.49982 8.26821 15.3998 0.168213 27.3998 0.168213C42.4998 0.168213 54.7998 12.4682 54.7998 27.5682C54.7998 32.7682 53.3998 37.7682 50.5998 42.0682C50.4998 42.4682 50.1998 42.5682 49.8998 42.5682Z" fill="#2A2A2A"/>
</svg>
