<svg width="60" height="23" viewBox="0 0 60 23" fill="none" xmlns="http://www.w3.org/2000/svg">
<g clip-path="url(#clip0)">
<path d="M54.7998 4.76831C54.4998 4.76831 54.2998 4.66831 54.0998 4.46831C53.6998 4.06831 53.6998 3.46831 54.0998 3.06831C55.0998 2.16831 56.2998 1.26831 58.4998 1.26831C59.0998 1.26831 59.4998 1.66831 59.4998 2.26831C59.4998 2.86831 59.0998 3.26831 58.4998 3.26831C57.0998 3.26831 56.2998 3.76831 55.4998 4.56831C55.2998 4.66831 55.0998 4.76831 54.7998 4.76831Z" fill="#2A2A2A"/>
<path d="M45.8998 9.46821C41.3998 9.46821 38.8998 6.86821 37.1998 4.96821L37.0998 4.86821C35.6998 3.26821 34.6998 2.16821 32.6998 2.16821C30.7998 2.16821 29.8998 3.06821 28.4998 4.66821L28.2998 4.86821C26.8998 6.46821 24.2998 9.46821 19.4998 9.46821C14.9998 9.46821 12.4998 6.86821 10.7998 4.96821L10.6998 4.86821C9.19982 3.26821 8.19982 2.16821 6.09982 2.16821C4.29982 2.16821 3.39982 3.06821 1.99982 4.66821L1.69982 4.86821C1.29982 5.26821 0.699817 5.26821 0.299817 4.86821C-0.100183 4.46821 -0.100183 3.86821 0.299817 3.46821L0.499817 3.26821C1.99982 1.56821 3.39982 0.168213 6.09982 0.168213C9.09982 0.168213 10.4998 1.86821 11.9998 3.56821L12.0998 3.66821C13.7998 5.46821 15.6998 7.46821 19.3998 7.46821C23.2998 7.46821 25.3998 5.06821 26.7998 3.56821L26.9998 3.26821C28.5998 1.56821 29.8998 0.168213 32.6998 0.168213C35.6998 0.168213 37.0998 1.86821 38.5998 3.56821L38.6998 3.66821C40.3998 5.46821 42.2998 7.46821 45.9998 7.46821C48.1998 7.46821 50.0998 6.66821 51.8998 5.06821C52.2998 4.66821 52.8998 4.76821 53.2998 5.16821C53.6998 5.56821 53.5998 6.16821 53.1998 6.56821C50.9998 8.46821 48.5998 9.46821 45.8998 9.46821Z" fill="#2A2A2A"/>
<path d="M39.9998 22.2681C37.1998 22.2681 35.8998 20.8681 34.2998 19.1681L34.0998 18.9681C32.6998 17.4681 30.6998 15.1681 26.8998 15.0681C26.2998 15.0681 25.8998 14.5681 25.8998 14.0681C25.8998 13.4681 26.3998 13.0681 26.8998 13.0681C31.4998 13.1681 34.0998 16.0681 35.4998 17.6681L35.6998 17.8681C37.0998 19.3681 37.9998 20.3681 39.8998 20.3681C41.8998 20.3681 42.8998 19.2681 44.2998 17.6681L44.3998 17.5681C46.1998 15.6681 48.5998 13.0681 53.0998 13.0681C53.6998 13.0681 54.0998 13.4681 54.0998 14.0681C54.0998 14.6681 53.6998 15.0681 53.0998 15.0681C49.3998 15.0681 47.4998 17.0681 45.7998 18.8681L45.6998 18.9681C44.4998 20.5681 42.9998 22.2681 39.9998 22.2681Z" fill="#2A2A2A"/>
<path d="M22.4998 15.9682C22.0998 15.9682 21.7998 15.7682 21.5998 15.4682C21.2998 14.9682 21.4998 14.3682 21.9998 14.0682C22.3998 13.8682 22.8998 13.6682 23.2998 13.4682C23.7998 13.2682 24.3998 13.5682 24.5998 14.0682C24.7998 14.5682 24.4998 15.1682 23.9998 15.3682C23.5998 15.4682 23.2998 15.6682 22.9998 15.8682C22.7998 15.9682 22.6998 15.9682 22.4998 15.9682Z" fill="#2A2A2A"/>
<path d="M13.4998 22.2682C10.6998 22.2682 9.39982 20.8682 7.79982 19.1682L7.59982 18.9682C7.19982 18.5682 7.19982 17.9682 7.69982 17.5682C8.09982 17.1682 8.69982 17.1682 9.09982 17.5682L9.29982 17.7682C10.6998 19.2682 11.5998 20.2682 13.4998 20.2682C15.4998 20.2682 16.4998 19.1682 17.8998 17.5682L17.9998 17.4682C18.2998 17.1682 18.5998 16.8682 18.8998 16.4682C19.2998 16.0682 19.8998 16.0682 20.2998 16.4682C20.6998 16.8682 20.6998 17.4682 20.2998 17.8682C19.9998 18.1682 19.6998 18.4682 19.3998 18.7682L19.2998 18.8682C17.9998 20.5682 16.4998 22.2682 13.4998 22.2682Z" fill="#2A2A2A"/>
</g>
<defs>
<clipPath id="clip0">
<rect width="59.5" height="22.1" fill="white" transform="translate(-0.000183105 0.168213)"/>
</clipPath>
</defs>
</svg>
