<svg width="61" height="61" viewBox="0 0 61 61" fill="none" xmlns="http://www.w3.org/2000/svg">
<g clip-path="url(#clip0)">
<path d="M59.8998 0.468115C59.5998 0.168115 59.2998 0.0681152 58.8998 0.168115C51.8998 1.36812 45.2998 3.76812 39.1998 7.26812C38.6998 7.56812 38.5998 8.16812 38.7998 8.66812C39.0998 9.16812 39.6998 9.26812 40.1998 9.06812C45.6998 5.76812 51.6998 3.56812 57.9998 2.36812C57.1998 6.66812 55.7998 10.9681 53.9998 14.9681C53.5998 14.9681 53.0998 14.9681 52.7998 15.0681C50.0998 15.4681 47.5998 16.7681 45.8998 18.7681C45.4998 19.1681 45.4998 19.7681 45.8998 20.2681C46.2998 20.6681 46.8998 20.7681 47.3998 20.4681C48.7998 19.6681 50.3998 19.2681 51.8998 19.3681C49.3998 23.7681 46.2998 27.8681 42.6998 31.4681C35.0998 39.0681 25.7998 44.1681 15.3998 46.4681L37.9998 23.7681C38.3998 23.3681 38.3998 22.7681 37.9998 22.3681C37.5998 21.9681 36.9998 21.9681 36.5998 22.3681L13.9998 44.9681C14.7998 41.2681 15.9998 37.6681 17.5998 34.1681C17.9998 34.1681 18.4998 34.1681 18.7998 34.0681C21.4998 33.6681 23.9998 32.3681 25.6998 30.3681C26.0998 29.9681 26.0998 29.3681 25.6998 28.8681C25.2998 28.4681 24.6998 28.3681 24.1998 28.6681C22.7998 29.4681 21.1998 29.8681 19.6998 29.7681C22.1998 25.3681 25.2998 21.2681 28.8998 17.6681C29.8998 16.6681 30.9998 15.6681 32.0998 14.7681C32.4998 14.3681 32.5998 13.7681 32.1998 13.3681C31.7998 12.9681 31.1998 12.8681 30.7998 13.2681C29.6998 14.2681 28.5998 15.2681 27.4998 16.2681C23.3998 20.3681 19.9998 24.9681 17.2998 30.0681L17.0998 30.4681L17.2998 30.8681L17.5998 31.3681L17.9998 31.4681C18.5998 31.6681 19.2998 31.6681 19.8998 31.7681C19.4998 31.8681 18.9998 31.9681 18.4998 32.0681C18.0998 32.1681 17.5998 32.1681 16.9998 32.1681H16.2998L15.9998 32.7681C13.7998 37.4681 12.2998 42.4681 11.3998 47.5681L0.299817 58.6681C-0.100183 59.0681 -0.100183 59.6681 0.299817 60.0681C0.499817 60.2681 0.799817 60.3681 0.999817 60.3681C1.19982 60.3681 1.49982 60.2681 1.69982 60.0681L12.8998 48.8681C24.7998 46.8681 35.5998 41.2681 44.0998 32.7681C48.1998 28.6681 51.5998 24.0681 54.2998 18.9681L54.4998 18.4681L54.0998 17.5681L53.6998 17.4681C53.0998 17.2681 52.3998 17.2681 51.7998 17.1681C52.1998 17.0681 52.6998 16.9681 53.1998 16.8681C53.6998 16.7681 54.1998 16.7681 54.7998 16.7681H55.4998L55.7998 16.1681C57.9998 11.4681 59.5998 6.36812 60.3998 1.26812C60.2998 1.16812 60.1998 0.768115 59.8998 0.468115Z" fill="#2A2A2A"/>
<path d="M34.7998 12.368C34.9998 12.368 35.1998 12.268 35.3998 12.168C35.9998 11.768 36.4998 11.368 37.0998 10.968C37.5998 10.668 37.6998 10.068 37.3998 9.56804C37.0998 9.16804 36.3998 9.06804 35.9998 9.36804C35.3998 9.76804 34.7998 10.168 34.1998 10.668C33.7998 10.968 33.6998 11.668 33.9998 12.068C34.1998 12.268 34.4998 12.368 34.7998 12.368Z" fill="#2A2A2A"/>
</g>
<defs>
<clipPath id="clip0">
<rect width="60.2" height="60.2" fill="white" transform="translate(-0.000183105 0.168213)"/>
</clipPath>
</defs>
</svg>
