<svg width="49" height="61" viewBox="0 0 49 61" fill="none" xmlns="http://www.w3.org/2000/svg">
<g clip-path="url(#clip0)">
<path d="M41.4996 60.4685C41.3996 60.4685 41.1996 60.4685 41.0996 60.3685C40.5996 60.1685 40.3996 59.5685 40.5996 59.0685L46.3996 46.0685C46.6996 45.4685 46.5996 44.8685 46.2996 44.3685L41.0996 36.2685C40.7996 35.7685 40.8996 35.1685 41.3996 34.8685C41.8996 34.5685 42.4996 34.6685 42.7996 35.1685L47.9996 43.2685C48.6996 44.3685 48.7996 45.6685 48.2996 46.8685L42.4996 59.8685C42.2996 60.2685 41.8996 60.4685 41.4996 60.4685Z" fill="#2A2A2A"/>
<path d="M40.1996 33.7685C39.8996 33.7685 39.4996 33.5685 39.3996 33.2685L23.4996 8.26846C23.1996 7.76846 23.2996 7.16846 23.7996 6.86846C24.2996 6.56846 24.8996 6.66846 25.1996 7.16846L41.0996 32.1685C41.3996 32.6685 41.2996 33.2685 40.7996 33.5685C40.4996 33.7685 40.3996 33.7685 40.1996 33.7685Z" fill="#2A2A2A"/>
<path d="M7.09963 60.4685C6.69963 60.4685 6.39963 60.2685 6.19963 59.8685L0.399628 46.8685C-0.100372 45.6685 -0.000372291 44.3685 0.699628 43.2685L12.4996 24.6685C12.7996 24.1685 13.3996 24.0685 13.8996 24.3685C14.3996 24.6685 14.4996 25.2685 14.1996 25.7685L2.29963 44.3685C1.99963 44.8685 1.89963 45.5685 2.19963 46.0685L7.99963 59.0685C8.19963 59.5685 7.99963 60.1685 7.49963 60.3685C7.29963 60.4685 7.19963 60.4685 7.09963 60.4685Z" fill="#2A2A2A"/>
<path d="M15.1996 23.1685C14.9996 23.1685 14.7996 23.1685 14.6996 22.9685C14.1996 22.6685 14.0996 22.0685 14.3996 21.5685L15.5996 19.6685C15.8996 19.1685 16.4996 19.0685 16.9996 19.3685C17.4996 19.6685 17.5996 20.2685 17.2996 20.7685L15.9996 22.6685C15.7996 22.9685 15.4996 23.1685 15.1996 23.1685Z" fill="#2A2A2A"/>
<path d="M18.3996 18.1685C18.1996 18.1685 17.9996 18.1685 17.8996 17.9685C17.3996 17.6685 17.2996 17.0685 17.5996 16.5685L23.4996 7.16846C23.7996 6.66846 24.3996 6.56846 24.8996 6.86846C25.3996 7.16846 25.4996 7.76846 25.1996 8.26846L19.2996 17.6685C18.9996 17.9685 18.6996 18.1685 18.3996 18.1685Z" fill="#2A2A2A"/>
<path d="M24.2996 55.5686C23.6996 55.5686 23.2996 55.1686 23.2996 54.5686V7.76855C23.2996 7.16855 23.6996 6.76855 24.2996 6.76855C24.8996 6.76855 25.2996 7.16855 25.2996 7.76855V54.5686C25.2996 55.0686 24.8996 55.5686 24.2996 55.5686Z" fill="#2A2A2A"/>
<path d="M24.2996 60.1686C23.6996 60.1686 23.2996 59.7686 23.2996 59.1686V57.7686C23.2996 57.1686 23.6996 56.7686 24.2996 56.7686C24.8996 56.7686 25.2996 57.1686 25.2996 57.7686V59.1686C25.2996 59.7686 24.8996 60.1686 24.2996 60.1686Z" fill="#2A2A2A"/>
<path d="M24.2996 8.76846C21.8996 8.76846 19.9996 6.86846 19.9996 4.46846C19.9996 2.06846 21.8996 0.168457 24.2996 0.168457C26.6996 0.168457 28.5996 2.06846 28.5996 4.46846C28.5996 6.86846 26.6996 8.76846 24.2996 8.76846ZM24.2996 2.16846C22.9996 2.16846 21.9996 3.16846 21.9996 4.46846C21.9996 5.76846 22.9996 6.76846 24.2996 6.76846C25.5996 6.76846 26.5996 5.76846 26.5996 4.46846C26.5996 3.16846 25.5996 2.16846 24.2996 2.16846Z" fill="#2A2A2A"/>
</g>
<defs>
<clipPath id="clip0">
<rect width="48.6" height="60.3" fill="white" transform="translate(-0.000366211 0.168457)"/>
</clipPath>
</defs>
</svg>
