<svg width="55" height="55" viewBox="0 0 55 55" fill="none" xmlns="http://www.w3.org/2000/svg">
<g clip-path="url(#clip0)">
<path d="M1.1 26.1C1.1 26.1 0.999998 26.1 1.1 26.1C0.499998 26 0.0999985 25.6 0.0999985 25C0.0999985 24.5 0.199998 24 0.299998 23.5C0.399998 23 0.899998 22.6 1.4 22.7C1.9 22.8 2.3 23.3 2.2 23.8C2.1 24.2 2.1 24.7 2 25.2C2 25.7 1.6 26.1 1.1 26.1Z" fill="#2A2A2A"/>
<path d="M27.4 54.9C12.6 54.9 0.6 43.3 0 28.6C0 28 0.4 27.6 1 27.6C1.5 27.5 2 28 2 28.6C2.6 42.3 13.7 53 27.4 53C30.8 53 34.2 52.3 37.3 51C37.8 50.8 38.4 51 38.6 51.5C38.8 52 38.6 52.6 38.1 52.8C34.7 54.2 31.1 54.9 27.4 54.9Z" fill="#2A2A2A"/>
<path d="M40.5 51.4001C40.2 51.4001 39.8 51.2001 39.6 50.9001C39.3 50.4001 39.5 49.8 40 49.5C42.6 48 44.8 46.2001 46.7 43.9001C47.1 43.5001 47.7 43.4 48.1 43.8C48.5 44.2 48.6 44.8001 48.2 45.2001C46.1 47.6001 43.7 49.6001 40.9 51.2001C40.9 51.4001 40.7 51.4001 40.5 51.4001Z" fill="#2A2A2A"/>
<path d="M49.9 42.4C49.7 42.4 49.5 42.4 49.4 42.2C48.9 41.9 48.8 41.3 49.1 40.8C51.6 36.8 52.9 32.1 52.9 27.3C52.9 13.4 41.5 2 27.4 2C16.2 2 6.2 9.5 3 20.2C2.8 20.7 2.3 21 1.8 20.9C1.3 20.7 1 20.2 1.1 19.7C4.5 8.1 15.4 0 27.4 0C42.5 0 54.8 12.3 54.8 27.4C54.8 32.6 53.4 37.6 50.6 41.9C50.5 42.3 50.2 42.4 49.9 42.4Z" fill="#2A2A2A"/>
<path d="M16.4 18.5H11.7C11.1 18.5 10.7 18.1 10.7 17.5C10.7 16.9 11.1 16.5 11.7 16.5H16.4C17 16.5 17.4 16.9 17.4 17.5C17.4 18.1 16.9 18.5 16.4 18.5Z" fill="#2A2A2A"/>
<path d="M29.8 18.5H25.1C24.5 18.5 24.1 18.1 24.1 17.5C24.1 16.9 24.5 16.5 25.1 16.5H29.8C30.4 16.5 30.8 16.9 30.8 17.5C30.8 18.1 30.3 18.5 29.8 18.5Z" fill="#2A2A2A"/>
<path d="M43.2 18.5H38.5C37.9 18.5 37.5 18.1 37.5 17.5C37.5 16.9 37.9 16.5 38.5 16.5H43.2C43.8 16.5 44.2 16.9 44.2 17.5C44.2 18.1 43.7 18.5 43.2 18.5Z" fill="#2A2A2A"/>
<path d="M16.4 28.3999H11.7C11.1 28.3999 10.7 27.9999 10.7 27.3999C10.7 26.7999 11.1 26.3999 11.7 26.3999H16.4C17 26.3999 17.4 26.7999 17.4 27.3999C17.4 27.9999 16.9 28.3999 16.4 28.3999Z" fill="#2A2A2A"/>
<path d="M29.8 28.3999H25.1C24.5 28.3999 24.1 27.9999 24.1 27.3999C24.1 26.7999 24.5 26.3999 25.1 26.3999H29.8C30.4 26.3999 30.8 26.7999 30.8 27.3999C30.8 27.9999 30.3 28.3999 29.8 28.3999Z" fill="#2A2A2A"/>
<path d="M43.2 28.3999H38.5C37.9 28.3999 37.5 27.9999 37.5 27.3999C37.5 26.7999 37.9 26.3999 38.5 26.3999H43.2C43.8 26.3999 44.2 26.7999 44.2 27.3999C44.2 27.9999 43.7 28.3999 43.2 28.3999Z" fill="#2A2A2A"/>
<path d="M16.4 38.3999H11.7C11.1 38.3999 10.7 37.9999 10.7 37.3999C10.7 36.7999 11.1 36.3999 11.7 36.3999H16.4C17 36.3999 17.4 36.7999 17.4 37.3999C17.4 37.9999 16.9 38.3999 16.4 38.3999Z" fill="#2A2A2A"/>
<path d="M29.8 38.3999H25.1C24.5 38.3999 24.1 37.9999 24.1 37.3999C24.1 36.7999 24.5 36.3999 25.1 36.3999H29.8C30.4 36.3999 30.8 36.7999 30.8 37.3999C30.8 37.9999 30.3 38.3999 29.8 38.3999Z" fill="#2A2A2A"/>
<path d="M43.2 38.3999H38.5C37.9 38.3999 37.5 37.9999 37.5 37.3999C37.5 36.7999 37.9 36.3999 38.5 36.3999H43.2C43.8 36.3999 44.2 36.7999 44.2 37.3999C44.2 37.9999 43.7 38.3999 43.2 38.3999Z" fill="#2A2A2A"/>
</g>
<defs>
<clipPath id="clip0">
<rect width="54.9" height="54.9" fill="white"/>
</clipPath>
</defs>
</svg>
