<svg width="61" height="61" viewBox="0 0 61 61" fill="none" xmlns="http://www.w3.org/2000/svg">
<g clip-path="url(#clip0)">
<path d="M11.7996 60.3685C8.99963 60.3685 6.19963 59.2685 4.09963 57.1685L3.19963 56.2685C1.09963 54.2685 -0.000366211 51.4685 -0.000366211 48.5685C-0.000366211 45.6685 1.09963 42.8685 3.19963 40.8685L4.69963 39.3685C5.09963 38.9685 5.69963 38.9685 6.09963 39.3685C6.49963 39.7685 6.49963 40.3685 6.09963 40.7685L4.59963 42.2685C2.89963 43.9685 1.99963 46.1685 1.99963 48.5685C1.99963 50.9685 2.89963 53.1685 4.59963 54.8685L5.49963 55.7685C8.99963 59.2685 14.6996 59.2685 18.0996 55.7685L32.0996 41.7685C35.5996 38.2685 35.5996 32.5685 32.0996 29.1685L31.1996 28.2685C29.4996 26.5685 27.2996 25.6685 24.8996 25.6685C22.4996 25.6685 20.2996 26.5685 18.5996 28.2685L11.0996 35.7685C10.6996 36.1685 10.0996 36.1685 9.69963 35.7685C9.29963 35.3685 9.29963 34.7685 9.69963 34.3685L17.1996 26.8685C19.2996 24.7685 21.9996 23.6685 24.8996 23.6685C27.7996 23.6685 30.5996 24.7685 32.5996 26.8685L33.4996 27.7685C37.7996 32.0685 37.7996 38.9685 33.4996 43.2685L19.4996 57.2685C17.3996 59.3685 14.5996 60.3685 11.7996 60.3685Z" fill="#2A2A2A"/>
<path d="M7.59964 38.8686C7.29964 38.8686 7.09964 38.7686 6.89964 38.5686C6.49964 38.1686 6.49964 37.5686 6.89964 37.1686L7.49964 36.5686C7.89964 36.1686 8.49964 36.1686 8.89964 36.5686C9.29964 36.9686 9.29964 37.5686 8.89964 37.9686L8.29964 38.5686C8.09964 38.7686 7.79964 38.8686 7.59964 38.8686Z" fill="#2A2A2A"/>
<path d="M39.0996 36.2687C38.6996 36.2687 38.2996 36.0687 38.1996 35.6687C37.9996 35.1687 38.1996 34.5687 38.6996 34.3687C39.7996 33.9687 40.7996 33.2687 41.5996 32.4687L50.3996 23.6687C50.7996 23.2687 51.3996 23.2687 51.7996 23.6687C52.1996 24.0687 52.1996 24.6687 51.7996 25.0687L42.9996 33.7687C41.9996 34.7687 40.7996 35.5687 39.3996 36.1687C39.2996 36.1687 39.1996 36.2687 39.0996 36.2687Z" fill="#2A2A2A"/>
<path d="M32.4996 36.5687C32.3996 36.5687 32.2996 36.5687 32.1996 36.5687C30.3996 36.0687 28.7996 35.0686 27.4996 33.7687L26.5996 32.8687C24.4996 30.7687 23.3996 28.0687 23.3996 25.1687C23.3996 22.2687 24.4996 19.4687 26.5996 17.4687L40.5996 3.46865C44.8996 -0.831348 51.7996 -0.831348 56.0996 3.46865L56.9996 4.26865C59.0996 6.36865 60.1996 9.06865 60.1996 11.9687C60.1996 14.8687 59.0996 17.6687 56.9996 19.6687L54.0996 22.5687C53.6996 22.9687 53.0996 22.9687 52.6996 22.5687C52.2996 22.1687 52.2996 21.5687 52.6996 21.1687L55.5996 18.2687C57.2996 16.5687 58.1996 14.3687 58.1996 11.9687C58.1996 9.56865 57.2996 7.36865 55.5996 5.66865L54.6996 4.76865C51.1996 1.26865 45.4996 1.26865 42.0996 4.76865L28.0996 18.7687C26.3996 20.4687 25.4996 22.6687 25.4996 25.0687C25.4996 27.4687 26.3996 29.6687 28.0996 31.3687L28.9996 32.2687C30.0996 33.3686 31.3996 34.0687 32.7996 34.5687C33.2996 34.7687 33.5996 35.2687 33.4996 35.7687C33.2996 36.2687 32.8996 36.5687 32.4996 36.5687Z" fill="#2A2A2A"/>
<path d="M43.7996 17.5686C43.4996 17.5686 43.2996 17.4686 43.0996 17.2686C42.6996 16.8686 42.6996 16.2686 43.0996 15.8686L43.3996 15.5686C43.7996 15.1686 44.3996 15.1686 44.7996 15.5686C45.1996 15.9686 45.1996 16.5686 44.7996 16.9686L44.4996 17.2686C44.2996 17.4686 44.0996 17.5686 43.7996 17.5686Z" fill="#2A2A2A"/>
<path d="M22.0996 39.3688C21.7996 39.3688 21.5996 39.2688 21.3996 39.0688C20.9996 38.6688 20.9996 38.0688 21.3996 37.6688L41.1996 17.8688C41.5996 17.4688 42.1996 17.4688 42.5996 17.8688C42.9996 18.2688 42.9996 18.8688 42.5996 19.2688L22.7996 39.0688C22.5996 39.2688 22.2996 39.3688 22.0996 39.3688Z" fill="#2A2A2A"/>
<path d="M16.0996 45.3688C15.7996 45.3688 15.5996 45.2688 15.3996 45.0688C14.9996 44.6688 14.9996 44.0688 15.3996 43.6688L19.1996 39.8688C19.5996 39.4688 20.1996 39.4688 20.5996 39.8688C20.9996 40.2688 20.9996 40.8688 20.5996 41.2688L16.7996 45.0688C16.5996 45.2688 16.2996 45.3688 16.0996 45.3688Z" fill="#2A2A2A"/>
</g>
<defs>
<clipPath id="clip0">
<rect width="60.2" height="60.2" fill="white" transform="translate(-0.000366211 0.168457)"/>
</clipPath>
</defs>
</svg>
