<svg width="50" height="50" viewBox="0 0 50 50" fill="none" xmlns="http://www.w3.org/2000/svg">
<circle cx="25" cy="25" r="25" transform="rotate(-180 25 25)" fill="#2A2A2A"/>
<path d="M16.2066 24.9582C16.2066 24.8254 16.2066 24.8254 16.2066 24.6926C16.2066 24.5598 16.3393 24.5598 16.3393 24.427L21.6508 19.1156C21.9164 18.9828 22.182 18.85 22.3148 18.85C22.4475 18.85 22.8459 18.9828 22.9787 19.1156C23.1115 19.2484 23.2443 19.5139 23.2443 19.6467C23.2443 19.9123 23.1115 20.0451 22.9787 20.1779L19.1279 24.0287L33.2033 24.0287C33.6016 24.1615 34 24.5598 34 24.9582C34 25.3566 33.6016 25.7549 33.2033 25.7549L19.1279 25.7549L22.9787 29.6057C23.1115 29.8713 23.2443 30.0041 23.2443 30.2697C23.2443 30.5352 23.1115 30.668 22.9787 30.8008C22.7131 31.0664 22.182 31.0664 21.7836 30.8008L16.4721 25.4893C16.4721 25.3566 16.3393 25.3566 16.3393 25.2238C16.3393 25.2238 16.2066 25.091 16.2066 24.9582Z" fill="white"/>
</svg>
