<svg width="38" height="38" viewBox="0 0 38 38" fill="none" xmlns="http://www.w3.org/2000/svg">
<g filter="url(#filter0_d)">
<path d="M28 26.8502L24.5033 23.3612L24.543 23.2819C27.1656 20.0308 26.8874 15.3524 23.947 12.3789C22.3973 10.8326 20.3311 10 18.1854 10C16 10 13.9338 10.8326 12.3841 12.3789C10.8344 13.9251 10 15.9868 10 18.1674C10 20.348 10.8344 22.4097 12.3841 23.9559C13.9735 25.5022 16.0397 26.3348 18.1854 26.3348C20.053 26.3348 21.8808 25.7004 23.3113 24.5507L23.3907 24.511L26.8874 28L28 26.8502ZM24.7417 18.2467C24.7417 21.8546 21.8013 24.7885 18.1854 24.7885C14.5695 24.7885 11.5894 21.8546 11.5894 18.2467C11.5894 14.6388 14.5298 11.7048 18.1457 11.7048C21.7616 11.7048 24.7417 14.6388 24.7417 18.2467Z" fill="white"/>
</g>
<defs>
<filter id="filter0_d" x="0" y="0" width="38" height="38" filterUnits="userSpaceOnUse" color-interpolation-filters="sRGB">
<feFlood flood-opacity="0" result="BackgroundImageFix"/>
<feColorMatrix in="SourceAlpha" type="matrix" values="0 0 0 0 0 0 0 0 0 0 0 0 0 0 0 0 0 0 127 0"/>
<feOffset/>
<feGaussianBlur stdDeviation="5"/>
<feColorMatrix type="matrix" values="0 0 0 0 0 0 0 0 0 0 0 0 0 0 0 0 0 0 0.25 0"/>
<feBlend mode="normal" in2="BackgroundImageFix" result="effect1_dropShadow"/>
<feBlend mode="normal" in="SourceGraphic" in2="effect1_dropShadow" result="shape"/>
</filter>
</defs>
</svg>
