<svg width="18" height="18" viewBox="0 0 18 18" fill="none" xmlns="http://www.w3.org/2000/svg">
<path d="M18 16.8502L14.5033 13.3612L14.543 13.2819C17.1656 10.0308 16.8874 5.35242 13.947 2.37885C12.3973 0.832599 10.3311 0 8.18543 0C6 0 3.93377 0.832599 2.38411 2.37885C0.834437 3.92511 0 5.98678 0 8.1674C0 10.348 0.834437 12.4097 2.38411 13.9559C3.97351 15.5022 6.03973 16.3348 8.18543 16.3348C10.053 16.3348 11.8808 15.7004 13.3113 14.5507L13.3907 14.511L16.8874 18L18 16.8502ZM14.7417 8.2467C14.7417 11.8546 11.8013 14.7885 8.18543 14.7885C4.56954 14.7885 1.5894 11.8546 1.5894 8.2467C1.5894 4.63877 4.5298 1.70485 8.14569 1.70485C11.7616 1.70485 14.7417 4.63877 14.7417 8.2467Z" fill="#2A2A2A"/>
</svg>
