<svg width="50" height="50" viewBox="0 0 50 50" fill="none" xmlns="http://www.w3.org/2000/svg">
<circle cx="25" cy="25" r="25" fill="#2A2A2A"/>
<path d="M33.7934 25.0418C33.7934 25.1746 33.7934 25.1746 33.7934 25.3074C33.7934 25.4402 33.6607 25.4402 33.6607 25.573L28.3492 30.8844C28.0836 31.0172 27.818 31.15 27.6852 31.15C27.5525 31.15 27.1541 31.0172 27.0213 30.8844C26.8885 30.7516 26.7557 30.4861 26.7557 30.3533C26.7557 30.0877 26.8885 29.9549 27.0213 29.8221L30.8721 25.9713H16.7967C16.3984 25.8385 16 25.4402 16 25.0418C16 24.6434 16.3984 24.2451 16.7967 24.2451H30.8721L27.0213 20.3943C26.8885 20.1287 26.7557 19.9959 26.7557 19.7303C26.7557 19.4648 26.8885 19.332 27.0213 19.1992C27.2869 18.9336 27.818 18.9336 28.2164 19.1992L33.5279 24.5107C33.5279 24.6434 33.6607 24.6434 33.6607 24.7762C33.6607 24.7762 33.7934 24.909 33.7934 25.0418Z" fill="white"/>
</svg>
