<svg width="79" height="18" viewBox="0 0 79 18" fill="none" xmlns="http://www.w3.org/2000/svg">
<path d="M27.88 13.36C27.36 13.36 26.89 13.27 26.47 13.08C26.05 12.9 25.7 12.65 25.4 12.34C25.11 12.03 24.88 11.66 24.72 11.25C24.56 10.83 24.48 10.4 24.48 9.94002C24.48 9.49002 24.56 9.05002 24.72 8.63002C24.88 8.22002 25.11 7.85002 25.41 7.54002C25.71 7.23002 26.07 6.98002 26.48 6.80002C26.9 6.61002 27.36 6.52002 27.87 6.52002C28.38 6.52002 28.85 6.61002 29.26 6.80002C29.68 6.98002 30.03 7.23002 30.33 7.54002C30.63 7.85002 30.86 8.22002 31.02 8.63002C31.18 9.05002 31.26 9.48002 31.26 9.94002C31.26 10.39 31.18 10.83 31.02 11.25C30.86 11.67 30.63 12.03 30.33 12.34C30.03 12.65 29.67 12.9 29.26 13.08C28.86 13.27 28.39 13.36 27.88 13.36ZM25.91 9.96002C25.91 10.28 25.96 10.57 26.06 10.84C26.16 11.11 26.3 11.34 26.48 11.54C26.66 11.74 26.86 11.89 27.1 12.01C27.34 12.12 27.6 12.18 27.88 12.18C28.16 12.18 28.42 12.12 28.66 12.01C28.9 11.9 29.11 11.74 29.28 11.54C29.46 11.34 29.6 11.1 29.7 10.83C29.8 10.56 29.85 10.27 29.85 9.95002C29.85 9.64002 29.8 9.35002 29.7 9.07002C29.6 8.79002 29.46 8.56002 29.28 8.36002C29.11 8.15002 28.9 8.00002 28.66 7.88002C28.42 7.77002 28.16 7.71002 27.88 7.71002C27.61 7.71002 27.36 7.77002 27.12 7.89002C26.88 8.01002 26.67 8.17002 26.5 8.37002C26.32 8.57002 26.18 8.81002 26.08 9.08002C25.97 9.35002 25.91 9.65002 25.91 9.96002Z" fill="#2A2A2A"/>
<path d="M40.27 10.9298C40.27 11.2898 40.2 11.6198 40.05 11.8998C39.9 12.1898 39.7 12.4298 39.46 12.6298C39.21 12.8298 38.92 12.9798 38.58 13.0798C38.24 13.1898 37.89 13.2398 37.51 13.2398H33.23V4.27979H37.85C38.16 4.27979 38.44 4.34978 38.69 4.47978C38.94 4.60978 39.16 4.78978 39.33 4.99978C39.51 5.20978 39.64 5.45978 39.74 5.72978C39.84 5.99978 39.89 6.27978 39.89 6.55978C39.89 6.99978 39.78 7.40978 39.56 7.78978C39.34 8.16979 39.02 8.45979 38.61 8.63979C39.12 8.78979 39.53 9.06979 39.83 9.46979C40.12 9.86979 40.27 10.3598 40.27 10.9298ZM34.64 5.49978V8.13979H37.24C37.42 8.13979 37.58 8.10978 37.73 8.03978C37.88 7.96978 38.01 7.87978 38.12 7.76978C38.23 7.65979 38.32 7.51979 38.38 7.35979C38.44 7.19978 38.47 7.01978 38.47 6.82978C38.47 6.43979 38.36 6.12979 38.14 5.87979C37.92 5.62979 37.64 5.50979 37.31 5.50979H34.64V5.49978ZM38.82 10.6598C38.82 10.4798 38.79 10.2998 38.72 10.1298C38.66 9.95978 38.57 9.80978 38.47 9.68978C38.36 9.55978 38.24 9.45979 38.09 9.38979C37.94 9.31979 37.77 9.27978 37.6 9.27978H34.65V12.0198H37.51C37.69 12.0198 37.87 11.9898 38.03 11.9098C38.19 11.8398 38.33 11.7398 38.45 11.6198C38.57 11.4998 38.66 11.3598 38.73 11.1898C38.79 11.0198 38.82 10.8498 38.82 10.6598Z" fill="#2A2A2A"/>
<path d="M44.23 13.3596C43.54 13.3596 43.02 13.1396 42.67 12.6896C42.32 12.2396 42.14 11.5696 42.14 10.6796V6.63965H43.53V10.3996C43.53 11.5896 43.95 12.1796 44.79 12.1796C45.18 12.1796 45.56 12.0596 45.91 11.8096C46.26 11.5696 46.54 11.2096 46.73 10.7496V6.63965H48.12V11.5996C48.12 11.7596 48.15 11.8696 48.2 11.9396C48.25 12.0096 48.35 12.0496 48.5 12.0496V13.2396C48.36 13.2696 48.24 13.2796 48.15 13.2896C48.06 13.2996 47.97 13.2996 47.89 13.2996C47.64 13.2996 47.42 13.2296 47.25 13.0896C47.07 12.9496 46.98 12.7696 46.97 12.5496L46.94 11.8896C46.65 12.3696 46.26 12.7296 45.79 12.9796C45.32 13.2296 44.79 13.3596 44.23 13.3596Z" fill="#2A2A2A"/>
<path d="M56.43 13.2398H55.04V9.53977C55.04 8.91977 54.94 8.46977 54.74 8.17977C54.54 7.89977 54.25 7.75977 53.86 7.75977C53.66 7.75977 53.46 7.79977 53.26 7.86977C53.06 7.93977 52.87 8.04976 52.69 8.18976C52.51 8.32976 52.36 8.48977 52.22 8.67977C52.08 8.86977 51.97 9.07977 51.9 9.29977V13.2198H50.51V6.61977H51.77V7.93977C52.02 7.48977 52.39 7.13977 52.87 6.88977C53.35 6.62977 53.88 6.50977 54.46 6.50977C54.86 6.50977 55.18 6.57977 55.43 6.71977C55.68 6.85977 55.88 7.05977 56.03 7.30977C56.18 7.55977 56.28 7.83977 56.34 8.16977C56.4 8.48977 56.43 8.83977 56.43 9.19977V13.2398Z" fill="#2A2A2A"/>
<path d="M61.36 13.3598C60.91 13.3598 60.5 13.2698 60.12 13.0898C59.74 12.9098 59.41 12.6598 59.14 12.3498C58.86 12.0398 58.65 11.6798 58.49 11.2598C58.33 10.8398 58.26 10.3998 58.26 9.91979C58.26 9.45978 58.33 9.01978 58.48 8.61978C58.63 8.20978 58.83 7.84978 59.1 7.53978C59.37 7.22978 59.68 6.97979 60.03 6.79979C60.39 6.61979 60.78 6.52979 61.21 6.52979C61.74 6.52979 62.21 6.65978 62.61 6.90978C63.01 7.16978 63.33 7.48978 63.56 7.88978V4.02979H64.95V11.5998C64.95 11.7598 64.98 11.8698 65.03 11.9398C65.08 12.0098 65.18 12.0498 65.33 12.0498V13.2398C65.19 13.2698 65.07 13.2798 64.98 13.2898C64.89 13.2998 64.82 13.2998 64.76 13.2998C64.48 13.2998 64.26 13.2298 64.08 13.0898C63.9 12.9498 63.81 12.7598 63.79 12.5298L63.76 12.0398C63.52 12.4498 63.18 12.7798 62.76 13.0098C62.34 13.2398 61.88 13.3598 61.36 13.3598ZM61.7 12.1798C61.9 12.1798 62.1 12.1498 62.3 12.0798C62.5 12.0098 62.69 11.9198 62.86 11.7998C63.03 11.6798 63.17 11.5398 63.3 11.3798C63.42 11.2198 63.51 11.0498 63.56 10.8598V9.13979C63.48 8.92979 63.38 8.73979 63.24 8.55979C63.1 8.37979 62.94 8.22978 62.77 8.10978C62.59 7.97978 62.41 7.88979 62.21 7.81979C62.01 7.74979 61.81 7.71978 61.61 7.71978C61.33 7.71978 61.08 7.77978 60.85 7.90978C60.62 8.03978 60.42 8.19978 60.25 8.40978C60.08 8.61978 59.95 8.85979 59.85 9.12979C59.75 9.39979 59.71 9.67978 59.71 9.95978C59.71 10.2598 59.76 10.5498 59.87 10.8198C59.97 11.0898 60.12 11.3198 60.3 11.5298C60.48 11.7298 60.7 11.8898 60.94 12.0098C61.17 12.1198 61.43 12.1798 61.7 12.1798Z" fill="#2A2A2A"/>
<path d="M67.36 4.02979H68.75V11.3298C68.75 11.5698 68.81 11.7698 68.94 11.8998C69.07 12.0398 69.24 12.1098 69.47 12.1098C69.56 12.1098 69.67 12.0898 69.79 12.0598C69.91 12.0298 70.03 11.9898 70.14 11.9498L70.34 13.0398C70.14 13.1298 69.9 13.2098 69.62 13.2598C69.34 13.3098 69.09 13.3398 68.88 13.3398C68.4 13.3398 68.03 13.2098 67.76 12.9498C67.49 12.6898 67.36 12.3198 67.36 11.8398V4.02979Z" fill="#2A2A2A"/>
<path d="M74.76 13.36C74.25 13.36 73.78 13.27 73.36 13.09C72.94 12.91 72.58 12.66 72.28 12.35C71.98 12.04 71.75 11.68 71.59 11.26C71.43 10.85 71.34 10.41 71.34 9.95002C71.34 9.49002 71.42 9.05002 71.59 8.63002C71.75 8.22002 71.98 7.85002 72.28 7.53002C72.58 7.21002 72.94 6.97002 73.36 6.79002C73.78 6.61002 74.25 6.52002 74.77 6.52002C75.28 6.52002 75.75 6.61002 76.16 6.80002C76.58 6.98002 76.93 7.23002 77.23 7.54002C77.52 7.85002 77.75 8.20002 77.9 8.61002C78.06 9.02002 78.13 9.44002 78.13 9.89002C78.13 9.99002 78.13 10.09 78.12 10.17C78.11 10.25 78.1 10.33 78.09 10.39H72.8C72.83 10.68 72.89 10.95 73.01 11.18C73.12 11.42 73.27 11.62 73.45 11.79C73.63 11.96 73.84 12.1 74.07 12.19C74.3 12.28 74.54 12.33 74.8 12.33C74.99 12.33 75.17 12.31 75.35 12.26C75.53 12.21 75.7 12.15 75.85 12.06C76 11.97 76.14 11.86 76.25 11.74C76.37 11.61 76.46 11.48 76.53 11.32L77.72 11.66C77.49 12.16 77.12 12.56 76.59 12.88C76.07 13.2 75.46 13.36 74.76 13.36ZM76.77 9.44002C76.74 9.16002 76.67 8.91002 76.56 8.67002C76.45 8.43002 76.3 8.24002 76.13 8.07002C75.95 7.91002 75.75 7.78002 75.51 7.69002C75.27 7.60002 75.03 7.55002 74.77 7.55002C74.51 7.55002 74.26 7.60002 74.03 7.69002C73.8 7.78002 73.6 7.91002 73.42 8.07002C73.24 8.23002 73.1 8.43002 72.99 8.67002C72.88 8.91002 72.81 9.16002 72.79 9.44002H76.77Z" fill="#2A2A2A"/>
<g opacity="0.85">
<path d="M10.69 10.6899H6.60999L8.43998 17.2999H17.3V10.6899H10.69Z" fill="#2A2A2A"/>
<path d="M6.61 10.6899V6.60986L0 8.43986V17.2999H6.61V10.6899Z" fill="#2A2A2A"/>
<path d="M10.69 6.61L8.85 0H0V6.61H6.61H10.69Z" fill="#2A2A2A"/>
<path d="M17.2999 0H10.6899V6.61V10.69L17.2999 8.85V0Z" fill="#2A2A2A"/>
</g>
<path opacity="0.47" d="M10.69 0H0V6.61V17.3H6.61H17.3V10.69V0H10.69ZM6.61 10.69V6.61H10.69V10.69H6.61Z" fill="#2A2A2A"/>
</svg>
