<svg width="1920" height="155" viewBox="0 0 1920 155" fill="none" xmlns="http://www.w3.org/2000/svg">
<path d="M1920 0H0V17.8923C0.481445 17.6924 0.929199 17.4956 1.35303 17.3093L1.36426 17.3042L1.36865 17.302C3.02441 16.573 4.32617 16 5.9209 16C7.66846 16 11.1323 17.522 15.6787 19.5195C24.0283 23.1887 36.0249 28.4602 47.7241 28.8381C59.5273 29.2271 63.4658 27.0247 67.7144 24.6484C69.8418 23.4587 72.0474 22.2253 75.3569 21.252C82.2949 19.4153 86.8066 22.1465 93.2563 26.0508C96.0273 27.7285 99.1562 29.6226 102.989 31.4641C109.03 34.3665 116.661 35.1084 125.355 35.9536C135.015 36.8928 145.986 37.9597 157.546 42.2595C168.51 46.3376 175.237 53.6145 181.164 60.0256C187.11 66.4583 192.251 72.0195 200.058 72.604C210.145 73.5269 217.821 73.0483 223.085 72.72H223.09C224.321 72.6433 225.42 72.5747 226.388 72.5342C227.82 72.4744 228.962 72.4761 229.816 72.604C230.98 72.7783 232.872 73.3953 235.452 74.2371C241.51 76.2131 251.367 79.4285 264.534 81.0654C268.077 81.6489 271.62 82.5242 275.162 84.2749C277.248 84.0796 279.302 83.8845 281.319 83.6929C294.377 82.4517 305.894 81.3572 314.486 81.3572C351.404 81.3572 365.558 89.7888 381.118 99.0586C390.791 104.822 401.008 110.908 417.577 115.494C422.203 116.764 427.901 116.768 434.484 116.771H434.488C446.056 116.777 460.357 116.785 476.385 123.664C485.242 120.746 511.457 112.869 524.565 115.203C528.605 115.922 535.474 119.553 543.613 123.855C561.878 133.511 586.545 146.55 600.023 137.669C613.076 129.223 628.888 136.311 641.912 142.148C648.684 145.184 654.702 147.881 659.186 147.881C663.865 147.881 668.544 149.22 673.819 150.729C683.322 153.447 694.759 156.719 711.617 153.717C727.663 150.859 739.992 150.407 752.423 149.95C760.303 149.661 768.223 149.37 777.156 148.465C787.655 147.401 796.239 146.033 804.995 144.638L804.999 144.637C815.439 142.974 826.118 141.273 840.569 140.003C866.785 137.961 884.144 140.003 900.794 147.006C908.111 150.15 919.713 148.883 933.26 147.403C949.884 145.587 969.436 143.451 987.59 148.757C1008.25 154.613 1020.98 147.383 1034.93 139.451C1043.23 134.737 1051.96 129.776 1063.05 127.166C1070.63 125.359 1076.9 123.339 1082.67 121.477C1099.3 116.118 1111.89 112.058 1140.28 118.121C1148.43 119.871 1199.79 106.741 1205.46 104.699C1235.04 94.9136 1255.66 97.5664 1269.71 99.3733C1276.18 100.206 1281.26 100.859 1285.17 100.031C1290.84 98.8306 1294.73 99.2761 1299.86 99.8628C1305.94 100.56 1313.77 101.456 1328.39 100.031C1343.98 98.5107 1358.37 99.0437 1370.14 99.4792C1378.71 99.7961 1385.88 100.062 1391.1 99.447C1397.3 98.7173 1409.44 102.807 1421.36 106.821C1433.27 110.831 1444.95 114.765 1450.26 113.744C1454.67 112.896 1461.6 109.278 1469.09 105.36C1479.64 99.8447 1491.34 93.7329 1498.79 93.9036C1511.19 93.9036 1525.72 99.447 1525.72 99.447C1525.72 99.447 1599.76 86.0256 1626.33 83.9832C1654.93 81.7957 1677.41 83.6843 1694.44 85.1152C1706.94 86.1653 1716.5 86.9688 1723.4 85.7339C1727.9 85.0081 1735.55 83.3235 1744.75 81.2964C1768.83 75.9905 1803.55 68.3391 1820.47 69.3945C1822.18 69.521 1824.17 69.6641 1826.4 69.8218C1828.88 69.9973 1831.64 70.1912 1834.62 70.4004C1861.02 72.2515 1904.74 75.3171 1920 77.7173V0Z" fill="#F2F2F2"/>
</svg>
