<svg width="1920" height="150" viewBox="0 0 1920 150" fill="none" xmlns="http://www.w3.org/2000/svg">
<path d="M1898.55 7.07812C1909.43 8.43652 1918.31 9.5459 1920 8.573V150H0V66.134C2.87061 63.5391 56.5864 59.4045 86.7144 57.0859L86.7979 57.0793L87.0864 57.0574L87.4185 57.0317C92.5371 56.6375 96.9414 56.2981 100.25 56.0303C116.422 54.9226 149.612 62.95 172.631 68.5173L172.637 68.5188C181.434 70.6467 188.743 72.4146 193.05 73.1763C199.644 74.4722 208.786 73.6289 220.733 72.5269C237.014 71.0254 258.502 69.0435 285.85 71.3391C311.25 73.4824 382.036 87.5664 382.036 87.5664C382.036 87.5664 395.922 81.749 407.775 81.749C414.904 81.5701 426.083 87.9839 436.171 93.7712C443.338 97.8831 449.955 101.679 454.175 102.569C459.253 103.64 470.419 99.5122 481.801 95.3047C493.197 91.0916 504.806 86.8005 510.735 87.5664C515.726 88.2112 522.578 87.9326 530.759 87.6001H530.772C542.021 87.1431 555.785 86.584 570.683 88.1787C584.658 89.6748 592.144 88.7341 597.964 88.0027C602.864 87.387 606.584 86.9194 612.002 88.1787C615.743 89.0483 620.597 88.363 626.787 87.489C640.212 85.593 659.925 82.8093 688.206 93.0776C693.625 95.2209 742.734 108.999 750.524 107.162C777.667 100.8 789.703 105.06 805.593 110.683C811.117 112.638 817.106 114.758 824.357 116.653C834.962 119.392 843.308 124.599 851.237 129.545C864.579 137.869 876.74 145.456 896.497 139.31C913.852 133.743 932.544 135.984 948.438 137.89C961.388 139.443 972.479 140.772 979.475 137.473C995.393 130.125 1011.99 127.982 1037.05 130.125C1050.87 131.458 1061.08 133.243 1071.06 134.989C1079.43 136.452 1087.64 137.887 1097.67 139.004C1106.22 139.954 1113.79 140.26 1121.32 140.563C1133.21 141.042 1144.99 141.517 1160.33 144.515C1176.45 147.666 1187.38 144.232 1196.47 141.38C1201.51 139.796 1205.98 138.392 1210.46 138.392C1214.74 138.392 1220.5 135.561 1226.97 132.376C1239.42 126.25 1254.54 118.812 1267.02 127.676C1279.9 136.995 1303.48 123.312 1320.95 113.18C1328.73 108.665 1335.29 104.855 1339.16 104.1C1351.69 101.651 1376.75 109.917 1385.22 112.979C1400.54 105.76 1414.21 105.752 1425.27 105.746C1431.57 105.742 1437.02 105.739 1441.44 104.406C1457.28 99.594 1467.05 93.2073 1476.29 87.1604L1476.3 87.1589C1491.17 77.4316 1504.7 68.5835 1540 68.5835C1548.21 68.5835 1559.21 69.731 1571.68 71.0322L1571.69 71.033L1574.94 71.3711C1575.82 71.4622 1576.7 71.5537 1577.59 71.6453C1580.98 69.8081 1584.36 68.8896 1587.75 68.2773C1600.34 66.5596 1609.76 63.1853 1615.55 61.1116C1618.02 60.2283 1619.83 59.5811 1620.94 59.3982C1622.31 59.1733 1624.46 59.3201 1627.38 59.52H1627.38C1632.41 59.8645 1639.75 60.3667 1649.39 59.3982C1656.85 58.7849 1661.77 52.9492 1667.45 46.199C1673.12 39.4712 1679.55 31.8352 1690.03 27.5559C1701.09 23.0437 1711.57 21.9243 1720.81 20.9387H1720.81C1729.12 20.0515 1736.42 19.2727 1742.19 16.2273C1745.86 14.2949 1748.85 12.3074 1751.5 10.5469C1757.66 6.44971 1761.98 3.58374 1768.61 5.51123C1771.77 6.53271 1773.88 7.8269 1775.91 9.07544C1779.98 11.5688 1783.74 13.8799 1795.03 13.4717C1806.21 13.0752 1817.68 7.54346 1825.66 3.69336L1825.66 3.69263C1830.01 1.59717 1833.32 0 1834.99 0C1836.51 0 1837.76 0.601318 1839.34 1.36646C1842.68 2.9812 1847.53 5.3252 1859.71 4.28638C1869.52 3.45068 1885.48 5.44434 1898.55 7.07812Z" fill="#F2F2F2"/>
</svg>
