<svg width="17" height="15" viewBox="0 0 17 15" fill="none" xmlns="http://www.w3.org/2000/svg">
<path d="M16.81 1.98035C16.19 2.25035 15.53 2.44035 14.83 2.52035C15.54 2.09035 16.09 1.42035 16.35 0.610352C15.68 1.01035 14.94 1.29035 14.16 1.45035C13.53 0.780352 12.63 0.360352 11.64 0.360352C9.73 0.360352 8.19 1.91035 8.19 3.81035C8.19 4.08035 8.22 4.34035 8.28 4.60035C5.41 4.46035 2.87 3.08035 1.16 0.990352C0.86 1.50035 0.689999 2.09035 0.689999 2.73035C0.689999 3.93035 1.3 4.98035 2.23 5.60035C1.66 5.58035 1.13 5.43035 0.669998 5.17035C0.669998 5.18035 0.669998 5.20035 0.669998 5.21035C0.669998 6.88035 1.86 8.28035 3.44 8.60035C3.15 8.68035 2.85 8.72035 2.53 8.72035C2.31 8.72035 2.09 8.70035 1.88 8.66035C2.32 10.0304 3.59 11.0304 5.11 11.0604C3.93 11.9904 2.44 12.5404 0.82 12.5404C0.54 12.5404 0.27 12.5204 0 12.4904C1.53 13.4704 3.34 14.0404 5.29 14.0404C11.64 14.0404 15.11 8.78035 15.11 4.22035C15.11 4.07035 15.11 3.92035 15.1 3.77035C15.76 3.28035 16.34 2.67035 16.81 1.98035Z" fill="#2A2A2A"/>
</svg>
